<svg class="panel-animated" xmlns="http://www.w3.org/2000/svg" viewBox="0 0 3800 1200">

<defs>
<style>
svg {
--panel-3-building-duration: .26s;
--panel-3-building-step: .22s;
--panel-3-fill-accent: #e9b235;
--panel-3-fill-lightest: #fff;
--panel-3-fill-muted: #b2b095;
--panel-3-fill-primary: #4f6a9a;
--panel-3-fill-secondary: #c7d3e9;
--panel-3-fill-text: #182952;
--panel-3-stroke-line: #16599c;
--panel-3-stroke-primary: #4f6a9a;
}

@keyframes panel-3-building-reveal {
from { opacity: 0; }
to { opacity: 1; }
}

@keyframes panel-3-line-draw {
from { stroke-dashoffset: 1; }
to { stroke-dashoffset: 0; }
}

.panel-3-building [fill="#182952"] { fill: var(--panel-3-fill-text); }
.panel-3-building [fill="#4f6a9a"] { fill: var(--panel-3-fill-primary); }
.panel-3-building [fill="#b2b095"] { fill: var(--panel-3-fill-muted); }
.panel-3-building [fill="#c7d3e9"] { fill: var(--panel-3-fill-secondary); }
.panel-3-building [fill="#e9b235"] { fill: var(--panel-3-fill-accent); }
.panel-3-building [fill="#fff"] { fill: var(--panel-3-fill-lightest); }

.panel-3-building [stroke="#4f6a9a"] { stroke: var(--panel-3-stroke-primary); }

.panel-3-building > * {
animation-delay: var(--panel-3-building-delay, 0s);
animation-duration: var(--panel-3-building-duration);
animation-fill-mode: forwards;
animation-name: panel-3-building-reveal;
animation-play-state: paused;
animation-timing-function: ease;
opacity: 0;
}

.panel-3-building:nth-of-type(1) > * { --panel-3-building-delay: calc(0 * var(--panel-3-building-step)); }
.panel-3-building:nth-of-type(2) > * { --panel-3-building-delay: calc(1 * var(--panel-3-building-step)); }
.panel-3-building:nth-of-type(3) > * { --panel-3-building-delay: calc(2 * var(--panel-3-building-step)); }
.panel-3-building:nth-of-type(4) > * { --panel-3-building-delay: calc(3 * var(--panel-3-building-step)); }
.panel-3-building:nth-of-type(5) > * { --panel-3-building-delay: calc(4 * var(--panel-3-building-step)); }
.panel-3-building:nth-of-type(6) > * { --panel-3-building-delay: calc(5 * var(--panel-3-building-step)); }
.panel-3-building:nth-of-type(7) > * { --panel-3-building-delay: calc(6 * var(--panel-3-building-step)); }
.panel-3-building:nth-of-type(8) > * { --panel-3-building-delay: calc(7 * var(--panel-3-building-step)); }
.panel-3-building:nth-of-type(9) > * { --panel-3-building-delay: calc(8 * var(--panel-3-building-step)); }
.panel-3-building:nth-of-type(10) > * { --panel-3-building-delay: calc(9 * var(--panel-3-building-step)); }
.panel-3-building:nth-of-type(11) > * { --panel-3-building-delay: calc(10 * var(--panel-3-building-step)); }
.panel-3-building:nth-of-type(12) > * { --panel-3-building-delay: calc(11 * var(--panel-3-building-step)); }
.panel-3-building:nth-of-type(13) > * { --panel-3-building-delay: calc(12 * var(--panel-3-building-step)); }
.panel-3-building:nth-of-type(14) > * { --panel-3-building-delay: calc(13 * var(--panel-3-building-step)); }
.panel-3-building:nth-of-type(15) > * { --panel-3-building-delay: calc(14 * var(--panel-3-building-step)); }
.panel-3-building:nth-of-type(16) > * { --panel-3-building-delay: calc(15 * var(--panel-3-building-step)); }
.panel-3-building:nth-of-type(17) > * { --panel-3-building-delay: calc(16 * var(--panel-3-building-step)); }
.panel-3-building:nth-of-type(18) > * { --panel-3-building-delay: calc(17 * var(--panel-3-building-step)); }
.panel-3-building:nth-of-type(19) > * { --panel-3-building-delay: calc(18 * var(--panel-3-building-step)); }
.panel-3-building:nth-of-type(20) > * { --panel-3-building-delay: calc(19 * var(--panel-3-building-step)); }
.panel-3-building:nth-of-type(21) > * { --panel-3-building-delay: calc(20 * var(--panel-3-building-step)); }

.panel-3-line {
animation-delay: 0s;
animation-duration: calc((20 * var(--panel-3-building-step)) + var(--panel-3-building-duration));
animation-fill-mode: forwards;
animation-name: panel-3-line-draw;
animation-play-state: paused;
animation-timing-function: linear;
stroke: var(--panel-3-stroke-line);
stroke-dasharray: 1;
stroke-dashoffset: 1;
}

.panel-trees [fill="#4f6a9a"] { fill: var(--panel-3-fill-primary); }

@media (prefers-reduced-motion: reduce) {
.panel-3-building > * {
animation: none;
opacity: 1;
}

.panel-3-line {
animation: none;
stroke-dashoffset: 0;
}
}
</style>
</defs>

<g class="panel-3-building" fill-rule="evenodd">
<path fill="#e9b235" fill-rule="nonzero" d="M414 335.5h-4v-219h4z"/>
<path fill="#182952" fill-rule="nonzero" d="M161.18 340.07q2.85 0 5.08-.96 2.25-.95 3.8-2.69a12 12 0 0 0 2.36-4.12q.82-2.4.82-5.28v-27.88h6.18v27.88q0 3.97-1.27 7.36a17 17 0 0 1-3.61 5.87 16.5 16.5 0 0 1-5.75 3.89 20 20 0 0 1-7.61 1.4 20 20 0 0 1-7.62-1.4 17 17 0 0 1-5.76-3.9 17 17 0 0 1-3.63-5.86 21 21 0 0 1-1.27-7.36v-27.88h6.18v27.84q0 2.88.82 5.28t2.36 4.13a11 11 0 0 0 3.81 2.7q2.25.99 5.1.98m32.1-40.93q.83 0 1.22.21.4.2.92.85l26.56 34.56a22 22 0 0 1-.16-3.14v-32.48h5.44V345h-3.14q-.74 0-1.23-.26a3 3 0 0 1-.98-.86l-26.53-34.53a41 41 0 0 1 .13 2.98V345h-5.44v-45.86zM245.81 345h-6.21v-45.86h6.2zm43.52-45.86v5.22h-14.82V345h-6.2v-40.64h-14.89v-5.22zm30.01 7.17q-.3.48-.6.72-.33.24-.84.24-.54 0-1.26-.54t-1.83-1.2a15 15 0 0 0-2.65-1.2 11 11 0 0 0-3.76-.55q-2.09.01-3.68.56a8 8 0 0 0-2.67 1.52 6 6 0 0 0-1.62 2.26q-.54 1.3-.54 2.8 0 1.92.94 3.18a8 8 0 0 0 2.5 2.16q1.54.9 3.52 1.56l4.03 1.36q2.06.7 4.03 1.58t3.52 2.22 2.5 3.3.94 4.8q0 3-1.02 5.65a13 13 0 0 1-3 4.59 14 14 0 0 1-4.83 3.07q-2.86 1.12-6.51 1.12-4.45 0-8.11-1.61a19 19 0 0 1-6.26-4.37l1.8-2.95q.24-.35.62-.59.37-.24.81-.24.67 0 1.54.72t2.16 1.59q1.28.86 3.14 1.58 1.83.72 4.5.72 2.2 0 3.93-.6a8 8 0 0 0 2.93-1.72 7.4 7.4 0 0 0 1.84-2.64q.63-1.54.64-3.42 0-2.1-.95-3.41a8 8 0 0 0-2.48-2.23q-1.53-.9-3.5-1.52l-4.03-1.28a41 41 0 0 1-4.04-1.52 13 13 0 0 1-3.5-2.24 10 10 0 0 1-2.48-3.44 12 12 0 0 1-.94-5.1 12.2 12.2 0 0 1 3.68-8.74 13 13 0 0 1 4.43-2.81q2.64-1.05 6.06-1.06 3.84 0 7.01 1.22 3.17 1.2 5.54 3.52zm214 21.54V345h-6.17v-45.86h13.53q4.36 0 7.57 1.01 3.21 1 5.33 2.87a11.5 11.5 0 0 1 3.15 4.48q1.05 2.63 1.04 5.85 0 3.2-1.12 5.86a12.6 12.6 0 0 1-3.28 4.57 15 15 0 0 1-5.36 3 23 23 0 0 1-7.33 1.07zm0-4.93h7.36q2.66 0 4.69-.7a10 10 0 0 0 3.4-1.97 8 8 0 0 0 2.09-3.03q.7-1.75.7-3.87 0-4.38-2.7-6.85t-8.18-2.46h-7.36zm74.88-.83q0 5.14-1.63 9.45a20.6 20.6 0 0 1-11.76 12.22 24 24 0 0 1-9.23 1.72 24 24 0 0 1-9.22-1.71 20.6 20.6 0 0 1-11.74-12.23 27 27 0 0 1-1.63-9.45q0-5.16 1.63-9.46a22 22 0 0 1 4.6-7.42 21 21 0 0 1 7.14-4.85 24 24 0 0 1 9.22-1.73q5.06 0 9.23 1.73a21 21 0 0 1 7.15 4.85 22 22 0 0 1 4.61 7.42 27 27 0 0 1 1.63 9.46m-6.37 0q0-4.23-1.15-7.59a16 16 0 0 0-3.26-5.68 14 14 0 0 0-5.12-3.56q-3-1.25-6.72-1.25-3.68 0-6.69 1.25-3 1.25-5.14 3.56a16 16 0 0 0-3.28 5.68 23 23 0 0 0-1.15 7.59q0 4.22 1.15 7.57a16 16 0 0 0 3.28 5.66 14 14 0 0 0 5.14 3.55q3 1.23 6.69 1.23t6.72-1.23a14 14 0 0 0 5.12-3.55q2.11-2.32 3.26-5.66a23 23 0 0 0 1.15-7.57m21.67 3.77V345h-6.18v-45.86h12.96q4.35 0 7.52.88 3.17.9 5.23 2.55 2.07 1.66 3.06 4.01 1 2.36 1 5.27 0 2.43-.78 4.54a12 12 0 0 1-2.22 3.8 13 13 0 0 1-3.55 2.86q-2.1 1.18-4.75 1.79 1.15.68 2.04 1.95L651.24 345h-5.5q-1.7 0-2.5-1.31l-11.9-16.39a3.5 3.5 0 0 0-1.19-1.1 4 4 0 0 0-1.92-.34zm0-4.5h6.5q2.7 0 4.78-.66a10 10 0 0 0 3.45-1.86 8 8 0 0 0 2.1-2.86q.7-1.67.7-3.68 0-4.1-2.7-6.18t-8.05-2.08h-6.78zm65.63-22.22v5.22h-14.82V345h-6.2v-40.64h-14.88v-5.22zm34.78 0v5.06h-22.01v16.03h18.81v5.06h-18.81V345h-6.24v-45.86zm50.56 22.95q0 5.14-1.63 9.45a20.6 20.6 0 0 1-11.76 12.22 24 24 0 0 1-9.23 1.72 24 24 0 0 1-9.22-1.71 20.6 20.6 0 0 1-11.74-12.23 27 27 0 0 1-1.63-9.45q0-5.16 1.63-9.46a22 22 0 0 1 4.6-7.42 21 21 0 0 1 7.14-4.85 24 24 0 0 1 9.22-1.73q5.06 0 9.23 1.73a21 21 0 0 1 7.15 4.85 22 22 0 0 1 4.61 7.42 27 27 0 0 1 1.63 9.46m-6.36 0q0-4.23-1.16-7.59a16 16 0 0 0-3.26-5.68 14 14 0 0 0-5.12-3.56q-3-1.25-6.72-1.25-3.67 0-6.69 1.25-3 1.25-5.13 3.56a16 16 0 0 0-3.28 5.68 23 23 0 0 0-1.16 7.59q0 4.22 1.16 7.57a16 16 0 0 0 3.28 5.66 14 14 0 0 0 5.13 3.55q3 1.23 6.69 1.23t6.72-1.23a14 14 0 0 0 5.12-3.55q2.11-2.32 3.26-5.66a23 23 0 0 0 1.16-7.57m21.05 17.7h19.84V345h-26.05v-45.86h6.21zm34.05 5.21h-6.2v-45.86h6.2zm54.88-22.91q0 5.14-1.63 9.45a20.6 20.6 0 0 1-11.76 12.22 24 24 0 0 1-9.23 1.72 24 24 0 0 1-9.22-1.71 20.6 20.6 0 0 1-11.74-12.23 27 27 0 0 1-1.64-9.45q0-5.16 1.64-9.46a22 22 0 0 1 4.6-7.42 21 21 0 0 1 7.14-4.85 24 24 0 0 1 9.22-1.73q5.05 0 9.23 1.73a21 21 0 0 1 7.15 4.85 22 22 0 0 1 4.6 7.42 27 27 0 0 1 1.64 9.46m-6.37 0q0-4.23-1.15-7.59a16 16 0 0 0-3.26-5.68 14 14 0 0 0-5.12-3.56q-3-1.25-6.72-1.25-3.69 0-6.7 1.25-3 1.25-5.13 3.56a16 16 0 0 0-3.28 5.68 23 23 0 0 0-1.15 7.59q0 4.22 1.15 7.57a16 16 0 0 0 3.28 5.66 14 14 0 0 0 5.14 3.55q3 1.23 6.69 1.23t6.72-1.23a14 14 0 0 0 5.12-3.55q2.11-2.32 3.26-5.66a23 23 0 0 0 1.15-7.57"/>
<path fill="#b2b095" fill-rule="nonzero" d="M183.45 140.43v9.75q0 4.13-.9 6.68t-1.73 4.35l-38.17 80.85a14 14 0 0 1-4.42 5.43q-2.93 2.22-7.73 2.22h-16.95l39-78.23a40 40 0 0 1 3.41-5.77 49 49 0 0 1 4.02-4.88H111.9q-1.05 0-1.99-.41a5 5 0 0 1-1.65-1.13 6 6 0 0 1-1.16-1.65 4.4 4.4 0 0 1-.45-1.91v-15.3zm88.05 54.6q0 14.33-3.07 24.83-3.09 10.5-8.52 17.4a34 34 0 0 1-12.9 10.27 39 39 0 0 1-16.16 3.38q-8.7 0-16.09-3.38a34 34 0 0 1-12.78-10.27q-5.4-6.9-8.44-17.4t-3.04-24.83 3.04-24.82 8.44-17.4 12.78-10.24a39 39 0 0 1 16.09-3.34q8.7 0 16.16 3.34a34 34 0 0 1 12.9 10.24q5.44 6.9 8.51 17.4 3.08 10.5 3.08 24.82m-24 0q0-11.33-1.42-18.56-1.44-7.24-3.8-11.36t-5.35-5.67a13 13 0 0 0-6.08-1.53q-3.07 0-6.04 1.53-2.95 1.54-5.25 5.67t-3.67 11.36q-1.4 7.23-1.39 18.56 0 11.4 1.39 18.6 1.38 7.2 3.67 11.36 2.3 4.17 5.25 5.7a13 13 0 0 0 6.04 1.54q3.08 0 6.08-1.54 3-1.53 5.36-5.7t3.79-11.36q1.41-7.2 1.42-18.6m111 0q0 14.33-3.07 24.83-3.09 10.5-8.52 17.4a34 34 0 0 1-12.9 10.27 39 39 0 0 1-16.16 3.38q-8.7 0-16.09-3.38a34 34 0 0 1-12.78-10.27q-5.4-6.9-8.44-17.4t-3.04-24.83 3.04-24.82 8.44-17.4 12.78-10.24a39 39 0 0 1 16.09-3.34q8.7 0 16.16 3.34a34 34 0 0 1 12.9 10.24q5.44 6.9 8.51 17.4 3.08 10.5 3.08 24.82m-24 0q0-11.33-1.42-18.56-1.43-7.24-3.8-11.36-2.35-4.12-5.35-5.67a13 13 0 0 0-6.08-1.53q-3.07 0-6.04 1.53-2.96 1.54-5.25 5.67-2.28 4.12-3.67 11.36t-1.39 18.56q0 11.4 1.39 18.6 1.38 7.2 3.67 11.36 2.3 4.17 5.25 5.7a13 13 0 0 0 6.04 1.54q3.07 0 6.07-1.54 3-1.53 5.37-5.7 2.35-4.16 3.79-11.36 1.41-7.2 1.42-18.6m130.03 3.3q0-3 1.9-5.21 1.92-2.22 5.75-2.21h6.3v-16.2q0-7.13 2.17-13.54a31.5 31.5 0 0 1 6.64-11.29 32 32 0 0 1 11.17-7.76q6.72-2.9 15.87-2.89 6.07 0 10.98 1.54a31 31 0 0 1 15.57 10.72 48 48 0 0 1 5.1 7.99l-9.3 5.85a11 11 0 0 1-5.33 1.5q-3.45 0-6.22-2.85a28 28 0 0 0-5.18-4.35 10.6 10.6 0 0 0-5.62-1.42q-6.08 0-9.04 4.23-2.97 4.24-2.96 12.19v16.28h28.5v8.85q0 1.13-.5 2.13a6.3 6.3 0 0 1-3.37 3.15q-1.15.5-2.58.49h-22.05v11.7q0 4.5-1.7 8.14a27 27 0 0 1-4.53 6.79q3.37-.76 6.75-1.17a56 56 0 0 1 6.83-.41h37.65v9.53a9 9 0 0 1-.72 3.37 11 11 0 0 1-1.98 3.11 10 10 0 0 1-3.12 2.25 9.5 9.5 0 0 1-4.08.87h-71.55v-13.95q2.47-.45 4.76-1.43a15 15 0 0 0 4.01-2.47q1.73-1.5 2.78-3.6t1.05-4.88v-17.85h-13.95zm103.8 34.58h21v-55.13q0-4.05.22-8.47l-12.37 10.27q-1.2.97-2.4 1.39a7 7 0 0 1-5.82-.45 7 7 0 0 1-2.28-1.84l-7.35-9.75 34.05-28.57h19.2v92.55h18v16.8h-62.25zm115.35-93.68q8.1 0 14.4 2.29a32 32 0 0 1 10.65 6.19q4.35 3.9 6.6 9.03a27 27 0 0 1 2.25 10.84q0 5.18-1.05 9.11-1.05 3.94-3.12 6.83a20 20 0 0 1-5.1 4.91 30 30 0 0 1-6.93 3.38q18.15 6.3 18.15 24.67 0 8.7-3.15 15.15a31 31 0 0 1-8.44 10.73 36 36 0 0 1-12.26 6.4 49 49 0 0 1-14.55 2.15q-7.8 0-13.88-1.7a32 32 0 0 1-10.8-5.24 35 35 0 0 1-8.29-9.11 61 61 0 0 1-6.18-13.2l10.35-4.2q1.34-.6 2.66-.83a15 15 0 0 1 2.59-.22q2.4 0 4.3.93a6.4 6.4 0 0 1 2.9 2.74q3.37 6.22 7.16 9.04a14.5 14.5 0 0 0 8.89 2.81q3.9 0 6.78-1.31 2.9-1.31 4.8-3.38a14 14 0 0 0 2.89-4.68q.98-2.63.98-5.33 0-3.52-.5-6.34a8.3 8.3 0 0 0-2.73-4.83q-2.25-2.03-6.79-3.12-4.53-1.08-12.63-1.08V185.8q6.82 0 11.02-1.05t6.49-2.9a8.7 8.7 0 0 0 3.04-4.45q.75-2.63.75-5.78 0-6.45-3.12-9.94-3.1-3.48-9.48-3.48-2.62 0-4.8.75t-3.9 2.02a14 14 0 0 0-2.97 3 16 16 0 0 0-1.98 3.75q-1.2 3.38-3.04 4.88t-4.99 1.5a19 19 0 0 1-3.37-.3l-12.3-2.18q1.2-8.17 4.6-14.25a34 34 0 0 1 8.48-10.12 34 34 0 0 1 11.59-6.04 48 48 0 0 1 14.03-1.99m114.6 10.8q0 2.4-.75 4.35a9 9 0 0 1-2.37 3.41 11 11 0 0 1-4.23 2.25 22 22 0 0 1-6.3.79h-26.1l-3.08 18.08q3.08-.53 5.93-.8 2.85-.25 5.55-.25 8.62 0 15.22 2.62a32 32 0 0 1 11.1 7.16q4.5 4.55 6.79 10.65a37 37 0 0 1 2.29 13.09q0 8.78-3.12 16.01a37 37 0 0 1-8.66 12.49 39 39 0 0 1-13.24 8.14 48 48 0 0 1-16.83 2.89q-5.33 0-10.17-1.13a49 49 0 0 1-23.43-12.82l7.2-9.6q1.12-1.5 2.62-2.3 1.5-.78 3.23-.78 2.24 0 4.23 1.24l4.35 2.7q2.37 1.46 5.52 2.66t7.8 1.2 7.95-1.54a14 14 0 0 0 5.36-4.2 17 17 0 0 0 3-6.22q.94-3.56.94-7.61 0-7.95-4.5-12.12t-12.75-4.16a39 39 0 0 0-14.4 2.78l-14.4-3.9 9.3-54.68h55.95zm21.15 99.68v-77.78h14.4q2.18 0 3.63.98a5.2 5.2 0 0 1 2.07 2.92l1.27 4.2a43 43 0 0 1 4.05-3.71q2.1-1.69 4.54-2.93a25 25 0 0 1 5.25-1.95q2.81-.7 6.19-.71 7.05 0 11.66 3.64a22.7 22.7 0 0 1 7.01 9.71 23 23 0 0 1 4.76-6.15q2.81-2.55 6.08-4.12a30 30 0 0 1 6.9-2.33q3.63-.75 7.24-.75 6.67 0 11.85 1.99a22.6 22.6 0 0 1 8.66 5.77 25 25 0 0 1 5.29 9.3q1.8 5.52 1.8 12.49v49.43h-23.25v-49.43q0-12.07-10.35-12.07-4.73 0-7.84 3.1-3.12 3.12-3.11 8.97v49.43h-23.25v-49.43q0-6.67-2.63-9.37t-7.72-2.7q-3.16 0-5.97 1.42a22 22 0 0 0-5.28 3.83v56.25z"/>
</g>

<g class="panel-3-building" fill-rule="evenodd">
<path fill="#c7d3e9" d="m129.63 1051.36 37.95 28.76 2.11 1.15v.45l10.92 8.27a3.51 3.51 0 1 1-4.25 5.6l-6.67-5.05v27.73H85.31v-27.73l-6.67 5.05a3.52 3.52 0 0 1-4.25-5.6l10.92-8.27v-.45l2.12-1.15 37.95-28.76a3.5 3.5 0 0 1 4.25 0"/>
<path fill="#4f6a9a" d="M107.01 1101.79c0 .87-.7 1.58-1.58 1.58h-9.48c-.87 0-1.58-.7-1.58-1.58v-9.48c0-.87.7-1.58 1.58-1.58h9.48c.87 0 1.58.71 1.58 1.58zm26.79 0c0 .87-.7 1.58-1.58 1.58h-9.48c-.87 0-1.58-.7-1.58-1.58v-9.48c0-.87.71-1.58 1.58-1.58h9.48c.87 0 1.58.71 1.58 1.58zm26.63 0c0 .87-.71 1.58-1.58 1.58h-9.48c-.87 0-1.58-.7-1.58-1.58v-9.48c0-.87.7-1.58 1.58-1.58h9.48c.87 0 1.58.71 1.58 1.58z"/>
</g>

<g class="panel-3-building" fill-rule="evenodd">
<path fill="#fff" stroke="#4f6a9a" stroke-width="4" d="m224.42 1029.96 50.98 38.63a1.51 1.51 0 1 1-1.83 2.4l-6.67-5.05-3.2-2.43v53.14h-80.4v-53.14l-3.2 2.44-6.67 5.04a1.5 1.5 0 0 1-2.12-.28 1.5 1.5 0 0 1 .29-2.12l50.98-38.63c.55-.41 1.3-.41 1.84 0Z"/>
<path fill="#c7d3e9" d="M216.8 1078.79c0 .87-.7 1.58-1.58 1.58h-9.48c-.87 0-1.58-.7-1.58-1.58v-9.48c0-.87.71-1.58 1.58-1.58h9.48c.87 0 1.58.71 1.58 1.58zm-.35 24.28c0 .85-.69 1.53-1.53 1.53h-9.22c-.85 0-1.54-.68-1.54-1.53v-9.22c0-.85.69-1.54 1.54-1.54h9.22c.84 0 1.53.7 1.53 1.54zm26.98-24.28c0 .87-.71 1.58-1.58 1.58h-9.48c-.87 0-1.58-.7-1.58-1.58v-9.48c0-.87.7-1.58 1.58-1.58h9.48c.87 0 1.58.71 1.58 1.58zm-.35 24.28c0 .85-.69 1.53-1.54 1.53h-9.22c-.84 0-1.53-.68-1.53-1.53v-9.22c0-.85.69-1.54 1.53-1.54h9.22c.85 0 1.54.7 1.54 1.54z"/>
</g>

<g class="panel-3-building" fill-rule="evenodd">
<path fill="#4f6a9a" d="M328.63 1028.36 379.6 1067a3.51 3.51 0 1 1-4.25 5.6l-6.67-5.05v51.11H284.3v-51.11l-6.67 5.05a3.52 3.52 0 0 1-4.25-5.6l50.99-38.63a3.5 3.5 0 0 1 4.25 0"/>
<path fill="#c7d3e9" d="M319.01 1078.79c0 .87-.7 1.58-1.58 1.58h-9.48c-.87 0-1.58-.7-1.58-1.58v-9.48c0-.87.7-1.58 1.58-1.58h9.48c.87 0 1.58.71 1.58 1.58zm-.35 24.28c0 .85-.69 1.53-1.53 1.53h-9.22c-.85 0-1.54-.68-1.54-1.53v-9.22c0-.85.69-1.54 1.54-1.54h9.22c.84 0 1.53.7 1.53 1.54zm27.14-24.28c0 .87-.7 1.58-1.58 1.58h-9.48c-.87 0-1.58-.7-1.58-1.58v-9.48c0-.87.71-1.58 1.58-1.58h9.48c.87 0 1.58.71 1.58 1.58zm-.35 24.28c0 .85-.69 1.53-1.53 1.53h-9.22c-.85 0-1.54-.68-1.54-1.53v-9.22c0-.85.69-1.54 1.54-1.54h9.22c.84 0 1.53.7 1.53 1.54z"/>
</g>

<g class="panel-3-building" fill-rule="evenodd">
<path fill="#c7d3e9" d="m412.63 1028.36 40.16 30.43v8.82l-.1-.07v51.11h-84.38v-51.11l-.1.07.02-8.83 40.15-30.42a3.5 3.5 0 0 1 4.25 0"/>
<path fill="#fff" d="M403.8 1078.79c0 .87-.7 1.58-1.58 1.58h-9.48c-.87 0-1.58-.7-1.58-1.58v-9.48c0-.87.71-1.58 1.58-1.58h9.48c.87 0 1.58.71 1.58 1.58zm-.35 24.28c0 .85-.69 1.53-1.53 1.53h-9.22c-.85 0-1.54-.68-1.54-1.53v-9.22c0-.85.69-1.54 1.54-1.54h9.22c.84 0 1.53.7 1.53 1.54zm26.98-24.28c0 .87-.71 1.58-1.58 1.58h-9.48c-.87 0-1.58-.7-1.58-1.58v-9.48c0-.87.7-1.58 1.58-1.58h9.48c.87 0 1.58.71 1.58 1.58zm-.35 24.28c0 .85-.69 1.53-1.54 1.53h-9.22c-.84 0-1.53-.68-1.53-1.53v-9.22c0-.85.69-1.54 1.53-1.54h9.22c.85 0 1.54.7 1.54 1.54z"/>
</g>

<g class="panel-3-building" fill-rule="evenodd">
<path fill="#4f6a9a" d="M496.63 1028.36 547.6 1067a3.51 3.51 0 1 1-4.25 5.6l-6.67-5.05v51.11H452.3v-51.11l-6.67 5.05a3.52 3.52 0 0 1-4.25-5.6l50.99-38.63a3.5 3.5 0 0 1 4.25 0"/>
<path fill="#c7d3e9" d="M487.01 1078.79c0 .87-.7 1.58-1.58 1.58h-9.48c-.87 0-1.58-.7-1.58-1.58v-9.48c0-.87.7-1.58 1.58-1.58h9.48c.87 0 1.58.71 1.58 1.58zm-.35 24.28c0 .85-.69 1.53-1.53 1.53h-9.22c-.85 0-1.54-.68-1.54-1.53v-9.22c0-.85.69-1.54 1.54-1.54h9.22c.84 0 1.53.7 1.53 1.54zm27.14-24.28c0 .87-.7 1.58-1.58 1.58h-9.48c-.87 0-1.58-.7-1.58-1.58v-9.48c0-.87.71-1.58 1.58-1.58h9.48c.87 0 1.58.71 1.58 1.58zm-.35 24.28c0 .85-.69 1.53-1.53 1.53h-9.22c-.85 0-1.54-.68-1.54-1.53v-9.22c0-.85.69-1.54 1.54-1.54h9.22c.84 0 1.53.7 1.53 1.54z"/>
</g>

<g class="panel-3-building" fill-rule="evenodd">
<path fill="#fff" stroke="#4f6a9a" stroke-width="4" d="m590.42 998.96 50.98 38.63a1.51 1.51 0 1 1-1.83 2.4l-6.67-5.05-3.2-2.43v84.14h-80.4v-84.14l-3.2 2.44-6.67 5.04a1.5 1.5 0 0 1-2.12-.28 1.5 1.5 0 0 1 .29-2.12l50.98-38.63c.55-.41 1.3-.41 1.84 0Z"/>
<path fill="#4f6a9a" d="M582.8 1047.79c0 .87-.7 1.58-1.58 1.58h-9.48c-.87 0-1.58-.7-1.58-1.58v-9.48c0-.87.71-1.58 1.58-1.58h9.48c.87 0 1.58.71 1.58 1.58zm-.35 24.28c0 .85-.69 1.53-1.53 1.53h-9.22c-.85 0-1.54-.68-1.54-1.53v-9.22c0-.85.69-1.54 1.54-1.54h9.22c.84 0 1.53.7 1.53 1.54zm26.98-24.28c0 .87-.71 1.58-1.58 1.58h-9.48c-.87 0-1.58-.7-1.58-1.58v-9.48c0-.87.7-1.58 1.58-1.58h9.48c.87 0 1.58.71 1.58 1.58zm-.35 24.28c0 .85-.69 1.53-1.54 1.53h-9.22c-.84 0-1.53-.68-1.53-1.53v-9.22c0-.85.69-1.54 1.53-1.54h9.22c.85 0 1.54.7 1.54 1.54zm-26.63 24c0 .85-.69 1.53-1.53 1.53h-9.22c-.85 0-1.54-.68-1.54-1.53v-9.22c0-.85.69-1.54 1.54-1.54h9.22c.84 0 1.53.7 1.53 1.54zm26.63 0c0 .85-.69 1.53-1.54 1.53h-9.22c-.84 0-1.53-.68-1.53-1.53v-9.22c0-.85.69-1.54 1.53-1.54h9.22c.85 0 1.54.7 1.54 1.54z"/>
</g>

<g class="panel-3-building" fill-rule="evenodd">
<path fill="#4f6a9a" d="M775.86 797.65v321.27l-46.85-.19v-33.28h-40.16v33.13l-46.85-.19V797.65z"/>
<path fill="#c7d3e9" d="M695.6 823.98h-26.77v26.78h26.77zm53.55 0h-26.78v26.78h26.78zm-53.55 53.55h-26.77v26.77h26.77zm53.55 0h-26.78v26.77h26.78zm-53.55 53.54h-26.77v26.77h26.77zm53.55 0h-26.78v26.77h26.78zm-53.55 53.55h-26.77v26.77h26.77zm53.55 0h-26.78v26.77h26.78zm-53.55 53.54h-26.77v26.77h26.77zm53.55 0h-26.78v26.77h26.78z"/>
</g>

<g class="panel-3-building" fill-rule="evenodd">
<path fill="#fff" stroke="#4f6a9a" stroke-width="4" d="M1021.37 1116.48h-82.82v-49.55h20.08v-24.08H834.15v24.08h20.08v49.55h-76.22V745.67h243.36Z"/>
<path fill="#c7d3e9" d="M883 988.8h-66.92v26.77H883zm93.7 0h-66.92v26.77h66.93zM883 935.26h-66.92v26.77H883zm93.7 0h-66.92v26.77h66.93zM883 881.7h-66.92v26.77H883zm93.7 0h-66.92v26.77h66.93zM883 828.17h-66.92v26.77H883zm93.7 0h-66.92v26.77h66.93zM883 774.62h-66.92v26.78H883zm93.7 0h-66.92v26.78h66.93z"/>
</g>

<g class="panel-3-building" fill-rule="evenodd">
<path fill="#4f6a9a" d="M1150.94 681.34h-133.86v437.14h133.86z"/>
<path fill="#fff" d="M1132.56 1040.36h-28.76v28.76h28.76zm-34.52 0h-28.76v28.76h28.76zm-34.51 0h-28.76v28.76h28.76zm69.03-34.51h-28.76v28.76h28.76zm-34.52 0h-28.76v28.76h28.76zm-34.51 0h-28.76v28.76h28.76zm69.03-34.51h-28.76v28.75h28.76zm-34.52 0h-28.76v28.75h28.76zm-34.51 0h-28.76v28.75h28.76zm69.03-34.52h-28.76v28.76h28.76zm-34.52 0h-28.76v28.76h28.76zm-34.51 0h-28.76v28.76h28.76zm69.03-34.5h-28.76v28.75h28.76zm-34.52 0h-28.76v28.75h28.76zm-34.51 0h-28.76v28.75h28.76zm69.03-34.52h-28.76v28.76h28.76zm-34.52 0h-28.76v28.76h28.76zm-34.51 0h-28.76v28.76h28.76zm69.03-34.5h-28.76v28.75h28.76zm-34.52 0h-28.76v28.75h28.76zm-34.51 0h-28.76v28.75h28.76zm69.03-34.52h-28.76v28.76h28.76zm-34.52 0h-28.76v28.76h28.76zm-34.51 0h-28.76v28.76h28.76zm69.03-34.51h-28.76v28.76h28.76zm-34.52 0h-28.76v28.76h28.76zm-34.51 0h-28.76v28.76h28.76zm69.03-34.51h-28.76v28.76h28.76zm-34.52 0h-28.76v28.76h28.76zm-34.51 0h-28.76v28.76h28.76zm69.03-34.51h-28.76V724h28.76zm-34.52 0h-28.76V724h28.76zm-34.51 0h-28.76V724h28.76zM1104.2 1085h-40.16v33.47h40.16z"/>
</g>

<g class="panel-3-building" fill-rule="evenodd">
<path fill="#c7d3e9" stroke="#4f6a9a" stroke-width="4" d="M1384.3 1116.48h-236.98V745.67h236.98Z"/>
<path fill="#4f6a9a" d="M1258.02 987.65h-66.93v26.77h66.93zm93.7 0h-66.92v26.77h66.93zm-93.7-53.54h-66.93v26.77h66.93zm93.7 0h-66.92v26.77h66.93zm-93.7-53.55h-66.93v26.77h66.93zm93.7 0h-66.92v26.77h66.93zm-93.7-53.54h-66.93v26.77h66.93zm93.7 0h-66.92v26.77h66.93zm-93.7-53.55h-66.93v26.77h66.93zm93.7 0h-66.92v26.77h66.93zm-140.55 291.46v-20.08h120.48v20.08h-20.08v53.55h-80.32v-53.55z"/>
</g>

<g class="panel-3-building" fill-rule="evenodd">
<path fill="#4f6a9a" d="M1459.86 1070.48h-26.77v48.31h26.77zm50.62 0h-26.78v48.31h26.78zm51.76 0h-26.77v48.31h26.77zm50.62 0h-26.77v48.31h26.77zm50.62 0h-26.78v48.31h26.78zm50.61 0h-26.77v48.31h26.77zm51.77 0h-26.77v48.31h26.77z"/>
<path fill="#fff" stroke="#4f6a9a" stroke-width="5.75" d="M1810.67 720.09v315.5h-208.43V720.1Z"/>
<path fill="#4f6a9a" d="M1659.6 717.21v46.85h40.16v-46.85h13.39v46.85h40.16v-46.85h13.38v46.85h46.86v13.39h-46.86v40.15h46.86V831h-46.86v40.15h46.86v13.39h-46.86v40.15h46.86v13.39h-46.86v40.16h46.86v13.38h-46.86v42.57h46.44v36.8h-213.97v-36.8h47.06v-42.57h-46.85v-13.38h46.85v-40.16h-46.85v-13.39h46.85v-40.15h-46.85v-13.4h46.85V831h-46.85v-13.4h46.85v-40.15h-46.85v-13.39h46.85v-46.85zm40.16 274.41h-40.15v42.57h40.15zm53.55 0h-40.16v42.57h40.16zm-53.55-53.54h-40.15v40.16h40.15zm53.55 0h-40.16v40.16h40.16zm-53.55-53.54h-40.15v40.15h40.15zm53.55 0h-40.16v40.15h40.16zm-53.55-53.55h-40.15v40.16h40.15zm53.55 0h-40.16v40.16h40.16zm-53.55-53.54h-40.15v40.15h40.15zm53.55 0h-40.16v40.15h40.16z"/>
<path fill="#fff" stroke="#4f6a9a" stroke-width="5.75" d="M1597.85 720.09v315.5h-208.42V720.1Z"/>
<path fill="#4f6a9a" d="M1446.79 717.21v46.85h40.16v-46.85h13.38v46.85h40.16v-46.85h13.39v46.85h46.85v13.39h-46.85v40.15h46.85V831h-46.85v40.15h46.85v13.39h-46.85v40.15h46.85v13.39h-46.85v40.16h46.85v13.38h-46.85v42.57h46.43v36.8h-213.97v-36.8h47.06v-42.57h-46.85v-13.38h46.85v-40.16h-46.85v-13.39h46.85v-40.15h-46.85v-13.4h46.85V831h-46.85v-13.4h46.85v-40.15h-46.85v-13.39h46.85v-46.85zm40.16 274.41h-40.16v42.57h40.16zm53.54 0h-40.16v42.57h40.16zm-53.54-53.54h-40.16v40.16h40.16zm53.54 0h-40.16v40.16h40.16zm-53.54-53.54h-40.16v40.15h40.16zm53.54 0h-40.16v40.15h40.16zm-53.54-53.55h-40.16v40.16h40.16zm53.54 0h-40.16v40.16h40.16zm-53.54-53.54h-40.16v40.15h40.16zm53.54 0h-40.16v40.15h40.16z"/>
</g>

<g class="panel-3-building" fill-rule="evenodd">
<path fill="#4f6a9a" d="M1950.02 797.74h-137V1119h137z"/>
<path fill="#fff" d="M1867.09 824.2h-26.77v26.77h26.77zm53.54 0h-26.77v26.77h26.77zm-53.54 53.54h-26.77v26.77h26.77zm53.54 0h-26.77v26.77h26.77zm-53.54 53.54h-26.77v26.77h26.77zm53.54 0h-26.77v26.77h26.77zm-53.54 53.55h-26.77v26.77h26.77zm53.54 0h-26.77v26.77h26.77zm-53.54 53.54h-26.77v26.77h26.77zm53.54 0h-26.77v26.77h26.77zm-20.08 46.85h-40.15v33.47h40.15z"/>
</g>

<g class="panel-3-building" fill-rule="evenodd">
<path fill="#fff" stroke="#4f6a9a" stroke-width="4" d="M2186.1 1116.48h-236.98V706.35h236.98Z"/>
<path fill="#c7d3e9" d="M2054.22 998h-66.94v26.77h66.94zm93.71 0H2081v26.77h66.93zm-93.71-53.54h-66.94v26.77h66.94zm93.71 0H2081v26.77h66.93zm-93.71-53.55h-66.94v26.78h66.94zm93.71 0H2081v26.78h66.93zm-93.71-53.54h-66.94v26.77h66.94zm93.71 0H2081v26.77h66.93zm-93.71-53.54h-66.94v26.77h66.94zm93.71 0H2081v26.77h66.93zm-93.71-52.92h-66.94v26.77h66.94zm93.71 0H2081v26.77h66.93z"/>
<path fill="#4f6a9a" d="M2007.12 1064.93v-20.08h120.47v20.08h-20.07v53.55h-80.32v-53.55z"/>
</g>

<g class="panel-3-building" fill-rule="evenodd">
<path fill="#4f6a9a" d="M2316.44 704.56h-133.86v414.13h133.86z"/>
<path fill="#c7d3e9" d="M2305.34 1012.85H2201.8v34.51h103.53zm0-46.01H2201.8v34.5h103.53zm0-46.02H2201.8v34.51h103.53zm0-46.01H2201.8v34.51h103.53zm0-46.02H2201.8v34.52h103.53zm0-46.01H2201.8v34.51h103.53zm0-46.01H2201.8v34.5h103.53z"/>
<path fill="#fff" d="M2274.18 1085.33h-40.16v33.47h40.16z"/>
</g>

<g class="panel-3-building" fill-rule="evenodd">
<path fill="#c7d3e9" stroke="#4f6a9a" stroke-width="4" d="M2553.3 1116.69h-75.67v-49.55h20.08v-24.08h-124.47v24.08h20.08v49.55h-77.6V603.02h237.57Z"/>
<path fill="#fff" d="M2522.26 928.77h-69.02v69.02h69.02zm-92.04 0h-69.02v69.02h69.02zm92.04-92.03h-69.02v69.02h69.02zm-92.04 0h-69.02v69.02h69.02zm92.04-92.03h-69.02v69.03h69.02zm-92.04 0h-69.02v69.03h69.02zm92.04-92.03h-69.02v69.03h69.02zm-92.04 0h-69.02v69.03h69.02z"/>
<path fill="#4f6a9a" d="M2556.89 1018.6c9.98 0 18.21 7.32 19.76 16.87 12.17 4.6 20.4 13.3 20.4 23.3 0 13.26-14.47 24.27-33.47 26.4V1119h-13.38v-33.84c-19-2.12-33.47-13.13-33.47-26.4 0-9.99 8.23-18.7 20.4-23.29a20.04 20.04 0 0 1 19.76-16.87"/>
</g>

<g class="panel-3-building" fill-rule="evenodd">
<path fill="#fff" stroke="#4f6a9a" stroke-width="4" d="M2791.14 1116.69h-237.57v-601.1h237.57Z"/>
<path fill="#c7d3e9" d="M2752.37 963.28h-69.03v34.51h69.03zm-92.05 0h-69.02v34.51h69.02zm92.05-57.52h-69.03v34.52h69.03zm-92.05 0h-69.02v34.52h69.02zm92.05-57.51h-69.03v34.5h69.03zm-92.05 0h-69.02v34.5h69.02zm92.05-57.52h-69.03v34.5h69.03zm-92.05 0h-69.02v34.5h69.02zm92.05-57.52h-69.03v34.51h69.03zm-92.05 0h-69.02v34.51h69.02zm92.05-57.52h-69.03v34.51h69.03zm-92.05 0h-69.02v34.51h69.02zm92.05-57.52h-69.03v34.51h69.03zm-92.05 0h-69.02v34.51h69.02zm92.05-57.51h-69.03v34.5h69.03zm-92.05 0h-69.02v34.5h69.02z"/>
<path fill="#4f6a9a" d="M2611.06 1065.14v-20.08h120.47v20.08h-20.07v53.55h-80.32v-53.55z"/>
</g>

<g class="panel-3-building" fill-rule="evenodd">
<path fill="#4f6a9a" d="M2924.05 476.57h-133.86v641.9h133.86z"/>
<path fill="#fff" d="M2825.38 1049.66v-11.5h69.02v11.5h-11.5v69.03h-46.02v-69.03zm88.58-71.32h-28.76v28.76h28.76zm-40.27 0h-28.76v28.76h28.76zm-40.26 0h-28.76v28.76h28.76zm80.53-40.26h-28.76v28.76h28.76zm-40.27 0h-28.76v28.76h28.76zm-40.26 0h-28.76v28.76h28.76zm80.53-40.26h-28.76v28.76h28.76zm-40.27 0h-28.76v28.76h28.76zm-40.26 0h-28.76v28.76h28.76zm80.53-40.27h-28.76v28.76h28.76zm-40.27 0h-28.76v28.76h28.76zm-40.26 0h-28.76v28.76h28.76zm80.53-40.26h-28.76v28.76h28.76zm-40.27 0h-28.76v28.76h28.76zm-40.26 0h-28.76v28.76h28.76zm80.53-40.26h-28.76v28.76h28.76zm-40.27 0h-28.76v28.76h28.76zm-40.26 0h-28.76v28.76h28.76zm80.53-40.26h-28.76v28.75h28.76zm-40.27 0h-28.76v28.75h28.76zm-40.26 0h-28.76v28.75h28.76zm80.53-40.27h-28.76v28.76h28.76zm-40.27 0h-28.76v28.76h28.76zm-40.26 0h-28.76v28.76h28.76zm80.53-40.26h-28.76V685h28.76zm-40.27 0h-28.76V685h28.76zm-40.26 0h-28.76V685h28.76zm80.53-40.26h-28.76v28.76h28.76zm-40.27 0h-28.76v28.76h28.76zm-40.26 0h-28.76v28.76h28.76zm80.53-40.27h-28.76v28.76h28.76zm-40.27 0h-28.76v28.76h28.76zm-40.26 0h-28.76v28.76h28.76zm80.53-40.26h-28.76v28.76h28.76zm-40.27 0h-28.76v28.76h28.76zm-40.26 0h-28.76v28.76h28.76zm80.53-40.26h-28.76v28.76h28.76zm-40.27 0h-28.76v28.76h28.76zm-40 0h-28.76v28.76h28.76z"/>
</g>

<g class="panel-3-building" fill-rule="evenodd">
<path fill="#c7d3e9" stroke="#4f6a9a" stroke-width="4" d="M3217.77 1116.48h-106.29v-49.55h20.08v-24.08h-124.47v24.08h20.08v49.55h-104.5v-761h295.1Z"/>
<path fill="#4f6a9a" d="M3173.45 960.98h-57.52v34.51h57.52zm-74.78 0h-57.52v34.51h57.52zm-74.78 0h-57.52v34.51h57.52zm149.56-51.76h-57.52v34.5h57.52zm-74.78 0h-57.52v34.5h57.52zm-74.78 0h-57.52v34.5h57.52zm149.56-51.77h-57.52v34.51h57.52zm-74.78 0h-57.52v34.51h57.52zm-74.78 0h-57.52v34.51h57.52zm149.56-51.77h-57.52v34.51h57.52zm-74.78 0h-57.52v34.51h57.52zm-74.78 0h-57.52v34.51h57.52zm149.56-51.76h-57.52v34.5h57.52zm-74.78 0h-57.52v34.5h57.52zm-74.78 0h-57.52v34.5h57.52zm149.56-51.77h-57.52v34.51h57.52zm-74.78 0h-57.52v34.51h57.52zm-74.78 0h-57.52v34.51h57.52zm149.56-51.77h-57.52v34.51h57.52zm-74.78 0h-57.52v34.51h57.52zm-74.78 0h-57.52v34.51h57.52zm149.56-51.76h-57.52v34.5h57.52zm-74.78 0h-57.52v34.5h57.52zm-74.78 0h-57.52v34.5h57.52zm149.56-51.77h-57.52v34.51h57.52zm-74.78 0h-57.52v34.51h57.52zm-74.78 0h-57.52v34.51h57.52zm149.56-51.77h-57.52v34.52h57.52zm-74.78 0h-57.52v34.52h57.52zm-74.78 0h-57.52v34.52h57.52zm149.56-51.76h-57.52v34.5h57.52zm-74.78 0h-57.52v34.5h57.52zm-74.78 0h-57.52v34.5h57.52zm149.56-51.77h-57.52v34.51h57.52zm-74.78 0h-57.52v34.51h57.52zm-74.78 0h-57.52v34.51h57.52z"/>
</g>

<g class="panel-3-building" fill-rule="evenodd">
<path fill="#fff" d="M3309.74 1049.67h-46.01v69.02h46z"/>
<path fill="#4f6a9a" d="M3350.84 290.22h-138v828.26h138z"/>
<path fill="#fff" d="M3309.74 1049.67h-46.01v69.02h46z"/>
<path fill="#c7d3e9" d="M3321.24 1003.65v28.76h-28.76v-28.76zm-40.27 0v28.76h-28.76v-28.76zm40.27-40.26v28.76h-28.76v-28.76zm-40.27 0v28.76h-28.76v-28.76zm40.27-40.27v28.76h-28.76v-28.76zm-40.27 0v28.76h-28.76v-28.76zm40.27-40.26v28.76h-28.76v-28.76zm-40.27 0v28.76h-28.76v-28.76zm40.27-40.26v28.76h-28.76V842.6zm-40.27 0v28.76h-28.76V842.6zm40.27-40.26v28.76h-28.76v-28.76zm-40.27 0v28.76h-28.76v-28.76zm40.27-40.27v28.76h-28.76v-28.76zm-40.27 0v28.76h-28.76v-28.76zm40.27-40.26v28.76h-28.76v-28.76zm-40.27 0v28.76h-28.76v-28.76zm40.27-40.26v28.76h-28.76v-28.76zm-40.27 0v28.76h-28.76v-28.76zm40.27-40.26v28.75h-28.76V641.3zm-40.27 0v28.75h-28.76V641.3zm40.27-40.27v28.76h-28.76v-28.76zm-40.27 0v28.76h-28.76v-28.76zm40.27-40.26v28.76h-28.76v-28.76zm-40.27 0v28.76h-28.76v-28.76zm40.27-40.26v28.76h-28.76V520.5zm-40.27 0v28.76h-28.76V520.5zm40.27-40.27V509h-28.76v-28.76zm-40.27 0V509h-28.76v-28.76zm40.27-40.26v28.76h-28.76v-28.76zm-40.27 0v28.76h-28.76v-28.76zm40.27-40.26v28.76h-28.76V399.7zm-40.27 0v28.76h-28.76V399.7zm40.27-40.26v28.76h-28.76v-28.76zm-40.27 0v28.76h-28.76v-28.76zm40.27-40.27v28.76h-28.76v-28.76zm-40.27 0v28.76h-28.76v-28.76z"/>
</g>

<g class="panel-3-building" fill-rule="evenodd">
<path fill="#fff" stroke="#4f6a9a" stroke-width="4" d="M3587.09 1116.48H3349.5V84h237.58Z"/>
<path fill="#c7d3e9" d="M3542.76 963.28h-69.02v34.51h69.02zm-80.53 0h-69.02v34.51h69.02zm80.53-46.01h-69.02v34.5h69.02zm-80.53 0h-69.02v34.5h69.02zm80.53-46.02h-69.02v34.51h69.02zm-80.53 0h-69.02v34.51h69.02zm80.53-46.01h-69.02v34.51h69.02zm-80.53 0h-69.02v34.51h69.02zm80.53-46.02h-69.02v34.52h69.02zm-80.53 0h-69.02v34.52h69.02zm80.53-46.01h-69.02v34.51h69.02zm-80.53 0h-69.02v34.51h69.02zm80.53-46.01h-69.02v34.5h69.02zm-80.53 0h-69.02v34.5h69.02zm80.53-46.02h-69.02v34.51h69.02zm-80.53 0h-69.02v34.51h69.02zm80.53-46.01h-69.02v34.5h69.02zm-80.53 0h-69.02v34.5h69.02zm80.53-46.02h-69.02v34.51h69.02zm-80.53 0h-69.02v34.51h69.02zm80.53-46.01h-69.02v34.5h69.02zm-80.53 0h-69.02v34.5h69.02zm80.53-46.02h-69.02v34.51h69.02zm-80.53 0h-69.02v34.51h69.02zm80.53-46.01h-69.02v34.5h69.02zm-80.53 0h-69.02v34.5h69.02zm80.53-46.02h-69.02v34.51h69.02zm-80.53 0h-69.02v34.51h69.02zm80.53-46.01h-69.02v34.51h69.02zm-80.53 0h-69.02v34.51h69.02zm80.53-46.02h-69.02v34.52h69.02zm-80.53 0h-69.02v34.52h69.02zm80.53-46.01h-69.02v34.51h69.02zm-80.53 0h-69.02v34.51h69.02zm80.53-46.01h-69.02v34.5h69.02zm-80.53 0h-69.02v34.5h69.02zm80.53-46.02h-69.02v34.51h69.02zm-80.53 0h-69.02v34.51h69.02z"/>
<path fill="#4f6a9a" d="M3407.11 1064.93v-20.08h120.48v20.08h-20.08v53.55h-80.32v-53.55z"/>
</g>

<g class="panel-trees">
<path fill="#4f6a9a" fill-rule="evenodd" d="M3587.32 970.29s26.78 78.92 26.78 93.7a26.8 26.8 0 0 1-20.08 25.93v27.62h-13.39v-27.62a26.8 26.8 0 0 1-20.08-25.93c0-14.78 26.77-93.7 26.77-93.7"/>
<path fill="#4f6a9a" fill-rule="evenodd" d="M3701.22 970.29s26.78 78.92 26.78 93.7a26.8 26.8 0 0 1-20.08 25.93v27.62h-13.39v-27.62a26.8 26.8 0 0 1-20.08-25.93c0-14.78 26.77-93.7 26.77-93.7"/>
<path fill="#4f6a9a" fill-rule="evenodd" d="M3644.85 947.28s26.78 78.92 26.78 93.7a26.8 26.8 0 0 1-20.09 25.93v50.78h-13.38v-50.78a26.8 26.8 0 0 1-20.09-25.93c0-14.78 26.78-93.7 26.78-93.7"/>
</g>

<path class="panel-3-line" fill="none" pathLength="1" stroke="#16599c" stroke-linecap="round" stroke-width="10" d="m78.48 907.33 941.63-226.87L1874.86 560 3587.55 81.65"/>


</svg>
