<svg class="panel-animated" xmlns="http://www.w3.org/2000/svg" viewBox="0 0 3800 1200">

<defs>
<style>
svg {
--panel-fill-dark: #4f6a9a;
--panel-fill-light: #c7d3e9;
--panel-fill-light-hover: #dfded3;
--panel-fill-none: none;
--panel-fill-text-accent: #b2b095;
--panel-fill-text-default: #182952; }

@keyframes panel-dark-row-reveal {
from { opacity: 0; }
to { opacity: 1; }
}

#panel-dark-item path,
#panel-dark-row path {
fill: var(--panel-fill-dark); }

#panel-light-figure path,
#panel-light-person path {
fill: var(--panel-light-fill, var(--panel-fill-light));
stroke: var(--panel-fill-dark);
transition: fill .5s ease; }

.panel-light-figures use:hover,
.panel-light-figures:hover use,
.panel-light-persons use:hover,
.panel-light-persons:hover use {
--panel-light-fill: var(--panel-fill-light-hover); }

.panel-root,
.panel-text {
fill: var(--panel-fill-none); }

.panel-text path:first-of-type { fill: var(--panel-fill-text-accent); }
.panel-text path:last-of-type { fill: var(--panel-fill-text-default); }

#panel-dark-row path {
animation-delay: calc(var(--row-delay, 0s) + var(--path-delay, 0s));
animation-duration: var(--row-duration, 0.55s);
animation-fill-mode: forwards;
animation-name: panel-dark-row-reveal;
animation-play-state: paused;
animation-timing-function: ease;
opacity: 0; }

#panel-dark-row path:nth-of-type(1) { --path-delay: .84s; }
#panel-dark-row path:nth-of-type(2) { --path-delay: .18s; }
#panel-dark-row path:nth-of-type(3) { --path-delay: 1.32s; }
#panel-dark-row path:nth-of-type(4) { --path-delay: .42s; }
#panel-dark-row path:nth-of-type(5) { --path-delay: 1.08s; }
#panel-dark-row path:nth-of-type(6) { --path-delay: .06s; }
#panel-dark-row path:nth-of-type(7) { --path-delay: 1.56s; }
#panel-dark-row path:nth-of-type(8) { --path-delay: .66s; }
#panel-dark-row path:nth-of-type(9) { --path-delay: .96s; }
#panel-dark-row path:nth-of-type(10) { --path-delay: .30s; }
#panel-dark-row path:nth-of-type(11) { --path-delay: 1.44s; }
#panel-dark-row path:nth-of-type(12) { --path-delay: .72s; }
#panel-dark-row path:nth-of-type(13) { --path-delay: 0s; }
#panel-dark-row path:nth-of-type(14) { --path-delay: 1.20s; }
#panel-dark-row path:nth-of-type(15) { --path-delay: .54s; }
#panel-dark-row path:nth-of-type(16) { --path-delay: 1.68s; }
#panel-dark-row path:nth-of-type(17) { --path-delay: .24s; }
#panel-dark-row path:nth-of-type(18) { --path-delay: 1.02s; }
#panel-dark-row path:nth-of-type(19) { --path-delay: .78s; }
#panel-dark-row path:nth-of-type(20) { --path-delay: .12s; }
#panel-dark-row path:nth-of-type(21) { --path-delay: 1.50s; }
#panel-dark-row path:nth-of-type(22) { --path-delay: .36s; }
#panel-dark-row path:nth-of-type(23) { --path-delay: .90s; }
#panel-dark-row path:nth-of-type(24) { --path-delay: .48s; }
#panel-dark-row path:nth-of-type(25) { --path-delay: 1.14s; }
#panel-dark-row path:nth-of-type(26) { --path-delay: .60s; }
#panel-dark-row path:nth-of-type(27) { --path-delay: 1.62s; }
#panel-dark-row path:nth-of-type(28) { --path-delay: .27s; }
#panel-dark-row path:nth-of-type(29) { --path-delay: .87s; }
#panel-dark-row path:nth-of-type(30) { --path-delay: 1.26s; }

#panel-dark-item path {
animation-delay: calc(var(--row-delay, 0s) + var(--item-path-delay, 0s));
animation-duration: var(--row-duration, 0.55s);
animation-fill-mode: forwards;
animation-name: panel-dark-row-reveal;
animation-play-state: paused;
animation-timing-function: ease;
opacity: 0; }

#panel-dark-item path:nth-of-type(1) { --item-path-delay: .11s; }
#panel-dark-item path:nth-of-type(2) { --item-path-delay: .41s; }
#panel-dark-item path:nth-of-type(3) { --item-path-delay: .23s; }

#panel-light-person path {
animation-delay: calc(var(--light-row-delay, 0s) + var(--light-instance-delay, 0s));
animation-duration: var(--light-duration, 0.52s);
animation-fill-mode: forwards;
animation-name: panel-dark-row-reveal;
animation-play-state: paused;
animation-timing-function: ease;
opacity: 0; }

.panel-light-persons use {
--light-duration: .51s;
--light-row-delay: .08s; }

.panel-light-persons use[transform*="-231"] {
--light-duration: .59s;
--light-row-delay: .22s; }

.panel-light-persons use[transform*="-461"] {
--light-duration: .46s;
--light-row-delay: .11s; }

.panel-light-persons use[transform*="-690"] {
--light-duration: .64s;
--light-row-delay: .29s; }

.panel-light-persons use[transform*=" 230)"] {
--light-duration: .56s;
--light-row-delay: .17s; }

.panel-light-persons use:nth-of-type(9n + 1) { --light-instance-delay: .07s; }
.panel-light-persons use:nth-of-type(9n + 2) { --light-instance-delay: .31s; }
.panel-light-persons use:nth-of-type(9n + 3) { --light-instance-delay: .15s; }
.panel-light-persons use:nth-of-type(9n + 4) { --light-instance-delay: .42s; }
.panel-light-persons use:nth-of-type(9n + 5) { --light-instance-delay: .03s; }
.panel-light-persons use:nth-of-type(9n + 6) { --light-instance-delay: .25s; }
.panel-light-persons use:nth-of-type(9n + 7) { --light-instance-delay: .37s; }
.panel-light-persons use:nth-of-type(9n + 8) { --light-instance-delay: .19s; }
.panel-light-persons use:nth-of-type(9n + 9) { --light-instance-delay: .49s; }

#panel-light-figure path {
animation-delay: calc(var(--figure-row-delay, 0s) + var(--figure-instance-delay, 0s));
animation-duration: var(--figure-duration, 0.58s);
animation-fill-mode: forwards;
animation-name: panel-dark-row-reveal;
animation-play-state: paused;
animation-timing-function: ease;
opacity: 0; }

.panel-light-figures use {
--figure-duration: .54s;
--figure-row-delay: .10s; }

.panel-light-figures use[transform*="-231"] {
--figure-duration: .62s;
--figure-row-delay: .24s; }

.panel-light-figures use[transform*="-461"] {
--figure-duration: .49s;
--figure-row-delay: .13s; }

.panel-light-figures use[transform*="-690"] {
--figure-duration: .67s;
--figure-row-delay: .33s; }

.panel-light-figures use:nth-of-type(4n + 1) { --figure-instance-delay: .05s; }
.panel-light-figures use:nth-of-type(4n + 2) { --figure-instance-delay: .21s; }
.panel-light-figures use:nth-of-type(4n + 3) { --figure-instance-delay: .38s; }
.panel-light-figures use:nth-of-type(4n + 4) { --figure-instance-delay: .14s; }

@media (prefers-reduced-motion: reduce) {

#panel-dark-row path {
animation: none;
opacity: 1; }

#panel-dark-item path {
animation: none;
opacity: 1; }

#panel-light-person path {
animation: none;
opacity: 1; }

#panel-light-figure path {
animation: none;
opacity: 1; }
}
</style>

<symbol id="panel-dark-row" overflow="visible">
<path fill-rule="evenodd" d="M3145.56 874.53c-10.08-.53-17.44-9.45-15.14-19.26 5.26-22.4 14.93-43.09 21.6-55.71 4.36-8.26 12.27-13.87 21.6-14.5a194 194 0 0 1 25.76-.01c9.34.64 17.24 6.25 21.6 14.5 6.67 12.63 16.34 33.33 21.6 55.72 2.3 9.8-5.06 18.73-15.14 19.26q-2.72.15-5.81.28l-2.16 29.07c-.64 8.63-7.3 15.64-15.94 16.33-5.44.43-11.6.79-17.03.79s-11.59-.36-17.03-.8c-8.65-.68-15.3-7.69-15.94-16.32l-2.16-29.07zm9.07-121.71a31.84 31.84 0 0 0 31.87 31.82 31.84 31.84 0 0 0 31.87-31.82A31.84 31.84 0 0 0 3186.5 721a31.84 31.84 0 0 0-31.87 31.82"/>
<path fill-rule="evenodd" d="M3512.56 873.53c-10.08-.53-17.44-9.45-15.14-19.26 5.26-22.4 14.93-43.09 21.6-55.71 4.36-8.26 12.27-13.87 21.6-14.5a194 194 0 0 1 25.76-.01c9.34.64 17.24 6.25 21.6 14.5 6.67 12.63 16.34 33.33 21.6 55.72 2.3 9.8-5.06 18.73-15.14 19.26q-2.72.15-5.81.28l-2.16 29.07c-.64 8.63-7.3 15.64-15.94 16.33-5.44.43-11.6.79-17.03.79s-11.59-.36-17.03-.8c-8.65-.68-15.3-7.69-15.94-16.32l-2.16-29.07zm9.07-121.71a31.84 31.84 0 0 0 31.87 31.82 31.84 31.84 0 0 0 31.87-31.82A31.84 31.84 0 0 0 3553.5 720a31.84 31.84 0 0 0-31.87 31.82"/>
<path fill-rule="evenodd" d="M3625.56 874.53c-10.08-.53-17.44-9.45-15.14-19.26 5.26-22.4 14.93-43.09 21.6-55.71 4.36-8.26 12.27-13.87 21.6-14.5a194 194 0 0 1 25.76-.01c9.34.64 17.24 6.25 21.6 14.5 6.67 12.63 16.34 33.33 21.6 55.72 2.3 9.8-5.06 18.73-15.14 19.26q-2.72.15-5.81.28l-2.16 29.07c-.64 8.63-7.3 15.64-15.94 16.33-5.44.43-11.6.79-17.03.79s-11.59-.36-17.03-.8c-8.65-.68-15.3-7.69-15.94-16.32l-2.16-29.07zm9.07-121.71a31.84 31.84 0 0 0 31.87 31.82 31.84 31.84 0 0 0 31.87-31.82A31.84 31.84 0 0 0 3666.5 721a31.84 31.84 0 0 0-31.87 31.82"/>
<path fill-rule="evenodd" d="M3050.66 725.29c21.18-12.22 47.62 3.12 47.59 27.6a31.8 31.8 0 0 1-15.9 27.6 31.6 31.6 0 0 1-13.59 4.21c8.89.03 16.47.27 22.89.63 19.33 1.06 33.71 15.54 36.22 34.78 1.37 10.5 2.39 22.05 2.07 31.77-.22 6.63-5.1 11.68-11.69 12.44-4.18.47-9.81.97-17.28 1.37-1.15 13.33-2.92 29.42-5.47 42.6-1 5.21-4.55 9.52-9.72 10.7-4.5 1.05-10.93 2.01-19.28 2.01s-14.78-.96-19.28-2c-5.17-1.2-8.71-5.5-9.72-10.7-2.55-13.19-4.32-29.28-5.47-42.61-7.47-.4-13.1-.9-17.28-1.37-6.58-.76-11.47-5.8-11.7-12.44-.31-9.72.7-21.26 2.08-31.77 2.5-19.24 16.89-33.72 36.22-34.78 6.45-.36 14.06-.6 22.98-.63-15.71-1.12-29.6-14.06-29.58-31.81a31.8 31.8 0 0 1 15.9-27.6"/>
<path fill-rule="evenodd" d="M3290.66 725.29c21.18-12.22 47.62 3.12 47.59 27.6a31.8 31.8 0 0 1-15.9 27.6 31.6 31.6 0 0 1-13.59 4.21c8.89.03 16.47.27 22.89.63 19.33 1.06 33.71 15.54 36.22 34.78 1.37 10.5 2.39 22.05 2.07 31.77-.22 6.63-5.1 11.68-11.69 12.44-4.18.47-9.81.97-17.28 1.37-1.15 13.33-2.92 29.42-5.47 42.6-1 5.21-4.55 9.52-9.72 10.7-4.5 1.05-10.93 2.01-19.28 2.01s-14.78-.96-19.28-2c-5.17-1.2-8.71-5.5-9.72-10.7-2.55-13.19-4.32-29.28-5.47-42.61-7.47-.4-13.1-.9-17.28-1.37-6.58-.76-11.47-5.8-11.7-12.44-.31-9.72.7-21.26 2.08-31.77 2.5-19.24 16.89-33.72 36.22-34.78 6.45-.36 14.06-.6 22.98-.63-15.71-1.12-29.6-14.06-29.58-31.81a31.8 31.8 0 0 1 15.9-27.6"/>
<path fill-rule="evenodd" d="M3417.66 724.29c21.18-12.22 47.62 3.12 47.59 27.6a31.8 31.8 0 0 1-15.9 27.6 31.6 31.6 0 0 1-13.59 4.21c8.89.03 16.47.27 22.89.63 19.33 1.06 33.71 15.54 36.22 34.78 1.37 10.5 2.39 22.05 2.07 31.77-.22 6.63-5.1 11.68-11.69 12.44-4.18.47-9.81.97-17.28 1.37-1.15 13.33-2.92 29.42-5.47 42.6-1 5.21-4.55 9.52-9.72 10.7-4.5 1.05-10.93 2.01-19.28 2.01s-14.78-.96-19.28-2c-5.17-1.2-8.71-5.5-9.72-10.7-2.55-13.19-4.32-29.28-5.47-42.61-7.47-.4-13.1-.9-17.28-1.37-6.58-.76-11.47-5.8-11.7-12.44-.31-9.72.7-21.26 2.08-31.77 2.5-19.24 16.89-33.72 36.22-34.78 6.45-.36 14.06-.6 22.98-.63-15.71-1.12-29.6-14.06-29.58-31.81a31.8 31.8 0 0 1 15.9-27.6"/>
<path fill-rule="evenodd" d="M2425.56 874.53c-10.08-.53-17.44-9.45-15.14-19.26 5.26-22.4 14.93-43.09 21.6-55.71 4.36-8.26 12.27-13.87 21.6-14.5a194 194 0 0 1 25.76-.01c9.34.64 17.24 6.25 21.6 14.5 6.67 12.63 16.34 33.33 21.6 55.72 2.3 9.8-5.06 18.73-15.14 19.26q-2.72.15-5.81.28l-2.16 29.07c-.64 8.63-7.3 15.64-15.94 16.33-5.44.43-11.6.79-17.03.79s-11.59-.36-17.03-.8c-8.65-.68-15.3-7.69-15.94-16.32l-2.16-29.07zm9.07-121.71a31.84 31.84 0 0 0 31.87 31.82 31.84 31.84 0 0 0 31.87-31.82A31.84 31.84 0 0 0 2466.5 721a31.84 31.84 0 0 0-31.87 31.82"/>
<path fill-rule="evenodd" d="M2792.56 873.53c-10.08-.53-17.44-9.45-15.14-19.26 5.26-22.4 14.93-43.09 21.6-55.71 4.36-8.26 12.27-13.87 21.6-14.5a194 194 0 0 1 25.76-.01c9.34.64 17.24 6.25 21.6 14.5 6.67 12.63 16.34 33.33 21.6 55.72 2.3 9.8-5.06 18.73-15.14 19.26q-2.72.15-5.81.28l-2.16 29.07c-.64 8.63-7.3 15.64-15.94 16.33-5.44.43-11.6.79-17.03.79s-11.59-.36-17.03-.8c-8.65-.68-15.3-7.69-15.94-16.32l-2.16-29.07zm9.07-121.71a31.84 31.84 0 0 0 31.87 31.82 31.84 31.84 0 0 0 31.87-31.82A31.84 31.84 0 0 0 2833.5 720a31.84 31.84 0 0 0-31.87 31.82"/>
<path fill-rule="evenodd" d="M2905.56 874.53c-10.08-.53-17.44-9.45-15.14-19.26 5.26-22.4 14.93-43.09 21.6-55.71 4.36-8.26 12.27-13.87 21.6-14.5a194 194 0 0 1 25.76-.01c9.34.64 17.24 6.25 21.6 14.5 6.67 12.63 16.34 33.33 21.6 55.72 2.3 9.8-5.06 18.73-15.14 19.26q-2.72.15-5.81.28l-2.16 29.07c-.64 8.63-7.3 15.64-15.94 16.33-5.44.43-11.6.79-17.03.79s-11.59-.36-17.03-.8c-8.65-.68-15.3-7.69-15.94-16.32l-2.16-29.07zm9.07-121.71a31.84 31.84 0 0 0 31.87 31.82 31.84 31.84 0 0 0 31.87-31.82A31.84 31.84 0 0 0 2946.5 721a31.84 31.84 0 0 0-31.87 31.82"/>
<path fill-rule="evenodd" d="M2330.66 725.29c21.18-12.22 47.62 3.12 47.59 27.6a31.8 31.8 0 0 1-15.9 27.6 31.6 31.6 0 0 1-13.59 4.21c8.89.03 16.47.27 22.89.63 19.33 1.06 33.71 15.54 36.22 34.78 1.37 10.5 2.39 22.05 2.07 31.77-.22 6.63-5.1 11.68-11.69 12.44-4.18.47-9.81.97-17.28 1.37-1.15 13.33-2.92 29.42-5.47 42.6-1 5.21-4.55 9.52-9.72 10.7-4.5 1.05-10.93 2.01-19.28 2.01s-14.78-.96-19.28-2c-5.17-1.2-8.71-5.5-9.72-10.7-2.55-13.19-4.32-29.28-5.47-42.61-7.47-.4-13.1-.9-17.28-1.37-6.58-.76-11.47-5.8-11.7-12.44-.31-9.72.7-21.26 2.08-31.77 2.5-19.24 16.89-33.72 36.22-34.78 6.45-.36 14.06-.6 22.98-.63-15.71-1.12-29.6-14.06-29.58-31.81a31.8 31.8 0 0 1 15.9-27.6"/>
<path fill-rule="evenodd" d="M2570.66 725.29c21.18-12.22 47.62 3.12 47.59 27.6a31.8 31.8 0 0 1-15.9 27.6 31.6 31.6 0 0 1-13.59 4.21c8.89.03 16.47.27 22.89.63 19.33 1.06 33.71 15.54 36.22 34.78 1.37 10.5 2.39 22.05 2.07 31.77-.22 6.63-5.1 11.68-11.69 12.44-4.18.47-9.81.97-17.28 1.37-1.15 13.33-2.92 29.42-5.47 42.6-1 5.21-4.55 9.52-9.72 10.7-4.5 1.05-10.93 2.01-19.28 2.01s-14.78-.96-19.28-2c-5.17-1.2-8.71-5.5-9.72-10.7-2.55-13.19-4.32-29.28-5.47-42.61-7.47-.4-13.1-.9-17.28-1.37-6.58-.76-11.47-5.8-11.7-12.44-.31-9.72.7-21.26 2.08-31.77 2.5-19.24 16.89-33.72 36.22-34.78 6.45-.36 14.06-.6 22.98-.63-15.71-1.12-29.6-14.06-29.58-31.81a31.8 31.8 0 0 1 15.9-27.6"/>
<path fill-rule="evenodd" d="M2697.66 724.29c21.18-12.22 47.62 3.12 47.59 27.6a31.8 31.8 0 0 1-15.9 27.6 31.6 31.6 0 0 1-13.59 4.21c8.89.03 16.47.27 22.89.63 19.33 1.06 33.71 15.54 36.22 34.78 1.37 10.5 2.39 22.05 2.07 31.77-.22 6.63-5.1 11.68-11.69 12.44-4.18.47-9.81.97-17.28 1.37-1.15 13.33-2.92 29.42-5.47 42.6-1 5.21-4.55 9.52-9.72 10.7-4.5 1.05-10.93 2.01-19.28 2.01s-14.78-.96-19.28-2c-5.17-1.2-8.71-5.5-9.72-10.7-2.55-13.19-4.32-29.28-5.47-42.61-7.47-.4-13.1-.9-17.28-1.37-6.58-.76-11.47-5.8-11.7-12.44-.31-9.72.7-21.26 2.08-31.77 2.5-19.24 16.89-33.72 36.22-34.78 6.45-.36 14.06-.6 22.98-.63-15.71-1.12-29.6-14.06-29.58-31.81a31.8 31.8 0 0 1 15.9-27.6"/>
<path fill-rule="evenodd" d="M1705.56 874.53c-10.08-.53-17.44-9.45-15.14-19.26 5.26-22.4 14.93-43.09 21.6-55.71 4.36-8.26 12.27-13.87 21.6-14.5a194 194 0 0 1 25.76-.01c9.34.64 17.24 6.25 21.6 14.5 6.67 12.63 16.34 33.33 21.6 55.72 2.3 9.8-5.06 18.73-15.14 19.26q-2.73.15-5.81.28l-2.16 29.07c-.64 8.63-7.3 15.64-15.94 16.33-5.44.43-11.6.79-17.03.79s-11.59-.36-17.03-.8c-8.65-.68-15.3-7.69-15.94-16.32l-2.16-29.07zm9.07-121.71a31.84 31.84 0 0 0 31.87 31.82 31.84 31.84 0 0 0 31.87-31.82A31.84 31.84 0 0 0 1746.5 721a31.84 31.84 0 0 0-31.87 31.82"/>
<path fill-rule="evenodd" d="M2072.56 873.53c-10.08-.53-17.44-9.45-15.14-19.26 5.26-22.4 14.93-43.09 21.6-55.71 4.36-8.26 12.27-13.87 21.6-14.5a194 194 0 0 1 25.76-.01c9.34.64 17.24 6.25 21.6 14.5 6.67 12.63 16.34 33.33 21.6 55.72 2.3 9.8-5.06 18.73-15.14 19.26q-2.72.15-5.81.28l-2.16 29.07c-.64 8.63-7.3 15.64-15.94 16.33-5.44.43-11.6.79-17.03.79s-11.59-.36-17.03-.8c-8.65-.68-15.3-7.69-15.94-16.32l-2.16-29.07zm9.07-121.71a31.84 31.84 0 0 0 31.87 31.82 31.84 31.84 0 0 0 31.87-31.82A31.84 31.84 0 0 0 2113.5 720a31.84 31.84 0 0 0-31.87 31.82"/>
<path fill-rule="evenodd" d="M2185.56 874.53c-10.08-.53-17.44-9.45-15.14-19.26 5.26-22.4 14.93-43.09 21.6-55.71 4.36-8.26 12.27-13.87 21.6-14.5a194 194 0 0 1 25.76-.01c9.34.64 17.24 6.25 21.6 14.5 6.67 12.63 16.34 33.33 21.6 55.72 2.3 9.8-5.06 18.73-15.14 19.26q-2.72.15-5.81.28l-2.16 29.07c-.64 8.63-7.3 15.64-15.94 16.33-5.44.43-11.6.79-17.03.79s-11.59-.36-17.03-.8c-8.65-.68-15.3-7.69-15.94-16.32l-2.16-29.07zm9.07-121.71a31.84 31.84 0 0 0 31.87 31.82 31.84 31.84 0 0 0 31.87-31.82A31.84 31.84 0 0 0 2226.5 721a31.84 31.84 0 0 0-31.87 31.82"/>
<path fill-rule="evenodd" d="M1610.66 725.29c21.18-12.22 47.62 3.12 47.59 27.6a31.8 31.8 0 0 1-15.9 27.6 31.6 31.6 0 0 1-13.59 4.21c8.89.03 16.47.27 22.89.63 19.33 1.06 33.71 15.54 36.22 34.78 1.37 10.5 2.39 22.05 2.07 31.77-.22 6.63-5.1 11.68-11.69 12.44-4.18.47-9.81.97-17.28 1.37-1.15 13.33-2.92 29.42-5.47 42.6-1 5.21-4.55 9.52-9.72 10.7-4.5 1.05-10.93 2.01-19.28 2.01s-14.78-.96-19.28-2c-5.17-1.2-8.71-5.5-9.72-10.7-2.55-13.19-4.32-29.28-5.47-42.61-7.47-.4-13.1-.9-17.28-1.37-6.58-.76-11.47-5.8-11.7-12.44-.31-9.72.7-21.26 2.08-31.77 2.5-19.24 16.89-33.72 36.22-34.78 6.45-.36 14.06-.6 22.98-.63-15.71-1.12-29.6-14.06-29.58-31.81a31.8 31.8 0 0 1 15.9-27.6"/>
<path fill-rule="evenodd" d="M1850.66 725.29c21.18-12.22 47.62 3.12 47.59 27.6a31.8 31.8 0 0 1-15.9 27.6 31.6 31.6 0 0 1-13.59 4.21c8.89.03 16.47.27 22.89.63 19.33 1.06 33.71 15.54 36.22 34.78 1.37 10.5 2.39 22.05 2.07 31.77-.22 6.63-5.1 11.68-11.69 12.44-4.18.47-9.81.97-17.28 1.37-1.15 13.33-2.92 29.42-5.47 42.6-1 5.21-4.55 9.52-9.72 10.7-4.5 1.05-10.93 2.01-19.28 2.01s-14.78-.96-19.28-2c-5.17-1.2-8.71-5.5-9.72-10.7-2.55-13.19-4.32-29.28-5.47-42.61-7.47-.4-13.1-.9-17.28-1.37-6.58-.76-11.47-5.8-11.7-12.44-.31-9.72.7-21.26 2.08-31.77 2.5-19.24 16.89-33.72 36.22-34.78 6.45-.36 14.06-.6 22.98-.63-15.71-1.12-29.6-14.06-29.58-31.81a31.8 31.8 0 0 1 15.9-27.6"/>
<path fill-rule="evenodd" d="M1977.66 724.29c21.18-12.22 47.62 3.12 47.59 27.6a31.8 31.8 0 0 1-15.9 27.6 31.6 31.6 0 0 1-13.59 4.21c8.89.03 16.47.27 22.89.63 19.33 1.06 33.71 15.54 36.22 34.78 1.37 10.5 2.39 22.05 2.07 31.77-.22 6.63-5.1 11.68-11.69 12.44-4.18.47-9.81.97-17.28 1.37-1.15 13.33-2.92 29.42-5.47 42.6-1 5.21-4.55 9.52-9.72 10.7-4.5 1.05-10.93 2.01-19.28 2.01s-14.78-.96-19.28-2c-5.17-1.2-8.71-5.5-9.72-10.7-2.55-13.19-4.32-29.28-5.47-42.61-7.47-.4-13.1-.9-17.28-1.37-6.58-.76-11.47-5.8-11.7-12.44-.31-9.72.7-21.26 2.08-31.77 2.5-19.24 16.89-33.72 36.22-34.78 6.45-.36 14.06-.6 22.98-.63-15.71-1.12-29.6-14.06-29.58-31.81a31.8 31.8 0 0 1 15.9-27.6"/>
<path fill-rule="evenodd" d="M985.56 874.53c-10.08-.53-17.44-9.45-15.14-19.26 5.26-22.4 14.93-43.09 21.6-55.71 4.36-8.26 12.27-13.87 21.6-14.5a194 194 0 0 1 25.76-.01c9.34.64 17.24 6.25 21.6 14.5 6.67 12.63 16.34 33.33 21.6 55.72 2.3 9.8-5.06 18.73-15.14 19.26q-2.72.15-5.81.28l-2.16 29.07c-.64 8.63-7.3 15.64-15.94 16.33-5.44.43-11.6.79-17.03.79s-11.59-.36-17.03-.8c-8.65-.68-15.3-7.69-15.94-16.32l-2.16-29.07zm9.07-121.71a31.84 31.84 0 0 0 31.87 31.82 31.84 31.84 0 0 0 31.87-31.82A31.84 31.84 0 0 0 1026.5 721a31.84 31.84 0 0 0-31.87 31.82"/>
<path fill-rule="evenodd" d="M1352.56 873.53c-10.08-.53-17.44-9.45-15.14-19.26 5.26-22.4 14.93-43.09 21.6-55.71 4.36-8.26 12.27-13.87 21.6-14.5a194 194 0 0 1 25.76-.01c9.34.64 17.24 6.25 21.6 14.5 6.67 12.63 16.34 33.33 21.6 55.72 2.3 9.8-5.06 18.73-15.14 19.26q-2.73.15-5.81.28l-2.16 29.07c-.64 8.63-7.3 15.64-15.94 16.33-5.44.43-11.6.79-17.03.79s-11.59-.36-17.03-.8c-8.65-.68-15.3-7.69-15.94-16.32l-2.16-29.07zm9.07-121.71a31.84 31.84 0 0 0 31.87 31.82 31.84 31.84 0 0 0 31.87-31.82A31.84 31.84 0 0 0 1393.5 720a31.84 31.84 0 0 0-31.87 31.82"/>
<path fill-rule="evenodd" d="M1465.56 874.53c-10.08-.53-17.44-9.45-15.14-19.26 5.26-22.4 14.93-43.09 21.6-55.71 4.36-8.26 12.27-13.87 21.6-14.5a194 194 0 0 1 25.76-.01c9.34.64 17.24 6.25 21.6 14.5 6.67 12.63 16.34 33.33 21.6 55.72 2.3 9.8-5.06 18.73-15.14 19.26q-2.73.15-5.81.28l-2.16 29.07c-.64 8.63-7.3 15.64-15.94 16.33-5.44.43-11.6.79-17.03.79s-11.59-.36-17.03-.8c-8.65-.68-15.3-7.69-15.94-16.32l-2.16-29.07zm9.07-121.71a31.84 31.84 0 0 0 31.87 31.82 31.84 31.84 0 0 0 31.87-31.82A31.84 31.84 0 0 0 1506.5 721a31.84 31.84 0 0 0-31.87 31.82"/>
<path fill-rule="evenodd" d="M890.66 725.29c21.18-12.22 47.62 3.12 47.59 27.6a31.8 31.8 0 0 1-15.9 27.6 31.6 31.6 0 0 1-13.59 4.21c8.89.03 16.47.27 22.89.63 19.33 1.06 33.71 15.54 36.22 34.78 1.37 10.5 2.39 22.05 2.07 31.77-.22 6.63-5.1 11.68-11.69 12.44-4.18.47-9.81.97-17.28 1.37-1.15 13.33-2.92 29.42-5.47 42.6-1 5.21-4.55 9.52-9.72 10.7-4.5 1.05-10.93 2.01-19.28 2.01s-14.78-.96-19.28-2c-5.17-1.2-8.71-5.5-9.72-10.7-2.55-13.19-4.32-29.28-5.47-42.61-7.47-.4-13.1-.9-17.28-1.37-6.58-.76-11.47-5.8-11.7-12.44-.31-9.72.7-21.26 2.08-31.77 2.5-19.24 16.89-33.72 36.22-34.78 6.45-.36 14.06-.6 22.98-.63-15.71-1.12-29.6-14.06-29.58-31.81a31.8 31.8 0 0 1 15.9-27.6"/>
<path fill-rule="evenodd" d="M1130.66 725.29c21.18-12.22 47.62 3.12 47.59 27.6a31.8 31.8 0 0 1-15.9 27.6 31.6 31.6 0 0 1-13.59 4.21c8.89.03 16.47.27 22.89.63 19.33 1.06 33.71 15.54 36.22 34.78 1.37 10.5 2.39 22.05 2.07 31.77-.22 6.63-5.1 11.68-11.69 12.44-4.18.47-9.81.97-17.28 1.37-1.15 13.33-2.92 29.42-5.47 42.6-1 5.21-4.55 9.52-9.72 10.7-4.5 1.05-10.93 2.01-19.28 2.01s-14.78-.96-19.28-2c-5.17-1.2-8.71-5.5-9.72-10.7-2.55-13.19-4.32-29.28-5.47-42.61-7.47-.4-13.1-.9-17.28-1.37-6.58-.76-11.47-5.8-11.7-12.44-.31-9.72.7-21.26 2.08-31.77 2.5-19.24 16.89-33.72 36.22-34.78 6.45-.36 14.06-.6 22.98-.63-15.71-1.12-29.6-14.06-29.58-31.81a31.8 31.8 0 0 1 15.9-27.6"/>
<path fill-rule="evenodd" d="M1257.66 724.29c21.18-12.22 47.62 3.12 47.59 27.6a31.8 31.8 0 0 1-15.9 27.6 31.6 31.6 0 0 1-13.59 4.21c8.89.03 16.47.27 22.89.63 19.33 1.06 33.71 15.54 36.22 34.78 1.37 10.5 2.39 22.05 2.07 31.77-.22 6.63-5.1 11.68-11.69 12.44-4.18.47-9.81.97-17.28 1.37-1.15 13.33-2.92 29.42-5.47 42.6-1 5.21-4.55 9.52-9.72 10.7-4.5 1.05-10.93 2.01-19.28 2.01s-14.78-.96-19.28-2c-5.17-1.2-8.71-5.5-9.72-10.7-2.55-13.19-4.32-29.28-5.47-42.61-7.47-.4-13.1-.9-17.28-1.37-6.58-.76-11.47-5.8-11.7-12.44-.31-9.72.7-21.26 2.08-31.77 2.5-19.24 16.89-33.72 36.22-34.78 6.45-.36 14.06-.6 22.98-.63-15.71-1.12-29.6-14.06-29.58-31.81a31.8 31.8 0 0 1 15.9-27.6"/>
<path fill-rule="evenodd" d="M265.56 874.53c-10.08-.53-17.44-9.45-15.14-19.26 5.26-22.4 14.93-43.09 21.6-55.71 4.36-8.26 12.27-13.87 21.6-14.5a194 194 0 0 1 25.76-.01c9.34.64 17.24 6.25 21.6 14.5 6.67 12.63 16.34 33.33 21.6 55.72 2.3 9.8-5.06 18.73-15.14 19.26q-2.72.15-5.81.28l-2.16 29.07c-.64 8.63-7.3 15.64-15.94 16.33-5.44.43-11.6.79-17.03.79s-11.59-.36-17.03-.8c-8.65-.68-15.3-7.69-15.94-16.32l-2.16-29.07zm9.07-121.71a31.84 31.84 0 0 0 31.87 31.82 31.84 31.84 0 0 0 31.87-31.82A31.84 31.84 0 0 0 306.5 721a31.84 31.84 0 0 0-31.87 31.82"/>
<path fill-rule="evenodd" d="M632.56 873.53c-10.08-.53-17.44-9.45-15.14-19.26 5.26-22.4 14.93-43.09 21.6-55.71 4.36-8.26 12.27-13.87 21.6-14.5a194 194 0 0 1 25.76-.01c9.34.64 17.24 6.25 21.6 14.5 6.67 12.63 16.34 33.33 21.6 55.72 2.3 9.8-5.06 18.73-15.14 19.26q-2.72.15-5.81.28l-2.16 29.07c-.64 8.63-7.3 15.64-15.94 16.33-5.44.43-11.6.79-17.03.79s-11.59-.36-17.03-.8c-8.65-.68-15.3-7.69-15.94-16.32l-2.16-29.07zm9.07-121.71a31.84 31.84 0 0 0 31.87 31.82 31.84 31.84 0 0 0 31.87-31.82A31.84 31.84 0 0 0 673.5 720a31.84 31.84 0 0 0-31.87 31.82"/>
<path fill-rule="evenodd" d="M745.56 874.53c-10.08-.53-17.44-9.45-15.14-19.26 5.26-22.4 14.93-43.09 21.6-55.71 4.36-8.26 12.27-13.87 21.6-14.5a194 194 0 0 1 25.76-.01c9.34.64 17.24 6.25 21.6 14.5 6.67 12.63 16.34 33.33 21.6 55.72 2.3 9.8-5.06 18.73-15.14 19.26q-2.72.15-5.81.28l-2.16 29.07c-.64 8.63-7.3 15.64-15.94 16.33-5.44.43-11.6.79-17.03.79s-11.59-.36-17.03-.8c-8.65-.68-15.3-7.69-15.94-16.32l-2.16-29.07zm9.07-121.71a31.84 31.84 0 0 0 31.87 31.82 31.84 31.84 0 0 0 31.87-31.82A31.84 31.84 0 0 0 786.5 721a31.84 31.84 0 0 0-31.87 31.82"/>
<path fill-rule="evenodd" d="M170.66 725.29c21.18-12.22 47.62 3.12 47.59 27.6a31.8 31.8 0 0 1-15.9 27.6 31.6 31.6 0 0 1-13.59 4.21c8.89.03 16.47.27 22.89.63 19.33 1.06 33.71 15.54 36.22 34.78 1.37 10.5 2.39 22.05 2.07 31.77-.22 6.63-5.1 11.68-11.69 12.44-4.18.47-9.81.97-17.28 1.37-1.15 13.33-2.92 29.42-5.47 42.6-1 5.21-4.55 9.52-9.72 10.7-4.5 1.05-10.93 2.01-19.28 2.01s-14.78-.96-19.28-2c-5.17-1.2-8.71-5.5-9.72-10.7-2.55-13.19-4.32-29.28-5.47-42.61-7.47-.4-13.1-.9-17.28-1.37-6.58-.76-11.47-5.8-11.7-12.44-.31-9.72.7-21.26 2.08-31.77 2.5-19.24 16.89-33.72 36.22-34.78 6.45-.36 14.06-.6 22.98-.63-15.71-1.12-29.6-14.06-29.58-31.81a31.8 31.8 0 0 1 15.9-27.6"/>
<path fill-rule="evenodd" d="M410.66 725.29c21.18-12.22 47.62 3.12 47.59 27.6a31.8 31.8 0 0 1-15.9 27.6 31.6 31.6 0 0 1-13.59 4.21c8.89.03 16.47.27 22.89.63 19.33 1.06 33.71 15.54 36.22 34.78 1.37 10.5 2.39 22.05 2.07 31.77-.22 6.63-5.1 11.68-11.69 12.44-4.18.47-9.81.97-17.28 1.37-1.15 13.33-2.92 29.42-5.47 42.6-1 5.21-4.55 9.52-9.72 10.7-4.5 1.05-10.93 2.01-19.28 2.01s-14.78-.96-19.28-2c-5.17-1.2-8.71-5.5-9.72-10.7-2.55-13.19-4.32-29.28-5.47-42.61-7.47-.4-13.1-.9-17.28-1.37-6.58-.76-11.47-5.8-11.7-12.44-.31-9.72.7-21.26 2.08-31.77 2.5-19.24 16.89-33.72 36.22-34.78 6.45-.36 14.06-.6 22.98-.63-15.71-1.12-29.6-14.06-29.58-31.81a31.8 31.8 0 0 1 15.9-27.6"/>
<path fill-rule="evenodd" d="M537.66 724.29c21.18-12.22 47.62 3.12 47.59 27.6a31.8 31.8 0 0 1-15.9 27.6 31.6 31.6 0 0 1-13.59 4.21c8.89.03 16.47.27 22.89.63 19.33 1.06 33.71 15.54 36.22 34.78 1.37 10.5 2.39 22.05 2.07 31.77-.22 6.63-5.1 11.68-11.69 12.44-4.18.47-9.81.97-17.28 1.37-1.15 13.33-2.92 29.42-5.47 42.6-1 5.21-4.55 9.52-9.72 10.7-4.5 1.05-10.93 2.01-19.28 2.01s-14.78-.96-19.28-2c-5.17-1.2-8.71-5.5-9.72-10.7-2.55-13.19-4.32-29.28-5.47-42.61-7.47-.4-13.1-.9-17.28-1.37-6.58-.76-11.47-5.8-11.7-12.44-.31-9.72.7-21.26 2.08-31.77 2.5-19.24 16.89-33.72 36.22-34.78 6.45-.36 14.06-.6 22.98-.63-15.71-1.12-29.6-14.06-29.58-31.81a31.8 31.8 0 0 1 15.9-27.6"/>
</symbol>

<symbol id="panel-dark-item" overflow="visible">
<path fill-rule="evenodd" d="M170.66 725.29c21.18-12.22 47.62 3.12 47.59 27.6a31.8 31.8 0 0 1-15.9 27.6 31.6 31.6 0 0 1-13.59 4.21c8.89.03 16.47.27 22.89.63 19.33 1.06 33.71 15.54 36.22 34.78 1.37 10.5 2.39 22.05 2.07 31.77-.22 6.63-5.1 11.68-11.69 12.44-4.18.47-9.81.97-17.28 1.37-1.15 13.33-2.92 29.42-5.47 42.6-1 5.21-4.55 9.52-9.72 10.7-4.5 1.05-10.93 2.01-19.28 2.01s-14.78-.96-19.28-2c-5.17-1.2-8.71-5.5-9.72-10.7-2.55-13.19-4.32-29.28-5.47-42.61-7.47-.4-13.1-.9-17.28-1.37-6.58-.76-11.47-5.8-11.7-12.44-.31-9.72.7-21.26 2.08-31.77 2.5-19.24 16.89-33.72 36.22-34.78 6.45-.36 14.06-.6 22.98-.63-15.71-1.12-29.6-14.06-29.58-31.81a31.8 31.8 0 0 1 15.9-27.6"/>
<path fill-rule="evenodd" d="M265.56 874.53c-10.08-.53-17.44-9.45-15.14-19.26 5.26-22.4 14.93-43.09 21.6-55.71 4.36-8.26 12.27-13.87 21.6-14.5a194 194 0 0 1 25.76-.01c9.34.64 17.24 6.25 21.6 14.5 6.67 12.63 16.34 33.33 21.6 55.72 2.3 9.8-5.06 18.73-15.14 19.26q-2.72.15-5.81.28l-2.16 29.07c-.64 8.63-7.3 15.64-15.94 16.33-5.44.43-11.6.79-17.03.79s-11.59-.36-17.03-.8c-8.65-.68-15.3-7.69-15.94-16.32l-2.16-29.07zm9.07-121.71a31.84 31.84 0 0 0 31.87 31.82 31.84 31.84 0 0 0 31.87-31.82A31.84 31.84 0 0 0 306.5 721a31.84 31.84 0 0 0-31.87 31.82"/>
<path fill-rule="evenodd" d="M410.66 725.29c21.18-12.22 47.62 3.12 47.59 27.6a31.8 31.8 0 0 1-15.9 27.6 31.6 31.6 0 0 1-13.59 4.21c8.89.03 16.47.27 22.89.63 19.33 1.06 33.71 15.54 36.22 34.78 1.37 10.5 2.39 22.05 2.07 31.77-.22 6.63-5.1 11.68-11.69 12.44-4.18.47-9.81.97-17.28 1.37-1.15 13.33-2.92 29.42-5.47 42.6-1 5.21-4.55 9.52-9.72 10.7-4.5 1.05-10.93 2.01-19.28 2.01s-14.78-.96-19.28-2c-5.17-1.2-8.71-5.5-9.72-10.7-2.55-13.19-4.32-29.28-5.47-42.61-7.47-.4-13.1-.9-17.28-1.37-6.58-.76-11.47-5.8-11.7-12.44-.31-9.72.7-21.26 2.08-31.77 2.5-19.24 16.89-33.72 36.22-34.78 6.45-.36 14.06-.6 22.98-.63-15.71-1.12-29.6-14.06-29.58-31.81a31.8 31.8 0 0 1 15.9-27.6"/>
</symbol>

<symbol id="panel-dark-row-11" overflow="visible">
<use href="#panel-dark-item" transform="translate(0 0)"/>
<use href="#panel-dark-item" transform="translate(360 0)"/>
<use href="#panel-dark-item" transform="translate(720 0)"/>
</symbol>

<symbol id="panel-light-person" overflow="visible">
<path fill-rule="evenodd" stroke="#4f6a9a" stroke-linejoin="round" stroke-width="4" d="M2861.8 809.24a28.2 28.2 0 0 0 28.2 28.23 28.2 28.2 0 0 0 28.2-28.23A28.2 28.2 0 0 0 2890 781a28.2 28.2 0 0 0-28.2 28.24Zm51.02 28.78c9.41.5 16.87 7.33 18.52 16.62 1.51 8.54 3.3 20.15 4.6 33.5a12.97 12.97 0 0 1-12.18 14.33q-3.24.2-7.25.36l-1.87 25.3c-.46 6.23-4.98 11.42-11.19 12.1-3.85.43-8.5.77-13.45.77-4.96 0-9.6-.34-13.45-.76-6.22-.69-10.73-5.88-11.2-12.12l-1.86-25.29q-4.02-.16-7.25-.36a12.97 12.97 0 0 1-12.18-14.33 435 435 0 0 1 4.6-33.5c1.65-9.29 9.11-16.11 18.51-16.62 5.81-.3 13.36-.55 22.83-.55s17.02.24 22.82.55Z"/>
</symbol>

<symbol id="panel-light-figure" overflow="visible">
<path fill-rule="evenodd" stroke="#4f6a9a" stroke-linejoin="round" stroke-width="4" d="M2057.5 831.9a25.5 25.5 0 0 1-25.5-25.45 25.5 25.5 0 0 1 25.5-25.45c14.08 0 25.5 11.4 25.5 25.45a25.5 25.5 0 0 1-25.5 25.46Zm0 0h4.06c7.62 0 15.2-.98 22.56-2.95l34.33-9.15c5.56-1.48 11.88.3 13.99 5.64 1.8 4.57 1.8 8.5 1.21 11.46-.8 4.15-4.27 6.97-7.98 9l-29.22 15.97a10.9 10.9 0 0 0-5.62 8.5l-5.42 54.88c-.8 8.21-7.07 14.83-15.32 15.35a197 197 0 0 1-24.8 0c-8.25-.52-14.5-7.14-15.32-15.35l-5.4-54.83a10.9 10.9 0 0 0-5.7-8.54l-29.17-15.69c-4.12-2.21-7.91-5.43-8.53-10.06-.36-2.78-.23-6.3 1.23-10.34 2-5.52 8.44-7.45 14.13-5.95l34.85 9.18a88 88 0 0 0 22.31 2.89z"/>
</symbol>
</defs>

<g class="panel-root">

<g class="panel-text">
<path d="M1531.24 1065.35h14.56v-38.22q0-2.8.16-5.87l-8.58 7.12a6 6 0 0 1-1.67.96 5 5 0 0 1-4.03-.31 5 5 0 0 1-1.58-1.27l-5.1-6.76 23.6-19.82h13.32v64.17h12.48V1077h-43.16zm50.34 3.49a8.6 8.6 0 0 1 2.62-6.3 9.2 9.2 0 0 1 6.53-2.6q1.92 0 3.59.7a10 10 0 0 1 2.9 1.9 8.6 8.6 0 0 1 2.66 6.3 8.8 8.8 0 0 1-2.65 6.34q-1.24 1.2-2.91 1.87-1.66.68-3.6.68a10 10 0 0 1-3.63-.68 8.7 8.7 0 0 1-5.51-8.22m54.18-68.44q5.61 0 9.98 1.59a22 22 0 0 1 7.39 4.29 18 18 0 0 1 4.57 6.27 18.5 18.5 0 0 1 1.56 7.51q0 3.6-.72 6.32-.73 2.73-2.16 4.73a14 14 0 0 1-3.54 3.4q-2.1 1.4-4.8 2.35 12.57 4.36 12.58 17.1 0 6.05-2.19 10.5a22 22 0 0 1-5.85 7.44 25 25 0 0 1-8.5 4.45 34 34 0 0 1-10.09 1.48q-5.4 0-9.62-1.17a22.2 22.2 0 0 1-13.23-9.96 42 42 0 0 1-4.3-9.15l7.18-2.91a8 8 0 0 1 1.85-.57q.9-.15 1.8-.16 1.65 0 2.98.65a4.4 4.4 0 0 1 2 1.9q2.35 4.32 4.97 6.27t6.16 1.95q2.7 0 4.71-.91 2-.92 3.33-2.34a10 10 0 0 0 2-3.25q.68-1.83.68-3.7 0-2.44-.34-4.39a5.7 5.7 0 0 0-1.9-3.35q-1.56-1.41-4.7-2.16t-8.77-.76v-11.12q4.73 0 7.65-.73a12 12 0 0 0 4.5-2 6 6 0 0 0 2.1-3.1q.52-1.82.52-4 0-4.47-2.16-6.9-2.16-2.4-6.58-2.41a10 10 0 0 0-6.03 1.92 9 9 0 0 0-2.05 2.08q-.86 1.2-1.38 2.6a7.5 7.5 0 0 1-2.1 3.38q-1.28 1.05-3.46 1.04a13 13 0 0 1-2.34-.2l-8.53-1.51a29 29 0 0 1 3.2-9.88 24 24 0 0 1 5.87-7.02 24 24 0 0 1 8.04-4.19 33 33 0 0 1 9.72-1.38m33.8 76.6v-53.92h9.98q1.5 0 2.53.67a3.6 3.6 0 0 1 1.43 2.03l.88 2.91q1.35-1.4 2.8-2.57a18 18 0 0 1 6.8-3.38q1.95-.5 4.28-.5 4.9 0 8.09 2.53a15.7 15.7 0 0 1 4.86 6.73q1.35-2.5 3.3-4.26 1.94-1.78 4.22-2.86 2.25-1.1 4.78-1.62a25 25 0 0 1 5.02-.52q4.62 0 8.21 1.38 3.6 1.39 6.01 4a17 17 0 0 1 3.67 6.45 28 28 0 0 1 1.24 8.66V1077h-16.12v-34.27q0-8.37-7.17-8.37-3.28 0-5.44 2.16-2.15 2.15-2.15 6.21V1077h-16.12v-34.27q0-4.62-1.82-6.5-1.83-1.87-5.36-1.87-2.18 0-4.13.99t-3.67 2.65v39z"/>
<path d="M1832.71 1077h-6.24v-20.86h-24.7V1077h-6.24v-45.86h6.24v20.45h24.7v-20.45h6.24zm53.8-22.91q0 5.15-1.64 9.45a20.6 20.6 0 0 1-11.76 12.22 24 24 0 0 1-9.23 1.72 24 24 0 0 1-9.22-1.71 20.6 20.6 0 0 1-11.74-12.23 27 27 0 0 1-1.63-9.45q0-5.16 1.63-9.46a22 22 0 0 1 4.6-7.42 21 21 0 0 1 7.14-4.85 24 24 0 0 1 9.22-1.73q5.06 0 9.23 1.73a21 21 0 0 1 7.15 4.85 22 22 0 0 1 4.61 7.42 27 27 0 0 1 1.63 9.46m-6.37 0q0-4.23-1.16-7.59a16 16 0 0 0-3.26-5.68 14 14 0 0 0-5.12-3.56q-3-1.26-6.72-1.25-3.68 0-6.69 1.25-3 1.25-5.13 3.56a16 16 0 0 0-3.28 5.68 23 23 0 0 0-1.16 7.59q0 4.22 1.16 7.57a16 16 0 0 0 3.28 5.66 14 14 0 0 0 5.13 3.55q3 1.23 6.69 1.23t6.72-1.23a14 14 0 0 0 5.12-3.55q2.11-2.32 3.26-5.66a23 23 0 0 0 1.16-7.57m32.67 17.98q2.85 0 5.09-.96 2.23-.95 3.79-2.69a12 12 0 0 0 2.37-4.12q.81-2.4.81-5.28v-27.88h6.18v27.88q0 3.97-1.27 7.36a17 17 0 0 1-3.61 5.87 16.5 16.5 0 0 1-5.75 3.89 20 20 0 0 1-7.61 1.4 20 20 0 0 1-7.62-1.4 17 17 0 0 1-5.76-3.9 17 17 0 0 1-3.63-5.86 21 21 0 0 1-1.26-7.36v-27.88h6.17v27.84q0 2.88.82 5.28t2.37 4.13a11 11 0 0 0 3.8 2.7q2.25.99 5.1.98m52.38-33.76q-.3.48-.6.72-.33.24-.84.24-.54 0-1.26-.54t-1.83-1.2a15 15 0 0 0-2.65-1.2 11 11 0 0 0-3.76-.55q-2.09.01-3.68.56a8 8 0 0 0-2.67 1.52 6 6 0 0 0-1.62 2.26q-.54 1.3-.54 2.8 0 1.92.94 3.18a8 8 0 0 0 2.5 2.16q1.54.9 3.52 1.56l4.03 1.36q2.06.7 4.03 1.58t3.52 2.22 2.5 3.3.94 4.8q0 3-1.02 5.65a13 13 0 0 1-3 4.59 14 14 0 0 1-4.83 3.07q-2.86 1.12-6.51 1.12-4.45 0-8.11-1.61a19 19 0 0 1-6.26-4.37l1.8-2.95q.24-.35.62-.59.37-.24.81-.24.67 0 1.54.72t2.16 1.59 3.14 1.58q1.83.72 4.5.72 2.2 0 3.93-.6a8 8 0 0 0 2.93-1.72 7.4 7.4 0 0 0 1.84-2.64q.63-1.54.64-3.42 0-2.1-.95-3.41a8 8 0 0 0-2.48-2.23q-1.53-.9-3.5-1.52l-4.03-1.28a41 41 0 0 1-4.04-1.52 13 13 0 0 1-3.5-2.24 10 10 0 0 1-2.48-3.44 12 12 0 0 1-.94-5.1 12.2 12.2 0 0 1 3.68-8.74 13 13 0 0 1 4.43-2.81q2.64-1.06 6.06-1.06 3.84 0 7.01 1.22 3.17 1.2 5.54 3.52zm38.69-7.17v5.06h-22.02v15.23h17.83v4.87h-17.83v15.64h22.02v5.06h-28.26v-45.86zm46.11 45.86h-6.24v-20.86h-24.7V1077h-6.24v-45.86h6.24v20.45h24.7v-20.45h6.24zm53.8-22.91q0 5.15-1.64 9.45a20.6 20.6 0 0 1-11.76 12.22 24 24 0 0 1-9.23 1.72 24 24 0 0 1-9.22-1.71 20.6 20.6 0 0 1-11.74-12.23 27 27 0 0 1-1.63-9.45q0-5.16 1.63-9.46a22 22 0 0 1 4.6-7.42 21 21 0 0 1 7.14-4.85 24 24 0 0 1 9.22-1.73q5.06 0 9.23 1.73a21 21 0 0 1 7.15 4.85 22 22 0 0 1 4.61 7.42 27 27 0 0 1 1.63 9.46m-6.37 0q0-4.23-1.16-7.59a16 16 0 0 0-3.26-5.68 14 14 0 0 0-5.12-3.56q-3-1.26-6.72-1.25-3.67 0-6.69 1.25-3 1.25-5.13 3.56a16 16 0 0 0-3.28 5.68 23 23 0 0 0-1.16 7.59q0 4.22 1.16 7.57a16 16 0 0 0 3.28 5.66 14 14 0 0 0 5.13 3.55q3 1.23 6.69 1.23t6.72-1.23a14 14 0 0 0 5.12-3.55q2.11-2.32 3.26-5.66a23 23 0 0 0 1.16-7.57m21.05 17.7h19.84v5.21h-26.05v-45.86h6.21zm66.43-17.7q0 5.15-1.63 9.37a21 21 0 0 1-4.6 7.24q-2.99 3-7.14 4.65a25 25 0 0 1-9.22 1.65h-17.15v-45.86h17.15q5.05 0 9.22 1.65a20 20 0 0 1 7.13 4.67 21 21 0 0 1 4.61 7.25 26 26 0 0 1 1.63 9.38m-6.36 0q0-4.23-1.16-7.55a16 16 0 0 0-3.26-5.64 14 14 0 0 0-5.12-3.52 18 18 0 0 0-6.69-1.21h-10.91v35.8h10.91q3.68 0 6.69-1.21 3-1.22 5.12-3.5 2.11-2.3 3.26-5.62a23 23 0 0 0 1.16-7.55m38.3-15.78q-.3.48-.6.72-.33.24-.84.24-.54 0-1.26-.54-.73-.54-1.83-1.2a15 15 0 0 0-2.65-1.2 11 11 0 0 0-3.76-.55q-2.1.01-3.68.56a8 8 0 0 0-2.68 1.52 6 6 0 0 0-1.61 2.26q-.55 1.3-.55 2.8 0 1.92.95 3.18a8 8 0 0 0 2.5 2.16q1.55.9 3.51 1.56 1.97.65 4.04 1.36 2.06.7 4.03 1.58 1.96.88 3.52 2.22 1.54 1.35 2.5 3.3.94 1.95.94 4.8 0 3-1.03 5.65a13 13 0 0 1-2.99 4.59 14 14 0 0 1-4.83 3.07q-2.86 1.12-6.51 1.12-4.45 0-8.11-1.61a19 19 0 0 1-6.26-4.37l1.8-2.95q.24-.35.62-.59.36-.24.81-.24.67 0 1.54.72.86.72 2.16 1.59 1.29.86 3.13 1.58t4.5.72q2.2 0 3.94-.6a8 8 0 0 0 2.92-1.72 7.4 7.4 0 0 0 1.84-2.64q.64-1.54.64-3.42 0-2.1-.94-3.41a8 8 0 0 0-2.48-2.23q-1.54-.9-3.5-1.52l-4.04-1.28a41 41 0 0 1-4.03-1.52 13 13 0 0 1-3.5-2.24 10 10 0 0 1-2.48-3.44 12 12 0 0 1-.95-5.1 12.2 12.2 0 0 1 3.68-8.74 13 13 0 0 1 4.44-2.81q2.64-1.06 6.06-1.06 3.84 0 7 1.22 3.18 1.2 5.54 3.52zm55.1 29.22q.52 0 .93.41l2.43 2.66a20 20 0 0 1-6.83 5.09q-4.01 1.82-9.68 1.82-4.95 0-8.99-1.71a20 20 0 0 1-6.88-4.8 22 22 0 0 1-4.42-7.4 28 28 0 0 1-1.56-9.51q0-5.2 1.68-9.5a22 22 0 0 1 4.72-7.43 21 21 0 0 1 7.28-4.82 25 25 0 0 1 9.36-1.7q5.05 0 8.72 1.56a22 22 0 0 1 6.5 4.26l-2 2.84a2 2 0 0 1-.52.53q-.3.21-.83.21-.42 0-.88-.3t-1.1-.76-1.51-.96-2.05-.96-2.75-.75-3.62-.3q-3.68 0-6.73 1.26t-5.27 3.6a16 16 0 0 0-3.44 5.7 22 22 0 0 0-1.23 7.52q0 4.28 1.23 7.65a17 17 0 0 0 3.36 5.68 14 14 0 0 0 5.04 3.53q2.92 1.22 6.28 1.22 2.04 0 3.68-.24 1.63-.24 3.02-.75 1.4-.52 2.6-1.3 1.2-.79 2.4-1.87.55-.48 1.06-.48m29.35 4.54q2.85 0 5.09-.96 2.23-.95 3.79-2.69a12 12 0 0 0 2.37-4.12q.81-2.4.81-5.28v-27.88h6.18v27.88q0 3.97-1.27 7.36a17 17 0 0 1-3.61 5.87 16.5 16.5 0 0 1-5.75 3.89 20 20 0 0 1-7.61 1.4 20 20 0 0 1-7.62-1.4 17 17 0 0 1-5.76-3.9 17 17 0 0 1-3.63-5.86 21 21 0 0 1-1.26-7.36v-27.88h6.17v27.84q0 2.88.82 5.28t2.37 4.13a11 11 0 0 0 3.8 2.7q2.25.99 5.1.98m35.71-14.2V1077h-6.18v-45.86h12.96q4.35 0 7.52.88 3.18.9 5.24 2.55 2.07 1.66 3.05 4.01 1 2.36 1 5.27 0 2.43-.77 4.54a12 12 0 0 1-2.23 3.8 13 13 0 0 1-3.55 2.86q-2.1 1.18-4.75 1.79 1.15.67 2.05 1.95l13.37 18.21h-5.5q-1.7 0-2.5-1.31l-11.9-16.39a3.5 3.5 0 0 0-1.19-1.1 4 4 0 0 0-1.92-.34zm0-4.52h6.5q2.7 0 4.78-.65a10 10 0 0 0 3.46-1.86 8 8 0 0 0 2.1-2.86q.7-1.67.7-3.68 0-4.1-2.7-6.18-2.72-2.08-8.06-2.08H2337zm41.22 4.51V1077H2372v-45.86h13q4.35 0 7.52.88 3.17.9 5.23 2.55 2.07 1.66 3.06 4.01.99 2.36.99 5.27 0 2.43-.77 4.54a12 12 0 0 1-2.22 3.8 13 13 0 0 1-3.55 2.86q-2.1 1.18-4.76 1.79 1.15.67 2.05 1.95l13.38 18.21h-5.5q-1.7 0-2.5-1.31l-11.9-16.39a3.5 3.5 0 0 0-1.19-1.1 4 4 0 0 0-1.92-.34zm0-4.5h6.5q2.7 0 4.78-.66a10 10 0 0 0 3.45-1.86 8 8 0 0 0 2.1-2.86q.7-1.67.7-3.68 0-4.1-2.7-6.18t-8.05-2.08h-6.78zm62.65-22.22v5.06h-22.01v15.23h17.82v4.87h-17.82v15.64h22.01v5.06h-28.25v-45.86zm12.13 0q.83 0 1.23.21t.91.85l26.56 34.56a22 22 0 0 1-.16-3.14v-32.48h5.44V1077h-3.13q-.74 0-1.23-.26a3 3 0 0 1-.98-.86l-26.53-34.53a41 41 0 0 1 .13 2.98V1077h-5.44v-45.86zm76.42 0v5.22h-14.82V1077h-6.2v-40.64h-14.89v-5.22zm12.73 40.64H2562v5.22h-26.05v-45.86h6.21zm44.35-13.02V1077h-6.17v-18.24l-16.8-27.62h5.44q.83 0 1.31.42t.83 1.02l10.5 17.83q.63 1.11 1.07 2.11.43.99.78 1.95.36-.99.77-1.98.42-1 1.06-2.08l10.46-17.83q.3-.5.79-.97t1.3-.47h5.5zm77.54-4.67q0 5.15-1.63 9.45a20.6 20.6 0 0 1-11.76 12.22 24 24 0 0 1-9.23 1.72 24 24 0 0 1-9.22-1.71 20.6 20.6 0 0 1-11.74-12.23 27 27 0 0 1-1.64-9.45q0-5.16 1.64-9.46a22 22 0 0 1 4.6-7.42 21 21 0 0 1 7.14-4.85 24 24 0 0 1 9.22-1.73q5.05 0 9.23 1.73a21 21 0 0 1 7.15 4.85 22 22 0 0 1 4.6 7.42 27 27 0 0 1 1.64 9.46m-6.37 0q0-4.23-1.15-7.59a16 16 0 0 0-3.26-5.68 14 14 0 0 0-5.12-3.56q-3-1.26-6.72-1.25-3.69 0-6.7 1.25-3 1.25-5.13 3.56a16 16 0 0 0-3.28 5.68 23 23 0 0 0-1.15 7.59q0 4.22 1.15 7.57a16 16 0 0 0 3.28 5.66 14 14 0 0 0 5.14 3.55q3 1.23 6.69 1.23t6.72-1.23a14 14 0 0 0 5.12-3.55q2.11-2.32 3.26-5.66a23 23 0 0 0 1.15-7.57m18.05-22.95q.83 0 1.23.21t.91.85l26.56 34.56a22 22 0 0 1-.16-3.14v-32.48h5.44V1077h-3.13q-.74 0-1.23-.26a3 3 0 0 1-.98-.86l-26.53-34.53a41 41 0 0 1 .13 2.98V1077h-5.44v-45.86zm81.02 7.17q-.3.48-.6.72-.33.24-.84.24-.54 0-1.26-.54t-1.82-1.2a15 15 0 0 0-2.66-1.2 11 11 0 0 0-3.76-.55q-2.08.01-3.68.56a8 8 0 0 0-2.67 1.52 6 6 0 0 0-1.62 2.26q-.54 1.3-.54 2.8 0 1.92.94 3.18a8 8 0 0 0 2.5 2.16q1.54.9 3.52 1.56 1.96.65 4.03 1.36 2.07.7 4.03 1.58t3.52 2.22 2.5 3.3.94 4.8q0 3-1.02 5.65a13 13 0 0 1-3 4.59 14 14 0 0 1-4.83 3.07q-2.86 1.12-6.5 1.12-4.46 0-8.12-1.61a19 19 0 0 1-6.26-4.37l1.8-2.95q.25-.35.62-.59t.82-.24q.67 0 1.53.72.87.72 2.16 1.59 1.3.86 3.14 1.58 1.83.72 4.5.72 2.2 0 3.93-.6a8 8 0 0 0 2.93-1.72 7.4 7.4 0 0 0 1.84-2.64q.64-1.54.64-3.42 0-2.1-.95-3.41a8 8 0 0 0-2.48-2.23q-1.53-.9-3.5-1.52l-4.03-1.28a41 41 0 0 1-4.03-1.52 13 13 0 0 1-3.5-2.24 10 10 0 0 1-2.49-3.44 12 12 0 0 1-.94-5.1 12.2 12.2 0 0 1 3.68-8.74 13 13 0 0 1 4.43-2.81q2.64-1.06 6.06-1.06 3.84 0 7.01 1.22 3.17 1.2 5.54 3.52zm53.03 15.78q0 5.15-1.63 9.45a20.6 20.6 0 0 1-11.76 12.22 24 24 0 0 1-9.24 1.72 24 24 0 0 1-9.21-1.71 20.6 20.6 0 0 1-11.75-12.23 27 27 0 0 1-1.63-9.45q0-5.16 1.63-9.46a22 22 0 0 1 4.61-7.42 21 21 0 0 1 7.14-4.85 24 24 0 0 1 9.21-1.73q5.05 0 9.24 1.73a21 21 0 0 1 7.15 4.85 22 22 0 0 1 4.6 7.42 27 27 0 0 1 1.64 9.46m-6.37 0q0-4.23-1.15-7.59a16 16 0 0 0-3.27-5.68 14 14 0 0 0-5.12-3.56q-3-1.26-6.72-1.25-3.68 0-6.68 1.25t-5.14 3.56a16 16 0 0 0-3.28 5.68 23 23 0 0 0-1.15 7.59q0 4.22 1.15 7.57a16 16 0 0 0 3.28 5.66 14 14 0 0 0 5.14 3.55q3 1.23 6.68 1.23 3.72 0 6.72-1.23a14 14 0 0 0 5.12-3.55q2.11-2.32 3.27-5.66a23 23 0 0 0 1.15-7.57m47.17 13.44q.51 0 .93.41l2.43 2.66a20 20 0 0 1-6.83 5.09q-4.01 1.82-9.68 1.82-4.96 0-9-1.71a20 20 0 0 1-6.88-4.8 22 22 0 0 1-4.41-7.4 28 28 0 0 1-1.57-9.51q0-5.2 1.68-9.5a22 22 0 0 1 4.72-7.43 21 21 0 0 1 7.28-4.82 25 25 0 0 1 9.36-1.7q5.06 0 8.72 1.56a22 22 0 0 1 6.51 4.26l-2.01 2.84a2 2 0 0 1-.52.53q-.29.21-.83.21-.42 0-.88-.3l-1.1-.76q-.64-.44-1.5-.96-.87-.51-2.05-.96-1.2-.45-2.76-.75-1.57-.3-3.61-.3-3.68 0-6.74 1.26t-5.26 3.6a16 16 0 0 0-3.44 5.7 22 22 0 0 0-1.23 7.52q0 4.28 1.23 7.65a17 17 0 0 0 3.36 5.68 14 14 0 0 0 5.04 3.53q2.91 1.22 6.27 1.22 2.06 0 3.68-.24 1.64-.24 3.02-.75 1.4-.52 2.6-1.3 1.2-.79 2.41-1.87.55-.48 1.06-.48m18.88 9.47h-6.21v-45.86h6.2zm50.01 0h-4.8q-.83 0-1.34-.42-.51-.41-.77-1.05l-4.29-11.07h-20.57l-4.29 11.07q-.22.57-.77 1.02-.54.45-1.34.45h-4.8l18.33-45.86h6.3zm-30.04-17.02h17.12l-7.2-18.66q-.7-1.73-1.38-4.32-.35 1.3-.69 2.42-.33 1.1-.65 1.93zm42.04 11.8h19.84v5.22h-26.04v-45.86h6.2zm76.23 5.22h-6.24v-20.86h-24.7V1077h-6.25v-45.86h6.24v20.45h24.7v-20.45h6.25zm53.79-22.91q0 5.15-1.63 9.45a20.6 20.6 0 0 1-11.76 12.22 24 24 0 0 1-9.23 1.72 24 24 0 0 1-9.22-1.71 20.6 20.6 0 0 1-11.74-12.23 27 27 0 0 1-1.64-9.45q0-5.16 1.64-9.46a22 22 0 0 1 4.6-7.42 21 21 0 0 1 7.14-4.85 24 24 0 0 1 9.22-1.73q5.05 0 9.23 1.73a21 21 0 0 1 7.15 4.85 22 22 0 0 1 4.6 7.42 27 27 0 0 1 1.64 9.46m-6.37 0q0-4.23-1.15-7.59a16 16 0 0 0-3.26-5.68 14 14 0 0 0-5.12-3.56q-3-1.26-6.72-1.25-3.69 0-6.7 1.25-3 1.25-5.13 3.56a16 16 0 0 0-3.28 5.68 23 23 0 0 0-1.15 7.59q0 4.22 1.15 7.57a16 16 0 0 0 3.28 5.66 14 14 0 0 0 5.14 3.55q3 1.23 6.69 1.23t6.72-1.23a14 14 0 0 0 5.12-3.55q2.11-2.32 3.26-5.66a23 23 0 0 0 1.15-7.57m32.67 17.98q2.85 0 5.1-.96 2.24-.95 3.78-2.69a12 12 0 0 0 2.37-4.12q.82-2.4.82-5.28v-27.88h6.17v27.88q0 3.97-1.26 7.36a17 17 0 0 1-3.62 5.87 16.5 16.5 0 0 1-5.74 3.89 20 20 0 0 1-7.62 1.4 20 20 0 0 1-7.61-1.4 17 17 0 0 1-5.76-3.9 17 17 0 0 1-3.63-5.86 21 21 0 0 1-1.27-7.36v-27.88h6.18v27.84q0 2.88.81 5.28t2.37 4.13a11 11 0 0 0 3.81 2.7q2.25.99 5.1.98m52.39-33.76q-.3.48-.61.72-.32.24-.83.24-.55 0-1.27-.54t-1.82-1.2a15 15 0 0 0-2.66-1.2 11 11 0 0 0-3.76-.55q-2.07.01-3.68.56a8 8 0 0 0-2.67 1.52 6 6 0 0 0-1.61 2.26q-.55 1.3-.55 2.8 0 1.92.95 3.18a8 8 0 0 0 2.5 2.16q1.55.9 3.51 1.56 1.97.65 4.03 1.36 2.07.7 4.04 1.58 1.95.88 3.52 2.22 1.54 1.35 2.5 3.3.93 1.95.94 4.8 0 3-1.03 5.65a13 13 0 0 1-2.99 4.59 14 14 0 0 1-4.83 3.07q-2.86 1.12-6.51 1.12-4.45 0-8.12-1.61a19 19 0 0 1-6.25-4.37l1.79-2.95q.26-.35.62-.59.37-.24.82-.24.67 0 1.54.72.86.72 2.16 1.59 1.29.86 3.13 1.58t4.5.72q2.2 0 3.93-.6a8 8 0 0 0 2.93-1.72 7.4 7.4 0 0 0 1.84-2.64q.64-1.54.64-3.42 0-2.1-.94-3.41a8 8 0 0 0-2.48-2.23q-1.55-.9-3.5-1.52l-4.04-1.28a41 41 0 0 1-4.03-1.52 13 13 0 0 1-3.5-2.24 10 10 0 0 1-2.48-3.44 12 12 0 0 1-.95-5.1 12.2 12.2 0 0 1 3.68-8.74 13 13 0 0 1 4.43-2.81q2.64-1.06 6.07-1.06 3.84 0 7 1.22 3.18 1.2 5.54 3.52zm17.79 38.69h-6.2v-45.86h6.2zm15.49-45.86q.83 0 1.23.21t.91.85l26.56 34.56a22 22 0 0 1-.16-3.14v-32.48h5.44V1077h-3.13q-.74 0-1.24-.26a3 3 0 0 1-.97-.86l-26.53-34.53a41 41 0 0 1 .13 2.98V1077h-5.44v-45.86zm65.63 41.35q1.86 0 3.4-.18a22 22 0 0 0 5.53-1.37q1.2-.5 2.43-1.14v-10.11h-7.1q-.6 0-.98-.35a1.2 1.2 0 0 1-.37-.87v-3.52h14.08v17.6a25 25 0 0 1-7.6 3.73q-2.13.63-4.56.93t-5.28.3q-5 0-9.15-1.71a21 21 0 0 1-11.86-12.2 26 26 0 0 1-1.68-9.51q0-5.25 1.65-9.57a21 21 0 0 1 4.7-7.4 21 21 0 0 1 7.4-4.8q4.34-1.68 9.71-1.69a30 30 0 0 1 5.06.4q2.33.4 4.33 1.15t3.7 1.83 3.17 2.41l-1.76 2.82q-.56.87-1.41.86-.51 0-1.12-.35-.8-.45-1.8-1.09-.99-.63-2.41-1.23t-3.36-1q-1.94-.42-4.6-.42-3.85 0-7 1.26t-5.34 3.62a16 16 0 0 0-3.4 5.7 22 22 0 0 0-1.18 7.5q0 4.35 1.23 7.76t3.47 5.77a15 15 0 0 0 5.32 3.62q3.06 1.25 6.78 1.25m33.76-41.35h5.15q.84 0 1.38.42t.73 1.06l9.48 31.87q.25.87.46 1.85l.4 2.08.45-2.1q.22-1 .51-1.83l10.78-31.87q.2-.55.76-1.01.55-.47 1.36-.47h1.79q.82 0 1.36.42.53.42.75 1.06l10.72 31.87q.58 1.66 1.02 3.8l.36-2.01q.15-.96.41-1.8l9.5-31.86a2 2 0 0 1 .73-1.03q.55-.45 1.36-.45h4.83l-14.3 45.86h-5.57l-11.62-34.98q-.35-1-.64-2.3l-.3 1.23q-.15.6-.3 1.07L3292.7 1077h-5.57zm108.1 45.86h-4.8q-.83 0-1.34-.42-.51-.41-.77-1.05l-4.29-11.07h-20.57l-4.29 11.07q-.22.57-.77 1.02-.54.45-1.34.45h-4.8l18.33-45.86h6.3zm-30.04-17.02h17.12l-7.2-18.66q-.7-1.73-1.38-4.32-.34 1.3-.69 2.42-.33 1.1-.65 1.93zm43.2 17.02h-6.21v-45.86h6.2zm43.52-45.86v5.22h-14.82V1077h-6.2v-40.64h-14.89v-5.22zm13.88 45.86h-6.2v-45.86h6.2zm15.5-45.86q.83 0 1.22.21.4.2.92.85l26.56 34.56a22 22 0 0 1-.16-3.14v-32.48h5.44V1077h-3.14q-.74 0-1.23-.26a3 3 0 0 1-.98-.86l-26.53-34.53a41 41 0 0 1 .13 2.98V1077h-5.44v-45.86zm65.62 41.35q1.86 0 3.41-.18a22 22 0 0 0 5.52-1.37q1.21-.5 2.43-1.14v-10.11h-7.1q-.6 0-.98-.35a1.2 1.2 0 0 1-.36-.87v-3.52h14.08v17.6a25 25 0 0 1-7.6 3.73q-2.13.63-4.56.93-2.44.3-5.28.3-5 0-9.16-1.71a21 21 0 0 1-11.85-12.2 26 26 0 0 1-1.68-9.51q0-5.25 1.65-9.57a21 21 0 0 1 4.7-7.4 21 21 0 0 1 7.4-4.8q4.32-1.68 9.7-1.69a30 30 0 0 1 5.06.4q2.34.4 4.34 1.15t3.7 1.83q1.68 1.07 3.16 2.41l-1.76 2.82q-.54.87-1.4.86-.52 0-1.13-.35-.8-.45-1.79-1.09-1-.63-2.42-1.23-1.43-.6-3.36-1-1.93-.42-4.59-.42-3.87 0-7 1.26-3.15 1.26-5.35 3.62a16 16 0 0 0-3.4 5.7 22 22 0 0 0-1.18 7.5q0 4.35 1.24 7.76 1.22 3.41 3.47 5.77a15 15 0 0 0 5.31 3.62q3.07 1.25 6.78 1.25m45.1-.7h19.83v5.21h-26.05v-45.86h6.21zm34.04 5.21h-6.2v-45.86h6.2zm35.78-38.69q-.3.48-.61.72-.33.24-.83.24-.55 0-1.27-.54t-1.82-1.2a15 15 0 0 0-2.66-1.2 11 11 0 0 0-3.76-.55q-2.07.01-3.68.56a8 8 0 0 0-2.67 1.52 6 6 0 0 0-1.62 2.26q-.54 1.3-.54 2.8 0 1.92.94 3.18a8 8 0 0 0 2.5 2.16q1.54.9 3.52 1.56 1.97.65 4.03 1.36 2.07.7 4.03 1.58 1.98.88 3.52 2.22 1.56 1.35 2.5 3.3t.94 4.8q0 3-1.02 5.65a13 13 0 0 1-3 4.59 14 14 0 0 1-4.82 3.07q-2.86 1.12-6.52 1.12-4.45 0-8.1-1.61a19 19 0 0 1-6.26-4.37l1.79-2.95q.26-.35.62-.59.37-.24.82-.24.67 0 1.53.72.87.72 2.16 1.59 1.3.86 3.14 1.58t4.5.72q2.2 0 3.93-.6a8 8 0 0 0 2.93-1.72 7.4 7.4 0 0 0 1.84-2.64q.64-1.54.64-3.42 0-2.1-.94-3.41a8 8 0 0 0-2.48-2.23q-1.55-.9-3.5-1.52l-4.04-1.28a41 41 0 0 1-4.03-1.52 13 13 0 0 1-3.5-2.24 10 10 0 0 1-2.49-3.44 12 12 0 0 1-.94-5.1 12.2 12.2 0 0 1 3.68-8.74 13 13 0 0 1 4.43-2.81q2.64-1.06 6.07-1.06 3.85 0 7 1.22 3.18 1.2 5.54 3.52zm41.66-7.17v5.22h-14.82V1077h-6.2v-40.64h-14.88v-5.22zm30.02 7.17q-.3.48-.61.72-.33.24-.83.24-.55 0-1.27-.54t-1.82-1.2a15 15 0 0 0-2.66-1.2 11 11 0 0 0-3.76-.55q-2.07.01-3.68.56a8 8 0 0 0-2.67 1.52 6 6 0 0 0-1.62 2.26q-.54 1.3-.54 2.8 0 1.92.94 3.18a8 8 0 0 0 2.5 2.16q1.54.9 3.52 1.56 1.97.65 4.03 1.36 2.07.7 4.03 1.58 1.98.88 3.52 2.22 1.56 1.35 2.5 3.3t.94 4.8q0 3-1.02 5.65a13 13 0 0 1-3 4.59 14 14 0 0 1-4.82 3.07q-2.86 1.12-6.52 1.12-4.45 0-8.1-1.61a19 19 0 0 1-6.26-4.37l1.79-2.95q.26-.35.62-.59.37-.24.82-.24.67 0 1.53.72.87.72 2.16 1.59 1.3.86 3.14 1.58t4.5.72q2.2 0 3.93-.6a8 8 0 0 0 2.93-1.72 7.4 7.4 0 0 0 1.84-2.64q.64-1.54.64-3.42 0-2.1-.94-3.41a8 8 0 0 0-2.48-2.23q-1.55-.9-3.5-1.52l-4.04-1.28a41 41 0 0 1-4.03-1.52 13 13 0 0 1-3.5-2.24 10 10 0 0 1-2.49-3.44 12 12 0 0 1-.94-5.1 12.2 12.2 0 0 1 3.68-8.74 13 13 0 0 1 4.43-2.81q2.64-1.06 6.07-1.06 3.84 0 7 1.22 3.18 1.2 5.54 3.52z"/>
</g>

<g class="panel-dark-layer">
<use href="#panel-dark-row" style="--row-delay: 0s; --row-duration: .53s;"/>
<use href="#panel-dark-row" transform="translate(0 -230)" style="--row-delay: .21s; --row-duration: .61s;"/>
<use href="#panel-dark-row" transform="translate(0 -460)" style="--row-delay: .09s; --row-duration: .48s;"/>
<use href="#panel-dark-row" transform="translate(12 -690)" style="--row-delay: .33s; --row-duration: .57s;"/>
<use href="#panel-dark-row-11" transform="translate(0 230)" style="--row-delay: .16s; --row-duration: .67s;"/>
</g>

<g class="panel-light-persons">
<use href="#panel-light-person"/>
<use href="#panel-light-person" transform="translate(113 0)"/>
<use href="#panel-light-person" transform="translate(353 0)"/>
<use href="#panel-light-person" transform="translate(607 0)"/>
<use href="#panel-light-person" transform="translate(-2640 -231)"/>
<use href="#panel-light-person" transform="translate(-2400 -231)"/>
<use href="#panel-light-person" transform="translate(-2160 -231)"/>
<use href="#panel-light-person" transform="translate(-1680 -231)"/>
<use href="#panel-light-person" transform="translate(-1680 230)"/>
<use href="#panel-light-person" transform="translate(-1668 -690)"/>
<use href="#panel-light-person" transform="translate(-1542 -690)"/>
<use href="#panel-light-person" transform="translate(-1310 -690)"/>
<use href="#panel-light-person" transform="translate(-948 -690)"/>
<use href="#panel-light-person" transform="translate(-817 -690)"/>
<use href="#panel-light-person" transform="translate(-708 -690)"/>
<use href="#panel-light-person" transform="translate(-228 -690)"/>
<use href="#panel-light-person" transform="translate(-106 -690)"/>
<use href="#panel-light-person" transform="translate(617 -690)"/>
<use href="#panel-light-person" transform="translate(365 -690)"/>
<use href="#panel-light-person" transform="translate(-2160 230)"/>
<use href="#panel-light-person" transform="translate(-2400 230)"/>
<use href="#panel-light-person" transform="translate(-2640 230)"/>
<use href="#panel-light-person" transform="translate(-2779 0)"/>
<use href="#panel-light-person" transform="translate(-2527 0)"/>
<use href="#panel-light-person" transform="translate(-1920 0)"/>
<use href="#panel-light-person" transform="translate(-1807 0)"/>
<use href="#panel-light-person" transform="translate(-960 0)"/>
<use href="#panel-light-person" transform="translate(-480 -231)"/>
<use href="#panel-light-person" transform="translate(-244 -231)"/>
<use href="#panel-light-person" transform="translate(353 -231)"/>
<use href="#panel-light-person" transform="translate(480 -231)"/>
<use href="#panel-light-person" transform="translate(720 -461)"/>
<use href="#panel-light-person" transform="translate(480 -461)"/>
<use href="#panel-light-person" transform="translate(1 -461)"/>
<use href="#panel-light-person" transform="translate(-361 -461)"/>
<use href="#panel-light-person" transform="translate(-240 -461)"/>
<use href="#panel-light-person" transform="translate(-1205 -461)"/>
<use href="#panel-light-person" transform="translate(-1802 -461)"/>
<use href="#panel-light-person" transform="translate(-1680 -461)"/>
<use href="#panel-light-person" transform="translate(-2163 -461)"/>
<use href="#panel-light-person" transform="translate(-2527 -461)"/>
<use href="#panel-light-person" transform="translate(-2767 -461)"/>
<use href="#panel-light-person" transform="translate(-2630 -690)"/>
<use href="#panel-light-person" transform="translate(-2388 -690)"/>
</g>

<g class="panel-light-figures">
<use href="#panel-light-figure"/>
<use href="#panel-light-figure" transform="translate(-488 -231)"/>
<use href="#panel-light-figure" transform="translate(-1314 -690)"/>
<use href="#panel-light-figure" transform="translate(0 -461)"/>
</g>
</g>
</svg>
