<svg class="panel-animated" xmlns="http://www.w3.org/2000/svg" viewBox="0 0 3800 1200">

<defs>
<style>
svg {
--panel-2-fill-default: #dfded3;
--panel-2-fill-hover: #b2b095;
--panel-2-stroke-default: #b2b095;
}

@keyframes panel-2-row-reveal {
from { opacity: 0; }
to { opacity: 1; }
}

#panel-2-person path {
animation-delay: var(--panel-2-row-delay, 0s);
animation-duration: var(--panel-2-row-duration, .56s);
animation-fill-mode: forwards;
animation-name: panel-2-row-reveal;
animation-play-state: paused;
animation-timing-function: ease;
fill: var(--panel-2-fill, var(--panel-2-fill-default));
fill-rule: evenodd;
opacity: 0;
stroke: var(--panel-2-stroke-default);
stroke-width: 4;
transition: fill .35s ease;
}

.panel-2-row use:hover {
--panel-2-fill: var(--panel-2-fill-hover);
}

@media (prefers-reduced-motion: reduce) {
#panel-2-person path {
animation: none;
opacity: 1;
}
}
</style>

<symbol id="panel-2-person" overflow="visible">
<path d="M1808 115h.47a28.2 28.2 0 0 1 27.74 28.24 28.2 28.2 0 0 1-28.21 28.23 28.2 28.2 0 0 1-28.2-28.23A28.2 28.2 0 0 1 1808 115Zm0 56.47c9.47 0 17.02.24 22.82.55 9.41.5 16.87 7.33 18.52 16.62 1.51 8.54 3.3 20.15 4.6 33.5a12.97 12.97 0 0 1-12.18 14.33q-3.23.2-7.25.36l-1.87 25.3c-.46 6.23-4.98 11.42-11.19 12.1-3.62.4-7.95.73-12.58.77h-.87c-4.96 0-9.6-.34-13.45-.76-6.22-.69-10.73-5.88-11.2-12.12l-1.86-25.29q-4.02-.16-7.25-.36a12.97 12.97 0 0 1-12.18-14.33 435 435 0 0 1 4.6-33.5c1.65-9.29 9.11-16.11 18.51-16.62 5.81-.3 13.36-.55 22.83-.55Z"/>
</symbol>
</defs>

<g fill="none">

<g class="panel-2-rows">
<g class="panel-2-row" style="--panel-2-row-delay: 1.2s;">
<use href="#panel-2-person"/>
<use href="#panel-2-person" transform="translate(92 0)"/>
<use href="#panel-2-person" transform="translate(184 0)"/>
</g>

<g class="panel-2-row" style="--panel-2-row-delay: 1.0s;">
<use href="#panel-2-person" transform="translate(322 135)"/>
<use href="#panel-2-person" transform="translate(230 135)"/>
<use href="#panel-2-person" transform="translate(138 135)"/>
<use href="#panel-2-person" transform="translate(46 135)"/>
<use href="#panel-2-person" transform="translate(-46 135)"/>
<use href="#panel-2-person" transform="translate(-138 135)"/>
</g>

<g class="panel-2-row" style="--panel-2-row-delay: 0.8s;">
<use href="#panel-2-person" transform="translate(552 270)"/>
<use href="#panel-2-person" transform="translate(460 270)"/>
<use href="#panel-2-person" transform="translate(368 270)"/>
<use href="#panel-2-person" transform="translate(276 270)"/>
<use href="#panel-2-person" transform="translate(184 270)"/>
<use href="#panel-2-person" transform="translate(92 270)"/>
<use href="#panel-2-person" transform="translate(0 270)"/>
<use href="#panel-2-person" transform="translate(-92 270)"/>
<use href="#panel-2-person" transform="translate(-184 270)"/>
<use href="#panel-2-person" transform="translate(-276 270)"/>
<use href="#panel-2-person" transform="translate(-368 270)"/>
</g>

<g class="panel-2-row" style="--panel-2-row-delay: 0.6s;">
<use href="#panel-2-person" transform="translate(874 405)"/>
<use href="#panel-2-person" transform="translate(782 405)"/>
<use href="#panel-2-person" transform="translate(690 405)"/>
<use href="#panel-2-person" transform="translate(598 405)"/>
<use href="#panel-2-person" transform="translate(506 405)"/>
<use href="#panel-2-person" transform="translate(414 405)"/>
<use href="#panel-2-person" transform="translate(322 405)"/>
<use href="#panel-2-person" transform="translate(230 405)"/>
<use href="#panel-2-person" transform="translate(138 405)"/>
<use href="#panel-2-person" transform="translate(46 405)"/>
<use href="#panel-2-person" transform="translate(-46 405)"/>
<use href="#panel-2-person" transform="translate(-138 405)"/>
<use href="#panel-2-person" transform="translate(-230 405)"/>
<use href="#panel-2-person" transform="translate(-322 405)"/>
<use href="#panel-2-person" transform="translate(-414 405)"/>
<use href="#panel-2-person" transform="translate(-506 405)"/>
<use href="#panel-2-person" transform="translate(-598 405)"/>
<use href="#panel-2-person" transform="translate(-690 405)"/>
</g>

<g class="panel-2-row" style="--panel-2-row-delay: 0.4s;">
<use href="#panel-2-person" transform="translate(1196 540)"/>
<use href="#panel-2-person" transform="translate(1104 540)"/>
<use href="#panel-2-person" transform="translate(1012 540)"/>
<use href="#panel-2-person" transform="translate(920 540)"/>
<use href="#panel-2-person" transform="translate(828 540)"/>
<use href="#panel-2-person" transform="translate(736 540)"/>
<use href="#panel-2-person" transform="translate(644 540)"/>
<use href="#panel-2-person" transform="translate(552 540)"/>
<use href="#panel-2-person" transform="translate(460 540)"/>
<use href="#panel-2-person" transform="translate(368 540)"/>
<use href="#panel-2-person" transform="translate(276 540)"/>
<use href="#panel-2-person" transform="translate(184 540)"/>
<use href="#panel-2-person" transform="translate(92 540)"/>
<use href="#panel-2-person" transform="translate(0 540)"/>
<use href="#panel-2-person" transform="translate(-92 540)"/>
<use href="#panel-2-person" transform="translate(-184 540)"/>
<use href="#panel-2-person" transform="translate(-276 540)"/>
<use href="#panel-2-person" transform="translate(-368 540)"/>
<use href="#panel-2-person" transform="translate(-460 540)"/>
<use href="#panel-2-person" transform="translate(-552 540)"/>
<use href="#panel-2-person" transform="translate(-644 540)"/>
<use href="#panel-2-person" transform="translate(-736 540)"/>
<use href="#panel-2-person" transform="translate(-828 540)"/>
<use href="#panel-2-person" transform="translate(-920 540)"/>
<use href="#panel-2-person" transform="translate(-1012 540)"/>
</g>

<g class="panel-2-row" style="--panel-2-row-delay: 0.2s;">
<use href="#panel-2-person" transform="translate(1518 675)"/>
<use href="#panel-2-person" transform="translate(1426 675)"/>
<use href="#panel-2-person" transform="translate(1334 675)"/>
<use href="#panel-2-person" transform="translate(1242 675)"/>
<use href="#panel-2-person" transform="translate(1150 675)"/>
<use href="#panel-2-person" transform="translate(1058 675)"/>
<use href="#panel-2-person" transform="translate(966 675)"/>
<use href="#panel-2-person" transform="translate(874 675)"/>
<use href="#panel-2-person" transform="translate(782 675)"/>
<use href="#panel-2-person" transform="translate(690 675)"/>
<use href="#panel-2-person" transform="translate(598 675)"/>
<use href="#panel-2-person" transform="translate(506 675)"/>
<use href="#panel-2-person" transform="translate(414 675)"/>
<use href="#panel-2-person" transform="translate(322 675)"/>
<use href="#panel-2-person" transform="translate(230 675)"/>
<use href="#panel-2-person" transform="translate(138 675)"/>
<use href="#panel-2-person" transform="translate(46 675)"/>
<use href="#panel-2-person" transform="translate(-46 675)"/>
<use href="#panel-2-person" transform="translate(-138 675)"/>
<use href="#panel-2-person" transform="translate(-230 675)"/>
<use href="#panel-2-person" transform="translate(-322 675)"/>
<use href="#panel-2-person" transform="translate(-414 675)"/>
<use href="#panel-2-person" transform="translate(-506 675)"/>
<use href="#panel-2-person" transform="translate(-598 675)"/>
<use href="#panel-2-person" transform="translate(-690 675)"/>
<use href="#panel-2-person" transform="translate(-782 675)"/>
<use href="#panel-2-person" transform="translate(-874 675)"/>
<use href="#panel-2-person" transform="translate(-966 675)"/>
<use href="#panel-2-person" transform="translate(-1058 675)"/>
<use href="#panel-2-person" transform="translate(-1150 675)"/>
<use href="#panel-2-person" transform="translate(-1242 675)"/>
<use href="#panel-2-person" transform="translate(-1334 675)"/>
</g>

<g class="panel-2-row" style="--panel-2-row-delay: 0.0s;">
<use href="#panel-2-person" transform="translate(1840 810)"/>
<use href="#panel-2-person" transform="translate(1748 810)"/>
<use href="#panel-2-person" transform="translate(1656 810)"/>
<use href="#panel-2-person" transform="translate(1564 810)"/>
<use href="#panel-2-person" transform="translate(1472 810)"/>
<use href="#panel-2-person" transform="translate(1380 810)"/>
<use href="#panel-2-person" transform="translate(1288 810)"/>
<use href="#panel-2-person" transform="translate(1196 810)"/>
<use href="#panel-2-person" transform="translate(1104 810)"/>
<use href="#panel-2-person" transform="translate(1012 810)"/>
<use href="#panel-2-person" transform="translate(920 810)"/>
<use href="#panel-2-person" transform="translate(828 810)"/>
<use href="#panel-2-person" transform="translate(736 810)"/>
<use href="#panel-2-person" transform="translate(644 810)"/>
<use href="#panel-2-person" transform="translate(552 810)"/>
<use href="#panel-2-person" transform="translate(460 810)"/>
<use href="#panel-2-person" transform="translate(368 810)"/>
<use href="#panel-2-person" transform="translate(276 810)"/>
<use href="#panel-2-person" transform="translate(184 810)"/>
<use href="#panel-2-person" transform="translate(92 810)"/>
<use href="#panel-2-person" transform="translate(0 810)"/>
<use href="#panel-2-person" transform="translate(-92 810)"/>
<use href="#panel-2-person" transform="translate(-184 810)"/>
<use href="#panel-2-person" transform="translate(-276 810)"/>
<use href="#panel-2-person" transform="translate(-368 810)"/>
<use href="#panel-2-person" transform="translate(-460 810)"/>
<use href="#panel-2-person" transform="translate(-552 810)"/>
<use href="#panel-2-person" transform="translate(-644 810)"/>
<use href="#panel-2-person" transform="translate(-736 810)"/>
<use href="#panel-2-person" transform="translate(-828 810)"/>
<use href="#panel-2-person" transform="translate(-920 810)"/>
<use href="#panel-2-person" transform="translate(-1012 810)"/>
<use href="#panel-2-person" transform="translate(-1104 810)"/>
<use href="#panel-2-person" transform="translate(-1196 810)"/>
<use href="#panel-2-person" transform="translate(-1288 810)"/>
<use href="#panel-2-person" transform="translate(-1380 810)"/>
<use href="#panel-2-person" transform="translate(-1472 810)"/>
<use href="#panel-2-person" transform="translate(-1564 810)"/>
<use href="#panel-2-person" transform="translate(-1656 810)"/>
</g>

</g>
<g class="panel-text">
<path fill="#b2b095" d="M273.7 232.9h21v-55.12q0-4.05.23-8.47l-12.38 10.27q-1.2.97-2.4 1.39a7 7 0 0 1-5.81-.45 7 7 0 0 1-2.29-1.84l-7.35-9.75 34.05-28.57h19.2v92.55h18v16.8H273.7zm142.95-82.87q0 2.4-.75 4.35a9 9 0 0 1-2.36 3.41 11 11 0 0 1-4.24 2.25 22 22 0 0 1-6.3.79h-26.1l-3.07 18.08q3.07-.53 5.92-.8 2.85-.25 5.55-.25 8.62 0 15.22 2.62a32 32 0 0 1 11.1 7.16q4.5 4.55 6.8 10.65a37 37 0 0 1 2.28 13.09q0 8.78-3.11 16.01a37 37 0 0 1-8.66 12.49 39 39 0 0 1-13.24 8.14 48 48 0 0 1-16.84 2.89q-5.33 0-10.16-1.13a49 49 0 0 1-23.44-12.82l7.2-9.6q1.13-1.5 2.63-2.3 1.5-.78 3.22-.78 2.25 0 4.24 1.24l4.35 2.7q2.36 1.46 5.51 2.66t7.8 1.2 7.95-1.54a14 14 0 0 0 5.36-4.2 17 17 0 0 0 3-6.22q.94-3.56.94-7.61 0-7.95-4.5-12.12t-12.75-4.16a39 39 0 0 0-14.4 2.78l-14.4-3.9 9.3-54.68h55.95zm96.15 45q0 14.33-3.07 24.83-3.09 10.5-8.52 17.4a34 34 0 0 1-12.9 10.27 39 39 0 0 1-16.16 3.38q-8.7 0-16.09-3.38a34 34 0 0 1-12.79-10.27q-5.4-6.9-8.43-17.4-3.04-10.5-3.04-24.83t3.04-24.82 8.44-17.4 12.78-10.24a39 39 0 0 1 16.09-3.34q8.7 0 16.16 3.34a34 34 0 0 1 12.9 10.24q5.45 6.9 8.52 17.4t3.07 24.82m-24 0q0-11.33-1.43-18.56-1.41-7.24-3.78-11.36-2.37-4.13-5.36-5.67a13 13 0 0 0-6.08-1.53q-3.07 0-6.04 1.53-2.95 1.55-5.25 5.67-2.28 4.12-3.67 11.36t-1.39 18.56q0 11.4 1.39 18.6 1.38 7.2 3.67 11.36 2.3 4.17 5.25 5.7a13 13 0 0 0 6.04 1.54q3.08 0 6.08-1.54 3-1.53 5.36-5.7t3.79-11.36q1.41-7.2 1.42-18.6m32.1 41.48q0-2.4.9-4.47a10.5 10.5 0 0 1 2.59-3.6 13 13 0 0 1 3.97-2.43q2.3-.9 5.14-.9 3.38 0 5.85 1.16 2.47 1.15 4.13 3.15a13 13 0 0 1 2.43 4.57q.8 2.6.79 5.44 0 3.75-1.2 7.99a40 40 0 0 1-3.56 8.51 51 51 0 0 1-5.89 8.4 48 48 0 0 1-8.1 7.5l-4.05-3.6a8 8 0 0 1-1.24-1.54 3.5 3.5 0 0 1-.41-1.76q0-.75.52-1.61.54-.87 1.28-1.54.9-.9 2.1-2.17t2.4-2.85a26 26 0 0 0 2.21-3.45 17 17 0 0 0 1.54-3.98 13 13 0 0 1-4.72-1.27q-2.1-1.05-3.57-2.78a13 13 0 0 1-3.11-8.77m114.3-41.48q0 14.33-3.08 24.83-3.06 10.5-8.5 17.4a34 34 0 0 1-12.9 10.27 39 39 0 0 1-16.17 3.38q-8.7 0-16.09-3.38a34 34 0 0 1-12.79-10.27q-5.4-6.9-8.43-17.4-3.04-10.5-3.04-24.83t3.04-24.82 8.43-17.4 12.8-10.24a39 39 0 0 1 16.08-3.34q8.7 0 16.16 3.34a34 34 0 0 1 12.9 10.24q5.45 6.9 8.51 17.4 3.08 10.5 3.08 24.82m-24 0q0-11.33-1.43-18.56-1.41-7.24-3.78-11.36-2.37-4.13-5.37-5.67a13 13 0 0 0-6.07-1.53q-3.07 0-6.04 1.53-2.96 1.55-5.25 5.67-2.28 4.12-3.67 11.36t-1.39 18.56q0 11.4 1.39 18.6 1.38 7.2 3.67 11.36 2.3 4.17 5.25 5.7a13 13 0 0 0 6.04 1.54q3.08 0 6.08-1.54 3-1.53 5.36-5.7t3.78-11.36 1.43-18.6m111 0q0 14.33-3.08 24.83-3.06 10.5-8.5 17.4a34 34 0 0 1-12.9 10.27 39 39 0 0 1-16.17 3.38q-8.7 0-16.09-3.38a34 34 0 0 1-12.79-10.27q-5.4-6.9-8.43-17.4-3.04-10.5-3.04-24.83t3.04-24.82 8.43-17.4 12.8-10.24a39 39 0 0 1 16.08-3.34q8.7 0 16.16 3.34a34 34 0 0 1 12.9 10.24q5.45 6.9 8.51 17.4 3.08 10.5 3.08 24.82m-24 0q0-11.33-1.43-18.56-1.41-7.24-3.78-11.36-2.37-4.13-5.37-5.67a13 13 0 0 0-6.07-1.53q-3.07 0-6.04 1.53-2.96 1.55-5.25 5.67-2.28 4.12-3.67 11.36t-1.39 18.56q0 11.4 1.39 18.6 1.38 7.2 3.67 11.36 2.3 4.17 5.25 5.7a13 13 0 0 0 6.04 1.54q3.08 0 6.08-1.54 3-1.53 5.36-5.7t3.78-11.36 1.43-18.6m111 0q0 14.33-3.08 24.83-3.06 10.5-8.5 17.4a34 34 0 0 1-12.9 10.27 39 39 0 0 1-16.17 3.38q-8.7 0-16.09-3.38a34 34 0 0 1-12.79-10.27q-5.4-6.9-8.43-17.4-3.04-10.5-3.04-24.83t3.04-24.82 8.43-17.4 12.8-10.24a39 39 0 0 1 16.08-3.34q8.7 0 16.16 3.34a34 34 0 0 1 12.9 10.24q5.45 6.9 8.51 17.4 3.08 10.5 3.08 24.82m-24 0q0-11.33-1.43-18.56-1.41-7.24-3.78-11.36-2.37-4.13-5.37-5.67a13 13 0 0 0-6.07-1.53q-3.07 0-6.04 1.53-2.96 1.55-5.25 5.67t-3.67 11.36q-1.4 7.23-1.39 18.56 0 11.4 1.39 18.6 1.38 7.2 3.67 11.36 2.3 4.17 5.25 5.7a13 13 0 0 0 6.04 1.54q3.08 0 6.08-1.54 3-1.53 5.36-5.7t3.78-11.36 1.43-18.6m79.8-33.75v29.7h27.75v16.65H865v29.85h-18.9v-29.85h-27.6v-16.65h27.6v-29.7z"/>
<path fill="#182952" d="M303.11 335.53q.51 0 .93.41l2.43 2.66a20 20 0 0 1-6.83 5.09q-4.01 1.82-9.68 1.82-4.95 0-9-1.71a20 20 0 0 1-6.87-4.8 22 22 0 0 1-4.42-7.4 28 28 0 0 1-1.57-9.51q0-5.2 1.68-9.5a22 22 0 0 1 4.72-7.43 21 21 0 0 1 7.28-4.82 25 25 0 0 1 9.36-1.7q5.06 0 8.72 1.56a22 22 0 0 1 6.52 4.26l-2.02 2.84a2 2 0 0 1-.51.53q-.3.21-.83.21-.42 0-.88-.3t-1.1-.76-1.51-.96-2.05-.96-2.75-.75-3.62-.3q-3.68 0-6.73 1.26t-5.27 3.6a16 16 0 0 0-3.44 5.7 22 22 0 0 0-1.23 7.52q0 4.28 1.23 7.65a17 17 0 0 0 3.36 5.68 14 14 0 0 0 5.04 3.53q2.91 1.22 6.27 1.22 2.06 0 3.68-.24 1.64-.24 3.03-.75 1.4-.52 2.59-1.3 1.2-.78 2.42-1.87.54-.48 1.05-.48m48.7 9.47h-6.23v-20.86h-24.7V345h-6.25v-45.86h6.24v20.45h24.7v-20.45h6.25zm18.57 0h-6.21v-45.86h6.2zm18.5-5.22h19.83V345h-26.05v-45.86h6.21zm66.42-17.7q0 5.16-1.63 9.38a21 21 0 0 1-4.6 7.24q-2.99 3-7.14 4.65a25 25 0 0 1-9.22 1.65h-17.15v-45.86h17.15q5.05 0 9.22 1.65a20 20 0 0 1 7.13 4.67 21 21 0 0 1 4.61 7.25 26 26 0 0 1 1.63 9.38m-6.36 0q0-4.21-1.16-7.54a16 16 0 0 0-3.26-5.64 14 14 0 0 0-5.12-3.52 18 18 0 0 0-6.69-1.21H421.8v35.8h10.91q3.68 0 6.69-1.21 3-1.22 5.12-3.5 2.11-2.3 3.26-5.62a23 23 0 0 0 1.16-7.55m21.63 3.78V345h-6.18v-45.86h12.96q4.35 0 7.52.88 3.17.9 5.23 2.55 2.07 1.66 3.06 4.01 1 2.36 1 5.27 0 2.43-.78 4.54a12 12 0 0 1-2.22 3.8 13 13 0 0 1-3.55 2.86q-2.1 1.18-4.75 1.79 1.15.68 2.04 1.95L498.28 345h-5.5q-1.7 0-2.5-1.31l-11.9-16.39a3.5 3.5 0 0 0-1.19-1.1 4 4 0 0 0-1.92-.34zm0-4.5h6.5q2.7 0 4.78-.66a10 10 0 0 0 3.45-1.86 8 8 0 0 0 2.1-2.86q.7-1.67.7-3.68 0-4.1-2.7-6.18t-8.05-2.08h-6.78zm62.65-22.22v5.06h-22.01v15.23h17.82v4.87h-17.82v15.64h22.01V345h-28.25v-45.86zm12.13 0q.84 0 1.23.21.4.2.92.85l26.56 34.56a22 22 0 0 1-.16-3.14v-32.48h5.44V345h-3.14q-.74 0-1.23-.26a3 3 0 0 1-.98-.86l-26.53-34.53a41 41 0 0 1 .13 2.98V345h-5.44v-45.86zm63.75 40.64h19.84v5.2h-26.05v-45.86h6.2zm34.04 5.22h-6.2v-45.86h6.2zm6.98-45.86h4.96q.83 0 1.34.42t.77 1.06l12.96 32.35q.45 1.08.82 2.37l.72 2.65q.29-1.38.62-2.65.34-1.29.79-2.37l12.9-32.35q.21-.55.76-1.01a2 2 0 0 1 1.34-.47h5L674.4 345h-5.6zm56.2 45.86h-6.22v-45.86h6.21zm15.48-45.86q.83 0 1.23.21t.91.85l26.56 34.56a22 22 0 0 1-.16-3.14v-32.48h5.44V345h-3.13q-.74 0-1.23-.26a3 3 0 0 1-.98-.86l-26.53-34.53a41 41 0 0 1 .13 2.98V345h-5.44v-45.86zm65.63 41.35q1.86 0 3.41-.18a22 22 0 0 0 5.52-1.37q1.21-.5 2.43-1.14v-10.11h-7.1q-.6 0-.98-.35a1.2 1.2 0 0 1-.37-.87v-3.52h14.08v17.6a25 25 0 0 1-7.6 3.73q-2.12.63-4.56.93t-5.28.3q-4.98 0-9.15-1.71a21 21 0 0 1-11.85-12.2 26 26 0 0 1-1.68-9.51q0-5.25 1.64-9.57a21 21 0 0 1 4.7-7.4 21 21 0 0 1 7.4-4.8q4.34-1.68 9.71-1.69a30 30 0 0 1 5.06.4q2.34.4 4.33 1.15t3.7 1.83 3.17 2.41l-1.76 2.82q-.54.87-1.41.86-.5 0-1.12-.35-.8-.45-1.8-1.09-.98-.63-2.4-1.23-1.44-.6-3.37-1-1.93-.42-4.59-.42-3.87 0-7 1.26-3.15 1.26-5.35 3.62a16 16 0 0 0-3.4 5.7 22 22 0 0 0-1.18 7.5q0 4.35 1.23 7.76 1.24 3.41 3.48 5.77a15 15 0 0 0 5.3 3.62q3.09 1.25 6.8 1.25m46.24 4.51h-6.2v-45.86h6.2zm15.49-45.86q.83 0 1.23.21t.91.85l26.56 34.56a22 22 0 0 1-.16-3.14v-32.48h5.44V345h-3.13q-.74 0-1.23-.26a3 3 0 0 1-.98-.86l-26.53-34.53a41 41 0 0 1 .13 2.98V345h-5.44v-45.86zm-707.04 64v5.22H127.3V409h-6.2v-40.64h-14.88v-5.22zm34.78 0v5.06H154.9v15.23h17.82v4.87H154.9v15.64h22.01V409h-28.25v-45.86zm31.5 29.28q.44.77.78 1.62l.65 1.71q.33-.9.67-1.71.35-.82.8-1.65l15.52-28.19q.42-.74.87-.9.44-.16 1.28-.16h4.57V409h-5.44v-33.7a35 35 0 0 1 .13-3l-15.71 28.67q-.8 1.44-2.24 1.44h-.9q-1.44 0-2.24-1.44l-16.06-28.77a30 30 0 0 1 .2 3.1V409h-5.45v-45.86h4.58q.83 0 1.28.16.44.16.86.9zm43.13-.57V409h-6.18v-45.86h13.54q4.35 0 7.57 1.01 3.22 1 5.32 2.87a11.5 11.5 0 0 1 3.16 4.48q1.04 2.63 1.04 5.85 0 3.2-1.12 5.86a12.6 12.6 0 0 1-3.28 4.57 15 15 0 0 1-5.36 3 23 23 0 0 1-7.33 1.07zm0-4.93h7.36q2.65 0 4.69-.7a10 10 0 0 0 3.4-1.97 8 8 0 0 0 2.08-3.03q.7-1.76.7-3.87 0-4.38-2.7-6.85t-8.17-2.46h-7.36zm74.88-.83q0 5.14-1.63 9.45a20.6 20.6 0 0 1-11.76 12.22 24 24 0 0 1-9.24 1.72 24 24 0 0 1-9.21-1.71 20.6 20.6 0 0 1-11.75-12.23 27 27 0 0 1-1.63-9.45q0-5.16 1.63-9.46a22 22 0 0 1 4.61-7.42 21 21 0 0 1 7.14-4.85 24 24 0 0 1 9.21-1.73q5.06 0 9.24 1.73a21 21 0 0 1 7.15 4.85 22 22 0 0 1 4.6 7.42 27 27 0 0 1 1.64 9.46m-6.37 0q0-4.23-1.15-7.59a16 16 0 0 0-3.27-5.68 14 14 0 0 0-5.12-3.56q-3-1.25-6.72-1.25-3.68 0-6.68 1.25t-5.14 3.56a16 16 0 0 0-3.28 5.68 23 23 0 0 0-1.15 7.59q0 4.22 1.15 7.57a16 16 0 0 0 3.28 5.66 14 14 0 0 0 5.14 3.55q3 1.23 6.68 1.23 3.72 0 6.72-1.23a14 14 0 0 0 5.12-3.55q2.12-2.32 3.27-5.66a23 23 0 0 0 1.15-7.57m21.66 3.77V409h-6.17v-45.86h12.96q4.34 0 7.52.88 3.16.9 5.23 2.55 2.07 1.66 3.06 4.01.99 2.36.99 5.27 0 2.43-.77 4.54a12 12 0 0 1-2.22 3.8 13 13 0 0 1-3.56 2.86q-2.1 1.18-4.75 1.79 1.15.68 2.05 1.95L369.42 409h-5.5q-1.7 0-2.5-1.31l-11.9-16.39a3.5 3.5 0 0 0-1.2-1.1 4 4 0 0 0-1.91-.34zm0-4.5h6.5q2.71 0 4.78-.66a10 10 0 0 0 3.46-1.86 8 8 0 0 0 2.1-2.86q.7-1.67.7-3.68 0-4.1-2.7-6.18t-8.05-2.08h-6.79zM413.83 409h-4.8q-.83 0-1.34-.42-.51-.41-.77-1.05l-4.29-11.07h-20.57l-4.3 11.07q-.21.57-.76 1.02-.54.45-1.34.45h-4.8l18.33-45.86h6.3zm-30.05-17.02h17.12l-7.2-18.66q-.7-1.73-1.37-4.32l-.69 2.42q-.33 1.1-.66 1.93zm42.66-2.12V409h-6.18v-45.86h12.96q4.35 0 7.52.88 3.18.9 5.24 2.55 2.06 1.66 3.05 4.01 1 2.36 1 5.27 0 2.43-.77 4.54a12 12 0 0 1-2.23 3.8 13 13 0 0 1-3.55 2.86q-2.1 1.18-4.75 1.79 1.15.68 2.05 1.95L454.15 409h-5.5q-1.7 0-2.5-1.31l-11.9-16.39a3.5 3.5 0 0 0-1.19-1.1 4 4 0 0 0-1.92-.34zm0-4.5h6.5q2.7 0 4.78-.66a10 10 0 0 0 3.46-1.86 8 8 0 0 0 2.1-2.86q.7-1.67.7-3.68 0-4.1-2.7-6.18-2.72-2.08-8.06-2.08h-6.78zm52.06 5.4V409h-6.17v-18.24l-16.8-27.62h5.44q.83 0 1.31.42t.83 1.02l10.5 17.83q.63 1.12 1.07 2.11t.78 1.95q.36-.99.77-1.98.42-1 1.06-2.08l10.46-17.83q.3-.5.79-.97t1.3-.47h5.5zM551.18 409h-4.8q-.83 0-1.35-.42-.51-.41-.77-1.05l-4.28-11.07H519.4l-4.29 11.07q-.22.57-.77 1.02-.53.45-1.34.45h-4.8l18.34-45.86h6.3zm-30.05-17.02h17.12l-7.2-18.66q-.7-1.73-1.38-4.32-.35 1.3-.69 2.42-.33 1.1-.65 1.93zm68.16 7.55q.51 0 .93.41l2.43 2.66a20 20 0 0 1-6.83 5.09q-4.01 1.82-9.68 1.82-4.96 0-9-1.71a20 20 0 0 1-6.88-4.8 22 22 0 0 1-4.41-7.4 28 28 0 0 1-1.57-9.51q0-5.2 1.68-9.5a22 22 0 0 1 4.72-7.43 21 21 0 0 1 7.28-4.82 25 25 0 0 1 9.36-1.7q5.06 0 8.72 1.56a22 22 0 0 1 6.51 4.26l-2.01 2.84a2 2 0 0 1-.52.53q-.29.21-.83.21-.42 0-.88-.3l-1.1-.76q-.64-.44-1.5-.96-.87-.51-2.05-.96-1.2-.45-2.76-.75t-3.61-.3q-3.69 0-6.74 1.26t-5.26 3.6a16 16 0 0 0-3.44 5.7 22 22 0 0 0-1.23 7.52q0 4.28 1.23 7.65a17 17 0 0 0 3.36 5.68 14 14 0 0 0 5.04 3.53q2.91 1.22 6.27 1.22 2.06 0 3.68-.24 1.64-.24 3.02-.75 1.4-.52 2.6-1.3t2.41-1.87q.55-.48 1.06-.48m43.84 0q.51 0 .93.41l2.43 2.66a20 20 0 0 1-6.83 5.09q-4.01 1.82-9.68 1.82-4.96 0-9-1.71a20 20 0 0 1-6.88-4.8 22 22 0 0 1-4.41-7.4 28 28 0 0 1-1.57-9.51q0-5.2 1.68-9.5a22 22 0 0 1 4.72-7.43 21 21 0 0 1 7.28-4.82 25 25 0 0 1 9.36-1.7q5.06 0 8.72 1.56a22 22 0 0 1 6.51 4.26l-2.01 2.84a2 2 0 0 1-.52.53q-.29.21-.83.21-.42 0-.88-.3l-1.1-.76q-.64-.44-1.5-.96-.87-.51-2.05-.96-1.2-.45-2.76-.75-1.57-.3-3.61-.3-3.69 0-6.74 1.26t-5.26 3.6a16 16 0 0 0-3.44 5.7 22 22 0 0 0-1.23 7.52q0 4.28 1.23 7.65a17 17 0 0 0 3.36 5.68 14 14 0 0 0 5.04 3.53q2.91 1.22 6.27 1.22 2.06 0 3.68-.24 1.64-.24 3.02-.75 1.4-.52 2.6-1.3t2.41-1.87q.55-.48 1.06-.48m54.11-13.44q0 5.14-1.63 9.45a20.6 20.6 0 0 1-11.76 12.22 24 24 0 0 1-9.23 1.72 24 24 0 0 1-9.22-1.71 20.6 20.6 0 0 1-11.74-12.23 27 27 0 0 1-1.64-9.45q0-5.16 1.64-9.46a22 22 0 0 1 4.6-7.42 21 21 0 0 1 7.14-4.85 24 24 0 0 1 9.22-1.73q5.05 0 9.23 1.73a21 21 0 0 1 7.15 4.85 22 22 0 0 1 4.6 7.42 27 27 0 0 1 1.64 9.46m-6.37 0q0-4.23-1.15-7.59a16 16 0 0 0-3.26-5.68 14 14 0 0 0-5.12-3.56q-3-1.25-6.72-1.25-3.69 0-6.7 1.25-3 1.25-5.13 3.56a16 16 0 0 0-3.28 5.68 23 23 0 0 0-1.15 7.59q0 4.22 1.15 7.57a16 16 0 0 0 3.28 5.66 14 14 0 0 0 5.14 3.55q3 1.23 6.69 1.23t6.72-1.23a14 14 0 0 0 5.12-3.55q2.11-2.32 3.26-5.66a23 23 0 0 0 1.15-7.57m37.41 6.33q.45.77.78 1.62l.66 1.71q.32-.9.67-1.71.36-.82.8-1.65l15.52-28.19q.42-.74.87-.9.44-.16 1.28-.16h4.57V409H738v-33.7a35 35 0 0 1 .13-3l-15.71 28.67q-.8 1.44-2.24 1.44h-.9q-1.44 0-2.24-1.44l-16.06-28.77a30 30 0 0 1 .19 3.1V409h-5.44v-45.86h4.58q.83 0 1.28.16.44.16.86.9zm78.91-6.33q0 5.14-1.63 9.45a20.6 20.6 0 0 1-11.76 12.22 24 24 0 0 1-9.23 1.72 24 24 0 0 1-9.22-1.71 20.6 20.6 0 0 1-11.74-12.23 27 27 0 0 1-1.63-9.45q0-5.16 1.63-9.46a22 22 0 0 1 4.6-7.42 21 21 0 0 1 7.14-4.85 24 24 0 0 1 9.22-1.73q5.06 0 9.23 1.73a21 21 0 0 1 7.15 4.85 22 22 0 0 1 4.61 7.42 27 27 0 0 1 1.63 9.46m-6.37 0q0-4.23-1.15-7.59a16 16 0 0 0-3.26-5.68 14 14 0 0 0-5.12-3.56q-3-1.25-6.72-1.25-3.68 0-6.69 1.25-3 1.25-5.14 3.56a16 16 0 0 0-3.28 5.68 23 23 0 0 0-1.15 7.59q0 4.22 1.15 7.57a16 16 0 0 0 3.28 5.66 14 14 0 0 0 5.14 3.55q3 1.23 6.69 1.23t6.72-1.23a14 14 0 0 0 5.12-3.55q2.11-2.32 3.26-5.66a23 23 0 0 0 1.15-7.57m54.6 0q0 5.15-1.64 9.37a21 21 0 0 1-4.6 7.24q-2.99 3-7.14 4.65a25 25 0 0 1-9.22 1.65h-17.15v-45.86h17.15q5.06 0 9.22 1.65a20 20 0 0 1 7.14 4.67 21 21 0 0 1 4.6 7.25 26 26 0 0 1 1.64 9.38m-6.37 0q0-4.23-1.15-7.55a16 16 0 0 0-3.27-5.64 14 14 0 0 0-5.12-3.52 18 18 0 0 0-6.69-1.21h-10.9v35.8h10.9q3.69 0 6.7-1.21 3-1.22 5.11-3.5 2.11-2.3 3.27-5.62a23 23 0 0 0 1.15-7.55M891.59 409h-4.8q-.83 0-1.34-.42-.51-.41-.77-1.05l-4.29-11.07h-20.57l-4.3 11.07q-.21.57-.76 1.02-.54.45-1.34.45h-4.8l18.33-45.86h6.3zm-30.05-17.02h17.12l-7.2-18.66q-.7-1.73-1.37-4.32l-.69 2.42q-.33 1.1-.66 1.93zm67.08-28.84v5.22H913.8V409h-6.2v-40.64h-14.9v-5.22zM942.5 409h-6.2v-45.86h6.2zm54.88-22.91q0 5.14-1.63 9.45A20.6 20.6 0 0 1 984 407.76a24 24 0 0 1-9.23 1.72 24 24 0 0 1-9.22-1.71 20.6 20.6 0 0 1-11.74-12.23 27 27 0 0 1-1.63-9.45q0-5.16 1.63-9.46a22 22 0 0 1 4.6-7.42 21 21 0 0 1 7.14-4.85 24 24 0 0 1 9.22-1.73q5.06 0 9.23 1.73a21 21 0 0 1 7.15 4.85 22 22 0 0 1 4.61 7.42 27 27 0 0 1 1.63 9.46m-6.36 0q0-4.23-1.16-7.59a16 16 0 0 0-3.26-5.68 14 14 0 0 0-5.12-3.56q-3-1.25-6.72-1.25-3.67 0-6.69 1.25-3 1.25-5.13 3.56a16 16 0 0 0-3.28 5.68 23 23 0 0 0-1.16 7.59q0 4.22 1.16 7.57a16 16 0 0 0 3.28 5.66 14 14 0 0 0 5.13 3.55q3 1.23 6.69 1.23t6.72-1.23a14 14 0 0 0 5.12-3.55q2.11-2.32 3.26-5.66a23 23 0 0 0 1.16-7.57m18.04-22.95q.84 0 1.24.21t.9.85l26.57 34.56a22 22 0 0 1-.16-3.14v-32.48h5.44V409h-3.14q-.73 0-1.23-.26a3 3 0 0 1-.98-.86l-26.52-34.53a41 41 0 0 1 .12 2.98V409h-5.44v-45.86z"/>
</g>

</g>
</svg>
