<svg class="panel-animated" xmlns="http://www.w3.org/2000/svg" viewBox="0 0 3800 1200">

<defs>
<style>
svg {
--panel-4-building-duration: .26s;
--panel-4-building-step: .22s;
--panel-4-fill-lightest: #fff;
--panel-4-fill-muted: #b2b095;
--panel-4-fill-primary: #4f6a9a;
--panel-4-fill-secondary: #c7d3e9;
--panel-4-fill-text: #182952;
--panel-4-stroke-primary: #4f6a9a;
}

@keyframes panel-4-building-reveal {
from { opacity: 0; }
to { opacity: 1; }
}

.panel-4-building [fill="#182952"] { fill: var(--panel-4-fill-text); }
.panel-4-building [fill="#4f6a9a"] { fill: var(--panel-4-fill-primary); }
.panel-4-building [fill="#b2b095"] { fill: var(--panel-4-fill-muted); }
.panel-4-building [fill="#c7d3e9"] { fill: var(--panel-4-fill-secondary); }
.panel-4-building [fill="#fff"] { fill: var(--panel-4-fill-lightest); }

.panel-4-building [stroke="#4f6a9a"] { stroke: var(--panel-4-stroke-primary); }

.panel-4-line { fill: var(--panel-4-fill-primary); }

.panel-4-building > * {
animation-delay: var(--panel-4-building-delay, 0s);
animation-duration: var(--panel-4-building-duration);
animation-fill-mode: forwards;
animation-name: panel-4-building-reveal;
animation-play-state: paused;
animation-timing-function: ease;
opacity: 0;
}

.panel-4-building:nth-of-type(1) > * { --panel-4-building-delay: calc(0 * var(--panel-4-building-step)); }
.panel-4-building:nth-of-type(2) > * { --panel-4-building-delay: calc(1 * var(--panel-4-building-step)); }
.panel-4-building:nth-of-type(3) > * { --panel-4-building-delay: calc(2 * var(--panel-4-building-step)); }
.panel-4-building:nth-of-type(4) > * { --panel-4-building-delay: calc(3 * var(--panel-4-building-step)); }
.panel-4-building:nth-of-type(5) > * { --panel-4-building-delay: calc(4 * var(--panel-4-building-step)); }
.panel-4-building:nth-of-type(6) > * { --panel-4-building-delay: calc(5 * var(--panel-4-building-step)); }
.panel-4-building:nth-of-type(7) > * { --panel-4-building-delay: calc(6 * var(--panel-4-building-step)); }
.panel-4-building:nth-of-type(8) > * { --panel-4-building-delay: calc(7 * var(--panel-4-building-step)); }
.panel-4-building:nth-of-type(9) > * { --panel-4-building-delay: calc(8 * var(--panel-4-building-step)); }
.panel-4-building:nth-of-type(10) > * { --panel-4-building-delay: calc(9 * var(--panel-4-building-step)); }
.panel-4-building:nth-of-type(11) > * { --panel-4-building-delay: calc(10 * var(--panel-4-building-step)); }
.panel-4-building:nth-of-type(12) > * { --panel-4-building-delay: calc(11 * var(--panel-4-building-step)); }

@media (prefers-reduced-motion: reduce) {
.panel-4-building > * {
animation: none;
opacity: 1;
}
}
</style>
</defs>

<g class="panel-4-building">
<path fill="#b2b095" fill-rule="nonzero" d="M2327.6 224.33q0-3 1.91-5.21 1.92-2.21 5.74-2.21h6.3v-16.2q0-7.13 2.17-13.54a31.5 31.5 0 0 1 6.64-11.29 32 32 0 0 1 11.18-7.76q6.7-2.9 15.86-2.89 6.07 0 10.99 1.54a31 31 0 0 1 15.56 10.72 48 48 0 0 1 5.1 7.99l-9.3 5.85a11 11 0 0 1-5.32 1.5q-3.45 0-6.23-2.85a28 28 0 0 0-5.17-4.35 10.6 10.6 0 0 0-5.63-1.42q-6.07 0-9.04 4.23t-2.96 12.19v16.28h28.5v8.85q0 1.13-.49 2.13a6.3 6.3 0 0 1-3.37 3.15q-1.17.5-2.59.49h-22.05v11.7q0 4.5-1.69 8.14a27 27 0 0 1-4.53 6.79q3.38-.76 6.75-1.17a56 56 0 0 1 6.82-.41h37.65v9.53a9 9 0 0 1-.71 3.37 11 11 0 0 1-1.99 3.11 10 10 0 0 1-3.11 2.25 9.5 9.5 0 0 1-4.09.87h-71.55v-13.95q2.48-.45 4.76-1.43a15 15 0 0 0 4.01-2.47q1.73-1.5 2.78-3.6t1.05-4.88v-17.85h-13.95zm130.05-59.1q8.1 0 14.59 2.36a33 33 0 0 1 11.06 6.57 28 28 0 0 1 7.01 10 33 33 0 0 1 2.44 12.8q0 6-1.69 11.1a44 44 0 0 1-4.61 9.7 68 68 0 0 1-6.79 8.93 258 258 0 0 1-8.21 8.74l-21.37 21.9q4.13-1.2 8.13-1.91 4.02-.72 7.54-.71h20.4q3.75 0 5.93 2.06a7.2 7.2 0 0 1 2.17 5.44v13.5h-76.8v-7.5q0-2.18.9-4.65t3.15-4.5l31.5-31.73q4.05-4.05 7.05-7.72 3-3.68 4.95-7.24a33 33 0 0 0 2.93-7.13q.97-3.55.97-7.53 0-6.53-3.11-10.02-3.12-3.48-9.49-3.48-2.62 0-4.8.75t-3.9 2.02a14 14 0 0 0-2.96 3 16 16 0 0 0-1.99 3.75q-1.2 3.38-3.04 4.88-1.83 1.5-4.99 1.5a19 19 0 0 1-3.37-.3l-12.3-2.18q1.2-8.17 4.61-14.25a34 34 0 0 1 8.48-10.12 34 34 0 0 1 11.59-6.04 48 48 0 0 1 14.02-1.99m50.85 110.48V163.43h23.25v42.75a36 36 0 0 1 9.86-6.86q5.52-2.6 12.94-2.59 6.08 0 11.25 2.63a25 25 0 0 1 8.92 7.68 39 39 0 0 1 5.9 12.42 60 60 0 0 1 2.13 16.72q0 8.78-2.44 16.2a41 41 0 0 1-6.82 12.9 31 31 0 0 1-10.5 8.55 30 30 0 0 1-13.54 3.08q-3.45 0-6.19-.68a21 21 0 0 1-9.22-4.87 48 48 0 0 1-3.71-3.75l-.83 3.9q-.53 2.4-1.91 3.3-1.4.9-3.64.9zm37.95-61.5q-2.55 0-4.61.48-2.07.5-3.83 1.39a15 15 0 0 0-3.26 2.29q-1.5 1.38-3 3.19v33a15 15 0 0 0 5.7 4.08q3.08 1.17 6.45 1.17 3.23 0 5.93-1.28 2.7-1.27 4.68-4.09a22 22 0 0 0 3.11-7.31q1.14-4.5 1.13-10.95 0-6.15-.9-10.35t-2.51-6.79a10 10 0 0 0-3.87-3.71 11 11 0 0 0-5.02-1.12m49.05 61.5v-77.78h14.4q2.17 0 3.64.98a5.2 5.2 0 0 1 2.06 2.92l1.35 4.5q2.25-2.1 4.65-3.9t5.14-3.04a30.5 30.5 0 0 1 12.86-2.66q6.37 0 11.29 2.21a23.4 23.4 0 0 1 8.29 6.15 27 27 0 0 1 5.1 9.38 39 39 0 0 1 1.72 11.81v49.43h-23.25v-49.43q0-5.7-2.62-8.89-2.64-3.18-7.73-3.18-3.83 0-7.2 1.65a28 28 0 0 0-6.45 4.42v55.43zm130.8-88.43v29.7h27.75v16.65h-27.75v29.85h-18.9v-29.85h-27.6v-16.65h27.6v-29.7z"/>
<path fill="#182952" fill-rule="nonzero" d="M2091.67 353.85V371h-6.17v-45.86h13.53q4.35 0 7.57 1.01 3.21 1 5.33 2.87a11.5 11.5 0 0 1 3.15 4.48q1.05 2.63 1.04 5.85 0 3.2-1.12 5.86a12.6 12.6 0 0 1-3.28 4.57 15 15 0 0 1-5.36 3 23 23 0 0 1-7.33 1.07zm0-4.93h7.36q2.66 0 4.69-.7a10 10 0 0 0 3.4-1.97 8 8 0 0 0 2.09-3.03q.7-1.75.7-3.87 0-4.38-2.7-6.85t-8.18-2.46h-7.36zm60.55-23.78v5.06h-22.02v15.23h17.82v4.87h-17.82v15.64h22.02V371h-28.26v-45.86zm15.74 26.72V371h-6.18v-45.86h12.96q4.35 0 7.52.88 3.18.9 5.24 2.55 2.06 1.66 3.05 4.01 1 2.36 1 5.27 0 2.43-.77 4.54a12 12 0 0 1-2.23 3.8 13 13 0 0 1-3.55 2.86q-2.1 1.18-4.75 1.79 1.15.68 2.05 1.95l13.37 18.21h-5.5q-1.7 0-2.5-1.31l-11.9-16.39a3.5 3.5 0 0 0-1.19-1.1 4 4 0 0 0-1.92-.34zm0-4.5h6.5q2.7 0 4.78-.66a10 10 0 0 0 3.46-1.86 8 8 0 0 0 2.1-2.86q.7-1.67.7-3.68 0-4.1-2.7-6.18-2.72-2.08-8.06-2.08h-6.78zm64.42 5.4V371h-6.18v-18.24l-16.8-27.62h5.44q.84 0 1.31.42t.83 1.02l10.5 17.83q.64 1.12 1.07 2.11t.79 1.95q.35-.99.76-1.98.42-1 1.06-2.08l10.46-17.83q.3-.5.79-.97t1.3-.47h5.5zm50.84-27.62v5.06h-22.01v15.23h17.82v4.87h-17.82v15.64h22.01V371h-28.25v-45.86zm46.66 45.86h-4.8q-.83 0-1.34-.42-.52-.41-.77-1.05l-4.29-11.07h-20.58l-4.28 11.07q-.22.57-.77 1.02-.54.45-1.35.45h-4.8l18.34-45.86h6.3zm-30.05-17.02h17.12l-7.2-18.66q-.7-1.73-1.37-4.32-.36 1.3-.7 2.42-.32 1.1-.65 1.93zm42.66-2.12V371h-6.18v-45.86h12.96q4.35 0 7.52.88 3.17.9 5.23 2.55 2.07 1.66 3.06 4.01 1 2.36 1 5.27 0 2.43-.78 4.54a12 12 0 0 1-2.22 3.8 13 13 0 0 1-3.55 2.86q-2.1 1.18-4.75 1.79 1.15.68 2.04 1.95L2370.2 371h-5.5q-1.7 0-2.5-1.31l-11.9-16.39a3.5 3.5 0 0 0-1.19-1.1 4 4 0 0 0-1.92-.34zm0-4.5h6.5q2.7 0 4.78-.66a10 10 0 0 0 3.45-1.86 8 8 0 0 0 2.1-2.86q.7-1.67.7-3.68 0-4.1-2.7-6.18t-8.05-2.08h-6.78zm70.24-15.05q-.3.48-.61.72-.32.24-.83.24-.55 0-1.27-.54t-1.82-1.2a15 15 0 0 0-2.66-1.2 11 11 0 0 0-3.76-.55q-2.07.01-3.68.56a8 8 0 0 0-2.67 1.52 6 6 0 0 0-1.61 2.26q-.55 1.3-.55 2.8 0 1.92.95 3.18a8 8 0 0 0 2.5 2.16q1.55.9 3.51 1.56 1.97.65 4.03 1.36 2.06.7 4.04 1.58 1.95.88 3.52 2.22 1.54 1.35 2.5 3.3.93 1.95.94 4.8 0 3-1.03 5.65a13 13 0 0 1-2.99 4.59 14 14 0 0 1-4.83 3.07q-2.86 1.12-6.51 1.12-4.45 0-8.12-1.61a19 19 0 0 1-6.25-4.37l1.79-2.95q.26-.35.62-.59.37-.24.82-.24.67 0 1.54.72.86.72 2.16 1.59 1.29.86 3.13 1.58t4.5.72q2.2 0 3.93-.6a8 8 0 0 0 2.93-1.72 7.4 7.4 0 0 0 1.84-2.64q.64-1.54.64-3.42 0-2.1-.94-3.41a8 8 0 0 0-2.48-2.23q-1.55-.9-3.5-1.52l-4.04-1.28a41 41 0 0 1-4.03-1.52 13 13 0 0 1-3.5-2.24 10 10 0 0 1-2.48-3.44 12 12 0 0 1-.95-5.1 12.2 12.2 0 0 1 3.68-8.74 13 13 0 0 1 4.43-2.81q2.64-1.05 6.07-1.06 3.85 0 7 1.22 3.18 1.2 5.54 3.52zm17.25 21.54V371h-6.18v-45.86h13.54q4.35 0 7.56 1.01 3.22 1 5.33 2.87a11.5 11.5 0 0 1 3.15 4.48q1.05 2.63 1.04 5.85 0 3.2-1.12 5.86a12.6 12.6 0 0 1-3.28 4.57 15 15 0 0 1-5.36 3 23 23 0 0 1-7.32 1.07zm0-4.93h7.36q2.65 0 4.68-.7a10 10 0 0 0 3.41-1.97 8 8 0 0 0 2.08-3.03q.7-1.75.7-3.87 0-4.38-2.7-6.85t-8.17-2.46h-7.36zm60.54-23.78v5.06h-22.02v15.23h17.83v4.87h-17.83v15.64h22.02V371h-28.26v-45.86zm12.13 0q.82 0 1.23.21.4.2.91.85l26.56 34.56a22 22 0 0 1-.16-3.14v-32.48h5.44V371h-3.13q-.74 0-1.24-.26a3 3 0 0 1-.97-.86l-26.53-34.53a41 41 0 0 1 .13 2.98V371h-5.44v-45.86zm76.41 0v5.22h-14.81V371h-6.21v-40.64h-14.88v-5.22zm18.88 45.86v-45.86h14.63q4.22 0 7.28.84a14 14 0 0 1 5.02 2.36 9.3 9.3 0 0 1 2.91 3.76q.95 2.24.95 5.01 0 1.7-.53 3.27a10 10 0 0 1-1.6 2.9q-1.07 1.35-2.69 2.4-1.62 1.06-3.79 1.74 5.03.99 7.58 3.61 2.56 2.63 2.56 6.91 0 2.92-1.07 5.32a11.4 11.4 0 0 1-3.13 4.12 15 15 0 0 1-5.06 2.68q-3 .94-6.83.94zm6.21-20.9v15.97h9.92q2.66 0 4.56-.6a8.5 8.5 0 0 0 3.14-1.72 6.6 6.6 0 0 0 1.8-2.62q.58-1.52.58-3.35 0-3.55-2.51-5.61t-7.6-2.07zm0-4.41h8.2q2.61 0 4.54-.58a9 9 0 0 0 3.18-1.6 6 6 0 0 0 1.87-2.48q.6-1.45.61-3.18 0-4.03-2.43-5.92t-7.55-1.89h-8.42zm52.87 7.07V371h-6.18v-18.24l-16.8-27.62h5.44q.84 0 1.31.42t.83 1.02l10.5 17.83q.64 1.12 1.07 2.11t.79 1.95q.35-.99.76-1.98.42-1 1.06-2.08l10.46-17.83q.3-.5.79-.97t1.3-.47h5.5zm67.26 8.77q.51 0 .93.41l2.43 2.66a20 20 0 0 1-6.83 5.09q-4.02 1.82-9.68 1.82-4.95 0-9-1.71a20 20 0 0 1-6.87-4.8 22 22 0 0 1-4.42-7.4 28 28 0 0 1-1.57-9.51q0-5.2 1.68-9.5a22 22 0 0 1 4.72-7.43 21 21 0 0 1 7.28-4.82 25 25 0 0 1 9.36-1.7q5.06 0 8.72 1.56a22 22 0 0 1 6.51 4.26l-2.01 2.84a2 2 0 0 1-.51.53q-.3.21-.84.21-.41 0-.88-.3l-1.1-.76q-.64-.44-1.5-.96-.87-.51-2.05-.96-1.19-.45-2.75-.75-1.57-.3-3.62-.3-3.68 0-6.74 1.26-3.05 1.26-5.26 3.6a16 16 0 0 0-3.44 5.7 22 22 0 0 0-1.23 7.52q0 4.28 1.23 7.65a17 17 0 0 0 3.36 5.68 14 14 0 0 0 5.04 3.53q2.91 1.22 6.27 1.22 2.06 0 3.68-.24 1.64-.24 3.03-.75 1.39-.52 2.59-1.3t2.41-1.87q.55-.48 1.06-.48m54.11-13.44q0 5.14-1.63 9.45a20.6 20.6 0 0 1-11.76 12.22 24 24 0 0 1-9.23 1.72 24 24 0 0 1-9.22-1.71 20.6 20.6 0 0 1-11.74-12.23 27 27 0 0 1-1.63-9.45q0-5.16 1.63-9.46a22 22 0 0 1 4.6-7.42 21 21 0 0 1 7.14-4.85 24 24 0 0 1 9.22-1.73q5.06 0 9.23 1.73a21 21 0 0 1 7.15 4.85 22 22 0 0 1 4.61 7.42 27 27 0 0 1 1.63 9.46m-6.37 0q0-4.23-1.15-7.59a16 16 0 0 0-3.26-5.68 14 14 0 0 0-5.12-3.56q-3-1.25-6.72-1.25-3.68 0-6.69 1.25-3 1.25-5.14 3.56a16 16 0 0 0-3.28 5.68 23 23 0 0 0-1.15 7.59q0 4.22 1.15 7.57a16 16 0 0 0 3.28 5.66 14 14 0 0 0 5.14 3.55q3 1.23 6.69 1.23t6.72-1.23a14 14 0 0 0 5.12-3.55q2.11-2.32 3.26-5.66a23 23 0 0 0 1.15-7.57m32.68 17.98q2.86 0 5.08-.96 2.25-.95 3.8-2.69a12 12 0 0 0 2.36-4.12q.82-2.4.82-5.28v-27.88h6.18v27.88q0 3.97-1.27 7.36a17 17 0 0 1-3.61 5.87 16.5 16.5 0 0 1-5.75 3.89 20 20 0 0 1-7.61 1.4 20 20 0 0 1-7.62-1.4 17 17 0 0 1-5.76-3.9 17 17 0 0 1-3.63-5.86 21 21 0 0 1-1.27-7.36v-27.88h6.18v27.84q0 2.88.82 5.28t2.36 4.13a11 11 0 0 0 3.81 2.7q2.25.99 5.1.98m32.1-40.93q.83 0 1.22.21.4.2.92.85l26.56 34.56a22 22 0 0 1-.16-3.14v-32.48h5.44V371h-3.14q-.74 0-1.23-.26a3 3 0 0 1-.98-.86l-26.53-34.53a41 41 0 0 1 .13 2.98V371h-5.44v-45.86zm77.5 36.39q.51 0 .92.41l2.44 2.66a20 20 0 0 1-6.84 5.09q-4 1.82-9.68 1.82-4.95 0-8.99-1.71a20 20 0 0 1-6.88-4.8 22 22 0 0 1-4.41-7.4 28 28 0 0 1-1.57-9.51q0-5.2 1.68-9.5a22 22 0 0 1 4.72-7.43 21 21 0 0 1 7.28-4.82 25 25 0 0 1 9.36-1.7q5.06 0 8.72 1.56a22 22 0 0 1 6.51 4.26l-2.02 2.84a2 2 0 0 1-.5.53q-.3.21-.84.21-.42 0-.88-.3l-1.1-.76q-.64-.44-1.5-.96-.87-.51-2.06-.96-1.18-.45-2.75-.75-1.56-.3-3.61-.3-3.68 0-6.74 1.26t-5.26 3.6a16 16 0 0 0-3.44 5.7 22 22 0 0 0-1.24 7.52q0 4.28 1.24 7.65a17 17 0 0 0 3.36 5.68 14 14 0 0 0 5.04 3.53q2.91 1.22 6.27 1.22 2.04 0 3.68-.24t3.02-.75q1.4-.52 2.6-1.3t2.41-1.87q.54-.48 1.06-.48m18.88 9.47h-6.21v-45.86h6.2zm18.5-5.22h19.83V371h-26.05v-45.86h6.21zm50.17-33.47q-.3.48-.61.72-.32.24-.83.24-.55 0-1.27-.54t-1.82-1.2a15 15 0 0 0-2.66-1.2 11 11 0 0 0-3.76-.55q-2.07.01-3.68.56a8 8 0 0 0-2.67 1.52 6 6 0 0 0-1.61 2.26q-.55 1.3-.55 2.8 0 1.92.95 3.18a8 8 0 0 0 2.5 2.16q1.55.9 3.51 1.56 1.97.65 4.03 1.36 2.07.7 4.04 1.58 1.95.88 3.52 2.22 1.54 1.35 2.5 3.3.93 1.95.94 4.8 0 3-1.03 5.65a13 13 0 0 1-2.99 4.59 14 14 0 0 1-4.83 3.07q-2.86 1.12-6.51 1.12-4.45 0-8.12-1.61a19 19 0 0 1-6.25-4.37l1.79-2.95q.26-.35.62-.59.37-.24.82-.24.67 0 1.54.72.86.72 2.16 1.59 1.29.86 3.13 1.58 1.85.72 4.5.72 2.2 0 3.93-.6a8 8 0 0 0 2.93-1.72 7.4 7.4 0 0 0 1.84-2.64q.64-1.54.64-3.42 0-2.1-.94-3.41a8 8 0 0 0-2.48-2.23q-1.55-.9-3.5-1.52l-4.04-1.28a41 41 0 0 1-4.03-1.52 13 13 0 0 1-3.5-2.24 10 10 0 0 1-2.48-3.44 12 12 0 0 1-.95-5.1 12.2 12.2 0 0 1 3.68-8.74 13 13 0 0 1 4.43-2.81q2.64-1.05 6.07-1.06 3.84 0 7 1.22 3.18 1.2 5.54 3.52zm-815.43 79.78q0 5.14-1.63 9.45a20.6 20.6 0 0 1-11.76 12.22 24 24 0 0 1-9.23 1.72 24 24 0 0 1-9.22-1.71 20.6 20.6 0 0 1-11.74-12.23 27 27 0 0 1-1.63-9.45q0-5.16 1.63-9.46a22 22 0 0 1 4.6-7.42 21 21 0 0 1 7.14-4.85 24 24 0 0 1 9.22-1.73q5.06 0 9.23 1.73a21 21 0 0 1 7.15 4.85 22 22 0 0 1 4.61 7.42 27 27 0 0 1 1.63 9.46m-6.36 0q0-4.23-1.16-7.59a16 16 0 0 0-3.26-5.68 14 14 0 0 0-5.12-3.56q-3-1.25-6.72-1.25-3.68 0-6.69 1.25-3 1.25-5.13 3.56a16 16 0 0 0-3.28 5.68 23 23 0 0 0-1.16 7.59q0 4.22 1.16 7.57a16 16 0 0 0 3.28 5.66 14 14 0 0 0 5.13 3.55q3 1.23 6.69 1.23t6.72-1.23a14 14 0 0 0 5.12-3.55q2.11-2.32 3.26-5.66a23 23 0 0 0 1.16-7.57m18.04-22.95q.84 0 1.24.21t.9.85l26.57 34.56a22 22 0 0 1-.16-3.14v-32.48h5.44V435h-3.14q-.73 0-1.23-.26a3 3 0 0 1-.98-.86l-26.52-34.53a41 41 0 0 1 .12 2.98V435h-5.44v-45.86zm88.77 0v5.22h-14.81V435h-6.21v-40.64h-14.88v-5.22zm34.79 0v5.06h-22.02v15.23h17.82v4.87h-17.82v15.64h22.02V435h-28.26v-45.86zm31.48 29.28q.45.77.79 1.62l.65 1.71q.32-.9.68-1.71.35-.82.8-1.65l15.52-28.19q.4-.74.86-.9t1.28-.16h4.58V435h-5.44v-33.7a35 35 0 0 1 .12-3l-15.7 28.67q-.81 1.44-2.25 1.44h-.9q-1.43 0-2.23-1.44l-16.07-28.77a30 30 0 0 1 .2 3.1V435h-5.45v-45.86h4.58q.83 0 1.28.16t.86.9zm43.14-.57V435h-6.18v-45.86h13.54q4.35 0 7.57 1.01 3.21 1 5.33 2.87a11.5 11.5 0 0 1 3.15 4.48q1.05 2.63 1.04 5.85 0 3.2-1.12 5.86a12.6 12.6 0 0 1-3.28 4.57 15 15 0 0 1-5.36 3 23 23 0 0 1-7.33 1.07zm0-4.93h7.36q2.65 0 4.69-.7a10 10 0 0 0 3.4-1.97 8 8 0 0 0 2.09-3.03q.7-1.76.7-3.87 0-4.38-2.7-6.85t-8.18-2.46h-7.36zm74.88-.83q0 5.14-1.63 9.45a20.6 20.6 0 0 1-11.76 12.22 24 24 0 0 1-9.23 1.72 24 24 0 0 1-9.22-1.71 20.6 20.6 0 0 1-11.74-12.23 27 27 0 0 1-1.64-9.45q0-5.16 1.64-9.46a22 22 0 0 1 4.6-7.42 21 21 0 0 1 7.14-4.85 24 24 0 0 1 9.22-1.73q5.05 0 9.23 1.73a21 21 0 0 1 7.15 4.85 22 22 0 0 1 4.6 7.42 27 27 0 0 1 1.64 9.46m-6.37 0q0-4.23-1.15-7.59a16 16 0 0 0-3.26-5.68 14 14 0 0 0-5.12-3.56q-3-1.25-6.72-1.25-3.69 0-6.7 1.25-3 1.25-5.13 3.56a16 16 0 0 0-3.28 5.68 23 23 0 0 0-1.15 7.59q0 4.22 1.15 7.57a16 16 0 0 0 3.28 5.66 14 14 0 0 0 5.14 3.55q3 1.23 6.69 1.23t6.72-1.23a14 14 0 0 0 5.12-3.55q2.11-2.32 3.26-5.66a23 23 0 0 0 1.15-7.57m21.67 3.77V435h-6.18v-45.86h12.96q4.34 0 7.52.88 3.17.9 5.23 2.55 2.07 1.66 3.06 4.01.99 2.36.99 5.27 0 2.43-.77 4.54a12 12 0 0 1-2.22 3.8 13 13 0 0 1-3.55 2.86q-2.1 1.18-4.76 1.79 1.15.68 2.05 1.95l13.38 18.21h-5.5q-1.7 0-2.5-1.31l-11.9-16.39a3.5 3.5 0 0 0-1.19-1.1 4 4 0 0 0-1.92-.34zm0-4.5h6.5q2.7 0 4.78-.66a10 10 0 0 0 3.45-1.86 8 8 0 0 0 2.1-2.86q.7-1.67.7-3.68 0-4.1-2.7-6.18t-8.05-2.08h-6.78zm72.12 23.64h-4.8q-.83 0-1.34-.42-.51-.41-.77-1.05l-4.29-11.07h-20.57l-4.29 11.07q-.22.57-.77 1.02-.54.45-1.34.45h-4.8l18.33-45.86h6.3zm-30.04-17.02h17.12l-7.2-18.66q-.7-1.73-1.38-4.32-.35 1.3-.69 2.42-.33 1.1-.65 1.93zm42.65-2.12V435h-6.17v-45.86h12.96q4.34 0 7.52.88 3.15.9 5.23 2.55 2.06 1.66 3.05 4.01 1 2.36 1 5.27 0 2.43-.77 4.54a12 12 0 0 1-2.23 3.8 13 13 0 0 1-3.55 2.86q-2.1 1.18-4.75 1.79 1.15.68 2.05 1.95L2598.9 435h-5.5q-1.7 0-2.5-1.31L2579 417.3a3.5 3.5 0 0 0-1.18-1.1 4 4 0 0 0-1.92-.34zm0-4.5h6.5q2.71 0 4.78-.66a10 10 0 0 0 3.46-1.86 8 8 0 0 0 2.1-2.86q.7-1.67.7-3.68 0-4.1-2.7-6.18t-8.05-2.08h-6.79zm52.07 5.4V435h-6.18v-18.24l-16.8-27.62h5.44q.84 0 1.31.42t.83 1.02l10.5 17.83q.64 1.12 1.07 2.11t.79 1.95q.35-.99.76-1.98.42-1 1.06-2.08l10.46-17.83q.3-.5.79-.97t1.3-.47h5.5zm72.12 18.24h-6.24v-20.86h-24.7V435h-6.24v-45.86h6.24v20.45h24.7v-20.45h6.24zm53.8-22.91q0 5.14-1.64 9.45a20.6 20.6 0 0 1-11.76 12.22 24 24 0 0 1-9.23 1.72 24 24 0 0 1-9.21-1.71 20.6 20.6 0 0 1-11.75-12.23 27 27 0 0 1-1.63-9.45q0-5.16 1.63-9.46a22 22 0 0 1 4.61-7.42 21 21 0 0 1 7.14-4.85 24 24 0 0 1 9.21-1.73q5.06 0 9.23 1.73a21 21 0 0 1 7.16 4.85 22 22 0 0 1 4.6 7.42 27 27 0 0 1 1.64 9.46m-6.37 0q0-4.23-1.15-7.59a16 16 0 0 0-3.27-5.68 14 14 0 0 0-5.12-3.56q-3-1.25-6.72-1.25-3.67 0-6.69 1.25-3 1.25-5.13 3.56a16 16 0 0 0-3.28 5.68 23 23 0 0 0-1.15 7.59q0 4.22 1.15 7.57a16 16 0 0 0 3.28 5.66 14 14 0 0 0 5.13 3.55q3 1.23 6.7 1.23t6.71-1.23a14 14 0 0 0 5.12-3.55q2.11-2.32 3.27-5.66a23 23 0 0 0 1.15-7.57m32.67 17.98q2.85 0 5.09-.96 2.25-.95 3.79-2.69a12 12 0 0 0 2.37-4.12q.81-2.4.81-5.28v-27.88h6.18v27.88q0 3.97-1.26 7.36a17 17 0 0 1-3.62 5.87 16.5 16.5 0 0 1-5.74 3.89 20 20 0 0 1-7.62 1.4 20 20 0 0 1-7.62-1.4 17 17 0 0 1-5.76-3.9 17 17 0 0 1-3.63-5.86 21 21 0 0 1-1.26-7.36v-27.88h6.17v27.84q0 2.88.82 5.28t2.37 4.13a11 11 0 0 0 3.8 2.7q2.26.99 5.11.98m52.38-33.76q-.3.48-.6.72-.33.24-.84.24-.54 0-1.26-.54t-1.82-1.2a15 15 0 0 0-2.66-1.2 11 11 0 0 0-3.76-.55q-2.08.01-3.68.56a8 8 0 0 0-2.67 1.52 6 6 0 0 0-1.62 2.26q-.54 1.3-.54 2.8 0 1.92.94 3.18a8 8 0 0 0 2.5 2.16q1.54.9 3.52 1.56 1.96.65 4.03 1.36 2.07.7 4.03 1.58t3.52 2.22 2.5 3.3.94 4.8q0 3-1.02 5.65a13 13 0 0 1-3 4.59 14 14 0 0 1-4.83 3.07q-2.86 1.12-6.5 1.12-4.46 0-8.12-1.61a19 19 0 0 1-6.26-4.37l1.8-2.95q.25-.35.62-.59t.82-.24q.67 0 1.53.72.87.72 2.16 1.59 1.3.86 3.14 1.58 1.83.72 4.5.72 2.2 0 3.93-.6a8 8 0 0 0 2.93-1.72 7.4 7.4 0 0 0 1.84-2.64q.64-1.54.64-3.42 0-2.1-.95-3.41a8 8 0 0 0-2.48-2.23q-1.53-.9-3.5-1.52l-4.03-1.28a41 41 0 0 1-4.03-1.52 13 13 0 0 1-3.5-2.24 10 10 0 0 1-2.49-3.44 12 12 0 0 1-.94-5.1 12.2 12.2 0 0 1 3.68-8.74 13 13 0 0 1 4.43-2.81q2.64-1.05 6.06-1.06 3.84 0 7.01 1.22 3.17 1.2 5.54 3.52zm17.8 38.69h-6.21v-45.86h6.2zm15.48-45.86q.84 0 1.24.21t.9.85l26.57 34.56a22 22 0 0 1-.16-3.14v-32.48h5.44V435h-3.14q-.74 0-1.23-.26a3 3 0 0 1-.98-.86l-26.52-34.53a41 41 0 0 1 .12 2.98V435h-5.44v-45.86zm65.64 41.35q1.85 0 3.4-.18a22 22 0 0 0 5.52-1.37q1.22-.5 2.44-1.14v-10.11h-7.1q-.62 0-.98-.35a1.2 1.2 0 0 1-.37-.87v-3.52h14.08v17.6a25 25 0 0 1-7.6 3.73q-2.13.63-4.56.93t-5.28.3q-5 0-9.15-1.71a21 21 0 0 1-11.86-12.2 26 26 0 0 1-1.68-9.51q0-5.25 1.65-9.57a21 21 0 0 1 4.7-7.4 21 21 0 0 1 7.4-4.8q4.32-1.69 9.7-1.69a30 30 0 0 1 5.06.4q2.34.4 4.34 1.15t3.7 1.83q1.68 1.07 3.16 2.41l-1.76 2.82q-.54.87-1.4.86-.52 0-1.13-.35-.8-.45-1.79-1.09-.99-.63-2.41-1.23t-3.36-1q-1.95-.42-4.6-.42-3.87 0-7 1.26-3.15 1.26-5.35 3.62a16 16 0 0 0-3.39 5.7 22 22 0 0 0-1.18 7.5q0 4.35 1.23 7.76t3.47 5.77a15 15 0 0 0 5.31 3.62q3.07 1.25 6.79 1.25"/>
</g>

<g class="panel-4-building">
<path fill="#b2b095" fill-rule="nonzero" d="M904.02 814.33q0-3 1.92-5.21 1.9-2.22 5.73-2.21h6.3v-16.2q0-7.13 2.18-13.54a31.5 31.5 0 0 1 6.64-11.29 32 32 0 0 1 11.17-7.76q6.71-2.9 15.86-2.89 6.08 0 11 1.54a31 31 0 0 1 15.55 10.72 48 48 0 0 1 5.1 7.99l-9.3 5.85a11 11 0 0 1-5.32 1.5q-3.45 0-6.23-2.85a28 28 0 0 0-5.17-4.35 10.6 10.6 0 0 0-5.63-1.42q-6.07 0-9.03 4.23-2.97 4.24-2.97 12.19v16.28h28.5v8.85q0 1.13-.48 2.13a6.3 6.3 0 0 1-3.38 3.15q-1.16.5-2.59.49h-22.05v11.7q0 4.5-1.68 8.14a27 27 0 0 1-4.54 6.79q3.38-.76 6.75-1.17a56 56 0 0 1 6.82-.41h37.65v9.53a9 9 0 0 1-.7 3.37 11 11 0 0 1-2 3.11 10 10 0 0 1-3.1 2.25 9.5 9.5 0 0 1-4.1.87h-71.54v-13.95q2.46-.45 4.76-1.43a15 15 0 0 0 4.01-2.47q1.72-1.5 2.77-3.6t1.05-4.88v-17.85h-13.95zm130.05-59.1q8.1 0 14.6 2.36a33 33 0 0 1 11.05 6.57 28 28 0 0 1 7.02 10 33 33 0 0 1 2.43 12.8q0 6-1.68 11.1a44 44 0 0 1-4.62 9.7 68 68 0 0 1-6.78 8.93 258 258 0 0 1-8.21 8.74l-21.38 21.9q4.12-1.2 8.14-1.91 4-.71 7.53-.71h20.4q3.75 0 5.93 2.06a7.2 7.2 0 0 1 2.17 5.44v13.5h-76.8v-7.5q0-2.17.9-4.65t3.15-4.5l31.5-31.73q4.05-4.05 7.05-7.72 3-3.68 4.95-7.24a33 33 0 0 0 2.93-7.13q.97-3.56.97-7.53 0-6.53-3.1-10.02-3.12-3.48-9.5-3.48-2.62 0-4.8.75t-3.9 2.02a14 14 0 0 0-2.96 3 16 16 0 0 0-1.99 3.75q-1.2 3.38-3.03 4.88-1.84 1.5-4.99 1.5a19 19 0 0 1-3.37-.3l-12.3-2.18q1.2-8.18 4.6-14.25a34 34 0 0 1 8.48-10.12 34 34 0 0 1 11.59-6.04 48 48 0 0 1 14.02-1.99m50.86 110.48v-77.78h14.4q2.18 0 3.63.98a5.2 5.2 0 0 1 2.07 2.92l1.27 4.2a43 43 0 0 1 4.05-3.71q2.1-1.69 4.54-2.93a25 25 0 0 1 5.25-1.95q2.8-.7 6.18-.71 7.06 0 11.67 3.64a22.7 22.7 0 0 1 7.01 9.71 23 23 0 0 1 4.76-6.15q2.82-2.55 6.08-4.12a30 30 0 0 1 6.9-2.33q3.63-.75 7.23-.75 6.68 0 11.85 1.99a22.6 22.6 0 0 1 8.67 5.77 25 25 0 0 1 5.29 9.3q1.8 5.52 1.8 12.49v49.43h-23.26v-49.43q0-12.07-10.35-12.07-4.73 0-7.83 3.1-3.12 3.12-3.12 8.97v49.43h-23.24v-49.43q0-6.67-2.63-9.37t-7.73-2.7q-3.14 0-5.96 1.42a22 22 0 0 0-5.29 3.83v56.25zm172.94-88.43v29.7h27.76v16.65h-27.76v29.85h-18.9v-29.85h-27.6v-16.65h27.6v-29.7z"/>
<path fill="#182952" fill-rule="nonzero" d="M609.86 915.14v5.06h-22.01v15.23h17.82v4.87h-17.82v15.64h22.01V961h-28.25v-45.86zm32.42 7.17q-.3.48-.6.72-.33.24-.84.24-.54 0-1.26-.54-.73-.54-1.83-1.2a15 15 0 0 0-2.65-1.2 11 11 0 0 0-3.76-.55q-2.1.01-3.68.56a8 8 0 0 0-2.68 1.52 6 6 0 0 0-1.61 2.26q-.54 1.3-.55 2.8 0 1.92.95 3.18a8 8 0 0 0 2.5 2.16q1.55.9 3.51 1.56 1.98.65 4.04 1.36 2.06.7 4.03 1.58 1.96.88 3.52 2.22 1.54 1.35 2.5 3.3.93 1.95.94 4.8 0 3-1.03 5.65a13 13 0 0 1-2.99 4.59 14 14 0 0 1-4.83 3.07q-2.86 1.12-6.51 1.12-4.45 0-8.11-1.61a19 19 0 0 1-6.26-4.37l1.8-2.95q.24-.35.62-.59.36-.24.81-.24.67 0 1.54.72.86.72 2.16 1.59 1.29.86 3.13 1.58 1.85.72 4.5.72 2.2 0 3.94-.6a8 8 0 0 0 2.92-1.72 7.4 7.4 0 0 0 1.84-2.64q.64-1.54.64-3.42 0-2.1-.94-3.41a8 8 0 0 0-2.48-2.23q-1.54-.9-3.5-1.52l-4.04-1.28a41 41 0 0 1-4.03-1.52 13 13 0 0 1-3.5-2.24 10 10 0 0 1-2.48-3.44 12 12 0 0 1-.95-5.1 12.2 12.2 0 0 1 3.68-8.74 13 13 0 0 1 4.44-2.81q2.64-1.06 6.06-1.06 3.85 0 7 1.22 3.18 1.2 5.54 3.52zm41.66-7.17v5.22h-14.81V961h-6.21v-40.64h-14.88v-5.22zm13.9 45.86h-6.22v-45.86h6.21zm34.84-16.58q.45.77.78 1.62l.66 1.71q.32-.9.67-1.71.36-.82.8-1.65l15.52-28.19q.42-.74.87-.9.44-.16 1.28-.16h4.57V961h-5.44v-33.7a35 35 0 0 1 .13-3l-15.71 28.67q-.8 1.44-2.24 1.44h-.9q-1.44 0-2.24-1.44l-16.06-28.77a30 30 0 0 1 .19 3.1V961h-5.44v-45.86h4.58q.83 0 1.28.16.44.16.86.9zM806.73 961h-4.8q-.83 0-1.35-.42-.51-.41-.76-1.05l-4.3-11.07h-20.57l-4.29 11.07q-.22.57-.76 1.02-.55.45-1.35.45h-4.8l18.34-45.86h6.3zm-30.05-17.02h17.12l-7.2-18.66q-.7-1.73-1.38-4.32-.35 1.3-.68 2.42-.35 1.1-.66 1.93zm67.07-28.84v5.22h-14.81V961h-6.21v-40.64h-14.88v-5.22zm34.79 0v5.06h-22.02v15.23h17.82v4.87h-17.82v15.64h22.02V961h-28.26v-45.86zm48.67 22.95q0 5.15-1.63 9.37a21 21 0 0 1-4.61 7.24q-2.98 3-7.14 4.65a25 25 0 0 1-9.21 1.65h-17.16v-45.86h17.16q5.06 0 9.21 1.65a20 20 0 0 1 7.14 4.67 21 21 0 0 1 4.6 7.25 26 26 0 0 1 1.64 9.38m-6.37 0q0-4.23-1.15-7.55a16 16 0 0 0-3.27-5.64 14 14 0 0 0-5.12-3.52 18 18 0 0 0-6.68-1.21H893.7v35.8h10.92q3.68 0 6.68-1.21 3.01-1.22 5.12-3.5 2.12-2.3 3.27-5.62a23 23 0 0 0 1.15-7.55m50.66-15.78q-.3.48-.61.72-.33.24-.83.24-.55 0-1.27-.54t-1.82-1.2a15 15 0 0 0-2.66-1.2 11 11 0 0 0-3.76-.55q-2.07.01-3.68.56a8 8 0 0 0-2.67 1.52 6 6 0 0 0-1.62 2.26q-.54 1.3-.54 2.8 0 1.92.94 3.18a8 8 0 0 0 2.5 2.16q1.54.9 3.52 1.56 1.97.65 4.03 1.36 2.07.7 4.03 1.58 1.98.88 3.52 2.22 1.56 1.35 2.5 3.3t.94 4.8q0 3-1.02 5.65a13 13 0 0 1-3 4.59 14 14 0 0 1-4.82 3.07q-2.86 1.12-6.52 1.12-4.45 0-8.1-1.61a19 19 0 0 1-6.26-4.37l1.79-2.95q.26-.35.62-.59.37-.24.82-.24.67 0 1.53.72.87.72 2.16 1.59 1.3.86 3.14 1.58t4.5.72q2.2 0 3.93-.6a8 8 0 0 0 2.93-1.72 7.4 7.4 0 0 0 1.84-2.64q.64-1.54.64-3.42 0-2.1-.94-3.41a8 8 0 0 0-2.48-2.23q-1.55-.9-3.5-1.52l-4.04-1.28a41 41 0 0 1-4.03-1.52 13 13 0 0 1-3.5-2.24 10 10 0 0 1-2.49-3.44 12 12 0 0 1-.94-5.1 12.2 12.2 0 0 1 3.68-8.74 13 13 0 0 1 4.43-2.81q2.64-1.06 6.07-1.06 3.85 0 7 1.22 3.18 1.2 5.54 3.52zm47.6 38.69h-6.24v-20.86h-24.7V961h-6.24v-45.86h6.24v20.45h24.7v-20.45h6.24zm53.8-22.91q0 5.14-1.64 9.45a20.6 20.6 0 0 1-11.76 12.22 24 24 0 0 1-9.23 1.72 24 24 0 0 1-9.22-1.71 20.6 20.6 0 0 1-11.74-12.23 27 27 0 0 1-1.63-9.45q0-5.16 1.63-9.46a22 22 0 0 1 4.6-7.42 21 21 0 0 1 7.14-4.85 24 24 0 0 1 9.22-1.73q5.06 0 9.23 1.73a21 21 0 0 1 7.15 4.85 22 22 0 0 1 4.61 7.42 27 27 0 0 1 1.63 9.46m-6.37 0q0-4.23-1.16-7.59a16 16 0 0 0-3.26-5.68 14 14 0 0 0-5.12-3.56q-3-1.26-6.72-1.25-3.67 0-6.69 1.25-3 1.25-5.13 3.56a16 16 0 0 0-3.28 5.68 23 23 0 0 0-1.16 7.59q0 4.22 1.16 7.57a16 16 0 0 0 3.28 5.66 14 14 0 0 0 5.13 3.55q3 1.23 6.69 1.23t6.72-1.23a14 14 0 0 0 5.12-3.55q2.11-2.32 3.26-5.66a23 23 0 0 0 1.16-7.57m21.66 3.77V961H1082v-45.86h12.96q4.35 0 7.52.88 3.17.9 5.24 2.55 2.07 1.66 3.05 4.01 1 2.36 1 5.27 0 2.43-.77 4.54a12 12 0 0 1-2.23 3.8 13 13 0 0 1-3.55 2.86q-2.1 1.18-4.75 1.79 1.15.68 2.05 1.95L1115.9 961h-5.5q-1.7 0-2.5-1.31L1096 943.3a3.5 3.5 0 0 0-1.19-1.1 4 4 0 0 0-1.92-.34zm0-4.5h6.5q2.7 0 4.78-.66a10 10 0 0 0 3.46-1.86 8 8 0 0 0 2.1-2.86q.7-1.67.7-3.68 0-4.1-2.7-6.18-2.72-2.08-8.06-2.08h-6.78zm65.63-22.22v5.22H1139V961h-6.21v-40.64h-14.88v-5.22zm34.79 0v5.06h-22.02v16.03h18.82v5.06h-18.82V961h-6.24v-45.86zm45.7 45.86h-4.8q-.84 0-1.35-.42-.51-.41-.77-1.05l-4.29-11.07h-20.57l-4.3 11.07q-.22.57-.76 1.02t-1.34.45h-4.8l18.33-45.86h6.3zm-30.06-17.02h17.12l-7.2-18.66q-.7-1.73-1.37-4.32l-.69 2.42q-.33 1.1-.66 1.93zm42.05 11.8h19.84V961h-26.05v-45.86h6.21zm32.9 0h19.84V961H1273v-45.86h6.2zm46.4 5.22h-6.21v-45.86h6.2zm15.49-45.86q.83 0 1.23.21t.91.85l26.56 34.56a22 22 0 0 1-.16-3.14v-32.48h5.44V961h-3.14q-.74 0-1.23-.26a3 3 0 0 1-.97-.86l-26.53-34.53a41 41 0 0 1 .13 2.98V961h-5.44v-45.86zm81.02 7.17q-.3.48-.6.72-.33.24-.84.24-.54 0-1.26-.54-.73-.54-1.83-1.2a15 15 0 0 0-2.65-1.2 11 11 0 0 0-3.76-.55q-2.1.01-3.68.56a8 8 0 0 0-2.68 1.52 6 6 0 0 0-1.61 2.26q-.55 1.3-.55 2.8 0 1.92.95 3.18a8 8 0 0 0 2.5 2.16q1.55.9 3.51 1.56 1.98.65 4.04 1.36 2.06.7 4.03 1.58 1.96.88 3.52 2.22 1.54 1.35 2.5 3.3.93 1.95.94 4.8 0 3-1.03 5.65a13 13 0 0 1-2.99 4.59 14 14 0 0 1-4.83 3.07q-2.86 1.12-6.51 1.12-4.45 0-8.11-1.61a19 19 0 0 1-6.26-4.37l1.8-2.95q.24-.35.62-.59.36-.24.81-.24.67 0 1.54.72.86.72 2.16 1.59 1.29.86 3.13 1.58 1.85.72 4.5.72 2.2 0 3.94-.6a8 8 0 0 0 2.92-1.72 7.4 7.4 0 0 0 1.84-2.64q.64-1.54.64-3.42 0-2.1-.94-3.41a8 8 0 0 0-2.48-2.23q-1.54-.9-3.5-1.52l-4.04-1.28a41 41 0 0 1-4.03-1.52 13 13 0 0 1-3.5-2.24 10 10 0 0 1-2.48-3.44 12 12 0 0 1-.95-5.1 12.2 12.2 0 0 1 3.68-8.74 13 13 0 0 1 4.44-2.81q2.64-1.06 6.06-1.06 3.85 0 7 1.22 3.18 1.2 5.54 3.52zm53.02 15.78q0 5.14-1.63 9.45a20.6 20.6 0 0 1-11.76 12.22 24 24 0 0 1-9.23 1.72 24 24 0 0 1-9.22-1.71 20.6 20.6 0 0 1-11.74-12.23 27 27 0 0 1-1.63-9.45q0-5.16 1.63-9.46a22 22 0 0 1 4.6-7.42 21 21 0 0 1 7.14-4.85 24 24 0 0 1 9.22-1.73q5.06 0 9.23 1.73a21 21 0 0 1 7.15 4.85 22 22 0 0 1 4.61 7.42 27 27 0 0 1 1.63 9.46m-6.36 0q0-4.23-1.16-7.59a16 16 0 0 0-3.26-5.68 14 14 0 0 0-5.12-3.56q-3-1.26-6.72-1.25-3.68 0-6.69 1.25-3 1.25-5.13 3.56a16 16 0 0 0-3.28 5.68 23 23 0 0 0-1.16 7.59q0 4.22 1.16 7.57a16 16 0 0 0 3.28 5.66 14 14 0 0 0 5.13 3.55q3 1.23 6.69 1.23t6.72-1.23a14 14 0 0 0 5.12-3.55q2.11-2.32 3.26-5.66a23 23 0 0 0 1.16-7.57m47.16 13.44q.52 0 .93.41l2.43 2.66a20 20 0 0 1-6.83 5.09q-4.02 1.82-9.68 1.82-4.95 0-8.99-1.71a20 20 0 0 1-6.88-4.8 22 22 0 0 1-4.42-7.4 28 28 0 0 1-1.56-9.51q0-5.2 1.68-9.5a22 22 0 0 1 4.72-7.43 21 21 0 0 1 7.28-4.82 25 25 0 0 1 9.36-1.7q5.05 0 8.72 1.56a22 22 0 0 1 6.5 4.26l-2 2.84a2 2 0 0 1-.52.53q-.3.21-.83.21-.42 0-.88-.3t-1.1-.76-1.51-.96-2.05-.96-2.75-.75-3.62-.3q-3.68 0-6.73 1.26t-5.27 3.6a16 16 0 0 0-3.44 5.7 22 22 0 0 0-1.23 7.52q0 4.28 1.23 7.65a17 17 0 0 0 3.36 5.68 14 14 0 0 0 5.04 3.53q2.92 1.22 6.28 1.22 2.04 0 3.68-.24 1.63-.24 3.02-.75 1.4-.52 2.6-1.3t2.4-1.87q.55-.48 1.06-.48m18.88 9.47h-6.2v-45.86h6.2zm50.02 0h-4.8q-.83 0-1.34-.42-.52-.41-.77-1.05l-4.29-11.07h-20.58l-4.28 11.07q-.22.57-.77 1.02-.54.45-1.35.45h-4.8l18.34-45.86h6.3zm-30.05-17.02h17.12l-7.2-18.66q-.7-1.73-1.37-4.32-.36 1.3-.7 2.42-.33 1.1-.65 1.93zm42.05 11.8h19.84V961h-26.05v-45.86h6.21zM704.62 1025h-4.8q-.83 0-1.35-.42-.51-.41-.77-1.05l-4.28-11.07h-20.58l-4.29 11.07q-.22.57-.77 1.02-.53.45-1.34.45h-4.8l18.34-45.86h6.3zm-30.05-17.02h17.12l-7.2-18.66q-.7-1.73-1.38-4.32-.35 1.3-.69 2.42-.33 1.1-.65 1.93zm39.04-28.84q.82 0 1.23.21.4.2.91.85l26.56 34.56a22 22 0 0 1-.16-3.14v-32.48h5.44V1025h-3.13q-.74 0-1.24-.26a3 3 0 0 1-.97-.86l-26.53-34.53a41 41 0 0 1 .13 2.98V1025h-5.44v-45.86zm84.93 22.95q0 5.15-1.64 9.37a21 21 0 0 1-4.6 7.24q-2.99 3-7.14 4.65a25 25 0 0 1-9.22 1.65H758.8v-45.86h17.15q5.06 0 9.22 1.65a20 20 0 0 1 7.14 4.67 21 21 0 0 1 4.6 7.25 26 26 0 0 1 1.64 9.38m-6.37 0q0-4.23-1.15-7.55a16 16 0 0 0-3.27-5.64 14 14 0 0 0-5.12-3.52 18 18 0 0 0-6.69-1.21h-10.9v35.8h10.9q3.69 0 6.7-1.21 3-1.22 5.11-3.5 2.12-2.3 3.27-5.62a23 23 0 0 0 1.15-7.55m64.9 22.91h-4.8q-.83 0-1.35-.42-.51-.41-.77-1.05l-4.29-11.07H825.3l-4.29 11.07q-.22.57-.77 1.02-.53.45-1.34.45h-4.8l18.33-45.86h6.3zm-30.05-17.02h17.12l-7.2-18.66q-.7-1.73-1.38-4.32-.35 1.3-.69 2.42-.33 1.1-.65 1.93zm64.1-28.84v5.06H869.1v16.03h18.81v5.06H869.1V1025h-6.24v-45.86zm36.22 0v5.06h-22.02v16.03h18.82v5.06h-18.82V1025h-6.24v-45.86zm50.56 22.95q0 5.14-1.64 9.45a20.6 20.6 0 0 1-11.76 12.22 24 24 0 0 1-9.23 1.72 24 24 0 0 1-9.21-1.71 20.6 20.6 0 0 1-11.75-12.23 27 27 0 0 1-1.63-9.45q0-5.16 1.63-9.46a22 22 0 0 1 4.61-7.42 21 21 0 0 1 7.14-4.85 24 24 0 0 1 9.21-1.73q5.06 0 9.23 1.73a21 21 0 0 1 7.16 4.85 22 22 0 0 1 4.6 7.42 27 27 0 0 1 1.64 9.46m-6.37 0q0-4.23-1.15-7.59a16 16 0 0 0-3.27-5.68 14 14 0 0 0-5.12-3.56q-3-1.26-6.72-1.25-3.68 0-6.69 1.25-3 1.25-5.13 3.56a16 16 0 0 0-3.28 5.68 23 23 0 0 0-1.15 7.59q0 4.22 1.15 7.57a16 16 0 0 0 3.28 5.66 14 14 0 0 0 5.13 3.55q3 1.23 6.7 1.23t6.71-1.23a14 14 0 0 0 5.12-3.55q2.11-2.32 3.27-5.66a23 23 0 0 0 1.15-7.57m21.66 3.77V1025h-6.17v-45.86h12.96q4.35 0 7.52.88 3.15.9 5.23 2.55 2.07 1.66 3.05 4.01 1 2.36 1 5.27 0 2.43-.77 4.54a12 12 0 0 1-2.23 3.8 13 13 0 0 1-3.55 2.86q-2.1 1.18-4.75 1.79 1.15.68 2.05 1.95l13.37 18.21h-5.5q-1.7 0-2.5-1.31l-11.9-16.39a3.5 3.5 0 0 0-1.18-1.1 4 4 0 0 0-1.92-.34zm0-4.5h6.5q2.71 0 4.78-.66a10 10 0 0 0 3.46-1.86 8 8 0 0 0 2.1-2.86q.7-1.67.7-3.68 0-4.1-2.7-6.18t-8.05-2.08h-6.79zm74.15.73q0 5.15-1.64 9.37a21 21 0 0 1-4.6 7.24q-2.98 3-7.14 4.65a25 25 0 0 1-9.22 1.65h-17.15v-45.86h17.15q5.06 0 9.22 1.65a20 20 0 0 1 7.14 4.67 21 21 0 0 1 4.6 7.25 26 26 0 0 1 1.64 9.38m-6.37 0q0-4.23-1.15-7.55a16 16 0 0 0-3.27-5.64 14 14 0 0 0-5.12-3.52 18 18 0 0 0-6.69-1.21h-10.9v35.8h10.9q3.69 0 6.7-1.21 3-1.22 5.11-3.5 2.12-2.3 3.27-5.62a23 23 0 0 0 1.15-7.55m52.54 22.91h-4.8q-.83 0-1.34-.42-.51-.41-.77-1.05l-4.29-11.07h-20.57l-4.3 11.07q-.22.57-.76 1.02t-1.34.45h-4.8l18.33-45.86h6.3zm-30.05-17.02h17.12l-7.2-18.66q-.7-1.73-1.37-4.32l-.69 2.42q-.33 1.1-.66 1.93zm35.84 17.02v-45.86h14.63q4.22 0 7.28.84a14 14 0 0 1 5.02 2.36 9.3 9.3 0 0 1 2.91 3.76q.95 2.23.95 5.01 0 1.7-.53 3.27a10 10 0 0 1-1.6 2.9q-1.07 1.35-2.69 2.4-1.62 1.06-3.79 1.74 5.03.99 7.58 3.61 2.56 2.63 2.56 6.91 0 2.92-1.07 5.32a11.4 11.4 0 0 1-3.13 4.12 15 15 0 0 1-5.06 2.68q-3 .94-6.83.94zm6.21-20.9v15.97h9.92q2.66 0 4.56-.6a8.5 8.5 0 0 0 3.14-1.72 6.6 6.6 0 0 0 1.8-2.62q.58-1.52.58-3.35 0-3.55-2.51-5.61t-7.6-2.07zm0-4.41h8.2q2.62 0 4.54-.58a9 9 0 0 0 3.18-1.6 6 6 0 0 0 1.87-2.48q.6-1.46.61-3.18 0-4.03-2.43-5.92t-7.55-1.89h-8.42zm41.41 20.1h19.84v5.21h-26.05v-45.86h6.21zm54.94-40.65v5.06h-22.01v15.23h17.82v4.87h-17.82v15.64h22.01v5.06h-28.25v-45.86zm58.47 45.86h-6.24v-20.86h-24.7V1025h-6.25v-45.86h6.24v20.45h24.7v-20.45h6.25zm53.79-22.91q0 5.14-1.63 9.45a20.6 20.6 0 0 1-11.76 12.22 24 24 0 0 1-9.23 1.72 24 24 0 0 1-9.22-1.71 20.6 20.6 0 0 1-11.74-12.23 27 27 0 0 1-1.64-9.45q0-5.16 1.64-9.46a22 22 0 0 1 4.6-7.42 21 21 0 0 1 7.14-4.85 24 24 0 0 1 9.22-1.73q5.05 0 9.23 1.73a21 21 0 0 1 7.15 4.85 22 22 0 0 1 4.6 7.42 27 27 0 0 1 1.64 9.46m-6.37 0q0-4.23-1.15-7.59a16 16 0 0 0-3.26-5.68 14 14 0 0 0-5.12-3.56q-3-1.26-6.72-1.25-3.69 0-6.7 1.25-3 1.25-5.13 3.56a16 16 0 0 0-3.28 5.68 23 23 0 0 0-1.15 7.59q0 4.22 1.15 7.57a16 16 0 0 0 3.28 5.66 14 14 0 0 0 5.14 3.55q3 1.23 6.69 1.23t6.72-1.23a14 14 0 0 0 5.12-3.55q2.11-2.32 3.26-5.66a23 23 0 0 0 1.15-7.57m32.67 17.98q2.85 0 5.1-.96 2.23-.96 3.78-2.69a12 12 0 0 0 2.37-4.12q.82-2.4.82-5.28v-27.88h6.17v27.88q0 3.97-1.26 7.36a17 17 0 0 1-3.62 5.87 16.5 16.5 0 0 1-5.74 3.89 20 20 0 0 1-7.62 1.4 20 20 0 0 1-7.61-1.4 17 17 0 0 1-5.76-3.9 17 17 0 0 1-3.63-5.86 21 21 0 0 1-1.27-7.36v-27.88h6.18v27.84q0 2.88.81 5.28.83 2.4 2.37 4.13a11 11 0 0 0 3.81 2.7q2.25.99 5.1.98m52.39-33.76q-.3.48-.61.72-.33.24-.83.24-.54 0-1.27-.54-.71-.54-1.82-1.2a15 15 0 0 0-2.66-1.2 11 11 0 0 0-3.76-.55q-2.07.01-3.68.56a8 8 0 0 0-2.67 1.52 6 6 0 0 0-1.61 2.26q-.55 1.3-.55 2.8 0 1.92.95 3.18a8 8 0 0 0 2.5 2.16q1.55.9 3.51 1.56 1.97.65 4.03 1.36 2.07.7 4.04 1.58 1.96.88 3.52 2.22 1.54 1.35 2.5 3.3.93 1.95.94 4.8 0 3-1.03 5.65a13 13 0 0 1-2.99 4.59 14 14 0 0 1-4.83 3.07q-2.86 1.12-6.51 1.12-4.45 0-8.12-1.61a19 19 0 0 1-6.25-4.37l1.79-2.95q.26-.35.62-.59.37-.24.82-.24.67 0 1.54.72.86.72 2.16 1.59 1.29.86 3.13 1.58 1.85.72 4.5.72 2.2 0 3.93-.6a8 8 0 0 0 2.93-1.72 7.4 7.4 0 0 0 1.84-2.64q.64-1.54.64-3.42 0-2.1-.94-3.41a8 8 0 0 0-2.48-2.23q-1.55-.9-3.5-1.52l-4.04-1.28a41 41 0 0 1-4.03-1.52 13 13 0 0 1-3.5-2.24 10 10 0 0 1-2.48-3.44 12 12 0 0 1-.95-5.1 12.2 12.2 0 0 1 3.68-8.74 13 13 0 0 1 4.43-2.81q2.65-1.06 6.07-1.06 3.85 0 7 1.22 3.17 1.2 5.54 3.52zm17.79 38.69h-6.2v-45.86h6.2zm15.49-45.86q.83 0 1.23.21t.91.85l26.56 34.56a22 22 0 0 1-.16-3.14v-32.48h5.44V1025h-3.13q-.74 0-1.24-.26a3 3 0 0 1-.97-.86l-26.53-34.53a41 41 0 0 1 .13 2.98V1025h-5.44v-45.86zm65.63 41.35q1.86 0 3.4-.18a22 22 0 0 0 5.53-1.37q1.2-.5 2.43-1.14v-10.11h-7.1q-.6 0-.98-.35a1.2 1.2 0 0 1-.37-.87v-3.52h14.08v17.6a25 25 0 0 1-7.6 3.73q-2.13.63-4.56.93t-5.28.3q-5 0-9.15-1.71a21 21 0 0 1-11.86-12.2 26 26 0 0 1-1.68-9.51q0-5.25 1.65-9.57a21 21 0 0 1 4.7-7.4 21 21 0 0 1 7.4-4.8q4.34-1.69 9.71-1.69a30 30 0 0 1 5.06.4q2.33.4 4.33 1.15t3.7 1.83 3.17 2.41l-1.76 2.82q-.55.87-1.41.86-.51 0-1.12-.35-.8-.45-1.8-1.09-.99-.63-2.41-1.23t-3.36-1q-1.94-.42-4.6-.42-3.85 0-7 1.26t-5.34 3.62a16 16 0 0 0-3.4 5.7 22 22 0 0 0-1.18 7.5q0 4.35 1.23 7.76t3.47 5.77a15 15 0 0 0 5.32 3.62q3.06 1.25 6.78 1.25"/>
</g>

<g class="panel-4-building">
<path fill="#c7d3e9" d="M397.64 384H281.27v185h116.37zM258 592.27 281.27 569H607.1v23.27z"/>
<path fill="#4f6a9a" d="M607.09 243.18H397.64V569h209.45z"/>
<path fill="#4f6a9a" d="M327.82 406.1h-23.27v23.26h23.27zm46.54 0H351.1v23.26h23.27zm-46.54 46.54h-23.27v23.27h23.27zm46.54 0H351.1v23.27h23.27zm-46.54 46.54h-23.27v23.27h23.27zm46.54 0H351.1v23.27h23.27zm-17.45 40.73H322V569h34.9z"/>
<path fill="#c7d3e9" d="M490.73 464.27h-58.18v23.28h58.18zm81.45 0H514v23.28h58.18zm-81.45-46.54h-58.18V441h58.18zm81.45 0H514V441h58.18zm-81.45-46.55h-58.18v23.27h58.18zm81.45 0H514v23.27h58.18zm-81.45-46.54h-58.18v23.27h58.18zm81.45 0H514v23.27h58.18zm-81.45-46.55h-58.18v23.27h58.18zm81.45 0H514v23.27h58.18zM450 522.45V505h104.73v17.45h-17.46V569h-69.82v-46.55z"/>
</g>

<g class="panel-4-building">
<path fill="#c7d3e9" d="M723.64 197.27H607.27V568.3h116.37zm-116.37 395V568.3H933.1v23.98z"/>
<path fill="#4f6a9a" d="M723.63 59v510H933.1V59z"/>
<path fill="#4f6a9a" d="M653.82 313h-23.27v23.27h23.27zm46.54 0H677.1v23.27h23.27zm-46.54-47h-23.27v23.27h23.27zm46.54 0H677.1v23.27h23.27zm-46.54-47h-23.27v23.27h23.27zm46.54 0H677.1v23.27h23.27zm-46.54 140.55h-23.27v23.27h23.27zm46.54 0H677.1v23.27h23.27zm-46.54 46.54h-23.27v23.27h23.27zm46.54 0H677.1v23.27h23.27zm-46.54 46.55h-23.27v23.27h23.27zm46.54 0H677.1v23.27h23.27zm-46.54 46.54h-23.27v23.27h23.27zm46.54 0H677.1v23.27h23.27zm-17.45 40.73H648V569h34.9z"/>
<path fill="#c7d3e9" d="M816.73 464.27h-58.18v23.28h58.18zm81.45 0H840v23.28h58.18zm-81.45-46.54h-58.18V441h58.18zm81.45 0H840V441h58.18zm-81.45-46.55h-58.18v23.27h58.18zm81.45 0H840v23.27h58.18zm-81.45-46.54h-58.18v23.27h58.18zm81.45 0H840v23.27h58.18zm-81.45-46.55h-58.18v23.27h58.18zm81.45 0H840v23.27h58.18zm-81.45-47h-58.18v23.27h58.18zm81.45 0H840v23.27h58.18zm-81.45-47h-58.18v23.27h58.18zm81.45 0H840v23.27h58.18zm-81.45-47h-58.18v23.27h58.18zm81.45 0H840v23.27h58.18zm-81.45-47h-58.18v23.27h58.18zm81.45 0H840v23.27h58.18zM776 522.45V505h104.73v17.45h-17.46V569h-69.82v-46.55z"/>
</g>

<g class="panel-4-building">
<path fill="#c7d3e9" d="M1049.64 203.04H933.27v360h116.37zM933.27 592.27v-29.23h325.82v29.23z"/>
<path fill="#4f6a9a" d="M1259.09 243.18h-209.45V569h209.45z"/>
<path fill="#4f6a9a" d="M979.82 313h-23.27v23.27h23.27zm46.54 0h-23.27v23.27h23.27zm-46.54-41h-23.27v23.27h23.27zm46.54 0h-23.27v23.27h23.27zm-46.54-47h-23.27v23.27h23.27zm46.54 0h-23.27v23.27h23.27zm-46.54 134.55h-23.27v23.27h23.27zm46.54 0h-23.27v23.27h23.27zm-46.54 46.54h-23.27v23.27h23.27zm46.54 0h-23.27v23.27h23.27zm-46.54 46.55h-23.27v23.27h23.27zm46.54 0h-23.27v23.27h23.27zm-46.54 46.54h-23.27v23.27h23.27zm46.54 0h-23.27v23.27h23.27zm-17.45 40.73H974V569h34.9z"/>
<path fill="#c7d3e9" d="M1142.73 464.27h-58.18v23.28h58.18zm81.45 0H1166v23.28h58.18zm-81.45-46.54h-58.18V441h58.18zm81.45 0H1166V441h58.18zm-81.45-46.55h-58.18v23.27h58.18zm81.45 0H1166v23.27h58.18zm-81.45-46.54h-58.18v23.27h58.18zm81.45 0H1166v23.27h58.18zm-81.45-46.55h-58.18v23.27h58.18zm81.45 0H1166v23.27h58.18zM1102 522.45V505h104.73v17.45h-17.46V569h-69.82v-46.55z"/>
</g>

<g class="panel-4-building">
<path fill="#c7d3e9" d="M1375.64 289.73h-116.37V569h116.37zm-116.37 302.54V569h325.82v23.27z"/>
<path fill="#4f6a9a" d="M1585.09 205h-209.45v364h209.45z"/>
<path fill="#4f6a9a" d="M1305.82 313h-23.27v23.27h23.27zm46.54 0h-23.27v23.27h23.27zm-46.54 46.55h-23.27v23.27h23.27zm46.54 0h-23.27v23.27h23.27zm-46.54 46.54h-23.27v23.27h23.27zm46.54 0h-23.27v23.27h23.27zm-46.54 46.55h-23.27v23.27h23.27zm46.54 0h-23.27v23.27h23.27zm-46.54 46.54h-23.27v23.27h23.27zm46.54 0h-23.27v23.27h23.27zm-17.45 40.73H1300V569h34.9z"/>
<path fill="#c7d3e9" d="M1468.73 464.27h-58.18v23.28h58.18zm81.45 0H1492v23.28h58.18zm-81.45-46.54h-58.18V441h58.18zm81.45 0H1492V441h58.18zm-81.45-46.55h-58.18v23.27h58.18zm81.45 0H1492v23.27h58.18zm-81.45-46.54h-58.18v23.27h58.18zm81.45 0H1492v23.27h58.18zm-81.45-46.55h-58.18v23.27h58.18zm81.45 0H1492v23.27h58.18zm-81.45-47h-58.18v23.27h58.18zm81.45 0H1492v23.27h58.18zM1428 522.45V505h104.73v17.45h-17.46V569h-69.82v-46.55z"/>
</g>

<g class="panel-4-building">
<path fill="#c7d3e9" d="M1701.64 289.73h-116.37V569h116.37zm-116.37 302.54V569h325.82l25 23.27z"/>
<path fill="#4f6a9a" d="M1911.09 339h-209.45v230h209.45z"/>
<path fill="#4f6a9a" d="M1631.82 313h-23.27v23.27h23.27zm46.54 0h-23.27v23.27h23.27zm-46.54 46.55h-23.27v23.27h23.27zm46.54 0h-23.27v23.27h23.27zm-46.54 46.54h-23.27v23.27h23.27zm46.54 0h-23.27v23.27h23.27zm-46.54 46.55h-23.27v23.27h23.27zm46.54 0h-23.27v23.27h23.27zm-46.54 46.54h-23.27v23.27h23.27zm46.54 0h-23.27v23.27h23.27zm-17.45 40.73H1626V569h34.9z"/>
<path fill="#c7d3e9" d="M1794.73 464.27h-58.18v23.28h58.18zm81.45 0H1818v23.28h58.18zm-81.45-46.54h-58.18V441h58.18zm81.45 0H1818V441h58.18zm-81.45-46.55h-58.18v23.27h58.18zm81.45 0H1818v23.27h58.18zM1754 522.45V505h104.73v17.45h-17.46V569h-69.82v-46.55z"/>
</g>

<g class="panel-4-building">
<path fill="#fff" stroke="#4f6a9a" stroke-width="4" d="M1846.27 632.27h-117v181h117Z"/>
<path fill="#c7d3e9" d="m1704 607 23.27 23.27h325.82V607z"/>
<path fill="#4f6a9a" d="M2053.09 956.1h-209.45V630.26h209.45z"/>
<path fill="#4f6a9a" d="M1773.82 793.18h-23.27v-23.27h23.27zm46.54 0h-23.27v-23.27h23.27zm-46.54-46.54h-23.27v-23.28h23.27zm46.54 0h-23.27v-23.28h23.27zm-46.54-46.55h-23.27v-23.27h23.27zm46.54 0h-23.27v-23.27h23.27zm-17.45-40.73H1768v-29.09h34.9z"/>
<path fill="#fff" d="M1936.73 735h-58.18v-23.27h58.18zm81.45 0H1960v-23.27h58.18zm-81.45 46.55h-58.18v-23.28h58.18zm81.45 0H1960v-23.28h58.18zm-81.45 46.54h-58.18v-23.27h58.18zm81.45 0H1960v-23.27h58.18zm-81.45 46.55h-58.18v-23.28h58.18zm81.45 0H1960v-23.28h58.18zm-81.45 46.54h-58.18v-23.27h58.18zm81.45 0H1960v-23.27h58.18z"/>
<path fill="#c7d3e9" d="M1983.27 676.82h-69.82v-46.55h69.82z"/>
<path fill="#c7d3e9" d="M2000.73 694.27H1896v-17.45h104.73z"/>
</g>

<g class="panel-4-building">
<path fill="#c7d3e9" d="M2048.64 1002V630.98h121V1002z"/>
<path fill="#4f6a9a" d="M2169.64 1140.27v-510h209.45v510z"/>
<path fill="#4f6a9a" d="M2099.82 886.27h-23.27V863h23.27zm46.54 0h-23.27V863h23.27zm-46.54 47h-23.27V910h23.27zm46.54 0h-23.27V910h23.27zm-46.54 47h-23.27V957h23.27zm46.54 0h-23.27V957h23.27zm-46.54-140.54h-23.27v-23.28h23.27zm46.54 0h-23.27v-23.28h23.27zm-46.54-46.55h-23.27v-23.27h23.27zm46.54 0h-23.27v-23.27h23.27zm-46.54-46.54h-23.27v-23.28h23.27zm46.54 0h-23.27v-23.28h23.27zm-46.54-46.55h-23.27v-23.27h23.27zm46.54 0h-23.27v-23.27h23.27zm-17.45-40.73H2094v-29.09h34.9z"/>
<path fill="#c7d3e9" d="M2262.73 735h-58.18v-23.27h58.18zm81.45 0H2286v-23.27h58.18zm-81.45 46.55h-58.18v-23.28h58.18zm81.45 0H2286v-23.28h58.18zm-81.45 46.54h-58.18v-23.27h58.18zm81.45 0H2286v-23.27h58.18zm-81.45 46.55h-58.18v-23.28h58.18zm81.45 0H2286v-23.28h58.18zm-81.45 46.54h-58.18v-23.27h58.18zm81.45 0H2286v-23.27h58.18zm-81.45 47h-58.18v-23.27h58.18zm81.45 0H2286v-23.27h58.18zm-81.45 47h-58.18v-23.27h58.18zm81.45 0H2286v-23.27h58.18zm-81.45 47h-58.18v-23.27h58.18zm81.45 0H2286v-23.27h58.18zm-81.45 47h-58.18v-23.27h58.18zm81.45 0H2286v-23.27h58.18zm-104.73-478.9h69.82v46.54h17.46v17.45H2222v-17.45h17.45z"/>
<path fill="#c7d3e9" d="M2053.28 607v23.98h325.8V607z"/>
</g>

<g class="panel-4-building">
<path fill="#fff" stroke="#4f6a9a" stroke-width="4" d="M2497.64 994.23v-356h-121v356Z"/>
<path fill="#4f6a9a" d="M2705.09 956.1h-209.45V630.26h209.45z"/>
<path fill="#c7d3e9" d="M2425.82 886.27h-23.27V863h23.27zm46.54 0h-23.27V863h23.27zm-46.54 41h-23.27V904h23.27zm46.54 0h-23.27V904h23.27zm-46.54 47h-23.27V951h23.27zm46.54 0h-23.27V951h23.27zm-46.54-134.54h-23.27v-23.28h23.27zm46.54 0h-23.27v-23.28h23.27zm-46.54-46.55h-23.27v-23.27h23.27zm46.54 0h-23.27v-23.27h23.27zm-46.54-46.54h-23.27v-23.28h23.27zm46.54 0h-23.27v-23.28h23.27zm-46.54-46.55h-23.27v-23.27h23.27zm46.54 0h-23.27v-23.27h23.27zm-17.45-40.73H2420v-29.09h34.9z"/>
<path fill="#c7d3e9" d="M2588.73 735h-58.18v-23.27h58.18zm81.45 0H2612v-23.27h58.18zm-81.45 46.55h-58.18v-23.28h58.18zm81.45 0H2612v-23.28h58.18zm-81.45 46.54h-58.18v-23.27h58.18zm81.45 0H2612v-23.27h58.18zm-81.45 46.55h-58.18v-23.28h58.18zm81.45 0H2612v-23.28h58.18zm-81.45 46.54h-58.18v-23.27h58.18zm81.45 0H2612v-23.27h58.18zM2548 676.82v17.45h104.73v-17.45h-17.46v-46.55h-69.82v46.55z"/>
<path fill="#c7d3e9" d="M2379.28 607v29.23h325.8V607z"/>
</g>

<g class="panel-4-building">
<path fill="#c7d3e9" d="M2825.64 909.55h-125V630.27h125z"/>
<path fill="#c7d3e9" d="M2705.28 607v23.27h325.8V607z"/>
<path fill="#4f6a9a" d="M3031.09 994.28h-209.45v-364h209.45z"/>
<path fill="#4f6a9a" d="M2751.82 886.27h-23.27V863h23.27zm46.54 0h-23.27V863h23.27zm-46.54-46.54h-23.27v-23.28h23.27zm46.54 0h-23.27v-23.28h23.27zm-46.54-46.55h-23.27v-23.27h23.27zm46.54 0h-23.27v-23.27h23.27zm-46.54-46.54h-23.27v-23.28h23.27zm46.54 0h-23.27v-23.28h23.27zm-46.54-46.55h-23.27v-23.27h23.27zm46.54 0h-23.27v-23.27h23.27zm-17.45-40.73H2746v-29.09h34.9z"/>
<path fill="#fff" d="M2914.73 735h-58.18v-23.27h58.18zm81.45 0H2938v-23.27h58.18zm-81.45 46.55h-58.18v-23.28h58.18zm81.45 0H2938v-23.28h58.18zm-81.45 46.54h-58.18v-23.27h58.18zm81.45 0H2938v-23.27h58.18zm-81.45 46.55h-58.18v-23.28h58.18zm81.45 0H2938v-23.28h58.18zm-81.45 46.54h-58.18v-23.27h58.18zm81.45 0H2938v-23.27h58.18zm-81.45 47h-58.18v-23.27h58.18zm81.45 0H2938v-23.27h58.18z"/>
<path fill="#c7d3e9" d="M2891.45 630.27h69.82v46.55h17.46v17.45H2874v-17.45h17.45z"/>
</g>

<g class="panel-4-building">
<path fill="#fff" stroke="#4f6a9a" stroke-width="4" d="M3145.64 907.55V632.27h-112.37v275.28Z"/>
<path fill="#c7d3e9" d="M3031.27 607v23.27h325.82l25-23.27z"/>
<path fill="#4f6a9a" d="M3357.1 860.28h-209.47v-230h209.46z"/>
<path fill="#c7d3e9" d="M3077.82 886.27h-23.27V863h23.27zm46.54 0h-23.27V863h23.27zm-46.54-46.54h-23.27v-23.28h23.27zm46.54 0h-23.27v-23.28h23.27zm-46.54-46.55h-23.27v-23.27h23.27zm46.54 0h-23.27v-23.27h23.27zm-46.54-46.54h-23.27v-23.28h23.27zm46.54 0h-23.27v-23.28h23.27zm-46.54-46.55h-23.27v-23.27h23.27zm46.54 0h-23.27v-23.27h23.27zm-17.45-40.73H3072v-29.09h34.9z"/>
<path fill="#c7d3e9" d="M3240.73 735h-58.18v-23.27h58.18zm81.45 0H3264v-23.27h58.18zm-81.45 46.55h-58.18v-23.28h58.18zm81.45 0H3264v-23.28h58.18zm-81.45 46.54h-58.18v-23.27h58.18zm81.45 0H3264v-23.27h58.18zM3200 676.82v17.45h104.73v-17.45h-17.46v-46.55h-69.82v46.55z"/>
</g>

<path class="panel-4-line" fill="#4f6a9a" d="M258 592h3283v15H258z"/>

</svg>
