<svg xmlns="http://www.w3.org/2000/svg" viewBox="0 0 520 250">
<g fill="none">
<path fill="#f3f6fa" fill-rule="evenodd" d="M0 0h250v250H0z"/>
<path fill="#e8edf6" fill-rule="evenodd" d="M250 0h270v250H250z"/>
<path fill="#4f6a9a" d="M19.55 95.18h7.28V76.07q0-1.41.08-2.94l-4.29 3.56q-.42.34-.83.48a2.5 2.5 0 0 1-2.02-.16q-.53-.3-.79-.63L16.43 73l11.8-9.9h6.66v32.08h6.24V101H19.55zm49.56-28.73q0 .83-.26 1.5-.27.68-.82 1.19-.56.5-1.47.78-.9.27-2.18.27h-9.05l-1.07 6.27a27 27 0 0 1 3.98-.37q3 0 5.28.91t3.85 2.48a10 10 0 0 1 2.35 3.7q.8 2.12.8 4.53 0 3.04-1.09 5.56a13 13 0 0 1-7.59 7.15q-2.67 1-5.84 1-1.84 0-3.52-.4a17 17 0 0 1-8.12-4.44l2.5-3.33q.38-.5.9-.8.52-.26 1.12-.26.78 0 1.47.42l1.5.94q.83.51 1.92.92 1.1.42 2.7.42 1.62 0 2.76-.53a5 5 0 0 0 1.86-1.46q.7-.92 1.04-2.16.32-1.23.32-2.64 0-2.74-1.56-4.2-1.56-1.44-4.42-1.44-2.55 0-4.99.96l-5-1.35 3.23-18.95h19.4zm33.33 15.6q0 4.96-1.07 8.6a18 18 0 0 1-2.95 6.03 12 12 0 0 1-4.47 3.57q-2.59 1.17-5.6 1.17-3.02 0-5.58-1.17a12 12 0 0 1-4.43-3.57 18 18 0 0 1-2.93-6.03q-1.05-3.64-1.05-8.6t1.05-8.61 2.93-6.03a12 12 0 0 1 4.43-3.55q2.56-1.16 5.58-1.16 3.01 0 5.6 1.16 2.6 1.15 4.47 3.55 1.89 2.4 2.95 6.03a31 31 0 0 1 1.07 8.6m-8.32 0q0-3.93-.5-6.44a13 13 0 0 0-1.3-3.94 5 5 0 0 0-1.87-1.96q-1.04-.53-2.1-.53t-2.1.53a4.6 4.6 0 0 0-1.81 1.96q-.8 1.44-1.28 3.94a35 35 0 0 0-.48 6.44q0 3.95.48 6.44t1.28 3.94a4.6 4.6 0 0 0 1.81 1.98 4.5 4.5 0 0 0 2.1.53q1.06 0 2.1-.53a5 5 0 0 0 1.86-1.98q.83-1.44 1.32-3.94.5-2.48.49-6.44m11.13 14.37q0-.83.31-1.54.3-.72.9-1.25a4.4 4.4 0 0 1 3.16-1.16q1.17 0 2.02.4t1.43 1.1.85 1.58.27 1.89q0 1.3-.41 2.77-.43 1.47-1.24 2.95a18 18 0 0 1-4.85 5.51l-1.4-1.25q-.3-.29-.43-.53a1 1 0 0 1-.14-.61q0-.27.18-.56t.44-.53l.73-.76q.42-.44.83-.99.41-.54.77-1.2.34-.64.53-1.37-.9-.08-1.64-.44-.73-.37-1.23-.96a4.6 4.6 0 0 1-1.08-3.05m39.62-14.37q0 4.96-1.06 8.6a18 18 0 0 1-2.96 6.03 12 12 0 0 1-4.47 3.57q-2.58 1.17-5.6 1.17t-5.58-1.17a12 12 0 0 1-4.43-3.57 18 18 0 0 1-2.92-6.03q-1.05-3.64-1.06-8.6 0-4.96 1.05-8.61t2.93-6.03a12 12 0 0 1 4.43-3.55q2.56-1.16 5.58-1.16t5.6 1.16q2.6 1.15 4.47 3.55 1.9 2.4 2.96 6.03a31 31 0 0 1 1.06 8.6m-8.32 0q0-3.93-.5-6.44a13 13 0 0 0-1.3-3.94 5 5 0 0 0-1.86-1.96q-1.05-.53-2.11-.53t-2.1.53a4.6 4.6 0 0 0-1.81 1.96q-.8 1.44-1.28 3.94a35 35 0 0 0-.48 6.44q0 3.95.48 6.44t1.28 3.94a4.6 4.6 0 0 0 1.82 1.98 4.5 4.5 0 0 0 2.09.53q1.07 0 2.1-.53a5 5 0 0 0 1.87-1.98q.81-1.44 1.3-3.94.5-2.48.5-6.44m38.48 0q0 4.96-1.06 8.6a18 18 0 0 1-2.96 6.03 12 12 0 0 1-4.47 3.57q-2.58 1.17-5.6 1.17t-5.58-1.17a12 12 0 0 1-4.43-3.57 18 18 0 0 1-2.93-6.03q-1.05-3.64-1.05-8.6t1.06-8.61 2.92-6.03a12 12 0 0 1 4.43-3.55q2.56-1.16 5.58-1.16t5.6 1.16q2.6 1.15 4.47 3.55 1.9 2.4 2.96 6.03a31 31 0 0 1 1.06 8.6m-8.32 0q0-3.93-.5-6.44a13 13 0 0 0-1.3-3.94 5 5 0 0 0-1.86-1.96q-1.05-.53-2.11-.53t-2.1.53a4.6 4.6 0 0 0-1.81 1.96q-.8 1.44-1.28 3.94a35 35 0 0 0-.48 6.44q0 3.95.48 6.44t1.28 3.94a4.6 4.6 0 0 0 1.82 1.98 4.5 4.5 0 0 0 2.09.53q1.06 0 2.1-.53a5 5 0 0 0 1.87-1.98q.81-1.44 1.3-3.94.5-2.48.5-6.44m38.48 0q0 4.96-1.06 8.6a18 18 0 0 1-2.95 6.03 12 12 0 0 1-4.48 3.57q-2.58 1.17-5.6 1.17t-5.58-1.17a12 12 0 0 1-4.43-3.57 18 18 0 0 1-2.93-6.03q-1.05-3.64-1.05-8.6t1.05-8.61 2.93-6.03a12 12 0 0 1 4.43-3.55q2.57-1.16 5.58-1.16t5.6 1.16 4.48 3.55 2.95 6.03a31 31 0 0 1 1.06 8.6m-8.32 0q0-3.93-.5-6.44a13 13 0 0 0-1.3-3.94 5 5 0 0 0-1.86-1.96q-1.05-.53-2.11-.53t-2.1.53a4.6 4.6 0 0 0-1.81 1.96q-.8 1.44-1.28 3.94a35 35 0 0 0-.48 6.44q0 3.95.48 6.44t1.28 3.94a4.6 4.6 0 0 0 1.82 1.98 4.5 4.5 0 0 0 2.09.53q1.07 0 2.1-.53a5 5 0 0 0 1.87-1.98q.81-1.44 1.3-3.94.5-2.48.5-6.44m27.67-11.7v10.3h9.62v5.76h-9.62v10.35h-6.56V86.41h-9.56v-5.77h9.56v-10.3zM90.66 133.34q.15 0 .26.11l.68.75a5.5 5.5 0 0 1-1.92 1.43q-1.13.51-2.72.51a6 6 0 0 1-2.53-.48 6 6 0 0 1-1.94-1.35 6 6 0 0 1-1.24-2.08q-.44-1.22-.44-2.67 0-1.47.47-2.68a6 6 0 0 1 3.38-3.44q1.2-.48 2.63-.48t2.45.44q1.03.45 1.83 1.2l-.56.8-.15.15a.4.4 0 0 1-.23.06l-.25-.1-.3-.2-.43-.27a4 4 0 0 0-1.35-.48 5.4 5.4 0 0 0-2.91.27 4.2 4.2 0 0 0-2.45 2.61 6 6 0 0 0-.35 2.12q0 1.2.35 2.15.34.94.94 1.6.6.65 1.42.99.83.34 1.77.34.57 0 1.03-.07a4 4 0 0 0 1.58-.57q.33-.22.68-.53.15-.13.3-.13m13.7 2.66h-1.76v-5.87h-6.95V136H93.9v-12.9h1.75v5.75h6.95v-5.75h1.75zm5.21 0h-1.74v-12.9h1.74zm5.2-1.47h5.59V136h-7.33v-12.9h1.75zm18.69-4.97q0 1.44-.46 2.63-.46 1.2-1.3 2.04-.83.84-2 1.3-1.17.48-2.6.47h-4.82v-12.9h4.83q1.4 0 2.59.47a5.8 5.8 0 0 1 3.3 3.35q.46 1.2.46 2.64m-1.8 0q0-1.2-.31-2.13a5 5 0 0 0-.92-1.58q-.6-.64-1.44-1a5 5 0 0 0-1.88-.33h-3.07v10.07h3.07q1.03 0 1.88-.34a4 4 0 0 0 1.44-.99q.6-.65.91-1.58.33-.93.33-2.12m6.1 1.06V136h-1.74v-12.9h3.64q1.22 0 2.12.25.89.25 1.47.72.57.45.86 1.13.28.66.28 1.48 0 .68-.22 1.27-.21.6-.63 1.07-.4.47-1 .8-.58.34-1.33.51.32.19.57.55l3.77 5.12H144q-.48 0-.7-.37l-3.35-4.6a1 1 0 0 0-.33-.32 1 1 0 0 0-.54-.1zm0-1.27h1.82q.76 0 1.35-.19.57-.19.97-.52.38-.34.59-.8t.2-1.04q0-1.15-.77-1.73-.75-.6-2.26-.59h-1.9zm17.62-6.25v1.43h-6.2v4.28h5.02v1.37h-5.02v4.4h6.2V136h-7.95v-12.9zm3.4 0q.24 0 .35.06a1 1 0 0 1 .26.24l7.47 9.72a6 6 0 0 1-.05-.88v-9.14h1.53V136h-.88a1 1 0 0 1-.34-.07 1 1 0 0 1-.28-.25l-7.46-9.7.04.83V136h-1.53v-12.9zM40.1 167.3h6.5v1.7h-8.54v-15.05h2.04zm10.54-8.93V169h-1.87v-10.64zm.42-3.34q0 .29-.11.51a1.5 1.5 0 0 1-.72.71 1.3 1.3 0 0 1-1.02 0 1.4 1.4 0 0 1-.71-.7q-.1-.24-.1-.52a1.3 1.3 0 0 1 .39-.95q.18-.18.42-.28t.5-.1q.28-.01.52.1a1.4 1.4 0 0 1 .83 1.23m1.53 3.34h1.53q.22 0 .37.12t.21.27l2.7 6.85q.15.38.23.75l.16.75.18-.75q.09-.38.24-.75l2.73-6.85q.06-.16.2-.28.15-.1.36-.1h1.46L58.62 169h-1.7zm14.18 0V169H64.9v-10.64zm.42-3.34q0 .29-.11.51a1.5 1.5 0 0 1-.72.71 1.3 1.3 0 0 1-1.03 0 1.4 1.4 0 0 1-.7-.7q-.1-.24-.11-.52a1.3 1.3 0 0 1 .4-.95q.18-.18.41-.28.24-.1.51-.1.28-.01.52.1a1.4 1.4 0 0 1 .83 1.23M70.06 169v-10.64h1.12q.4 0 .5.4l.15 1.15q.7-.77 1.55-1.24a4 4 0 0 1 1.98-.47q.87 0 1.53.28.67.3 1.12.82.45.53.67 1.28.24.75.24 1.65V169h-1.87v-6.77q0-1.2-.55-1.88-.55-.66-1.69-.66-.83 0-1.55.4a5 5 0 0 0-1.33 1.08V169zm15.26-10.81q.7 0 1.3.15t1.1.44h2.88v.7q0 .34-.44.44l-1.2.17q.35.68.35 1.52a3.3 3.3 0 0 1-1.13 2.5q-.52.45-1.26.69-.72.24-1.6.24-.75 0-1.4-.18-.34.22-.52.45a1 1 0 0 0-.17.48q0 .38.3.57.3.2.81.28.5.08 1.15.1l1.3.07q.68.05 1.31.16a4 4 0 0 1 1.15.38q.5.27.8.73t.31 1.2q0 .67-.34 1.32-.35.63-.98 1.14-.64.5-1.57.8-.91.3-2.09.3-1.16 0-2.04-.24a5 5 0 0 1-1.45-.62 3 3 0 0 1-.87-.9q-.3-.51-.29-1.06 0-.79.5-1.34t1.37-.88q-.45-.2-.72-.56a1.5 1.5 0 0 1-.27-.94q0-.22.09-.48.08-.24.26-.48a3 3 0 0 1 1-.85q-.78-.45-1.23-1.18a3 3 0 0 1-.44-1.7q0-.79.3-1.41.3-.64.83-1.09.54-.45 1.28-.68a5 5 0 0 1 1.62-.25m3.32 11.39a1 1 0 0 0-.22-.64 1.4 1.4 0 0 0-.6-.38 4 4 0 0 0-.87-.19q-.5-.06-1.04-.09l-1.11-.06q-.57-.03-1.09-.11-.6.28-.97.69a1.4 1.4 0 0 0-.19 1.64q.19.31.57.54t.95.36 1.35.13q.75 0 1.35-.14t1.01-.39q.43-.25.64-.6t.22-.76m-3.32-5.78q.57 0 1-.16.45-.15.73-.44.3-.28.44-.67.15-.4.15-.87 0-.98-.6-1.55-.58-.58-1.72-.58-1.12 0-1.72.58-.6.57-.59 1.55 0 .47.15.87a2 2 0 0 0 1.17 1.12q.44.15.99.15m13.28-5.44V169h-1.87v-10.64zm.42-3.34q0 .29-.1.51a1.5 1.5 0 0 1-.73.71 1.3 1.3 0 0 1-1.02 0 1.4 1.4 0 0 1-.7-.7q-.11-.24-.11-.52a1.3 1.3 0 0 1 .39-.95q.18-.18.42-.28t.5-.1q.29-.01.52.1a1.4 1.4 0 0 1 .83 1.23M101.9 169v-10.64h1.11q.4 0 .5.4l.15 1.15q.7-.77 1.55-1.24a4 4 0 0 1 1.98-.47q.87 0 1.54.28.67.3 1.11.82.45.53.68 1.28t.23 1.65V169h-1.87v-6.77q0-1.2-.55-1.88-.56-.66-1.68-.66-.84 0-1.55.4a5 5 0 0 0-1.33 1.08V169zm18.95.17q-1.26 0-1.93-.7-.69-.7-.68-2.03v-6.51h-1.28a.4.4 0 0 1-.29-.1q-.1-.1-.11-.31v-.75l1.74-.22.43-3.28a.4.4 0 0 1 .14-.26q.1-.1.3-.1h.94v3.66h3.04v1.36h-3.04v6.38q0 .67.32 1 .33.32.84.32.3 0 .51-.07a2 2 0 0 0 .64-.35.4.4 0 0 1 .2-.08q.14 0 .26.18l.55.9q-.5.45-1.17.7-.69.26-1.4.26m8.82-10.97q.96 0 1.77.32a4 4 0 0 1 2.31 2.41q.33.9.33 2.02 0 .45-.1.59-.08.15-.35.15h-7.08q.02 1 .28 1.75t.69 1.24q.44.51 1.05.75.6.25 1.37.25a4 4 0 0 0 1.2-.17 6 6 0 0 0 1.5-.7q.24-.16.42-.16.24 0 .36.18l.53.68q-.35.42-.83.73-.49.31-1.04.5a6.6 6.6 0 0 1-4.33.03 4.5 4.5 0 0 1-1.61-1.09 5 5 0 0 1-1.06-1.78 7.2 7.2 0 0 1-.03-4.51q.33-.97.98-1.68.65-.7 1.56-1.11.93-.4 2.08-.4m.04 1.37q-1.34 0-2.13.78a3.7 3.7 0 0 0-.96 2.17h5.78q0-.65-.18-1.19t-.52-.93a2.4 2.4 0 0 0-.85-.61 3 3 0 0 0-1.14-.22m6.76 9.43v-10.64h1.1q.41 0 .51.4l.14 1.08q.6-.72 1.32-1.18a3 3 0 0 1 1.7-.46q1.07 0 1.74.6.68.6.96 1.61a3.3 3.3 0 0 1 2.36-2.09 4.3 4.3 0 0 1 2.53.14q.65.27 1.11.79.45.51.7 1.26t.24 1.72V169h-1.87v-6.77q0-1.26-.54-1.9-.55-.64-1.59-.64-.46 0-.87.16a2.1 2.1 0 0 0-1.23 1.27q-.2.48-.19 1.1V169h-1.87v-6.77q0-1.3-.51-1.91-.51-.63-1.5-.63-.7 0-1.29.37-.6.38-1.08 1.01V169zm17.24 3.6v-14.24h1.11q.4 0 .5.4l.16 1.25q.69-.83 1.56-1.33t2.02-.5q.91 0 1.66.35t1.27 1.04.81 1.7a9 9 0 0 1-.03 4.53 5 5 0 0 1-.9 1.76 4.2 4.2 0 0 1-3.37 1.59q-.99 0-1.69-.33a4 4 0 0 1-1.23-.92v4.7zm4.73-12.91q-.9 0-1.6.42-.69.42-1.26 1.18v5.15a3 3 0 0 0 1.12.97q.62.3 1.38.29 1.47 0 2.27-1.06t.8-3.03q0-1.03-.18-1.78-.18-.74-.53-1.22a2 2 0 0 0-.85-.7 3 3 0 0 0-1.15-.22m11.16-1.5q1.17 0 2.1.4a4.4 4.4 0 0 1 2.61 2.82q.35 1.01.35 2.27 0 1.27-.35 2.26a5 5 0 0 1-1 1.73q-.66.7-1.6 1.1-.94.38-2.1.38t-2.11-.39a4.4 4.4 0 0 1-1.6-1.1 5 5 0 0 1-1.02-1.72 7 7 0 0 1-.36-2.26q0-1.26.36-2.27a4.5 4.5 0 0 1 2.62-2.83 6 6 0 0 1 2.1-.38m0 9.5q1.58 0 2.36-1.06.77-1.05.77-2.94 0-1.9-.77-2.96-.78-1.06-2.36-1.06-.8 0-1.38.27-.6.27-.98.79a4 4 0 0 0-.6 1.26q-.19.75-.19 1.7t.2 1.69.59 1.25.98.78 1.38.28m7.38 1.31v-10.64h1.07q.3 0 .42.12t.15.4l.13 1.66q.54-1.12 1.35-1.74a3 3 0 0 1 1.88-.63 3 3 0 0 1 1.46.38l-.24 1.4q-.08.26-.32.26-.15 0-.46-.1-.3-.1-.85-.1-.98 0-1.63.57-.66.57-1.1 1.65V169zm16.27 0h-.83a1 1 0 0 1-.44-.08q-.17-.09-.22-.36l-.21-.99q-.42.38-.82.68a5 5 0 0 1-1.78.81q-.5.1-1.1.1-.62 0-1.17-.17a2.5 2.5 0 0 1-1.58-1.4 3 3 0 0 1-.23-1.25q0-.63.35-1.2.34-.6 1.12-1.04.76-.45 2.02-.74 1.25-.3 3.05-.33v-.83q0-1.24-.53-1.88-.52-.63-1.57-.63a3.3 3.3 0 0 0-1.96.56q-.34.21-.58.39a1 1 0 0 1-.5.17 1 1 0 0 1-.32-.1 1 1 0 0 1-.23-.25l-.33-.6a6 6 0 0 1 1.9-1.27 6 6 0 0 1 2.25-.42q.9 0 1.59.3a3.3 3.3 0 0 1 1.88 2.09q.24.75.24 1.64zm-4.85-1.14a4 4 0 0 0 1.67-.39q.37-.18.7-.44a6 6 0 0 0 .64-.6v-2.22q-1.29.05-2.2.2-.9.18-1.46.43-.56.27-.83.62-.25.36-.25.8 0 .42.13.72a1.4 1.4 0 0 0 .92.79q.3.09.68.09m7.69 1.14v-10.64h1.07q.3 0 .42.12t.15.4l.13 1.66q.54-1.12 1.35-1.74a3 3 0 0 1 1.88-.63 3 3 0 0 1 1.46.38l-.24 1.4q-.08.26-.32.26-.15 0-.46-.1-.3-.1-.85-.1-.98 0-1.63.57-.66.57-1.1 1.65V169zm11.58 3.14a1 1 0 0 1-.24.34q-.14.12-.44.12h-1.38l1.94-4.22-4.39-10.02h1.62q.24 0 .38.12.13.12.2.27l2.84 6.7a5 5 0 0 1 .29.94l.31-.95 2.76-6.69a.6.6 0 0 1 .22-.28q.14-.1.33-.1h1.49zM69.44 194h-.83a1 1 0 0 1-.44-.08q-.16-.09-.22-.36l-.2-.99q-.43.38-.83.68a5 5 0 0 1-1.78.81q-.5.1-1.1.1-.63 0-1.16-.17a2.5 2.5 0 0 1-1.58-1.4 3 3 0 0 1-.23-1.25q0-.63.34-1.2.34-.6 1.12-1.04.77-.45 2.02-.74 1.24-.3 3.06-.33v-.83q0-1.24-.53-1.88-.54-.63-1.57-.63a3.3 3.3 0 0 0-1.96.56q-.34.21-.59.39a1 1 0 0 1-.49.17.6.6 0 0 1-.33-.1 1 1 0 0 1-.22-.25l-.34-.6a6 6 0 0 1 1.9-1.27 6 6 0 0 1 2.26-.42q.9 0 1.58.3a3.3 3.3 0 0 1 1.88 2.09q.24.75.24 1.64zm-4.85-1.14a4 4 0 0 0 1.68-.39q.36-.18.7-.44a6 6 0 0 0 .64-.6v-2.22q-1.3.05-2.2.2-.9.18-1.47.43-.57.27-.82.62-.26.36-.26.8 0 .42.14.72a1.4 1.4 0 0 0 .91.79q.32.09.68.09m14.94-7.6-.16.17a.4.4 0 0 1-.24.06.6.6 0 0 1-.35-.13 5 5 0 0 0-1.15-.57q-.4-.14-1-.13-.77 0-1.37.27-.6.29-1 .8-.4.54-.61 1.28a6 6 0 0 0-.2 1.67q0 .96.22 1.71.21.75.61 1.26t.98.78a3 3 0 0 0 1.28.27 3.3 3.3 0 0 0 2.34-.89q.2-.15.38-.16.24 0 .36.18l.52.68q-.7.85-1.73 1.24-1.04.4-2.2.4-1 0-1.85-.37a4 4 0 0 1-1.48-1.07 5 5 0 0 1-1-1.71 7 7 0 0 1-.36-2.32 7 7 0 0 1 .33-2.2q.33-1 .97-1.74.64-.72 1.57-1.14a5 5 0 0 1 2.14-.4q1.11 0 1.98.36t1.52 1.02zm9.81 0-.17.17a.4.4 0 0 1-.24.06.6.6 0 0 1-.34-.13 5 5 0 0 0-1.15-.57q-.4-.14-1-.13-.77 0-1.37.27-.6.29-1 .8-.41.54-.61 1.28a6 6 0 0 0-.2 1.67q0 .96.21 1.71.23.75.62 1.26.41.51.97.78a3 3 0 0 0 1.29.27 3.3 3.3 0 0 0 2.34-.89q.19-.15.38-.16.24 0 .36.18l.52.68q-.7.85-1.73 1.24-1.05.4-2.2.4-1 0-1.85-.37a4 4 0 0 1-1.48-1.07 5 5 0 0 1-1-1.71 7 7 0 0 1-.36-2.32 7 7 0 0 1 .33-2.2q.33-1 .97-1.74.63-.72 1.57-1.14a5 5 0 0 1 2.14-.4q1.11 0 1.97.36t1.53 1.02zm6.86-2.06q1.17 0 2.1.38a4.4 4.4 0 0 1 2.6 2.83q.36 1.01.36 2.27 0 1.27-.35 2.26a5 5 0 0 1-1.01 1.73q-.66.7-1.6 1.1-.93.38-2.1.38t-2.1-.39a4.4 4.4 0 0 1-1.6-1.1 5 5 0 0 1-1.03-1.72 7 7 0 0 1-.35-2.26q0-1.26.35-2.27a4.5 4.5 0 0 1 2.62-2.83 6 6 0 0 1 2.1-.38m0 9.49q1.57 0 2.35-1.06.78-1.05.78-2.94 0-1.9-.78-2.96t-2.35-1.06q-.8 0-1.39.27t-.98.79a4 4 0 0 0-.59 1.26q-.2.75-.2 1.7t.2 1.69.6 1.25q.38.51.97.78.6.28 1.39.28m7.37 1.31v-10.64h1.11q.4 0 .5.4l.14 1.08q.6-.72 1.32-1.18a3 3 0 0 1 1.7-.46q1.08 0 1.74.6.67.6.97 1.61a3.3 3.3 0 0 1 2.35-2.09 4.3 4.3 0 0 1 2.53.14q.66.27 1.12.79.45.51.7 1.26t.24 1.72V194h-1.87v-6.77q0-1.26-.55-1.9t-1.58-.64q-.46 0-.88.16a2.1 2.1 0 0 0-1.23 1.27q-.18.48-.18 1.1V194h-1.87v-6.77q0-1.3-.52-1.91-.51-.63-1.5-.63-.7 0-1.28.37-.6.38-1.1 1.01V194zm21.55-10.8q1.16 0 2.1.38a4.4 4.4 0 0 1 2.6 2.83q.36 1.01.36 2.27 0 1.27-.36 2.26a5 5 0 0 1-1 1.73q-.66.7-1.6 1.1-.95.38-2.1.38-1.17 0-2.11-.39a4.4 4.4 0 0 1-1.6-1.1 5 5 0 0 1-1.02-1.72 7 7 0 0 1-.36-2.26q0-1.26.36-2.27a4.5 4.5 0 0 1 2.62-2.83 6 6 0 0 1 2.1-.38m0 9.49q1.57 0 2.35-1.06.78-1.05.77-2.94 0-1.9-.77-2.96-.78-1.06-2.35-1.06-.8 0-1.4.27-.57.27-.97.79a4 4 0 0 0-.59 1.26q-.2.75-.2 1.7t.2 1.69.59 1.25q.4.51.98.78.59.28 1.39.28m14.85 1.31q-.4 0-.5-.39l-.17-1.29q-.68.83-1.56 1.33a4 4 0 0 1-2 .5q-.93 0-1.67-.35-.75-.36-1.27-1.04a5 5 0 0 1-.8-1.7 9 9 0 0 1 .02-4.53q.32-1.02.91-1.76a4.26 4.26 0 0 1 5.05-1.26 4 4 0 0 1 1.24.92v-5.9h1.87V194zm-3.62-1.37q.9 0 1.6-.41.69-.42 1.27-1.2v-5.14a3 3 0 0 0-1.13-.97q-.61-.28-1.36-.28-1.5 0-2.29 1.06-.8 1.06-.8 3.03 0 1.04.18 1.78.18.75.53 1.22.34.47.85.7.5.22 1.15.22m15.69 1.37h-.83a1 1 0 0 1-.44-.08q-.18-.09-.22-.36l-.21-.99q-.43.38-.82.68a5 5 0 0 1-1.78.81q-.5.1-1.11.1t-1.16-.17a2.5 2.5 0 0 1-1.58-1.4 3 3 0 0 1-.23-1.25q0-.63.34-1.2.35-.6 1.12-1.04t2.02-.74 3.06-.33v-.83q0-1.24-.53-1.88t-1.57-.63a3.3 3.3 0 0 0-1.96.56q-.34.21-.59.39a1 1 0 0 1-.48.17.6.6 0 0 1-.34-.1 1 1 0 0 1-.22-.25l-.34-.6a6 6 0 0 1 1.9-1.27 6 6 0 0 1 2.26-.42q.9 0 1.59.3a3.3 3.3 0 0 1 1.88 2.09q.24.75.24 1.64zm-4.85-1.14a4 4 0 0 0 1.67-.39q.36-.18.7-.44a6 6 0 0 0 .64-.6v-2.22q-1.3.05-2.2.2-.9.18-1.46.43-.57.27-.83.62-.26.36-.26.8 0 .42.14.72a1.4 1.4 0 0 0 .91.79q.32.09.69.09m10.9 1.3q-1.25 0-1.93-.7t-.68-2.02v-6.51h-1.28a.4.4 0 0 1-.28-.1q-.12-.1-.12-.31v-.75l1.74-.22.44-3.28a.4.4 0 0 1 .13-.26q.12-.1.3-.1h.94v3.66h3.05v1.36h-3.05v6.38q0 .67.33 1 .32.32.84.32.3 0 .5-.07a2 2 0 0 0 .65-.35.4.4 0 0 1 .19-.08q.15 0 .26.18l.55.9q-.48.45-1.17.7-.68.26-1.4.26m6.7-10.8V194h-1.87v-10.64zm.41-3.34q0 .28-.1.51a1.5 1.5 0 0 1-.72.71 1.3 1.3 0 0 1-1.03 0 1.4 1.4 0 0 1-.7-.7q-.12-.24-.11-.52a1.3 1.3 0 0 1 .4-.95q.17-.18.41-.28t.51-.1.51.1a1.4 1.4 0 0 1 .83 1.23m7.19 3.18q1.16 0 2.1.38a4.4 4.4 0 0 1 2.6 2.83q.36 1.01.36 2.27 0 1.27-.35 2.26a5 5 0 0 1-1.01 1.73q-.66.7-1.6 1.1-.94.38-2.1.38t-2.1-.39a4.4 4.4 0 0 1-1.61-1.1 5 5 0 0 1-1.02-1.72 7 7 0 0 1-.36-2.26q0-1.26.36-2.27a4.5 4.5 0 0 1 2.62-2.83 6 6 0 0 1 2.1-.38m0 9.49q1.57 0 2.35-1.06.78-1.05.78-2.94 0-1.9-.78-2.96t-2.35-1.06q-.8 0-1.39.27-.6.27-.98.79a4 4 0 0 0-.59 1.26q-.2.75-.2 1.7t.2 1.69.59 1.25.98.78 1.39.28m7.37 1.31v-10.64h1.11q.4 0 .5.4l.15 1.15q.7-.77 1.55-1.24a4 4 0 0 1 1.98-.47q.88 0 1.54.28.66.3 1.11.82.45.53.68 1.28t.23 1.65V194h-1.87v-6.77q0-1.2-.55-1.88-.55-.66-1.69-.66-.83 0-1.55.4a5 5 0 0 0-1.32 1.08V194zm208.44-75.75a27.7 27.7 0 0 1 27.67 27.68 27.6 27.6 0 0 1-10.2 21.43 50 50 0 0 1 30.13 31.45 4.7 4.7 0 1 1-8.94 2.91 40.55 40.55 0 0 0-38.66-28.1 40.6 40.6 0 0 0-38.68 28.1 4.71 4.71 0 0 1-8.96-2.9 50 50 0 0 1 30.14-31.46 27.7 27.7 0 0 1-10.2-21.43 27.7 27.7 0 0 1 27.7-27.68m0 9.41a18.3 18.3 0 0 0-18.28 18.27 18.28 18.28 0 0 0 36.53 0 18.3 18.3 0 0 0-18.25-18.27M417.2 45a27.7 27.7 0 0 1 27.68 27.69c0 8.63-3.99 16.35-10.2 21.43a50 50 0 0 1 30.13 31.44h-.04a4.7 4.7 0 1 1-8.95 2.91 40.5 40.5 0 0 0-38.65-28.1 40.8 40.8 0 0 0-29.76 12.97l-.08.05-.05.03v.03c-.08.07-.18.1-.26.17-.39.34-.8.65-1.28.84q-.16.06-.3.07c-.48.16-.95.28-1.46.28-.15.02-.3-.05-.47-.07-.42-.04-.85-.08-1.25-.25-.25-.1-.46-.29-.7-.43-.26-.17-.56-.26-.8-.49l-.05-.08q-.02-.03-.08-.06a40.3 40.3 0 0 0-28.78-11.96 40.6 40.6 0 0 0-38.68 28.1 4.7 4.7 0 1 1-8.94-2.9 50 50 0 0 1 30.14-31.44 27.7 27.7 0 0 1-10.2-21.43 27.7 27.7 0 0 1 27.7-27.69 27.7 27.7 0 0 1 27.67 27.69c0 8.63-3.98 16.35-10.2 21.43a50 50 0 0 1 14.56 8.44 50 50 0 0 1 15.88-9.51 27.6 27.6 0 0 1-10.27-21.47A27.7 27.7 0 0 1 417.21 45m-65.35 10.53a18.3 18.3 0 0 0-18.27 18.27 18.28 18.28 0 0 0 36.53 0 18.3 18.3 0 0 0-18.26-18.27m65.34-1.12a18.3 18.3 0 0 0-18.3 18.29 18.28 18.28 0 0 0 36.53 0 18.3 18.3 0 0 0-18.23-18.3"/>
</g>
</svg>