<svg xmlns="http://www.w3.org/2000/svg" viewBox="0 0 568 100">
<g fill="none">
<path fill="#4f6a9a" fill-rule="evenodd" d="M0 0h250v100H0z"/>
<path fill="#b2b095" fill-rule="evenodd" d="M250 0h318v100H250z"/>
<path fill="#f8f8f8" d="M371.73 43.19q0-1.05.66-1.8.66-.78 1.99-.77h2.18V35q0-2.47.76-4.7.75-2.22 2.3-3.9a11 11 0 0 1 3.87-2.7q2.33-1 5.5-1 2.1 0 3.81.54a11 11 0 0 1 5.4 3.71 17 17 0 0 1 1.76 2.77l-3.22 2.03q-.96.52-1.85.52-1.2 0-2.15-.99a10 10 0 0 0-1.8-1.5 3.7 3.7 0 0 0-1.95-.5q-2.1 0-3.13 1.47t-1.03 4.22v5.65h9.88v3.06q0 .4-.17.74a2.2 2.2 0 0 1-1.17 1.1 2 2 0 0 1-.9.17h-7.64v4.05q0 1.56-.58 2.82a9 9 0 0 1-1.58 2.36q1.17-.27 2.34-.4 1.17-.15 2.37-.15h13.05v3.3q0 .57-.25 1.17-.24.6-.68 1.08A3.4 3.4 0 0 1 397 61h-24.8v-4.84q.86-.15 1.65-.49.8-.34 1.39-.86.6-.51.96-1.25.36-.72.36-1.69V45.7h-4.83zm35.98 11.99H415V36.07q0-1.41.08-2.94l-4.29 3.56q-.42.34-.83.48a2.5 2.5 0 0 1-2.02-.16q-.53-.3-.79-.63L404.59 33l11.8-9.9h6.66v32.08h6.24V61h-21.58zM447.7 22.7q2.8 0 5 .8 2.18.78 3.68 2.14a9 9 0 0 1 3.07 6.89q0 1.8-.36 3.16T458 38.06a7 7 0 0 1-1.77 1.7q-1.05.7-2.4 1.17 6.3 2.17 6.29 8.55 0 3.02-1.1 5.25a11 11 0 0 1-2.92 3.72 13 13 0 0 1-4.25 2.22q-2.42.75-5.04.75a18 18 0 0 1-4.81-.59 11 11 0 0 1-6.62-4.98 21 21 0 0 1-2.15-4.57l3.6-1.46q.45-.2.92-.29.45-.07.9-.07.82 0 1.49.32.66.32 1 .95a9 9 0 0 0 2.48 3.13q1.31.98 3.08.98 1.35 0 2.36-.46 1-.45 1.66-1.17.66-.71 1-1.62.34-.9.34-1.85 0-1.22-.17-2.2a3 3 0 0 0-.95-1.67 5.4 5.4 0 0 0-2.35-1.08q-1.58-.38-4.38-.38v-5.56q2.36 0 3.82-.37a6 6 0 0 0 2.25-1q.8-.63 1.05-1.54.26-.92.26-2a5 5 0 0 0-1.08-3.45q-1.07-1.2-3.29-1.21a5 5 0 0 0-3.01.96q-.6.45-1.03 1.04t-.69 1.3a4 4 0 0 1-1.05 1.7q-.64.51-1.73.51a7 7 0 0 1-1.17-.1l-4.27-.76q.42-2.83 1.6-4.94 1.2-2.1 2.94-3.5 1.75-1.41 4.02-2.1a17 17 0 0 1 4.86-.69m39.73 3.75q0 .82-.26 1.5-.27.68-.82 1.19-.56.51-1.47.78t-2.18.27h-9.05l-1.07 6.27a27 27 0 0 1 3.98-.37q3 0 5.28.91t3.85 2.48a10 10 0 0 1 2.35 3.7q.8 2.12.8 4.53 0 3.04-1.09 5.56a13 13 0 0 1-7.59 7.14q-2.67 1-5.84 1-1.84 0-3.52-.38a17 17 0 0 1-8.12-4.45l2.5-3.33q.38-.5.9-.8.52-.26 1.12-.26.78 0 1.47.43l1.5.93q.83.51 1.92.92 1.1.42 2.7.42 1.62 0 2.76-.53a5 5 0 0 0 1.86-1.46q.7-.91 1.04-2.16.32-1.23.32-2.64 0-2.74-1.56-4.2-1.56-1.44-4.42-1.44-2.55 0-4.99.96l-5-1.35 3.23-18.95h19.4zM494.76 61V34.04h5q.75 0 1.25.34.51.33.72 1.01l.44 1.46q.68-.7 1.4-1.3a9 9 0 0 1 3.4-1.68 9 9 0 0 1 2.14-.25q2.45 0 4.04 1.26a8 8 0 0 1 2.44 3.37q.67-1.25 1.65-2.13a9 9 0 0 1 2.1-1.43q1.13-.55 2.4-.8a12.4 12.4 0 0 1 6.61.42 7.8 7.8 0 0 1 4.84 5.23q.62 1.9.62 4.33V61h-8.06V43.87q0-4.2-3.59-4.19-1.64 0-2.71 1.08-1.08 1.08-1.08 3.1V61h-8.06V43.87q0-2.32-.91-3.25-.9-.94-2.68-.94-1.1 0-2.07.5-.98.49-1.83 1.32V61zm-88.28 18.18V84h-1.73V71.1h3.8q1.23 0 2.13.29t1.5.8.89 1.26q.3.74.29 1.65 0 .9-.32 1.65-.3.75-.92 1.28-.6.54-1.5.84t-2.07.3zm0-1.39h2.07q.75 0 1.32-.2t.96-.55.59-.85.2-1.1q0-1.21-.77-1.92-.75-.69-2.3-.69h-2.07zm21.06-.23q0 1.44-.46 2.66-.45 1.2-1.3 2.08a6 6 0 0 1-2 1.35q-1.18.48-2.6.48t-2.6-.48a5.8 5.8 0 0 1-3.3-3.43q-.45-1.22-.45-2.66 0-1.46.46-2.66.45-1.2 1.3-2.1a6 6 0 0 1 2-1.36 7 7 0 0 1 2.59-.48q1.42 0 2.6.48a5.8 5.8 0 0 1 3.3 3.46q.46 1.2.46 2.66m-1.79 0q0-1.19-.32-2.14a5 5 0 0 0-.92-1.6q-.6-.64-1.44-1a5 5 0 0 0-1.89-.35q-1.04 0-1.88.35-.85.36-1.45 1-.6.66-.92 1.6a7 7 0 0 0-.32 2.14q0 1.19.32 2.12.33.94.92 1.6.6.65 1.45 1 .84.34 1.88.34 1.05 0 1.89-.34a4 4 0 0 0 1.44-1q.6-.66.92-1.6.32-.93.32-2.12m6.1 1.06V84h-1.74V71.1h3.64q1.23 0 2.12.25t1.47.72q.58.45.86 1.13.28.66.28 1.48 0 .68-.22 1.27-.21.6-.62 1.07t-1 .8q-.6.34-1.34.51.32.19.58.55l3.76 5.12h-1.55q-.48 0-.7-.37l-3.35-4.6a1 1 0 0 0-.33-.32 1 1 0 0 0-.54-.1zm0-1.27h1.82q.76 0 1.35-.19.57-.19.97-.52.4-.34.59-.8.2-.47.2-1.04 0-1.15-.76-1.73-.76-.6-2.27-.59h-1.9zm18.45-6.25v1.47h-4.16V84h-1.75V72.57h-4.18V71.1zm9.79 0v1.43h-6.2v4.5h5.3v1.43h-5.3V84h-1.75V71.1zm14.22 6.46q0 1.44-.46 2.66-.45 1.2-1.3 2.08a6 6 0 0 1-2.01 1.35q-1.17.48-2.6.48-1.4 0-2.59-.48a5.8 5.8 0 0 1-3.3-3.43q-.45-1.22-.46-2.66 0-1.46.46-2.66t1.3-2.1a6 6 0 0 1 2-1.36 7 7 0 0 1 2.6-.48q1.4 0 2.6.48a5.8 5.8 0 0 1 3.3 3.46q.45 1.2.46 2.66m-1.8 0q0-1.19-.32-2.14a5 5 0 0 0-.92-1.6q-.6-.64-1.44-1a5 5 0 0 0-1.89-.35q-1.03 0-1.88.35-.84.36-1.44 1-.6.66-.92 1.6a7 7 0 0 0-.33 2.14q0 1.19.33 2.12.32.94.92 1.6.6.65 1.44 1 .86.34 1.88.34 1.05 0 1.9-.34a4 4 0 0 0 1.43-1q.6-.66.92-1.6.33-.93.33-2.12m5.93 4.97h5.58V84h-7.33V71.1h1.75zM488 84h-1.74V71.1H488zm15.44-6.44q0 1.44-.46 2.66-.46 1.2-1.3 2.08a6 6 0 0 1-2 1.35q-1.2.48-2.6.48-1.43 0-2.6-.48a5.8 5.8 0 0 1-3.3-3.43q-.46-1.22-.46-2.66 0-1.46.46-2.66.45-1.2 1.3-2.1a6 6 0 0 1 2-1.36 7 7 0 0 1 2.6-.48q1.41 0 2.6.48a5.8 5.8 0 0 1 3.3 3.46q.45 1.2.46 2.66m-1.8 0q0-1.19-.32-2.14a5 5 0 0 0-.91-1.6q-.6-.64-1.44-1a5 5 0 0 0-1.9-.35q-1.02 0-1.87.35-.85.36-1.45 1-.6.66-.92 1.6a7 7 0 0 0-.33 2.14q0 1.19.33 2.12.32.94.92 1.6.6.65 1.44 1 .85.34 1.89.34t1.89-.34a4 4 0 0 0 1.44-1q.6-.66.91-1.6.33-.93.33-2.12M151.59 83.6a4 4 0 0 0 1.43-.27 3 3 0 0 0 1.73-1.91q.24-.68.23-1.49V72.1h1.74v7.84q0 1.12-.36 2.07a4.7 4.7 0 0 1-2.63 2.75q-.95.4-2.14.4t-2.14-.4A4.7 4.7 0 0 1 146.8 82a6 6 0 0 1-.36-2.07V72.1h1.74v7.83q0 .81.23 1.49t.66 1.16q.45.48 1.07.76.64.27 1.44.27m9.03-11.5q.23 0 .34.05a1 1 0 0 1 .26.24l7.47 9.72a6 6 0 0 1-.05-.88V72.1h1.53V85h-.88a1 1 0 0 1-.34-.07 1 1 0 0 1-.28-.25l-7.46-9.7.04.83V85h-1.53V72.1zM175.38 85h-1.74V72.1h1.74zm12.24-12.9v1.47h-4.16V85h-1.75V73.57h-4.18V72.1zm8.45 2.02-.17.2a.4.4 0 0 1-.24.07q-.15 0-.35-.15-.2-.16-.52-.34-.3-.19-.74-.34-.45-.15-1.06-.15-.6 0-1.04.16-.45.15-.75.42-.3.28-.45.64t-.16.79q0 .53.27.9.27.35.7.6.44.25 1 .43l1.13.39q.57.2 1.13.44.56.25.99.63.44.38.7.92.27.55.27 1.35 0 .85-.3 1.6a3.7 3.7 0 0 1-2.2 2.15 5.6 5.6 0 0 1-5.87-1.37l.51-.83q.07-.1.18-.16a.4.4 0 0 1 .22-.07q.2 0 .44.2t.6.45q.37.23.89.44.51.2 1.26.2.63 0 1.1-.17.49-.16.83-.48.34-.3.52-.74.18-.43.18-.96 0-.6-.27-.96a2 2 0 0 0-.7-.63 5 5 0 0 0-.98-.42l-1.13-.36q-.6-.2-1.14-.43-.56-.24-.98-.63a3 3 0 0 1-.7-.97 4 4 0 0 1-.27-1.44 3.4 3.4 0 0 1 1.04-2.45q.5-.5 1.25-.8.74-.3 1.7-.3 1.08 0 1.97.35.9.34 1.56 1zm-41.31-51v3.38q0 1.42-.32 2.31-.3.9-.6 1.51l-13.23 28.03A4.3 4.3 0 0 1 136.4 61h-5.88l13.52-27.12a14 14 0 0 1 2.58-3.69h-16.67a2 2 0 0 1-.69-.14q-.32-.15-.57-.4-.24-.24-.4-.56t-.16-.67v-5.3zm30.52 18.93q0 4.96-1.07 8.6a18 18 0 0 1-2.95 6.03 12 12 0 0 1-4.47 3.57q-2.59 1.17-5.6 1.17t-5.58-1.17a12 12 0 0 1-4.43-3.57 18 18 0 0 1-2.93-6.03q-1.05-3.64-1.05-8.6t1.05-8.61 2.93-6.03a12 12 0 0 1 4.43-3.55q2.56-1.16 5.58-1.16 3.01 0 5.6 1.16 2.6 1.15 4.47 3.55 1.89 2.4 2.95 6.03a31 31 0 0 1 1.07 8.6m-8.32 0q0-3.93-.5-6.44a13 13 0 0 0-1.3-3.94 5 5 0 0 0-1.87-1.96q-1.04-.54-2.1-.53-1.06 0-2.1.53a4.6 4.6 0 0 0-1.81 1.96q-.8 1.44-1.28 3.94a35 35 0 0 0-.48 6.44q0 3.95.48 6.44t1.28 3.94a4.6 4.6 0 0 0 1.81 1.98 4.5 4.5 0 0 0 2.1.53q1.06 0 2.1-.53a5 5 0 0 0 1.86-1.98q.83-1.44 1.32-3.94.5-2.48.49-6.44m38.48 0q0 4.96-1.07 8.6a18 18 0 0 1-2.95 6.03 12 12 0 0 1-4.47 3.57q-2.59 1.17-5.6 1.17t-5.58-1.17a12 12 0 0 1-4.43-3.57 18 18 0 0 1-2.93-6.03q-1.05-3.64-1.05-8.6t1.05-8.61 2.93-6.03a12 12 0 0 1 4.43-3.55q2.56-1.16 5.58-1.16 3.01 0 5.6 1.16 2.6 1.15 4.47 3.55 1.89 2.4 2.95 6.03a31 31 0 0 1 1.07 8.6m-8.32 0q0-3.93-.5-6.44a13 13 0 0 0-1.3-3.94 5 5 0 0 0-1.87-1.96q-1.04-.54-2.1-.53-1.06 0-2.1.53a4.6 4.6 0 0 0-1.81 1.96q-.8 1.44-1.28 3.94a35 35 0 0 0-.48 6.44q0 3.95.48 6.44t1.28 3.94a4.6 4.6 0 0 0 1.81 1.98 4.5 4.5 0 0 0 2.1.53q1.06 0 2.1-.53a5 5 0 0 0 1.86-1.98q.82-1.44 1.32-3.94.5-2.48.49-6.44m126.14 5.8V32.4h-.06c0-.1.04-.2.04-.3 0-7.9-11.47-14.1-26.12-14.1S281 24.2 281 32.1l.03.3h-.02v13.62H281l.01.11v13.82H281l.01.1v13.82H281c0 7.9 11.47 14.1 26.11 14.1 5.33 0 10.21-.84 14.3-2.26A20.23 20.23 0 0 0 351 67.83a20.2 20.2 0 0 0-17.75-20M310.6 69.74q-1.68.16-3.49.16c-12.86 0-21.83-5.18-21.94-9.87v-6.28c4.6 3.85 12.62 6.37 21.94 6.37q2.61-.02 5.06-.29a20 20 0 0 0-1.57 9.92m4.35-14.49c-2.4.44-5 .72-7.84.72-12.86 0-21.83-5.18-21.94-9.87v-6.28c4.6 3.86 12.62 6.37 21.94 6.37s17.38-2.53 21.98-6.4v6.23h-.03a4 4 0 0 1-.44 1.75 20.3 20.3 0 0 0-13.68 7.48m-7.84-33.1c12.94 0 21.95 5.24 21.95 9.95s-9.02 9.95-21.95 9.95-21.95-5.24-21.95-9.95 9.02-9.95 21.95-9.95m0 61.67c-12.88 0-21.86-5.2-21.94-9.88v-6.27c4.6 3.86 12.62 6.37 21.94 6.37 1.48 0 2.9-.1 4.3-.21a20 20 0 0 0 5.66 8.84 42 42 0 0 1-9.96 1.16zm23.64.04a16.1 16.1 0 0 1-16.1-16.03c0-8.84 7.22-16.03 16.1-16.03 8.87 0 16.09 7.19 16.09 16.03s-7.22 16.03-16.1 16.03"/>
<path fill="#f8f8f8" fill-rule="evenodd" d="M94.9 48.35c-1.13 0-2.06.92-2.06 2.06V77.1c0 2.09-1.7 3.78-3.78 3.78h-9.88V67.46a9.73 9.73 0 0 0-19.43 0l-.01 13.41h-9.86a3.8 3.8 0 0 1-3.78-3.78V50.4a2.06 2.06 0 1 0-4.13 0v26.7a7.9 7.9 0 0 0 7.91 7.9H61.8c1.14 0 2.07-.92 2.07-2.06V67.46a5.6 5.6 0 0 1 11.2 0l-.02 15.48A2.05 2.05 0 0 0 77.11 85h11.95a7.9 7.9 0 0 0 7.91-7.91V50.4c0-1.14-.92-2.06-2.06-2.06m10.34-4.57L70.81 15.44l-.2-.1a2 2 0 0 0-.73-.3 2 2 0 0 0-1.5.3l-.19.1-34.44 28.34a2.06 2.06 0 1 0 2.63 3.18L69.5 19.7l33.12 27.26q.6.48 1.32.47a2.06 2.06 0 0 0 1.3-3.65"/>
</g>
</svg>