<svg xmlns="http://www.w3.org/2000/svg" viewBox="0 0 520 250">
<g fill="none">
<path fill="#4f6a9a" fill-rule="evenodd" d="M0 0h250v250H0z"/>
<path fill="#6a84b2" fill-rule="evenodd" d="M250 0h270v250H250z"/>
<path fill="#f8f8f8" fill-rule="evenodd" d="M182.62 114.23a4.7 4.7 0 0 0-4.72 4.71v60.98a8.66 8.66 0 0 1-8.66 8.65h-22.6l.02-30.67a22.24 22.24 0 0 0-22.23-22.21 22.24 22.24 0 0 0-22.23 22.2l-.03 30.68H79.62a8.66 8.66 0 0 1-8.66-8.65v-60.98a4.71 4.71 0 1 0-9.44 0v60.98A18.1 18.1 0 0 0 79.62 198h27.27c2.6 0 4.72-2.1 4.72-4.72l.03-35.38a12.8 12.8 0 0 1 25.58 0l-.03 35.38a4.75 4.75 0 0 0 4.72 4.72h27.33c9.99 0 18.1-8.1 18.1-18.08v-60.98a4.7 4.7 0 0 0-4.72-4.71m23.65-10.46L127.49 39c-.13-.1-.3-.13-.43-.22a5 5 0 0 0-1.68-.7 4.7 4.7 0 0 0-3.44.7c-.14.1-.29.13-.43.22l-78.79 64.77a4.71 4.71 0 1 0 6 7.29l75.78-62.32 75.77 62.32a4.7 4.7 0 1 0 6-7.28"/>
<path fill="#f8f8f8" d="M332.87 95.18h7.28V76.07q0-1.41.08-2.94l-4.3 3.56q-.41.34-.82.48a2.5 2.5 0 0 1-2.02-.16q-.53-.3-.8-.63L329.76 73l11.8-9.9h6.66v32.08h6.24V101h-21.58zm25.17 1.74a4.3 4.3 0 0 1 1.31-3.15 4.6 4.6 0 0 1 3.26-1.3 4.6 4.6 0 0 1 4.23 2.7q.35.8.35 1.75a4.4 4.4 0 0 1-4.58 4.44 5 5 0 0 1-1.82-.33 4.4 4.4 0 0 1-2.4-2.36 4 4 0 0 1-.35-1.75m27.09-34.22q2.8 0 5 .8 2.18.79 3.68 2.14a9 9 0 0 1 3.07 6.89q0 1.8-.36 3.16t-1.08 2.37a7 7 0 0 1-1.77 1.7q-1.05.7-2.4 1.17 6.3 2.17 6.29 8.55 0 3.02-1.1 5.25a11 11 0 0 1-2.92 3.72 13 13 0 0 1-4.25 2.22q-2.42.75-5.04.75a18 18 0 0 1-4.81-.59 11 11 0 0 1-6.62-4.98 21 21 0 0 1-2.15-4.57l3.6-1.46q.45-.2.92-.29.45-.07.9-.07.83 0 1.49.32.66.33 1 .95a9 9 0 0 0 2.48 3.13q1.31.98 3.08.98 1.35 0 2.36-.46 1-.45 1.66-1.17.66-.71 1-1.62.34-.9.34-1.85 0-1.22-.17-2.2a3 3 0 0 0-.95-1.67 5.4 5.4 0 0 0-2.35-1.08q-1.57-.38-4.38-.38v-5.56q2.36 0 3.82-.37a6 6 0 0 0 2.25-1q.8-.63 1.05-1.54.26-.92.26-2a5 5 0 0 0-1.08-3.45q-1.08-1.2-3.29-1.21a5 5 0 0 0-3.01.96q-.6.45-1.03 1.04t-.69 1.3a4 4 0 0 1-1.05 1.7q-.64.51-1.73.51a7 7 0 0 1-1.17-.1l-4.27-.76q.42-2.83 1.6-4.94 1.2-2.1 2.94-3.5 1.75-1.41 4.02-2.1a17 17 0 0 1 4.86-.69m16.9 38.3V74.04h5q.75 0 1.25.34.51.33.72 1.01l.44 1.46q.68-.7 1.4-1.3a9 9 0 0 1 3.4-1.68 9 9 0 0 1 2.14-.25q2.44 0 4.05 1.26a8 8 0 0 1 2.43 3.37q.67-1.25 1.65-2.13a9 9 0 0 1 2.1-1.43q1.13-.55 2.4-.8a12.4 12.4 0 0 1 6.61.42 7.8 7.8 0 0 1 4.84 5.23q.62 1.9.62 4.33V101h-8.06V83.87q0-4.2-3.59-4.19-1.64 0-2.71 1.08-1.08 1.08-1.08 3.1V101h-8.06V83.87q0-2.32-.91-3.25-.9-.94-2.68-.94-1.1 0-2.07.5-.98.49-1.83 1.32V101zm-66 35h-1.76v-5.87h-6.95V136h-1.75v-12.9h1.75v5.75h6.95v-5.75h1.75zm15.12-6.44q0 1.44-.46 2.66-.45 1.2-1.3 2.08a6 6 0 0 1-2 1.35q-1.18.48-2.6.48t-2.6-.48a5.8 5.8 0 0 1-3.3-3.43q-.45-1.22-.45-2.66 0-1.46.45-2.66.46-1.2 1.3-2.1a6 6 0 0 1 2-1.36 7 7 0 0 1 2.6-.48q1.42 0 2.6.48a5.8 5.8 0 0 1 3.3 3.46q.46 1.2.46 2.66m-1.79 0q0-1.19-.32-2.14a5 5 0 0 0-.92-1.6q-.6-.64-1.44-1a5 5 0 0 0-1.89-.35q-1.04 0-1.88.35-.85.36-1.45 1-.6.66-.92 1.6a7 7 0 0 0-.32 2.14q0 1.19.32 2.12.33.94.92 1.6.6.65 1.45 1 .84.34 1.88.34 1.05 0 1.89-.34a4 4 0 0 0 1.44-1q.6-.66.92-1.6.32-.93.32-2.12m9.2 5.05a4 4 0 0 0 1.42-.27 3 3 0 0 0 1.73-1.91q.24-.68.23-1.49v-7.84h1.74v7.84q0 1.13-.35 2.07a4.7 4.7 0 0 1-2.63 2.75q-.96.4-2.15.4t-2.14-.4a4.7 4.7 0 0 1-2.64-2.75 6 6 0 0 1-.36-2.07v-7.84h1.74v7.83q0 .81.23 1.49.22.68.66 1.16.44.49 1.08.76.63.27 1.43.27m14.72-9.5-.17.21a.4.4 0 0 1-.23.07q-.15 0-.36-.15-.2-.16-.51-.34-.3-.19-.75-.34-.44-.15-1.05-.15-.6 0-1.04.16-.45.15-.75.42-.3.28-.46.64-.15.36-.15.79 0 .53.27.9.25.35.7.6t.99.43l1.13.39q.6.2 1.14.44.56.25.99.63t.7.93q.27.54.26 1.34 0 .85-.28 1.6a3.7 3.7 0 0 1-2.2 2.15 5.6 5.6 0 0 1-5.87-1.37l.5-.83q.07-.1.17-.16a.4.4 0 0 1 .23-.07q.19 0 .44.2.24.2.6.45.37.24.88.44.52.2 1.27.2.62 0 1.1-.17t.83-.48.52-.74.18-.96q0-.6-.27-.96a2 2 0 0 0-.7-.63 5 5 0 0 0-.98-.42l-1.14-.36q-.57-.2-1.13-.43-.56-.24-.99-.63a3 3 0 0 1-.7-.97 4 4 0 0 1-.26-1.44 3.4 3.4 0 0 1 1.04-2.45q.5-.5 1.24-.8.75-.3 1.7-.3 1.1 0 1.98.35.9.34 1.56 1zm10.89-2v1.42h-6.2v4.28H383v1.37h-5.02v4.4h6.2V136h-7.95v-12.9zM397.13 136h-1.75v-5.87h-6.95V136h-1.75v-12.9h1.75v5.75h6.95v-5.75h1.75zm15.13-6.44q0 1.44-.46 2.66-.45 1.2-1.3 2.08a6 6 0 0 1-2 1.35q-1.18.48-2.6.48t-2.6-.48a5.8 5.8 0 0 1-3.3-3.43q-.45-1.22-.45-2.66 0-1.46.45-2.66.46-1.2 1.3-2.1a6 6 0 0 1 2-1.36 7 7 0 0 1 2.6-.48q1.42 0 2.6.48a5.8 5.8 0 0 1 3.3 3.46q.46 1.2.46 2.66m-1.79 0q0-1.19-.32-2.14a5 5 0 0 0-.92-1.6q-.6-.64-1.44-1a5 5 0 0 0-1.89-.35q-1.04 0-1.88.35-.85.36-1.45 1-.6.66-.92 1.6a7 7 0 0 0-.32 2.14q0 1.19.32 2.12.33.94.92 1.6.6.65 1.45 1 .84.34 1.88.34 1.05 0 1.89-.34a4 4 0 0 0 1.44-1q.6-.66.92-1.6.32-.93.32-2.12m5.92 4.97h5.58V136h-7.32v-12.9h1.74zm18.69-4.97q0 1.44-.46 2.63-.45 1.2-1.3 2.04-.84.84-2 1.3-1.17.48-2.6.47h-4.82v-12.9h4.82q1.43 0 2.6.47a5.8 5.8 0 0 1 3.3 3.35q.46 1.2.46 2.64m-1.8 0q0-1.2-.32-2.13a5 5 0 0 0-.91-1.58q-.6-.64-1.44-1a5 5 0 0 0-1.89-.33h-3.07v10.07h3.07q1.05 0 1.88-.34a4 4 0 0 0 1.44-.99q.6-.65.92-1.58t.33-2.12m10.78-4.44-.17.2a.4.4 0 0 1-.24.07q-.15 0-.35-.15-.2-.16-.51-.34t-.75-.34-1.06-.15q-.58 0-1.03.16-.45.15-.75.42-.3.28-.46.64-.15.36-.15.79 0 .53.26.9.27.35.7.6.45.25 1 .43l1.13.39q.58.2 1.13.44.55.25 1 .63.42.38.7.93.26.54.26 1.34 0 .85-.29 1.6a3.7 3.7 0 0 1-2.2 2.15 5.6 5.6 0 0 1-5.87-1.37l.5-.83q.08-.1.18-.16a.4.4 0 0 1 .23-.07q.2 0 .43.2l.6.45q.38.24.89.44.53.2 1.26.2.63 0 1.11-.17t.83-.48.51-.74q.18-.43.18-.96 0-.6-.26-.96a2 2 0 0 0-.7-.63 5 5 0 0 0-.99-.42l-1.13-.36q-.58-.2-1.13-.43-.56-.24-.99-.63a3 3 0 0 1-.7-.97 4 4 0 0 1-.26-1.44 3.4 3.4 0 0 1 1.03-2.45q.5-.5 1.25-.8t1.7-.3q1.09 0 1.98.35t1.55 1zM310.9 165.89q.17 0 .3.14l.8.87a6.4 6.4 0 0 1-2.24 1.67q-1.32.6-3.17.6a8 8 0 0 1-2.95-.56 6.5 6.5 0 0 1-2.26-1.58 7 7 0 0 1-1.45-2.43 9 9 0 0 1-.52-3.12q0-1.7.56-3.12.54-1.41 1.54-2.43a7 7 0 0 1 2.4-1.58 8 8 0 0 1 3.06-.56q1.66 0 2.87.51 1.2.5 2.13 1.4l-.66.93-.17.17a.5.5 0 0 1-.27.07.5.5 0 0 1-.29-.1l-.36-.24-.5-.32a4 4 0 0 0-1.57-.56 6.3 6.3 0 0 0-3.4.31 5 5 0 0 0-2.85 3.05q-.4 1.1-.4 2.47 0 1.41.4 2.51t1.1 1.87q.7.75 1.65 1.16.96.4 2.06.4.68 0 1.2-.08a5 5 0 0 0 1.85-.68q.4-.25.8-.61.17-.16.34-.16m5.1-7.53v6.79q0 1.2.56 1.87.56.66 1.68.66.82 0 1.54-.4a5 5 0 0 0 1.34-1.07v-7.85h1.87V169h-1.12q-.4 0-.5-.39l-.15-1.14q-.7.76-1.55 1.23t-1.98.47q-.87 0-1.53-.3-.67-.27-1.12-.8t-.68-1.28a6 6 0 0 1-.23-1.64v-6.79zM326.05 169v-10.64h1.07q.3 0 .42.12t.16.4l.13 1.66q.54-1.12 1.35-1.74a3 3 0 0 1 1.88-.63 3 3 0 0 1 1.46.38l-.24 1.4q-.08.26-.33.26-.14 0-.45-.1-.3-.1-.85-.1-.98 0-1.63.57-.66.57-1.1 1.65V169zm8.47 0v-10.64h1.07q.3 0 .42.12t.15.4l.13 1.66q.54-1.12 1.35-1.74a3 3 0 0 1 1.88-.63 3 3 0 0 1 1.46.38l-.24 1.4q-.08.26-.32.26-.15 0-.45-.1t-.86-.1q-.97 0-1.63.57t-1.1 1.65V169zm12.67-10.8q.96 0 1.76.32a4 4 0 0 1 2.32 2.41q.33.9.33 2.02 0 .45-.1.59-.1.15-.35.15h-7.08q.01 1 .27 1.75.25.75.7 1.24.44.51 1.05.75.6.25 1.36.25a4 4 0 0 0 1.21-.17 6 6 0 0 0 1.5-.7q.24-.16.42-.16.23 0 .36.18l.52.68q-.34.42-.83.73t-1.03.5a6.6 6.6 0 0 1-4.34.03 4.5 4.5 0 0 1-1.6-1.09 5 5 0 0 1-1.06-1.78 7.2 7.2 0 0 1-.04-4.51q.35-.97.99-1.68.63-.7 1.56-1.11.93-.4 2.08-.4m.04 1.37q-1.35 0-2.13.78a3.7 3.7 0 0 0-.97 2.17h5.79q0-.65-.18-1.19-.19-.54-.52-.93a2.4 2.4 0 0 0-.85-.61 3 3 0 0 0-1.14-.22m6.75 9.43v-10.64h1.12q.4 0 .5.4l.15 1.15q.7-.77 1.55-1.24a4 4 0 0 1 1.97-.47q.88 0 1.54.28.67.3 1.12.82.45.53.67 1.28.24.75.23 1.65V169h-1.86v-6.77q0-1.2-.56-1.88-.55-.66-1.68-.66-.83 0-1.55.4a5 5 0 0 0-1.33 1.08V169zm14.9.17q-1.26 0-1.93-.7-.68-.7-.68-2.03v-6.51h-1.28a.4.4 0 0 1-.29-.1q-.1-.1-.11-.31v-.75l1.74-.22.43-3.28a.4.4 0 0 1 .14-.26q.11-.1.3-.1h.94v3.66h3.04v1.36h-3.04v6.38q0 .67.32 1 .33.32.84.32.3 0 .51-.07a2 2 0 0 0 .64-.35.4.4 0 0 1 .2-.08q.14 0 .26.18l.54.9q-.47.45-1.16.7-.69.26-1.4.26m6.7-15.64V169h-1.88v-15.47zm6.4 18.6a1 1 0 0 1-.23.35q-.15.12-.44.12h-1.38l1.94-4.22-4.39-10.02h1.62q.24 0 .38.12.13.12.2.27l2.84 6.7a5 5 0 0 1 .29.94l.31-.95 2.76-6.69a.6.6 0 0 1 .22-.28q.14-.1.33-.1h1.49zm16-13.93q1.16 0 2.1.38a4.4 4.4 0 0 1 2.6 2.83q.36 1.01.36 2.27 0 1.27-.35 2.26a5 5 0 0 1-1.01 1.73q-.66.7-1.6 1.1-.93.38-2.1.38t-2.1-.39a4.4 4.4 0 0 1-1.6-1.1 5 5 0 0 1-1.03-1.72 7 7 0 0 1-.35-2.26q0-1.26.35-2.27a4.5 4.5 0 0 1 2.62-2.83 6 6 0 0 1 2.1-.38m0 9.49q1.57 0 2.35-1.06.78-1.05.78-2.94 0-1.9-.78-2.96t-2.35-1.06q-.8 0-1.39.27t-.98.79a4 4 0 0 0-.59 1.26q-.2.75-.2 1.7t.2 1.69.59 1.25.98.78 1.39.28m7.37 1.31v-10.64h1.11q.4 0 .5.4l.15 1.15q.7-.77 1.55-1.24a4 4 0 0 1 1.98-.47q.88 0 1.54.28.66.3 1.11.82.45.53.68 1.28t.23 1.65V169h-1.87v-6.77q0-1.2-.55-1.88-.55-.66-1.68-.66-.84 0-1.55.4a5 5 0 0 0-1.33 1.08V169zm21.82-8.88a.4.4 0 0 1-.4.23 1 1 0 0 1-.35-.12l-.49-.25q-.29-.15-.68-.27a3.3 3.3 0 0 0-1.8 0q-.38.13-.64.33-.27.2-.41.5-.15.27-.15.6 0 .4.24.68.24.27.63.47.38.2.88.35l1.01.33q.52.17 1.01.38.5.21.89.53.38.3.62.77.24.45.24 1.1 0 .74-.27 1.35-.26.63-.77 1.09-.52.45-1.26.72-.75.26-1.73.26a5.4 5.4 0 0 1-3.54-1.3l.44-.7q.08-.15.2-.22a1 1 0 0 1 .3-.07.7.7 0 0 1 .4.15l.5.32q.3.18.73.33.43.14 1.07.14.54 0 .96-.14a2 2 0 0 0 .68-.38q.27-.24.4-.56.13-.3.13-.67 0-.45-.23-.73a2 2 0 0 0-.63-.5 5 5 0 0 0-.89-.35q-.5-.14-1.01-.32-.53-.17-1.02-.38a4 4 0 0 1-.89-.54 3 3 0 0 1-.62-.8 3 3 0 0 1-.24-1.17 2.8 2.8 0 0 1 .99-2.16q.48-.42 1.18-.67t1.61-.25q1.05 0 1.88.33.84.33 1.45.9zm7.33-1.92q1.16 0 2.1.38a4.4 4.4 0 0 1 2.6 2.83q.36 1.01.36 2.27 0 1.27-.35 2.26a5 5 0 0 1-1.01 1.73q-.66.7-1.6 1.1-.94.38-2.1.38t-2.1-.39a4.4 4.4 0 0 1-1.6-1.1 5 5 0 0 1-1.03-1.72 7 7 0 0 1-.35-2.26q0-1.26.35-2.27a4.5 4.5 0 0 1 2.62-2.83 6 6 0 0 1 2.1-.38m0 9.49q1.57 0 2.35-1.06.78-1.05.78-2.94 0-1.9-.78-2.96t-2.35-1.06q-.8 0-1.39.27-.6.27-.98.79a4 4 0 0 0-.59 1.26q-.2.75-.2 1.7t.2 1.69.59 1.25.98.78 1.39.28m14.62-7.44-.16.18a.4.4 0 0 1-.25.06.6.6 0 0 1-.34-.13 5 5 0 0 0-1.15-.57q-.4-.14-1-.13-.77 0-1.37.27-.6.29-1 .8-.41.54-.61 1.28a6 6 0 0 0-.2 1.67q0 .96.21 1.71.23.75.62 1.26.41.51.97.78a3 3 0 0 0 1.3.27 3.3 3.3 0 0 0 2.33-.89q.19-.16.38-.16.24 0 .36.18l.52.68q-.7.85-1.73 1.24-1.04.4-2.2.4-1 0-1.85-.37a4 4 0 0 1-1.48-1.07 5 5 0 0 1-1-1.71 7 7 0 0 1-.36-2.32 7 7 0 0 1 .33-2.2q.34-1 .97-1.74.63-.72 1.57-1.14a5 5 0 0 1 2.14-.4q1.11 0 1.97.36.87.36 1.53 1.02zm4.63-1.89V169h-1.87v-10.64zm.42-3.34q0 .29-.1.51a1.5 1.5 0 0 1-.73.71 1.3 1.3 0 0 1-1.02 0 1.4 1.4 0 0 1-.7-.7q-.12-.24-.11-.52a1.3 1.3 0 0 1 .4-.95q.17-.18.41-.28t.51-.1.51.1a1.4 1.4 0 0 1 .83 1.23m10.7 13.98h-.84a1 1 0 0 1-.44-.08q-.15-.09-.22-.36l-.2-.99q-.43.38-.83.68a5 5 0 0 1-1.78.81q-.5.1-1.1.1-.62 0-1.16-.17a2.5 2.5 0 0 1-1.57-1.4 3 3 0 0 1-.25-1.25q0-.63.35-1.2.34-.6 1.12-1.04.77-.45 2.02-.74 1.25-.3 3.06-.33v-.83q0-1.24-.53-1.88-.54-.63-1.57-.63a3.3 3.3 0 0 0-1.96.56l-.6.39a1 1 0 0 1-.48.17.6.6 0 0 1-.33-.1 1 1 0 0 1-.23-.25l-.33-.6a6 6 0 0 1 1.9-1.27 6 6 0 0 1 2.26-.42q.9 0 1.58.3a3.3 3.3 0 0 1 1.88 2.09q.24.75.24 1.64zm-4.86-1.14a4 4 0 0 0 1.68-.39q.36-.18.69-.44a6 6 0 0 0 .65-.6v-2.22q-1.3.05-2.2.2-.9.18-1.47.43-.57.27-.82.62-.26.36-.26.8 0 .42.14.72a1.4 1.4 0 0 0 .9.79q.33.09.7.09m9.77-14.33V169h-1.87v-15.47zM294.25 194v-15.47h1.87v6.26q.68-.72 1.51-1.16a4 4 0 0 1 1.91-.43q.88 0 1.54.28.66.3 1.11.82.44.53.68 1.28.23.75.23 1.65V194h-1.87v-6.77q0-1.2-.55-1.88-.55-.66-1.69-.66-.82 0-1.54.4a5 5 0 0 0-1.33 1.08V194zm15.98-10.8q1.17 0 2.1.38a4.4 4.4 0 0 1 2.6 2.83q.36 1.01.36 2.27 0 1.27-.35 2.26a5 5 0 0 1-1 1.73q-.67.7-1.6 1.1-.94.38-2.11.38t-2.1-.39a4.4 4.4 0 0 1-1.6-1.1 5 5 0 0 1-1.03-1.72 7 7 0 0 1-.35-2.26q0-1.26.35-2.27a4.5 4.5 0 0 1 2.62-2.83 6 6 0 0 1 2.1-.38m0 9.49q1.57 0 2.35-1.06.78-1.05.78-2.94 0-1.9-.78-2.96t-2.35-1.06q-.8 0-1.39.27t-.98.79a4 4 0 0 0-.59 1.26q-.2.75-.19 1.7 0 .95.2 1.69.19.74.58 1.25.4.51.98.78.6.28 1.39.28m8.99-9.33v6.79q0 1.2.55 1.87.57.66 1.68.66.82 0 1.55-.4a5 5 0 0 0 1.33-1.07v-7.85h1.87V194h-1.11q-.4 0-.5-.39l-.15-1.14q-.7.76-1.56 1.23t-1.97.47q-.87 0-1.54-.3-.67-.27-1.12-.8t-.68-1.28a6 6 0 0 1-.22-1.64v-6.79zm16.15 1.76a.4.4 0 0 1-.4.23 1 1 0 0 1-.35-.12l-.49-.25q-.28-.15-.69-.27a3.3 3.3 0 0 0-1.8 0q-.37.13-.64.33-.26.2-.4.5-.15.27-.15.6 0 .4.24.68.24.27.62.47.4.2.89.35l1 .33q.54.17 1.02.38.5.21.88.53.39.3.63.77.24.45.23 1.1 0 .74-.26 1.35-.26.63-.77 1.09-.53.45-1.26.72-.75.26-1.73.26a5.4 5.4 0 0 1-3.55-1.3l.45-.7q.08-.15.2-.22a1 1 0 0 1 .3-.07.7.7 0 0 1 .4.15l.5.32q.3.18.73.33.43.14 1.07.14.54 0 .95-.14a2 2 0 0 0 .69-.38q.27-.24.4-.56.13-.3.13-.67 0-.45-.23-.73a2 2 0 0 0-.63-.5 5 5 0 0 0-.89-.35l-1.02-.32q-.51-.17-1.01-.38a4 4 0 0 1-.9-.54 3 3 0 0 1-.62-.8 3 3 0 0 1-.23-1.17 2.8 2.8 0 0 1 .99-2.16q.48-.42 1.18-.67t1.6-.25q1.06 0 1.9.33.82.33 1.44.9zm5.1-1.76V194h-1.87v-10.64zm.42-3.34q0 .28-.11.51a1.5 1.5 0 0 1-.72.71 1.3 1.3 0 0 1-1.02 0 1.4 1.4 0 0 1-.71-.7q-.1-.24-.1-.52a1.3 1.3 0 0 1 .39-.95q.18-.18.42-.28t.5-.1q.28-.01.52.1a1.4 1.4 0 0 1 .83 1.23m2.88 13.98v-10.64h1.11q.4 0 .5.4l.15 1.15q.7-.77 1.55-1.24a4 4 0 0 1 1.98-.47q.88 0 1.54.28.66.3 1.11.82.44.53.68 1.28.23.75.23 1.65V194h-1.87v-6.77q0-1.2-.55-1.88-.55-.66-1.69-.66-.83 0-1.55.4a5 5 0 0 0-1.32 1.08V194zm15.25-10.81q.7 0 1.3.15t1.1.44h2.88v.7q0 .34-.44.44l-1.2.17q.35.68.35 1.52a3.3 3.3 0 0 1-1.13 2.5q-.53.45-1.26.69t-1.6.24q-.75 0-1.4-.18-.34.22-.51.45a1 1 0 0 0-.18.48q0 .38.3.57.31.2.82.28.5.08 1.14.1l1.3.07q.67.05 1.32.16a4 4 0 0 1 1.14.38q.5.27.8.73t.31 1.2q0 .67-.34 1.32-.34.63-.98 1.14t-1.56.8q-.93.3-2.1.3-1.15 0-2.04-.24a5 5 0 0 1-1.45-.62 3 3 0 0 1-.87-.9q-.29-.51-.29-1.06 0-.79.5-1.34.51-.55 1.37-.88-.45-.2-.72-.56a1.5 1.5 0 0 1-.26-.94q0-.22.08-.48.08-.24.26-.48a3 3 0 0 1 1.01-.85q-.79-.45-1.23-1.18a3 3 0 0 1-.45-1.7q0-.79.3-1.41.3-.64.83-1.09.54-.45 1.28-.68a5 5 0 0 1 1.62-.25m3.32 11.39a1 1 0 0 0-.22-.64 1.4 1.4 0 0 0-.6-.38 4 4 0 0 0-.87-.19q-.49-.06-1.04-.09l-1.11-.06q-.57-.03-1.08-.11-.6.28-.97.69a1.4 1.4 0 0 0-.2 1.64q.2.31.57.54.38.23.95.36t1.35.13q.75 0 1.35-.14t1.02-.39.63-.6.22-.76m-3.32-5.78q.58 0 1-.16.45-.15.74-.44.3-.28.44-.67.15-.4.14-.87 0-.98-.59-1.55-.6-.58-1.73-.58t-1.71.58q-.6.57-.6 1.55 0 .47.16.87a2 2 0 0 0 1.17 1.12q.42.15.98.15m9.82-5.44h1.47a.6.6 0 0 1 .58.39l2.04 6.85.28 1.44a12 12 0 0 1 .4-1.44l2.25-6.89q.06-.16.19-.26t.33-.1h.8q.22 0 .35.1.14.1.2.26l2.19 6.89a13 13 0 0 1 .38 1.43 11 11 0 0 1 .31-1.43l2.08-6.85q.06-.16.2-.28.14-.1.35-.1h1.4L381.2 194h-1.48q-.27 0-.38-.36l-2.35-7.21q-.09-.24-.14-.49l-.1-.49-.1.5-.14.49-2.39 7.2q-.11.36-.43.36h-1.4zM394.12 194h-.82a1 1 0 0 1-.45-.08q-.16-.09-.22-.36l-.2-.99q-.43.38-.83.68a5 5 0 0 1-1.78.81q-.5.1-1.1.1-.62 0-1.16-.17a2.5 2.5 0 0 1-1.58-1.4 3 3 0 0 1-.23-1.25q0-.63.34-1.2.34-.6 1.12-1.04.77-.45 2.02-.74 1.25-.3 3.06-.33v-.83q0-1.24-.53-1.88-.54-.63-1.57-.63a3.3 3.3 0 0 0-1.96.56q-.34.21-.59.39a1 1 0 0 1-.49.17.6.6 0 0 1-.33-.1 1 1 0 0 1-.22-.25l-.34-.6a6 6 0 0 1 1.9-1.27 6 6 0 0 1 2.26-.42q.9 0 1.58.3a3.3 3.3 0 0 1 1.88 2.09q.24.75.24 1.64zm-4.85-1.14a4 4 0 0 0 1.68-.39q.36-.18.7-.44a6 6 0 0 0 .64-.6v-2.22q-1.3.05-2.2.2-.9.18-1.47.43-.57.27-.82.62-.26.36-.26.8 0 .42.14.72a1.4 1.4 0 0 0 .91.79q.32.09.68.09m9.77-9.5V194h-1.87v-10.64zm.42-3.34q0 .28-.11.51a1.5 1.5 0 0 1-.72.71 1.3 1.3 0 0 1-1.02 0 1.4 1.4 0 0 1-.71-.7q-.1-.24-.1-.52a1.3 1.3 0 0 1 .39-.95q.18-.18.42-.28t.5-.1q.28-.01.52.1a1.4 1.4 0 0 1 .83 1.23m6.1 14.15q-1.26 0-1.94-.7t-.68-2.03v-6.51h-1.28a.4.4 0 0 1-.28-.1q-.12-.1-.12-.31v-.75l1.75-.22.43-3.28a.4.4 0 0 1 .13-.26q.12-.1.3-.1h.94v3.66h3.05v1.36h-3.05v6.38q0 .67.33 1t.84.32q.3 0 .5-.07a2 2 0 0 0 .65-.35.4.4 0 0 1 .2-.08q.15 0 .26.18l.54.9q-.47.45-1.16.7-.69.26-1.41.26m6.69-10.8V194h-1.87v-10.64zm.42-3.35q0 .28-.11.51a1.5 1.5 0 0 1-.72.71 1.3 1.3 0 0 1-1.03 0 1.4 1.4 0 0 1-.7-.7q-.1-.24-.11-.52a1.3 1.3 0 0 1 .4-.95q.18-.18.41-.28.24-.1.51-.1.28-.01.52.1a1.4 1.4 0 0 1 .83 1.23m2.87 13.98v-10.64h1.12q.4 0 .5.4l.15 1.15q.7-.77 1.55-1.24a4 4 0 0 1 1.98-.47q.87 0 1.53.28.67.3 1.12.82.44.53.68 1.28.23.75.23 1.65V194h-1.87v-6.77q0-1.2-.55-1.88-.55-.66-1.69-.66-.83 0-1.55.4a5 5 0 0 0-1.33 1.08V194zm15.26-10.81q.7 0 1.3.15t1.1.44h2.88v.7q0 .34-.44.44l-1.2.17q.35.68.35 1.52a3.3 3.3 0 0 1-1.13 2.5q-.52.45-1.26.69-.73.24-1.6.24-.75 0-1.4-.18-.34.22-.52.45a1 1 0 0 0-.17.48q0 .38.3.57.3.2.81.28.5.08 1.15.1l1.3.07q.68.05 1.31.16a4 4 0 0 1 1.15.38q.5.27.8.73t.31 1.2q0 .67-.34 1.32-.35.63-.98 1.14-.64.5-1.57.8-.91.3-2.09.3-1.16 0-2.04-.24a5 5 0 0 1-1.45-.62 3 3 0 0 1-.87-.9q-.3-.51-.29-1.06 0-.79.5-1.34t1.37-.88q-.45-.2-.72-.56a1.5 1.5 0 0 1-.27-.94q0-.22.09-.48.08-.24.26-.48a3 3 0 0 1 1-.85q-.78-.45-1.22-1.18a3 3 0 0 1-.45-1.7q0-.79.3-1.41.3-.64.83-1.09.54-.45 1.28-.68a5 5 0 0 1 1.62-.25m3.32 11.39a1 1 0 0 0-.22-.64 1.4 1.4 0 0 0-.6-.38 4 4 0 0 0-.87-.19q-.5-.06-1.04-.09l-1.11-.06q-.57-.03-1.09-.11-.6.28-.97.69a1.4 1.4 0 0 0-.19 1.64q.19.31.57.54t.95.36 1.35.13q.75 0 1.35-.14t1.01-.39q.43-.25.64-.6t.22-.76m-3.32-5.78q.57 0 1-.16.45-.15.73-.44.3-.28.44-.67.15-.4.15-.87 0-.98-.6-1.55-.58-.58-1.72-.58-1.12 0-1.72.58-.6.57-.59 1.55 0 .47.15.87a2 2 0 0 0 1.17 1.12q.44.15 1 .15m13.28-10.27V194h-1.87v-15.47zm5.38 4.83V194h-1.87v-10.64zm.42-3.34q0 .28-.11.51a1.5 1.5 0 0 1-.72.71 1.3 1.3 0 0 1-1.02 0 1.4 1.4 0 0 1-.71-.7q-.1-.24-.1-.52a1.3 1.3 0 0 1 .39-.95q.18-.18.42-.28t.5-.1q.28-.01.52.1a1.4 1.4 0 0 1 .83 1.23m8.97 5.1a.4.4 0 0 1-.4.23 1 1 0 0 1-.35-.12l-.49-.25q-.28-.15-.69-.27a3.3 3.3 0 0 0-1.8 0q-.37.13-.64.33-.26.2-.4.5-.15.27-.15.6 0 .4.24.68.24.27.62.47.4.2.89.35l1 .33q.54.17 1.02.38.5.21.88.53.39.3.63.77.24.45.24 1.1 0 .74-.27 1.35-.26.63-.77 1.09-.53.45-1.26.72-.75.26-1.73.26a5.4 5.4 0 0 1-3.55-1.3l.45-.7q.08-.15.2-.22a1 1 0 0 1 .3-.07.7.7 0 0 1 .4.15l.5.32q.3.18.73.33.43.14 1.07.14.54 0 .95-.14a2 2 0 0 0 .69-.38q.27-.24.4-.56.13-.3.13-.67 0-.45-.23-.73a2 2 0 0 0-.63-.5 5 5 0 0 0-.89-.35l-1.02-.32q-.51-.17-1.01-.38a4 4 0 0 1-.9-.54 3 3 0 0 1-.62-.8 3 3 0 0 1-.23-1.17 2.8 2.8 0 0 1 .98-2.16q.49-.42 1.2-.67.7-.25 1.6-.25 1.05 0 1.88.33.84.33 1.45.9zm6.24 9.05q-1.26 0-1.93-.7-.68-.7-.68-2.03v-6.51h-1.28a.4.4 0 0 1-.28-.1q-.12-.1-.12-.31v-.75l1.74-.22.43-3.28a.4.4 0 0 1 .14-.26q.11-.1.3-.1h.94v3.66h3.04v1.36h-3.04v6.38q0 .67.32 1 .33.32.84.32.3 0 .51-.07a2 2 0 0 0 .64-.35.4.4 0 0 1 .2-.08q.15 0 .26.18l.55.9q-.49.45-1.17.7-.68.26-1.4.26m10.7-9.05a.4.4 0 0 1-.39.23 1 1 0 0 1-.35-.12l-.49-.25q-.3-.15-.69-.27a3.3 3.3 0 0 0-1.8 0q-.37.13-.64.33t-.4.5q-.15.27-.15.6 0 .4.24.68.23.27.62.47t.88.35l1.02.33q.51.17 1 .38.5.21.9.53.38.3.62.77.23.45.23 1.1 0 .74-.26 1.35-.26.63-.78 1.09-.51.45-1.26.72t-1.72.26a5.4 5.4 0 0 1-3.55-1.3l.44-.7q.1-.15.2-.22a1 1 0 0 1 .3-.07.7.7 0 0 1 .4.15l.51.32q.3.18.73.33.43.14 1.06.14.56 0 .96-.14a2 2 0 0 0 .68-.38q.28-.24.4-.56.14-.3.14-.67 0-.45-.24-.73a2 2 0 0 0-.62-.5 5 5 0 0 0-.89-.35l-1.02-.32q-.51-.17-1.02-.38a4 4 0 0 1-.88-.54 3 3 0 0 1-.63-.8 3 3 0 0 1-.23-1.17 2.8 2.8 0 0 1 .98-2.16q.48-.42 1.19-.67.7-.25 1.6-.25 1.05 0 1.89.33t1.44.9z"/>
</g>
</svg>