<svg xmlns="http://www.w3.org/2000/svg" viewBox="0 0 520 250">
<g fill="none">
<path fill="#fdfcf5" fill-rule="evenodd" d="M0 0h250v250H0z"/>
<path fill="#fbf7e8" fill-rule="evenodd" d="M250 0h270v250H250z"/>
<path fill="#4f6a9a" d="M424.45 113.19V77.92h-.13c0-.24.08-.47.08-.7 0-18.07-26.22-32.22-59.7-32.22S305 59.17 305 77.23c0 .24.06.46.07.7h-.04v31.12H305l.03.26v31.57H305l.03.25v31.57H305c0 18.06 26.21 32.22 59.68 32.22 12.17 0 23.34-1.91 32.67-5.16a46 46 0 0 0 21.36 5.24c25.52 0 46.29-20.68 46.29-46.1 0-23.49-17.73-42.88-40.55-45.71m-51.8 50.08c-2.58.21-5.2.35-7.97.35-29.39 0-49.9-11.84-50.15-22.55v-14.36c10.53 8.81 28.85 14.56 50.15 14.56 4 0 7.83-.28 11.57-.66a46 46 0 0 0-3.6 22.67zm9.94-33.13a99 99 0 0 1-17.9 1.64c-29.4 0-49.91-11.84-50.16-22.54V94.87c10.53 8.82 28.85 14.56 50.15 14.56s39.72-5.77 50.25-14.64v14.25h-.07c0 1.33-.4 2.66-1 4a46.3 46.3 0 0 0-31.28 17.1zM364.7 54.5c29.57 0 50.17 11.98 50.17 22.74s-20.62 22.74-50.18 22.74S314.51 88 314.51 77.23s20.61-22.74 50.17-22.74m0 140.95c-29.44 0-49.98-11.87-50.16-22.59v-14.32c10.53 8.82 28.85 14.56 50.15 14.56 3.38 0 6.63-.2 9.82-.49a46 46 0 0 0 12.95 20.2 96 96 0 0 1-22.77 2.66zm54.02.09c-20.27 0-36.78-16.43-36.78-36.63a36.73 36.73 0 0 1 36.78-36.63 36.73 36.73 0 0 1 36.78 36.63 36.73 36.73 0 0 1-36.78 36.63M50.73 83.19q0-1.05.66-1.8.66-.77 1.99-.77h2.18V75q0-2.47.76-4.7.75-2.21 2.3-3.9a11 11 0 0 1 3.87-2.7q2.33-1 5.5-1 2.1 0 3.81.53a11 11 0 0 1 5.4 3.72 17 17 0 0 1 1.76 2.77l-3.22 2.03q-.96.52-1.85.52-1.2 0-2.15-.99a10 10 0 0 0-1.8-1.5 3.7 3.7 0 0 0-1.95-.5q-2.1 0-3.13 1.47t-1.03 4.22v5.65h9.88v3.06q0 .4-.17.74a2.2 2.2 0 0 1-1.17 1.1 2 2 0 0 1-.9.17h-7.64v4.05q0 1.56-.58 2.82a9 9 0 0 1-1.58 2.36q1.17-.27 2.34-.4 1.17-.15 2.37-.15h13.05v3.3q0 .57-.25 1.17-.24.6-.68 1.08A3.4 3.4 0 0 1 76 101H51.2v-4.84q.85-.15 1.65-.49t1.39-.86q.6-.51.96-1.25.36-.72.36-1.69V85.7h-4.83zM95.8 62.7q2.8 0 5.06.82t3.83 2.28a10 10 0 0 1 2.44 3.47q.84 2.01.84 4.43 0 2.08-.59 3.85-.58 1.77-1.6 3.37a24 24 0 0 1-2.35 3.09q-1.34 1.5-2.84 3.03l-7.41 7.59a27 27 0 0 1 2.82-.66q1.39-.25 2.61-.25h7.07q1.3 0 2.06.72.75.7.75 1.88V101H81.88v-2.6q0-.75.3-1.61.33-.86 1.1-1.56l10.92-11a36 36 0 0 0 2.44-2.68 17 17 0 0 0 1.72-2.5q.68-1.24 1.01-2.48.34-1.24.34-2.61 0-2.25-1.08-3.47-1.08-1.2-3.29-1.21a5 5 0 0 0-3.01.96q-.6.45-1.03 1.04-.42.6-.69 1.3a4 4 0 0 1-1.05 1.7q-.64.51-1.73.51a7 7 0 0 1-1.17-.1l-4.26-.76Q82.8 71.1 84 69q1.17-2.1 2.93-3.5 1.76-1.41 4.02-2.1a17 17 0 0 1 4.86-.69m17.63 38.3V62.08h8.06V76.9q1.5-1.48 3.42-2.38 1.91-.9 4.48-.9a8.5 8.5 0 0 1 7 3.58 14 14 0 0 1 2.04 4.3q.75 2.55.74 5.8 0 3.05-.84 5.61a14 14 0 0 1-2.37 4.48 11 11 0 0 1-3.64 2.96 10.3 10.3 0 0 1-6.84.83 7.3 7.3 0 0 1-3.2-1.69q-.66-.6-1.28-1.3l-.29 1.35q-.18.84-.66 1.15t-1.26.31zm13.16-21.32q-.9 0-1.6.17-.72.17-1.33.48-.6.3-1.13.8-.53.47-1.04 1.1v11.44a5 5 0 0 0 1.98 1.41q1.06.4 2.23.4 1.12 0 2.06-.43.93-.45 1.62-1.42.69-.98 1.08-2.54.39-1.55.39-3.8 0-2.11-.31-3.58a7 7 0 0 0-.87-2.35 3.4 3.4 0 0 0-3.08-1.68m17 21.32V74.04h5q.75 0 1.25.34.51.33.72 1.01l.47 1.56q.78-.73 1.6-1.35a9.4 9.4 0 0 1 3.84-1.73 11 11 0 0 1 6.32.52 8 8 0 0 1 2.87 2.13q1.17 1.37 1.77 3.25.6 1.89.6 4.1V101h-8.06V83.87q0-1.98-.91-3.09-.9-1.1-2.68-1.1-1.32 0-2.5.57a10 10 0 0 0-2.23 1.54V101zm45.34-30.65v10.3h9.62v5.76h-9.62v10.35h-6.55V86.41h-9.57v-5.77h9.57v-10.3zM87.42 131.18V136h-1.74v-12.9h3.8q1.23 0 2.13.29t1.5.8.89 1.26q.3.74.3 1.65t-.32 1.65q-.31.75-.93 1.28-.6.54-1.5.84t-2.06.3zm0-1.39h2.07q.75 0 1.31-.2.58-.2.96-.55.4-.36.59-.85.2-.5.2-1.1 0-1.21-.76-1.92-.77-.69-2.3-.69h-2.07zm17.02-6.69v1.43h-6.19v4.28h5.02v1.37h-5.02v4.4h6.2V136H96.5v-12.9zm4.43 7.52V136h-1.73v-12.9h3.64q1.23 0 2.11.25.9.25 1.48.72.57.45.86 1.13.27.66.27 1.48 0 .68-.21 1.27-.22.6-.63 1.07-.4.47-1 .8-.58.34-1.33.51.31.19.57.55l3.77 5.12h-1.55q-.48 0-.7-.37l-3.35-4.6a1 1 0 0 0-.33-.32 1 1 0 0 0-.55-.1zm0-1.27h1.83q.76 0 1.34-.19.6-.19.98-.52.39-.34.59-.8t.2-1.04q0-1.15-.77-1.73-.76-.6-2.26-.59h-1.9zm18.12 1.52V136h-1.74v-5.13l-4.72-7.77h1.53q.23 0 .37.12t.23.29l2.95 5.01a6 6 0 0 1 .52 1.14l.22-.55q.12-.29.3-.59l2.94-5.01q.08-.15.22-.28.15-.12.37-.13h1.54zm14.3-7.77v1.43h-6.2v4.28h5.02v1.37h-5.01v4.4h6.19V136h-7.95v-12.9zm13.12 12.9h-1.35a.6.6 0 0 1-.38-.12 1 1 0 0 1-.21-.3l-1.2-3.1h-5.8l-1.2 3.1a1 1 0 0 1-.22.3.6.6 0 0 1-.37.12h-1.36l5.16-12.9h1.78zm-8.45-4.79h4.82l-2.03-5.25a10 10 0 0 1-.39-1.21l-.37 1.22zm12-.6V136h-1.74v-12.9h3.65q1.22 0 2.11.25.9.25 1.47.72.59.45.86 1.13.28.66.28 1.48 0 .68-.22 1.27-.21.6-.62 1.07-.4.47-1 .8t-1.34.51q.33.19.58.55l3.76 5.12h-1.55q-.47 0-.7-.37l-3.35-4.6a1 1 0 0 0-.33-.32 1 1 0 0 0-.54-.1zm0-1.26h1.82q.77 0 1.35-.19t.97-.52.6-.8.19-1.04q0-1.15-.76-1.73-.75-.6-2.26-.59h-1.91zM41.66 156.3a1 1 0 0 1-.2.23.4.4 0 0 1-.27.08q-.18 0-.42-.18l-.6-.4a4 4 0 0 0-2.1-.57q-.68 0-1.2.19-.54.18-.88.5-.36.31-.53.74-.18.42-.18.92 0 .63.3 1.04.32.41.83.71.5.3 1.15.51l1.32.45q.69.22 1.33.52.64.28 1.15.73t.82 1.08.31 1.57q0 .99-.34 1.86a4.3 4.3 0 0 1-2.56 2.51q-.94.37-2.14.37-1.46 0-2.66-.53a6 6 0 0 1-2.05-1.44l.58-.96a1 1 0 0 1 .2-.2.5.5 0 0 1 .28-.07q.21 0 .5.23t.71.52 1.03.52 1.47.24q.73 0 1.3-.2.56-.2.96-.56t.6-.87.21-1.12q0-.69-.31-1.12-.3-.45-.81-.73-.5-.3-1.15-.5l-1.33-.42q-.67-.21-1.32-.5a4 4 0 0 1-1.15-.73q-.5-.45-.81-1.13a4 4 0 0 1-.31-1.68 4 4 0 0 1 1.2-2.86q.6-.58 1.46-.93a6.4 6.4 0 0 1 4.29.05q1.05.4 1.82 1.16zm3.13 16.3v-14.25h1.11q.4 0 .5.4l.16 1.25q.69-.83 1.56-1.33t2.03-.5q.9 0 1.65.35t1.28 1.04.8 1.7a9 9 0 0 1-.03 4.53 5 5 0 0 1-.9 1.76 4.2 4.2 0 0 1-3.37 1.59q-.99 0-1.69-.33a4 4 0 0 1-1.23-.92v4.7zm4.74-12.92q-.92 0-1.6.42-.7.42-1.27 1.18v5.15a3 3 0 0 0 1.13.97q.6.3 1.37.29 1.48 0 2.28-1.06t.8-3.03q0-1.03-.19-1.78-.18-.74-.53-1.22a2 2 0 0 0-.85-.7 3 3 0 0 0-1.14-.22m11.06-1.5q.96 0 1.77.33a4 4 0 0 1 2.31 2.41q.33.9.33 2.02 0 .45-.1.59-.08.15-.35.15h-7.08q.03 1 .28 1.75t.7 1.24q.42.51 1.04.75.6.25 1.37.25a4 4 0 0 0 1.2-.17 6 6 0 0 0 1.5-.7q.24-.16.42-.16.24 0 .36.18l.53.68q-.35.42-.83.73-.49.31-1.04.5a6.6 6.6 0 0 1-4.33.03 4.5 4.5 0 0 1-1.61-1.09A5 5 0 0 1 56 165.9a7.2 7.2 0 0 1-.03-4.51q.34-.97.98-1.68.65-.7 1.56-1.11.93-.4 2.08-.4m.04 1.38q-1.34 0-2.13.78a3.7 3.7 0 0 0-.96 2.17h5.78q0-.65-.18-1.19t-.52-.93a2.4 2.4 0 0 0-.85-.61 3 3 0 0 0-1.14-.22M67.4 169v-10.64h1.1q.41 0 .51.4l.15 1.15q.7-.77 1.55-1.24a4 4 0 0 1 1.98-.47q.87 0 1.54.28.66.3 1.11.82.44.53.68 1.28.23.75.23 1.65V169h-1.87v-6.77q0-1.2-.55-1.88-.55-.66-1.69-.66-.83 0-1.55.4a5 5 0 0 0-1.32 1.08V169zm14.9.17q-1.26 0-1.94-.7t-.68-2.03v-6.51H78.4a.4.4 0 0 1-.28-.1q-.12-.1-.12-.31v-.75l1.74-.22.44-3.28a.4.4 0 0 1 .13-.26q.12-.1.3-.1h.94v3.66h3.05v1.36h-3.05v6.38q0 .67.33 1 .32.32.84.32.3 0 .5-.07a2 2 0 0 0 .65-.35.4.4 0 0 1 .19-.08q.15 0 .26.18l.55.9q-.48.45-1.17.7-.68.26-1.4.26M91 169v-15.47h1.88v6.37q.66-.77 1.52-1.24a4 4 0 0 1 1.96-.46q.92 0 1.67.34t1.27 1.04.8 1.7a8.7 8.7 0 0 1-.03 4.52 5 5 0 0 1-.9 1.76 4.3 4.3 0 0 1-5.13 1.19q-.72-.4-1.25-1.12l-.1.97q-.08.4-.48.4zm4.75-9.31q-.92 0-1.6.42t-1.27 1.18v5.15q.5.7 1.12.97.61.3 1.37.29 1.5 0 2.29-1.06.8-1.06.8-3.03 0-1.03-.19-1.78-.18-.74-.53-1.22a2 2 0 0 0-.85-.7 3 3 0 0 0-1.14-.22m10.05 12.45a1 1 0 0 1-.24.34q-.14.12-.44.12h-1.38l1.94-4.22-4.39-10.02h1.62q.24 0 .38.12.13.12.2.27l2.84 6.7a5 5 0 0 1 .28.94l.32-.95 2.76-6.69a.6.6 0 0 1 .22-.28q.14-.1.33-.1h1.49zm18.94-11.89-.17.18a.4.4 0 0 1-.24.06.6.6 0 0 1-.34-.13 5 5 0 0 0-1.16-.57q-.4-.14-.99-.13-.78 0-1.38.27-.6.29-1 .8-.4.54-.6 1.28a6 6 0 0 0-.21 1.67q0 .96.22 1.71t.62 1.26.97.78a3 3 0 0 0 1.29.27 3.3 3.3 0 0 0 2.34-.89q.18-.16.38-.16.23 0 .35.18l.53.68q-.7.85-1.74 1.24-1.04.4-2.19.4-1 0-1.85-.37a4 4 0 0 1-1.49-1.07 5 5 0 0 1-1-1.71 7 7 0 0 1-.35-2.32 7 7 0 0 1 .33-2.2q.33-1 .96-1.74.64-.72 1.57-1.14a5 5 0 0 1 2.15-.4q1.11 0 1.97.36t1.52 1.02zm6.85-2.05q1.17 0 2.11.38a4.4 4.4 0 0 1 2.6 2.83q.36 1.01.36 2.27 0 1.27-.36 2.26a5 5 0 0 1-1 1.73q-.66.7-1.6 1.1-.94.38-2.1.38t-2.11-.39a4.4 4.4 0 0 1-1.6-1.1 5 5 0 0 1-1.02-1.72 7 7 0 0 1-.36-2.26q0-1.26.36-2.27a4.5 4.5 0 0 1 2.62-2.83 6 6 0 0 1 2.1-.38m0 9.49q1.58 0 2.36-1.06.77-1.05.77-2.94 0-1.9-.77-2.96-.78-1.06-2.36-1.06-.8 0-1.38.27-.6.27-.98.79a4 4 0 0 0-.6 1.26q-.19.75-.19 1.7t.2 1.69.59 1.25.98.78q.6.28 1.38.28m9-9.33v6.79q0 1.2.55 1.87.56.66 1.68.66.81 0 1.54-.4a5 5 0 0 0 1.34-1.07v-7.85h1.86V169h-1.1q-.4 0-.51-.39l-.15-1.14q-.7.76-1.55 1.23t-1.98.47q-.88 0-1.54-.3-.66-.27-1.11-.8t-.68-1.28a6 6 0 0 1-.23-1.64v-6.79zM150.64 169v-10.64h1.11q.4 0 .5.4l.16 1.15q.69-.77 1.54-1.24a4 4 0 0 1 1.98-.47q.88 0 1.54.28.67.3 1.11.82.45.53.68 1.28t.23 1.65V169h-1.87v-6.77q0-1.2-.55-1.88-.55-.66-1.68-.66-.83 0-1.55.4a5 5 0 0 0-1.33 1.08V169zm18.93-8.75-.17.18a.4.4 0 0 1-.24.06.6.6 0 0 1-.34-.13 5 5 0 0 0-1.15-.57q-.4-.14-1-.13-.77 0-1.37.27-.6.29-1 .8-.41.54-.61 1.28a6 6 0 0 0-.2 1.67q0 .96.21 1.71.23.75.62 1.26.41.51.97.78a3 3 0 0 0 1.29.27 3.3 3.3 0 0 0 2.34-.89q.19-.16.38-.16.24 0 .36.18l.52.68q-.7.85-1.73 1.24-1.05.4-2.2.4-1 0-1.85-.37a4 4 0 0 1-1.48-1.07 5 5 0 0 1-1-1.71 7 7 0 0 1-.36-2.32 7 7 0 0 1 .33-2.2q.33-1 .97-1.74.63-.72 1.57-1.14a5 5 0 0 1 2.14-.4q1.11 0 1.97.36.87.36 1.53 1.02zm4.63-1.89V169h-1.87v-10.64zm.42-3.34q0 .29-.1.51a1.5 1.5 0 0 1-.73.71 1.3 1.3 0 0 1-1.02 0 1.4 1.4 0 0 1-.7-.7q-.12-.24-.11-.52a1.3 1.3 0 0 1 .39-.95q.18-.18.42-.28t.51-.1.51.1a1.4 1.4 0 0 1 .83 1.23m4.96-1.49V169h-1.87v-15.47zm9.39 6.59a.4.4 0 0 1-.4.23 1 1 0 0 1-.35-.12l-.49-.25q-.29-.15-.69-.27a3.3 3.3 0 0 0-1.8 0q-.37.13-.64.33-.26.2-.4.5-.15.27-.15.6 0 .4.24.68.23.27.62.47.4.2.89.35l1 .33q.54.17 1.02.38.5.21.88.53.39.3.63.77.23.45.23 1.1 0 .74-.26 1.35-.26.63-.77 1.09-.53.45-1.26.72-.75.26-1.73.26a5.4 5.4 0 0 1-3.55-1.3l.45-.7q.08-.15.2-.22a1 1 0 0 1 .3-.07.7.7 0 0 1 .4.15l.5.32q.3.18.73.33.43.14 1.07.14.54 0 .95-.14a2 2 0 0 0 .69-.38q.27-.24.4-.56.13-.3.13-.67 0-.45-.23-.73a2 2 0 0 0-.63-.5 5 5 0 0 0-.89-.35l-1.02-.32q-.51-.17-1.01-.38a4 4 0 0 1-.9-.54 3 3 0 0 1-.62-.8 3 3 0 0 1-.23-1.17 2.8 2.8 0 0 1 .99-2.16q.48-.42 1.18-.67t1.6-.25q1.05 0 1.9.33.83.33 1.44.9zm11.38-1.92q1.17 0 2.1.38a4.4 4.4 0 0 1 2.6 2.83q.36 1.01.36 2.27 0 1.27-.35 2.26a5 5 0 0 1-1.01 1.73q-.66.7-1.6 1.1-.93.38-2.1.38t-2.1-.39a4.4 4.4 0 0 1-1.6-1.1 5 5 0 0 1-1.03-1.72 7 7 0 0 1-.35-2.26q0-1.26.35-2.27a4.5 4.5 0 0 1 2.62-2.83 6 6 0 0 1 2.1-.38m0 9.49q1.57 0 2.35-1.06.78-1.05.78-2.94 0-1.9-.78-2.96t-2.35-1.06q-.8 0-1.39.27t-.98.79a4 4 0 0 0-.59 1.26q-.2.75-.2 1.7t.2 1.69.6 1.25q.38.51.97.78.6.28 1.39.28m7.37 1.31v-10.64h1.11q.4 0 .5.4l.15 1.15q.7-.77 1.55-1.24a4 4 0 0 1 1.98-.47q.88 0 1.54.28.67.3 1.11.82.45.53.68 1.28t.23 1.65V169h-1.87v-6.77q0-1.2-.55-1.88-.56-.66-1.68-.66-.84 0-1.55.4a5 5 0 0 0-1.33 1.08V169zm-164.8 25.17q-1.26 0-1.94-.7t-.67-2.03v-6.51h-1.28a.4.4 0 0 1-.29-.1q-.1-.1-.11-.31v-.75l1.74-.22.43-3.28a.4.4 0 0 1 .14-.26q.1-.1.3-.1h.94v3.66h3.04v1.36H42.2v6.38q0 .67.32 1 .33.32.84.32.3 0 .51-.07a2 2 0 0 0 .64-.35.4.4 0 0 1 .2-.08q.15 0 .26.18l.54.9q-.48.45-1.16.7-.7.26-1.4.26m8.82-10.97q.96 0 1.77.32a4 4 0 0 1 2.31 2.41q.33.9.33 2.02 0 .45-.1.59-.09.15-.35.15h-7.08q.02 1 .28 1.75.25.75.69 1.24.44.51 1.05.75.6.25 1.36.25a4 4 0 0 0 1.22-.17 6 6 0 0 0 1.49-.7q.24-.15.42-.16.24 0 .36.18l.53.68q-.36.42-.83.73-.49.31-1.04.5a6.6 6.6 0 0 1-4.33.03 4.5 4.5 0 0 1-1.61-1.09 5 5 0 0 1-1.06-1.78 7.2 7.2 0 0 1-.03-4.51q.33-.97.98-1.68.65-.7 1.56-1.11.93-.4 2.08-.4m.04 1.37q-1.34 0-2.13.78a3.7 3.7 0 0 0-.96 2.17h5.78q0-.65-.18-1.19t-.52-.93a2.4 2.4 0 0 0-.85-.61 3 3 0 0 0-1.14-.22m6.76 9.43v-10.64h1.1q.4 0 .51.4l.14 1.08q.6-.72 1.32-1.18a3 3 0 0 1 1.7-.46q1.07 0 1.74.6t.96 1.61a3.3 3.3 0 0 1 2.36-2.09 4.3 4.3 0 0 1 2.53.14q.65.27 1.11.79.45.51.7 1.26t.24 1.72V194H71.1v-6.77q0-1.26-.54-1.9-.56-.64-1.59-.64-.45 0-.88.16a2.1 2.1 0 0 0-1.22 1.27q-.2.48-.19 1.1V194H64.8v-6.77q0-1.3-.51-1.91-.51-.63-1.5-.63-.7 0-1.29.37-.6.38-1.09 1.01V194zm17.24 3.6v-14.24h1.1q.41 0 .51.4l.16 1.25q.69-.83 1.56-1.33t2.02-.5q.91 0 1.66.35t1.27 1.04.8 1.7a9 9 0 0 1-.02 4.53 5 5 0 0 1-.9 1.76 4.2 4.2 0 0 1-3.38 1.59q-.98 0-1.68-.33a4 4 0 0 1-1.23-.92v4.7zm4.73-12.91q-.9 0-1.6.42-.69.42-1.26 1.18v5.15a3 3 0 0 0 1.12.97q.62.3 1.37.29 1.5 0 2.28-1.06.8-1.06.8-3.03 0-1.03-.18-1.78-.19-.74-.53-1.22a2 2 0 0 0-.85-.7 3 3 0 0 0-1.15-.22m11.16-1.5q1.17 0 2.1.4a4.4 4.4 0 0 1 2.61 2.82q.35 1.01.35 2.27 0 1.27-.35 2.26a5 5 0 0 1-1 1.73q-.66.7-1.6 1.1-.94.38-2.1.38t-2.11-.39a4.4 4.4 0 0 1-1.6-1.1 5 5 0 0 1-1.02-1.72 7 7 0 0 1-.36-2.26q0-1.26.36-2.27a4.5 4.5 0 0 1 2.62-2.83 6 6 0 0 1 2.1-.38m0 9.5q1.58 0 2.36-1.06.77-1.05.77-2.94 0-1.9-.77-2.96t-2.36-1.06q-.8 0-1.38.27-.6.27-.98.79a4 4 0 0 0-.6 1.26q-.19.75-.19 1.7t.2 1.69.59 1.25q.4.51.98.78.58.28 1.38.28m7.37 1.31v-10.64h1.08q.3 0 .42.12t.15.4l.13 1.66q.54-1.12 1.35-1.74a3 3 0 0 1 1.88-.63 3 3 0 0 1 1.46.38l-.24 1.4q-.08.26-.32.26-.15 0-.46-.1-.3-.1-.85-.1-.98 0-1.63.57-.66.57-1.1 1.65V194zm16.28 0h-.83a1 1 0 0 1-.44-.08q-.17-.09-.22-.36l-.21-.99q-.42.38-.82.68a5 5 0 0 1-1.78.81q-.5.1-1.1.1-.62 0-1.17-.17a2.5 2.5 0 0 1-1.58-1.4 3 3 0 0 1-.23-1.25q0-.63.35-1.2.34-.6 1.12-1.04.76-.45 2.02-.74 1.25-.3 3.05-.33v-.83q0-1.24-.53-1.88-.52-.63-1.57-.63a3.3 3.3 0 0 0-1.96.56q-.34.21-.58.39a1 1 0 0 1-.5.17 1 1 0 0 1-.32-.1 1 1 0 0 1-.23-.25l-.33-.6a6 6 0 0 1 1.9-1.27 6 6 0 0 1 2.25-.42q.9 0 1.59.3a3.3 3.3 0 0 1 1.88 2.09q.24.75.24 1.64zm-4.85-1.14a4 4 0 0 0 1.67-.39q.37-.18.7-.44a6 6 0 0 0 .64-.6v-2.22q-1.29.05-2.2.2-.9.18-1.46.43-.57.27-.83.62-.25.36-.25.8 0 .42.13.72a1.4 1.4 0 0 0 .92.79q.3.09.68.09m7.68 1.14v-10.64h1.08q.3 0 .42.12t.15.4l.13 1.66q.54-1.12 1.35-1.74a3 3 0 0 1 1.88-.63 3 3 0 0 1 1.46.38l-.24 1.4q-.08.26-.32.26-.15 0-.46-.1-.3-.1-.85-.1-.98 0-1.63.57-.66.57-1.1 1.65V194zm11.59 3.14a1 1 0 0 1-.24.34q-.15.12-.44.12h-1.38l1.94-4.22-4.39-10.02h1.62q.24 0 .38.12.13.12.2.27l2.84 6.7a5 5 0 0 1 .28.94l.32-.95 2.76-6.69a.6.6 0 0 1 .22-.28q.14-.1.33-.1h1.49zm11.68-3.14v-15.47h1.87v6.26q.69-.72 1.51-1.16a4 4 0 0 1 1.91-.43q.88 0 1.54.28.67.3 1.12.82.45.53.67 1.28t.23 1.65V194h-1.87v-6.77q0-1.2-.55-1.88-.55-.66-1.68-.66-.83 0-1.55.4a5 5 0 0 0-1.33 1.08V194zm15.98-10.8q1.17 0 2.1.38a4.4 4.4 0 0 1 2.61 2.83q.35 1.01.35 2.27 0 1.27-.35 2.26a5 5 0 0 1-1 1.73q-.66.7-1.6 1.1-.95.38-2.1.38-1.18 0-2.11-.39a4.4 4.4 0 0 1-1.6-1.1 5 5 0 0 1-1.02-1.72 7 7 0 0 1-.36-2.26q0-1.26.36-2.27a4.5 4.5 0 0 1 2.62-2.83 6 6 0 0 1 2.1-.38m0 9.49q1.58 0 2.36-1.06.77-1.05.77-2.94 0-1.9-.77-2.96-.78-1.06-2.36-1.06-.8 0-1.38.27-.6.27-.98.79a4 4 0 0 0-.6 1.26q-.19.75-.19 1.7t.2 1.69.59 1.25.98.78 1.38.28m9-9.33v6.79q0 1.2.55 1.87.56.66 1.68.66.81 0 1.54-.4a5 5 0 0 0 1.33-1.07v-7.85h1.87V194h-1.1q-.41 0-.51-.39l-.15-1.14q-.7.76-1.55 1.23-.87.47-1.98.47-.88 0-1.54-.3-.66-.27-1.11-.8t-.68-1.28a6 6 0 0 1-.23-1.64v-6.79zm16.14 1.76a.4.4 0 0 1-.39.23 1 1 0 0 1-.35-.12l-.5-.25q-.28-.15-.68-.27a3.3 3.3 0 0 0-1.8 0q-.37.13-.64.33t-.41.5q-.14.27-.14.6 0 .4.23.68.24.27.63.47t.88.35l1.01.33q.53.17 1.02.38.5.21.88.53.4.3.62.77.24.45.24 1.1 0 .74-.26 1.35-.27.63-.78 1.09-.51.45-1.26.72t-1.72.26a5.4 5.4 0 0 1-3.55-1.3l.44-.7q.08-.15.2-.22a1 1 0 0 1 .3-.07.7.7 0 0 1 .4.15l.51.32q.3.18.73.33t1.06.14q.55 0 .96-.14a2 2 0 0 0 .68-.38q.28-.24.4-.56.14-.3.14-.67 0-.45-.24-.73a2 2 0 0 0-.63-.5 5 5 0 0 0-.88-.35l-1.02-.32q-.52-.17-1.02-.38a4 4 0 0 1-.89-.54 3 3 0 0 1-.62-.8 3 3 0 0 1-.24-1.17 2.8 2.8 0 0 1 .99-2.16q.48-.42 1.19-.67.7-.25 1.6-.25 1.05 0 1.89.33t1.44.9zm5.1-1.76V194h-1.87v-10.64zm.42-3.34q0 .28-.1.51a1.5 1.5 0 0 1-.73.71 1.3 1.3 0 0 1-1.02 0 1.4 1.4 0 0 1-.7-.7q-.12-.24-.11-.52a1.3 1.3 0 0 1 .39-.95q.18-.18.42-.28t.51-.1.51.1a1.4 1.4 0 0 1 .83 1.23m2.88 13.98v-10.64h1.11q.4 0 .5.4l.15 1.15q.7-.77 1.55-1.24a4 4 0 0 1 1.98-.47q.88 0 1.54.28.67.3 1.11.82.45.53.68 1.28t.23 1.65V194h-1.87v-6.77q0-1.2-.55-1.88-.56-.66-1.68-.66-.83 0-1.55.4a5 5 0 0 0-1.33 1.08V194zm15.26-10.81q.7 0 1.3.15t1.1.44h2.88v.7q0 .34-.44.44l-1.21.17q.36.68.36 1.52a3.3 3.3 0 0 1-1.13 2.5q-.54.45-1.26.69-.73.24-1.6.24-.75 0-1.41-.18-.34.22-.5.45a1 1 0 0 0-.18.48q0 .38.3.57.3.2.81.28.5.08 1.15.1l1.3.07q.67.05 1.3.16a4 4 0 0 1 1.15.38q.5.27.81.73.3.45.3 1.2 0 .67-.33 1.32-.34.63-.99 1.14-.63.5-1.56.8t-2.09.3-2.04-.24a5 5 0 0 1-1.46-.62 3 3 0 0 1-.86-.9q-.3-.51-.3-1.06 0-.79.5-1.34.51-.55 1.38-.88-.45-.2-.72-.56a1.5 1.5 0 0 1-.27-.94q0-.22.08-.48.1-.24.26-.48a3 3 0 0 1 1.01-.85q-.78-.45-1.23-1.18a3 3 0 0 1-.44-1.7q0-.79.3-1.41.3-.64.83-1.09.54-.45 1.27-.68a5 5 0 0 1 1.63-.25m3.31 11.39a1 1 0 0 0-.22-.64 1.4 1.4 0 0 0-.6-.38 4 4 0 0 0-.87-.19q-.48-.06-1.04-.09l-1.1-.06q-.58-.03-1.09-.11-.6.28-.97.69a1.4 1.4 0 0 0-.19 1.64q.18.31.56.54t.95.36 1.35.13q.75 0 1.36-.14.6-.14 1-.39.43-.25.64-.6t.22-.76m-3.31-5.78q.56 0 1-.16.43-.15.73-.44.3-.28.44-.67.15-.4.15-.87 0-.98-.6-1.55t-1.72-.58-1.72.58q-.6.57-.6 1.55 0 .47.16.87a2 2 0 0 0 1.17 1.12q.43.15.99.15"/>
</g>
</svg>