<svg xmlns="http://www.w3.org/2000/svg" viewBox="0 0 500 100">
<g fill="none">
<path fill="#b2b095" fill-rule="evenodd" d="M250 0h250v100H250z"/>
<path fill="#4f6a9a" fill-rule="evenodd" d="M0 0h250v100H0z"/>
<path fill="#f8f8f8" d="M71.55 52.18h7.28V33.07q0-1.41.08-2.94l-4.29 3.56q-.41.34-.83.48a2.5 2.5 0 0 1-2.02-.16q-.53-.3-.79-.63L68.43 30l11.8-9.9h6.66v32.08h6.24V58H71.55zm52.73-13.13q0 4.96-1.07 8.6a18 18 0 0 1-2.95 6.03 12 12 0 0 1-4.47 3.57q-2.59 1.17-5.6 1.17-3.02 0-5.58-1.17a12 12 0 0 1-4.43-3.57 18 18 0 0 1-2.93-6.03q-1.05-3.64-1.05-8.6t1.05-8.61 2.93-6.03a12 12 0 0 1 4.43-3.55q2.56-1.16 5.58-1.16 3.01 0 5.6 1.16 2.6 1.15 4.47 3.55 1.89 2.4 2.95 6.03a31 31 0 0 1 1.07 8.6m-8.32 0q0-3.93-.5-6.44a13 13 0 0 0-1.3-3.94 5 5 0 0 0-1.87-1.96q-1.04-.54-2.1-.53-1.06 0-2.1.53a4.6 4.6 0 0 0-1.81 1.96q-.8 1.44-1.28 3.94a35 35 0 0 0-.48 6.44q0 3.95.48 6.44t1.28 3.94a4.6 4.6 0 0 0 1.81 1.98 4.5 4.5 0 0 0 2.1.53q1.06 0 2.1-.53a5 5 0 0 0 1.86-1.98q.82-1.44 1.32-3.94.5-2.48.49-6.44m38.48 0q0 4.96-1.07 8.6a18 18 0 0 1-2.95 6.03 12 12 0 0 1-4.47 3.57q-2.59 1.17-5.6 1.17t-5.58-1.17a12 12 0 0 1-4.43-3.57 18 18 0 0 1-2.93-6.03q-1.05-3.64-1.05-8.6t1.05-8.61 2.93-6.03a12 12 0 0 1 4.43-3.55q2.56-1.16 5.58-1.16 3.01 0 5.6 1.16 2.6 1.15 4.47 3.55 1.89 2.4 2.95 6.03a31 31 0 0 1 1.07 8.6m-8.32 0q0-3.93-.5-6.44a13 13 0 0 0-1.3-3.94 5 5 0 0 0-1.87-1.96q-1.04-.54-2.1-.53-1.06 0-2.1.53a4.6 4.6 0 0 0-1.81 1.96q-.8 1.44-1.28 3.94a35 35 0 0 0-.48 6.44q0 3.95.48 6.44t1.28 3.94a4.6 4.6 0 0 0 1.81 1.98 4.5 4.5 0 0 0 2.1.53q1.06 0 2.1-.53a5 5 0 0 0 1.86-1.98q.83-1.44 1.32-3.94.5-2.48.49-6.44m20.54-19.97v21.81h1.2q.75 0 1.15-.2.4-.22.77-.76l5.1-7.6q.44-.66 1.05-.98.6-.3 1.55-.31h7.38l-6.97 9.6a8 8 0 0 1-2.34 2.12 8 8 0 0 1 2.03 2.34l7.6 12.9h-7.29q-.9 0-1.57-.3-.66-.3-1.08-1.05l-5.1-9.54a2 2 0 0 0-.75-.85q-.39-.2-1.17-.2h-1.56V58h-8.06V19.08zM91.91 77.34q.13.22.22.45l.19.48a8 8 0 0 1 .41-.94l4.36-7.93q.12-.2.25-.25.12-.05.36-.05h1.28V82h-1.53v-9.48l.04-.84-4.42 8.06q-.23.4-.63.4h-.25q-.4 0-.63-.4l-4.52-8.09a8 8 0 0 1 .06.87V82h-1.53V69.1h1.28q.24 0 .36.05.13.04.25.25zM104.2 82h-1.75V69.1h1.75zm4.35-12.9q.23 0 .35.06a1 1 0 0 1 .25.24l7.47 9.72a6 6 0 0 1-.04-.88V69.1h1.53V82h-.88a1 1 0 0 1-.35-.07 1 1 0 0 1-.27-.25l-7.46-9.7.03.83V82h-1.53V69.1zM123.33 82h-1.75V69.1h1.75zm9.8-4.66q.13.22.22.45l.19.48a8 8 0 0 1 .41-.94l4.37-7.93q.1-.2.24-.25.12-.05.36-.05h1.29V82h-1.53v-9.48l.03-.84-4.42 8.06q-.23.4-.63.4h-.25q-.4 0-.63-.4l-4.52-8.09a8 8 0 0 1 .06.87V82h-1.53V69.1h1.28q.24 0 .36.05.13.04.25.25zm15.23 3.27a4 4 0 0 0 1.43-.27 3 3 0 0 0 1.73-1.91q.23-.68.23-1.49V69.1h1.74v7.84q0 1.12-.36 2.07a4.7 4.7 0 0 1-2.63 2.75q-.95.4-2.14.4t-2.14-.4a4.7 4.7 0 0 1-2.64-2.75 6 6 0 0 1-.36-2.07V69.1h1.74v7.83q0 .81.23 1.49.22.67.66 1.16t1.07.76 1.44.27m14.47-3.27q.13.22.22.45l.19.48a8 8 0 0 1 .41-.94l4.36-7.93q.12-.2.25-.25.12-.05.36-.05h1.28V82h-1.53v-9.48l.04-.84-4.42 8.06q-.22.4-.63.4h-.25q-.4 0-.63-.4l-4.52-8.09a8 8 0 0 1 .06.87V82h-1.53V69.1h1.28q.24 0 .36.05.13.04.25.25zm201.12-53.9q0 .84-.26 1.51-.27.68-.82 1.19-.56.51-1.47.78t-2.18.27h-9.05l-1.07 6.27a27 27 0 0 1 3.98-.37q3 0 5.28.91t3.85 2.48a10 10 0 0 1 2.35 3.7q.8 2.12.8 4.53 0 3.04-1.09 5.56a13 13 0 0 1-7.59 7.14q-2.67 1-5.84 1-1.84 0-3.52-.38a17 17 0 0 1-8.12-4.45l2.5-3.33q.38-.5.9-.8.52-.26 1.12-.26.78 0 1.47.43l1.5.93q.83.51 1.92.92 1.1.42 2.7.42 1.62 0 2.76-.53a5 5 0 0 0 1.86-1.46q.7-.91 1.04-2.16.32-1.23.32-2.64 0-2.74-1.56-4.2-1.56-1.44-4.42-1.44-2.55 0-4.99.96l-5-1.35 3.23-18.95h19.4zm23.66 5.86a9.3 9.3 0 0 1-2.76 6.74 9 9 0 0 1-6.34 2.59 10 10 0 0 1-3.63-.68 8.4 8.4 0 0 1-4.74-4.86q-.68-1.7-.68-3.8 0-2.15.68-3.9a8.5 8.5 0 0 1 4.74-4.94 9 9 0 0 1 3.63-.7q1.97 0 3.65.7a8.4 8.4 0 0 1 4.77 4.93q.68 1.76.68 3.92m-6.19 0q0-1.33-.22-2.2a4 4 0 0 0-.61-1.4 2 2 0 0 0-.92-.72q-.54-.2-1.16-.2-.63 0-1.15.2t-.88.73q-.36.5-.57 1.39-.21.87-.21 2.2 0 1.24.2 2.08.22.83.58 1.32.37.5.88.7.52.21 1.15.21t1.16-.2q.53-.22.92-.7.39-.5.6-1.33.24-.84.23-2.08m18.1-7.99q.39-.44.96-.81.56-.39 1.58-.38h5.88l-28.55 36.74q-.39.5-.97.81-.6.33-1.42.33h-6.03zm9.88 27.8a9.4 9.4 0 0 1-2.76 6.77 9 9 0 0 1-6.34 2.59 10 10 0 0 1-3.63-.68 8.4 8.4 0 0 1-4.75-4.87 10 10 0 0 1-.67-3.81q0-2.16.67-3.91a8.5 8.5 0 0 1 4.75-4.94 9 9 0 0 1 3.63-.7q1.97 0 3.65.7a8.4 8.4 0 0 1 4.77 4.94q.68 1.75.68 3.9m-6.2 0a9 9 0 0 0-.21-2.17 4 4 0 0 0-.61-1.4 2 2 0 0 0-.93-.72q-.53-.21-1.15-.21-.63 0-1.15.2-.51.22-.88.74-.37.5-.57 1.39-.21.87-.21 2.17 0 1.24.2 2.08.21.83.58 1.32t.88.7 1.15.21 1.15-.2.93-.7.6-1.33.23-2.08m-77.72 26.5V81h-1.73V68.1h3.64q1.22 0 2.12.25.88.25 1.47.72.57.45.86 1.13.27.66.28 1.48 0 .68-.22 1.27-.21.6-.63 1.07-.4.47-1 .8-.58.34-1.33.51.31.19.57.55l3.77 5.12h-1.55q-.48 0-.7-.37l-3.35-4.6a1 1 0 0 0-.33-.32 1 1 0 0 0-.54-.1zm0-1.26h1.83q.76 0 1.35-.19.57-.19.97-.52.38-.34.59-.8t.2-1.04q0-1.15-.77-1.73-.75-.6-2.26-.59h-1.9zm17.63-6.25v1.43h-6.2v4.28h5.02v1.37h-5.02v4.4h6.2V81h-7.95V68.1zm11.29 0v1.47h-4.17V81h-1.74V69.57h-4.19V68.1zm6.85 11.51a4 4 0 0 0 1.43-.27 3 3 0 0 0 1.73-1.91q.24-.68.23-1.49V68.1h1.74v7.84q0 1.12-.36 2.07a4.7 4.7 0 0 1-2.63 2.75q-.95.4-2.14.4t-2.14-.4a4.7 4.7 0 0 1-2.64-2.75 6 6 0 0 1-.36-2.07V68.1h1.74v7.83q0 .81.23 1.49t.66 1.16 1.07.76 1.44.27m10.04-4V81h-1.73V68.1h3.64q1.23 0 2.12.25.88.25 1.47.72.57.45.86 1.13.28.66.28 1.48 0 .68-.22 1.27-.21.6-.63 1.07-.4.47-1 .8-.58.34-1.33.51.31.19.57.55L379.1 81h-1.55q-.48 0-.7-.37l-3.35-4.6a1 1 0 0 0-.33-.32 1 1 0 0 0-.54-.1zm0-1.26h1.83q.76 0 1.35-.19.57-.19.97-.52.38-.34.59-.8t.2-1.04q0-1.15-.77-1.73-.76-.6-2.26-.59h-1.9zm10.58-6.25q.23 0 .34.06a1 1 0 0 1 .26.24l7.47 9.72a6 6 0 0 1-.04-.88V68.1h1.53V81h-.89a1 1 0 0 1-.34-.07 1 1 0 0 1-.28-.25l-7.46-9.7.04.83V81h-1.53V68.1zm18.1 8.08V81h-1.74V68.1h3.8q1.23 0 2.14.29.9.28 1.5.8.59.52.88 1.26t.3 1.65-.32 1.65-.92 1.28q-.61.54-1.51.84t-2.06.3zm0-1.39h2.07q.74 0 1.32-.2.57-.2.95-.55.4-.36.59-.85.2-.5.2-1.1 0-1.21-.76-1.92-.77-.69-2.3-.69h-2.07zm14.33-7.05-5.37 13.45a.9.9 0 0 1-.88.62h-.68l5.41-13.47q.13-.3.34-.44t.5-.16zm6.92.36 5.15 12.9h-1.35a.6.6 0 0 1-.37-.12 1 1 0 0 1-.22-.3l-1.2-3.1h-5.8l-1.2 3.1a1 1 0 0 1-.22.3.6.6 0 0 1-.37.12h-1.35l5.15-12.9zm-.9 1.65-.37 1.22-2.03 5.24h4.82l-2.03-5.24a10 10 0 0 1-.38-1.22"/>
</g>
</svg>