<svg xmlns="http://www.w3.org/2000/svg" viewBox="0 0 520 250">
<g fill="none">
<path fill="#b2b095" fill-rule="evenodd" d="M0 0h250v250H0z"/>
<path fill="#c7c6b3" fill-rule="evenodd" d="M250 0h270v250H250z"/>
<path fill="#474634" d="M317.73 63.19q0-1.05.66-1.8.66-.78 1.99-.77h2.18V55q0-2.47.76-4.7.75-2.21 2.3-3.9a11 11 0 0 1 3.87-2.7q2.33-1 5.5-1 2.1 0 3.81.53a11 11 0 0 1 5.4 3.72 17 17 0 0 1 1.76 2.77l-3.22 2.03q-.96.52-1.85.52-1.2 0-2.15-.99a10 10 0 0 0-1.8-1.5 3.7 3.7 0 0 0-1.95-.5q-2.1 0-3.13 1.47t-1.03 4.22v5.65h9.88v3.06q0 .4-.17.74a2.2 2.2 0 0 1-1.17 1.1 2 2 0 0 1-.9.17h-7.64v4.05q0 1.56-.58 2.82a9 9 0 0 1-1.58 2.36q1.17-.27 2.34-.4 1.17-.15 2.37-.15h13.05v3.3q0 .57-.25 1.17-.24.6-.68 1.08A3.4 3.4 0 0 1 343 81h-24.8v-4.84q.86-.15 1.65-.49.8-.34 1.39-.86.6-.51.96-1.25.36-.72.36-1.69V65.7h-4.83zM362.8 42.7q2.8 0 5.06.82t3.83 2.28a10 10 0 0 1 2.44 3.47q.84 2.01.84 4.43 0 2.08-.59 3.85-.57 1.77-1.6 3.37a24 24 0 0 1-2.35 3.09q-1.34 1.5-2.84 3.03l-7.41 7.59a27 27 0 0 1 2.82-.66q1.39-.25 2.61-.25h7.07q1.3 0 2.06.72.75.7.75 1.88V81h-26.62v-2.6q0-.75.3-1.61.33-.86 1.1-1.56l10.92-11a36 36 0 0 0 2.44-2.68 17 17 0 0 0 1.72-2.5q.68-1.24 1.01-2.48.34-1.24.34-2.61 0-2.25-1.08-3.47-1.07-1.2-3.29-1.21a5 5 0 0 0-3.01.96q-.6.45-1.03 1.04t-.69 1.3a4 4 0 0 1-1.05 1.7q-.64.51-1.73.51a7 7 0 0 1-1.17-.1l-4.26-.76q.4-2.83 1.6-4.94 1.17-2.1 2.93-3.5 1.75-1.41 4.02-2.1a17 17 0 0 1 4.86-.69M380.44 81V54.04h5q.75 0 1.25.34.51.33.72 1.01l.44 1.46q.68-.7 1.4-1.3a9 9 0 0 1 3.4-1.68 9 9 0 0 1 2.14-.25q2.45 0 4.04 1.26a8 8 0 0 1 2.44 3.37q.68-1.25 1.65-2.13a9 9 0 0 1 2.1-1.43q1.13-.55 2.4-.8a12.4 12.4 0 0 1 6.61.42 7.8 7.8 0 0 1 4.84 5.23q.62 1.9.62 4.33V81h-8.06V63.87q0-4.2-3.59-4.19-1.64 0-2.71 1.08-1.08 1.08-1.08 3.1V81h-8.06V63.87q0-2.32-.91-3.25-.9-.94-2.68-.94-1.1 0-2.07.5-.97.49-1.83 1.32V81zm59.96-30.65v10.3h9.62v5.76h-9.62v10.35h-6.56V66.41h-9.56v-5.77h9.56v-10.3zM364.76 116H363v-5.87h-6.94V116h-1.76v-12.9h1.76v5.75H363v-5.75h1.76zm15.13-6.44q0 1.44-.46 2.66-.45 1.2-1.3 2.08a6 6 0 0 1-2 1.35q-1.2.48-2.6.48-1.43 0-2.6-.48a5.8 5.8 0 0 1-3.3-3.43q-.46-1.22-.46-2.66 0-1.46.46-2.66t1.3-2.1a6 6 0 0 1 2-1.36 7 7 0 0 1 2.6-.48q1.4 0 2.6.48a5.8 5.8 0 0 1 3.3 3.46q.46 1.2.46 2.66m-1.8 0q0-1.19-.32-2.14a5 5 0 0 0-.91-1.6q-.6-.64-1.44-1a5 5 0 0 0-1.9-.35q-1.03 0-1.88.35-.84.36-1.44 1-.6.66-.92 1.6a7 7 0 0 0-.33 2.14q0 1.19.33 2.12.32.94.92 1.6.6.65 1.44 1 .86.34 1.88.34 1.05 0 1.9-.34a4 4 0 0 0 1.44-1q.6-.66.91-1.6.33-.93.33-2.12m10.53 1.78q.13.22.22.45l.18.48a8 8 0 0 1 .42-.94l4.36-7.93q.12-.2.25-.25.12-.05.35-.05h1.3V116h-1.54v-9.48l.04-.84-4.42 8.06q-.22.4-.63.4h-.25q-.4 0-.63-.4l-4.52-8.09a8 8 0 0 1 .05.87V116h-1.53v-12.9h1.29q.24 0 .36.05.12.04.24.25zm18.16-8.24v1.43h-6.2v4.28h5.02v1.37h-5.01v4.4h6.19V116h-7.95v-12.9zm9.12 2.02-.17.2a.4.4 0 0 1-.24.07q-.15 0-.35-.15-.2-.16-.52-.34-.3-.19-.74-.34-.45-.15-1.06-.15-.6 0-1.04.16-.45.15-.75.42-.3.28-.45.64t-.15.79q0 .53.26.9.27.35.7.6.44.25 1 .43l1.13.39q.57.2 1.13.44.56.25.99.63.45.38.7.92.27.55.27 1.35 0 .85-.29 1.6a3.7 3.7 0 0 1-2.2 2.15 5.6 5.6 0 0 1-5.87-1.37l.5-.83q.07-.1.18-.16a.4.4 0 0 1 .23-.07q.19 0 .43.2t.6.45q.37.23.89.44.51.2 1.26.2.63 0 1.1-.17.49-.16.83-.48.34-.3.52-.74.18-.43.18-.96 0-.6-.27-.96a2 2 0 0 0-.7-.63 5 5 0 0 0-.98-.42l-1.13-.36q-.58-.2-1.14-.43-.56-.24-.98-.63a3 3 0 0 1-.7-.97 4 4 0 0 1-.26-1.44 3.4 3.4 0 0 1 1.03-2.45q.5-.5 1.25-.8t1.7-.3q1.08 0 1.97.35.9.34 1.56 1zm-106.94 28.83v1.66h-7.22v5h5.84v1.6h-5.84v5.13h7.22V149h-9.27v-15.05zm8.72 6.17a.4.4 0 0 1-.38.23 1 1 0 0 1-.36-.12l-.49-.25q-.3-.15-.69-.27a3.3 3.3 0 0 0-1.8 0q-.37.13-.64.33t-.4.5q-.15.27-.15.6 0 .4.24.68.23.27.62.47t.88.35l1.02.33q.51.17 1.01.38t.88.53q.39.3.63.77.23.45.23 1.1 0 .74-.26 1.35-.26.63-.78 1.09-.51.45-1.26.72t-1.72.26a5.4 5.4 0 0 1-3.55-1.3l.44-.7q.1-.15.2-.22a1 1 0 0 1 .3-.07.7.7 0 0 1 .4.15l.52.32q.3.18.72.33.42.14 1.07.14.54 0 .95-.14a2 2 0 0 0 .68-.38q.28-.24.4-.56.14-.3.14-.67 0-.45-.24-.73a2 2 0 0 0-.62-.5 5 5 0 0 0-.89-.35l-1.02-.32q-.51-.17-1.02-.38a4 4 0 0 1-.88-.54 3 3 0 0 1-.63-.8 3 3 0 0 1-.23-1.17 2.8 2.8 0 0 1 .98-2.16q.48-.42 1.19-.67.7-.25 1.6-.25 1.05 0 1.9.33.83.33 1.43.9zm6.25 9.05q-1.25 0-1.94-.7-.67-.7-.67-2.03v-6.51h-1.28a.4.4 0 0 1-.29-.1q-.1-.1-.11-.31v-.75l1.74-.22.43-3.28a.4.4 0 0 1 .14-.26q.1-.1.3-.1h.94v3.66h3.04v1.36h-3.04v6.38q0 .67.32 1 .33.32.84.32.3 0 .51-.07a2 2 0 0 0 .64-.35.4.4 0 0 1 .2-.08q.15 0 .26.18l.54.9q-.47.45-1.16.7-.69.26-1.4.26m6.69-10.8V149h-1.87v-10.64zm.42-3.35q0 .29-.11.51a1.5 1.5 0 0 1-.72.71 1.3 1.3 0 0 1-1.02 0 1.4 1.4 0 0 1-.71-.7q-.1-.24-.1-.52a1.3 1.3 0 0 1 .39-.95q.18-.18.42-.28t.5-.1q.28-.01.52.1a1.4 1.4 0 0 1 .83 1.23m2.88 13.98v-10.64h1.11q.4 0 .5.4l.14 1.08q.6-.72 1.32-1.18a3 3 0 0 1 1.7-.46q1.08 0 1.74.6.68.6.96 1.61a3.3 3.3 0 0 1 2.36-2.09 4.3 4.3 0 0 1 2.53.14q.66.27 1.11.79.45.51.7 1.26t.24 1.72V149h-1.87v-6.77q0-1.26-.54-1.9-.55-.64-1.59-.64-.46 0-.87.16a2.1 2.1 0 0 0-1.23 1.27q-.19.48-.19 1.1V149h-1.86v-6.77q0-1.3-.52-1.91-.51-.63-1.5-.63-.7 0-1.29.37-.6.38-1.08 1.01V149zm25.05 0h-.83a1 1 0 0 1-.44-.08q-.17-.09-.22-.36l-.21-.99q-.42.38-.82.68a5 5 0 0 1-1.78.81q-.5.1-1.1.1-.62 0-1.17-.17a2.5 2.5 0 0 1-1.58-1.4 3 3 0 0 1-.23-1.25q0-.63.35-1.2.34-.6 1.12-1.04.76-.45 2.02-.74 1.25-.3 3.05-.33v-.83q0-1.24-.53-1.88-.52-.63-1.57-.63a3.3 3.3 0 0 0-1.96.56q-.34.21-.58.39a1 1 0 0 1-.5.17 1 1 0 0 1-.32-.1 1 1 0 0 1-.23-.25l-.33-.6a6 6 0 0 1 1.9-1.27 6 6 0 0 1 2.25-.42q.9 0 1.59.3a3.3 3.3 0 0 1 1.88 2.09q.24.75.24 1.64zm-4.85-1.14a4 4 0 0 0 1.67-.39q.37-.18.7-.44a6 6 0 0 0 .64-.6v-2.22q-1.29.05-2.2.2-.9.18-1.46.43-.56.27-.83.62-.25.36-.25.8 0 .42.13.72a1.4 1.4 0 0 0 .92.79q.3.09.68.09m10.9 1.3q-1.25 0-1.93-.7t-.68-2.02v-6.51h-1.28a.4.4 0 0 1-.28-.1q-.12-.1-.12-.31v-.75l1.75-.22.43-3.28a.4.4 0 0 1 .13-.26q.12-.1.3-.1h.94v3.66h3.05v1.36h-3.05v6.38q0 .67.33 1t.84.32q.3 0 .5-.07a2 2 0 0 0 .65-.35.4.4 0 0 1 .2-.08q.15 0 .26.18l.54.9q-.47.45-1.16.7-.69.26-1.41.26m8.83-10.96q.96 0 1.76.32a4 4 0 0 1 2.32 2.41q.33.9.33 2.02 0 .45-.1.59-.1.15-.35.15h-7.08q.02 1 .27 1.75t.7 1.24q.44.51 1.05.75.6.25 1.36.25a4 4 0 0 0 1.21-.17 6 6 0 0 0 1.5-.7q.24-.16.42-.16.23 0 .36.18l.52.68q-.34.42-.83.73t-1.03.5a6.6 6.6 0 0 1-4.34.03 4.5 4.5 0 0 1-1.6-1.09 5 5 0 0 1-1.06-1.78 7.2 7.2 0 0 1-.04-4.51q.34-.97.99-1.68.63-.7 1.56-1.11.92-.4 2.08-.4m.04 1.37q-1.35 0-2.13.78a3.7 3.7 0 0 0-.97 2.17h5.79q0-.65-.18-1.19-.19-.54-.52-.93a2.4 2.4 0 0 0-.85-.61 3 3 0 0 0-1.14-.22m14.24 9.43q-.4 0-.5-.39l-.17-1.29q-.69.83-1.56 1.33a4 4 0 0 1-2.01.5q-.91 0-1.66-.35-.75-.36-1.27-1.04a5 5 0 0 1-.81-1.7 9 9 0 0 1 .03-4.53q.31-1.01.9-1.76a4.26 4.26 0 0 1 5.05-1.26 4 4 0 0 1 1.24.92v-5.9h1.87V149zm-3.62-1.37q.9 0 1.6-.41.69-.42 1.26-1.2v-5.14a3 3 0 0 0-1.13-.97 3 3 0 0 0-1.36-.28q-1.49 0-2.28 1.06-.8 1.06-.8 3.03 0 1.04.18 1.78.18.75.52 1.22t.85.7q.5.22 1.16.22m18.01-7.51a.4.4 0 0 1-.38.23 1 1 0 0 1-.36-.12l-.49-.25q-.3-.15-.69-.27a3.3 3.3 0 0 0-1.8 0q-.37.13-.64.33t-.4.5q-.15.27-.15.6 0 .4.24.68.23.27.62.47t.88.35l1.02.33q.51.17 1.01.38t.88.53q.39.3.63.77.23.45.23 1.1 0 .74-.26 1.35-.25.63-.78 1.09-.51.45-1.26.72t-1.72.26a5.4 5.4 0 0 1-3.55-1.3l.44-.7q.1-.15.2-.22a1 1 0 0 1 .3-.07.7.7 0 0 1 .4.15l.52.32q.3.18.72.33.42.14 1.07.14.54 0 .95-.14a2 2 0 0 0 .68-.38q.28-.24.4-.56.14-.3.14-.67 0-.45-.24-.73a2 2 0 0 0-.62-.5 5 5 0 0 0-.89-.35l-1.02-.32q-.51-.17-1.02-.38a4 4 0 0 1-.88-.54 3 3 0 0 1-.63-.8 3 3 0 0 1-.23-1.17 2.8 2.8 0 0 1 .98-2.16q.48-.42 1.19-.67.7-.25 1.6-.25 1.05 0 1.9.33.83.33 1.43.9zm3.03 8.88v-15.47h1.87v6.26q.68-.72 1.51-1.16a4 4 0 0 1 1.91-.43q.88 0 1.54.28.66.3 1.11.82.44.53.68 1.28.23.75.23 1.65V149h-1.87v-6.77q0-1.2-.55-1.88-.55-.66-1.69-.66-.82 0-1.54.4a5 5 0 0 0-1.33 1.08V149zm15.98-10.8q1.17 0 2.1.38a4.4 4.4 0 0 1 2.6 2.83q.36 1.01.36 2.27 0 1.27-.35 2.26a5 5 0 0 1-1 1.73q-.67.7-1.6 1.1-.94.38-2.11.38t-2.1-.39a4.4 4.4 0 0 1-1.6-1.1 5 5 0 0 1-1.03-1.72 7 7 0 0 1-.35-2.26q0-1.26.35-2.27a4.5 4.5 0 0 1 2.62-2.83 6 6 0 0 1 2.1-.38m0 9.49q1.57 0 2.35-1.06.78-1.05.78-2.94 0-1.9-.78-2.96t-2.35-1.06q-.8 0-1.39.27t-.98.79a4 4 0 0 0-.59 1.26q-.2.75-.19 1.7 0 .95.2 1.69.19.75.58 1.25.4.51.98.78.6.28 1.39.28m7.37 1.31v-10.64h1.07q.3 0 .42.12t.16.4l.13 1.66q.54-1.12 1.34-1.74a3 3 0 0 1 1.89-.63 3 3 0 0 1 1.46.38l-.24 1.4q-.08.26-.33.26-.15 0-.45-.1t-.85-.1q-.98 0-1.63.57t-1.1 1.65V149zm11.69.17q-1.26 0-1.94-.7t-.68-2.03v-6.51h-1.28a.4.4 0 0 1-.28-.1q-.12-.1-.12-.31v-.75l1.75-.22.43-3.28a.4.4 0 0 1 .13-.26q.12-.1.3-.1h.94v3.66h3.05v1.36h-3.05v6.38q0 .67.33 1 .32.32.84.32.3 0 .5-.07a2 2 0 0 0 .65-.35.4.4 0 0 1 .2-.08q.14 0 .25.18l.55.9q-.48.45-1.17.7-.68.26-1.4.26m5.03-.17v-9.04l-1.18-.14a1 1 0 0 1-.36-.16q-.15-.1-.14-.32v-.77h1.68v-1.03q0-.9.25-1.62.26-.7.74-1.2.48-.48 1.15-.73a4.3 4.3 0 0 1 2.83-.05l-.04.94q0 .2-.18.25-.16.04-.47.04h-.32q-.5 0-.88.13a1.7 1.7 0 0 0-1.11 1.15q-.16.47-.16 1.15v.97h3.08v1.36h-3.01V149zm14.47 0h-.83a1 1 0 0 1-.44-.08q-.18-.09-.23-.36l-.2-.99q-.43.38-.82.68a5 5 0 0 1-1.78.81q-.5.1-1.11.1t-1.16-.17a2.5 2.5 0 0 1-1.57-1.4 3 3 0 0 1-.24-1.25q0-.63.34-1.2.34-.6 1.12-1.04t2.02-.74 3.06-.33v-.83q0-1.24-.53-1.88-.54-.63-1.57-.63a3.3 3.3 0 0 0-1.96.56q-.34.21-.59.39a1 1 0 0 1-.49.17.6.6 0 0 1-.33-.1 1 1 0 0 1-.22-.25l-.34-.6a6 6 0 0 1 1.9-1.27 6 6 0 0 1 2.26-.42q.9 0 1.58.3a3.3 3.3 0 0 1 1.88 2.09q.25.75.25 1.64zm-4.86-1.14a4 4 0 0 0 1.68-.39q.36-.18.7-.44a6 6 0 0 0 .64-.6v-2.22q-1.3.05-2.2.2-.9.18-1.47.43-.56.27-.82.62-.26.36-.26.8 0 .42.14.72a1.4 1.4 0 0 0 .91.79q.32.09.68.09m9.77-14.33V149h-1.87v-15.47zm5.38 0V149h-1.87v-15.47zM333 163.36V174h-1.87v-10.64zm.42-3.34q0 .29-.1.51a1.5 1.5 0 0 1-.73.71 1.3 1.3 0 0 1-1.02 0 1.4 1.4 0 0 1-.7-.7q-.11-.24-.11-.52a1.3 1.3 0 0 1 .4-.95q.17-.18.41-.28t.51-.1.51.1a1.4 1.4 0 0 1 .83 1.23M336.3 174v-10.64h1.11q.4 0 .5.4l.15 1.15q.7-.77 1.55-1.24a4 4 0 0 1 1.98-.47q.88 0 1.54.28.67.3 1.11.82.45.53.68 1.28t.23 1.65V174h-1.87v-6.77q0-1.2-.55-1.88-.56-.66-1.68-.66-.84 0-1.55.4a5 5 0 0 0-1.33 1.08V174zm21.82-8.88a.4.4 0 0 1-.39.23 1 1 0 0 1-.36-.12l-.48-.25q-.3-.15-.7-.27a3.3 3.3 0 0 0-1.79 0q-.37.13-.64.33t-.41.5q-.14.27-.14.6 0 .4.23.68.24.27.63.47t.88.35l1.01.33q.52.17 1.02.38.49.21.88.53.38.3.62.77.24.45.24 1.1 0 .74-.26 1.35-.27.63-.78 1.09-.51.45-1.26.72t-1.72.26a5.4 5.4 0 0 1-3.55-1.3l.44-.7q.09-.15.2-.22a1 1 0 0 1 .3-.07.7.7 0 0 1 .4.15l.51.32q.3.18.73.33t1.06.14q.55 0 .96-.14a2 2 0 0 0 .68-.38q.28-.24.4-.56.14-.3.13-.67 0-.45-.23-.73a2 2 0 0 0-.63-.5 5 5 0 0 0-.88-.35q-.51-.14-1.02-.32-.52-.17-1.02-.38a4 4 0 0 1-.89-.54 3 3 0 0 1-.62-.8 3 3 0 0 1-.24-1.17 2.8 2.8 0 0 1 .99-2.16q.48-.42 1.19-.67.7-.25 1.6-.25 1.05 0 1.89.33.82.33 1.44.9zm7.33-1.92q1.17 0 2.1.38a4.4 4.4 0 0 1 2.6 2.83q.36 1.01.36 2.27 0 1.27-.35 2.26a5 5 0 0 1-1.01 1.73q-.66.7-1.6 1.1-.93.38-2.1.38t-2.1-.39a4.4 4.4 0 0 1-1.6-1.1 5 5 0 0 1-1.03-1.72 7 7 0 0 1-.35-2.26q0-1.26.35-2.27a4.5 4.5 0 0 1 2.62-2.83 6 6 0 0 1 2.1-.38m0 9.49q1.57 0 2.35-1.06.78-1.05.78-2.94 0-1.9-.78-2.96t-2.35-1.06q-.8 0-1.39.27t-.98.79a4 4 0 0 0-.59 1.26q-.2.75-.2 1.7t.2 1.69.6 1.25q.38.51.97.78.6.28 1.39.28m14.63-7.44-.17.18a.4.4 0 0 1-.24.06.6.6 0 0 1-.35-.13 5 5 0 0 0-1.15-.57q-.4-.14-1-.13-.77 0-1.37.27-.6.29-1 .8-.4.54-.61 1.28a6 6 0 0 0-.2 1.67q0 .96.22 1.71.21.75.62 1.26.4.51.97.78a3 3 0 0 0 1.28.27 3.3 3.3 0 0 0 2.34-.89q.2-.15.38-.16.24 0 .36.18l.52.68q-.7.85-1.73 1.24-1.04.4-2.2.4-1 0-1.85-.37a4 4 0 0 1-1.48-1.07 5 5 0 0 1-1-1.71 7 7 0 0 1-.36-2.32 7 7 0 0 1 .33-2.2q.34-1 .97-1.74.63-.72 1.57-1.14a5 5 0 0 1 2.14-.4q1.11 0 1.98.36t1.52 1.02zm4.63-1.89V174h-1.87v-10.64zm.42-3.34q0 .29-.11.51a1.5 1.5 0 0 1-.72.71 1.3 1.3 0 0 1-1.03 0 1.4 1.4 0 0 1-.7-.7q-.11-.24-.11-.52a1.3 1.3 0 0 1 .4-.95q.18-.18.41-.28.24-.1.51-.1.28-.01.52.1a1.4 1.4 0 0 1 .83 1.23m10.7 13.98h-.83a1 1 0 0 1-.45-.08q-.16-.09-.22-.36l-.2-.99q-.43.38-.82.68a5 5 0 0 1-1.78.81q-.5.1-1.11.1t-1.16-.17a2.5 2.5 0 0 1-1.57-1.4 3 3 0 0 1-.24-1.25q0-.63.34-1.2.34-.6 1.12-1.04t2.02-.74 3.06-.33v-.83q0-1.24-.53-1.88-.54-.63-1.57-.63a3.3 3.3 0 0 0-1.96.56q-.34.21-.59.39a1 1 0 0 1-.49.17.6.6 0 0 1-.33-.1 1 1 0 0 1-.22-.25l-.34-.6a6 6 0 0 1 1.9-1.27 6 6 0 0 1 2.26-.42q.9 0 1.58.3a3.3 3.3 0 0 1 1.88 2.09q.25.75.25 1.64zm-4.86-1.14a4 4 0 0 0 1.68-.39q.36-.18.7-.44a6 6 0 0 0 .64-.6v-2.22q-1.3.05-2.2.2-.9.18-1.47.43-.56.27-.82.62-.26.36-.26.8 0 .42.14.72a1.4 1.4 0 0 0 .91.79q.32.09.68.09m9.77-14.33V174h-1.87v-15.47zM415.89 174h-.83a1 1 0 0 1-.44-.08q-.17-.09-.22-.36l-.21-.99q-.42.38-.82.68a5 5 0 0 1-1.78.81q-.5.1-1.1.1-.62 0-1.17-.17a2.5 2.5 0 0 1-1.57-1.4 3 3 0 0 1-.24-1.25q0-.63.35-1.2.34-.6 1.12-1.04.77-.45 2.02-.74 1.25-.3 3.05-.33v-.83q0-1.24-.53-1.88-.52-.63-1.57-.63a3.3 3.3 0 0 0-1.95.56l-.6.39a1 1 0 0 1-.48.17.6.6 0 0 1-.33-.1 1 1 0 0 1-.23-.25l-.33-.6a6 6 0 0 1 1.9-1.27 6 6 0 0 1 2.25-.42q.9 0 1.59.3a3.3 3.3 0 0 1 1.88 2.09q.24.75.24 1.64zm-4.85-1.14a4 4 0 0 0 1.67-.39q.37-.18.7-.44a6 6 0 0 0 .64-.6v-2.22q-1.29.05-2.2.2-.9.18-1.46.43-.56.27-.83.62-.25.36-.25.8 0 .42.13.72a1.4 1.4 0 0 0 .92.79q.31.09.68.09m7.69 1.14v-10.64h1.1q.41 0 .51.4l.15 1.15q.7-.77 1.55-1.24a4 4 0 0 1 1.98-.47q.88 0 1.54.28.66.3 1.1.82.45.53.69 1.28t.23 1.65V174h-1.87v-6.77q0-1.2-.55-1.88-.55-.66-1.69-.66-.83 0-1.55.4a5 5 0 0 0-1.32 1.08V174zm19.16 0q-.4 0-.5-.39l-.17-1.29q-.69.83-1.56 1.33a4 4 0 0 1-2.01.5q-.92 0-1.66-.35-.75-.36-1.27-1.04a5 5 0 0 1-.81-1.7 9 9 0 0 1 .03-4.53q.31-1.01.9-1.76a4.26 4.26 0 0 1 5.05-1.26 4 4 0 0 1 1.24.92v-5.9H439V174zm-3.62-1.37q.9 0 1.6-.41.69-.42 1.26-1.2v-5.14a3 3 0 0 0-1.13-.97 3 3 0 0 0-1.36-.28q-1.49 0-2.28 1.06-.8 1.06-.8 3.03 0 1.04.18 1.78.17.75.52 1.22t.85.7 1.16.22M308.63 199h-.83a1 1 0 0 1-.44-.08q-.16-.09-.22-.36l-.2-.99q-.43.38-.83.68a5 5 0 0 1-1.78.81q-.5.1-1.1.1-.62 0-1.16-.17a2.5 2.5 0 0 1-1.57-1.4 3 3 0 0 1-.25-1.25q0-.63.35-1.2.34-.6 1.12-1.04.77-.45 2.02-.74 1.25-.3 3.06-.33v-.83q0-1.24-.53-1.88-.54-.63-1.57-.63a3.3 3.3 0 0 0-1.96.56q-.35.21-.59.39a1 1 0 0 1-.49.17.6.6 0 0 1-.33-.1 1 1 0 0 1-.22-.25l-.34-.6a6 6 0 0 1 1.9-1.27 6 6 0 0 1 2.26-.42q.9 0 1.58.3a3.3 3.3 0 0 1 1.88 2.09q.24.75.24 1.64zm-4.85-1.14a4 4 0 0 0 1.68-.39q.36-.18.69-.44a6 6 0 0 0 .65-.6v-2.22q-1.3.05-2.2.2-.9.18-1.47.43-.57.27-.82.62-.26.36-.26.8 0 .42.14.72a1.4 1.4 0 0 0 .91.79q.32.09.68.09m8.1 1.14v-9.04l-1.17-.14a1 1 0 0 1-.36-.16q-.15-.1-.14-.32v-.77h1.68v-1.03q0-.9.26-1.62.25-.7.73-1.2.48-.48 1.15-.73a4.3 4.3 0 0 1 2.84-.05l-.05.94q0 .2-.18.25-.15.04-.47.04h-.32q-.5 0-.88.13a1.7 1.7 0 0 0-1.11 1.15q-.15.47-.16 1.15v.97h3.08v1.36h-3.01V199zm7.09 0v-9.04l-1.18-.14a1 1 0 0 1-.36-.16q-.15-.1-.14-.32v-.77h1.68v-1.03q0-.9.25-1.62.26-.7.74-1.2.48-.48 1.15-.73a4.3 4.3 0 0 1 2.83-.05l-.04.94q0 .2-.18.25t-.47.04h-.33q-.48 0-.87.13a1.7 1.7 0 0 0-1.12 1.15q-.15.47-.15 1.15v.97h3.08v1.36h-3.01V199zm10.96-10.8q1.16 0 2.1.38a4.4 4.4 0 0 1 2.6 2.83q.36 1.01.36 2.27 0 1.27-.35 2.26a5 5 0 0 1-1.01 1.73q-.66.7-1.6 1.1-.94.38-2.1.38t-2.1-.39a4.4 4.4 0 0 1-1.6-1.1 5 5 0 0 1-1.03-1.72 7 7 0 0 1-.35-2.26q0-1.26.35-2.27a4.5 4.5 0 0 1 2.62-2.83 6 6 0 0 1 2.1-.38m0 9.49q1.57 0 2.35-1.06.78-1.05.78-2.94 0-1.9-.78-2.96t-2.35-1.06q-.8 0-1.39.27-.6.27-.98.79a4 4 0 0 0-.59 1.26q-.2.75-.2 1.7t.2 1.69.59 1.25.98.78 1.39.28m7.37 1.31v-10.64h1.07q.3 0 .42.12t.16.4l.12 1.66q.55-1.12 1.35-1.74a3 3 0 0 1 1.89-.63 3 3 0 0 1 1.46.38l-.25 1.4q-.06.26-.32.26-.15 0-.45-.1t-.85-.1q-.98 0-1.64.57t-1.1 1.65V199zm15.95 0q-.4 0-.5-.39l-.17-1.29q-.69.83-1.56 1.33a4 4 0 0 1-2.01.5q-.92 0-1.66-.35-.75-.36-1.27-1.04a5 5 0 0 1-.81-1.7 9 9 0 0 1 .03-4.53q.3-1.02.9-1.76a4.26 4.26 0 0 1 5.05-1.26 4 4 0 0 1 1.24.92v-5.9h1.87V199zm-3.62-1.37q.9 0 1.6-.41.69-.42 1.26-1.2v-5.14a3 3 0 0 0-1.13-.97q-.6-.28-1.36-.28-1.48 0-2.29 1.06-.8 1.06-.8 3.03 0 1.04.19 1.78.17.75.52 1.22t.85.7 1.16.22M365.3 199h-.83a1 1 0 0 1-.44-.08q-.16-.09-.22-.36l-.2-.99q-.43.38-.83.68a5 5 0 0 1-1.78.81q-.5.1-1.1.1-.62 0-1.17-.17a2.5 2.5 0 0 1-1.57-1.4 3 3 0 0 1-.24-1.25q0-.63.35-1.2.34-.6 1.12-1.04.77-.45 2.02-.74 1.25-.3 3.06-.33v-.83q0-1.24-.54-1.88-.52-.63-1.56-.63a3.3 3.3 0 0 0-1.96.56l-.6.39a1 1 0 0 1-.48.17.6.6 0 0 1-.33-.1 1 1 0 0 1-.23-.25l-.33-.6a6 6 0 0 1 1.9-1.27 6 6 0 0 1 2.26-.42q.9 0 1.58.3a3.3 3.3 0 0 1 1.88 2.09q.24.75.24 1.64zm-4.85-1.14a4 4 0 0 0 1.68-.39q.36-.18.69-.44a6 6 0 0 0 .65-.6v-2.22q-1.3.05-2.2.2-.9.18-1.47.43-.57.27-.82.62-.26.36-.26.8 0 .42.14.72a1.4 1.4 0 0 0 .9.79q.33.09.7.09m7.75 1.14v-15.47h1.88v6.37q.66-.77 1.52-1.24a4 4 0 0 1 1.96-.46q.92 0 1.67.34t1.27 1.04.8 1.7a8.7 8.7 0 0 1-.03 4.52 5 5 0 0 1-.9 1.76 4.3 4.3 0 0 1-5.13 1.19q-.72-.4-1.25-1.12l-.1.97q-.08.4-.48.4zm4.75-9.31q-.92 0-1.6.42t-1.27 1.18v5.15q.5.7 1.12.97.6.3 1.37.29 1.5 0 2.29-1.06.8-1.06.8-3.03 0-1.03-.19-1.78-.18-.74-.53-1.22a2 2 0 0 0-.85-.7 3 3 0 0 0-1.14-.22m9-6.16V199h-1.86v-15.47zm7.51 4.67q.96 0 1.77.32a4 4 0 0 1 2.31 2.41q.33.9.33 2.02 0 .45-.1.59-.08.15-.35.15h-7.08q.02 1 .28 1.75.25.75.69 1.24.44.51 1.05.75.6.25 1.37.25a4 4 0 0 0 1.2-.17 6 6 0 0 0 1.5-.7q.24-.15.42-.16.24 0 .36.18l.53.68q-.35.42-.83.73t-1.04.5a6.6 6.6 0 0 1-4.33.03 4.5 4.5 0 0 1-1.61-1.09 5 5 0 0 1-1.06-1.78 7.2 7.2 0 0 1-.03-4.51q.34-.97.98-1.68.64-.7 1.56-1.11.93-.4 2.08-.4m.04 1.37q-1.34 0-2.13.78a3.7 3.7 0 0 0-.96 2.17h5.78q0-.65-.18-1.19t-.52-.93a2.4 2.4 0 0 0-.85-.61 3 3 0 0 0-1.13-.22m10.81 9.43v-15.47h1.87v6.26q.68-.72 1.51-1.16a4 4 0 0 1 1.91-.43q.88 0 1.54.28.67.3 1.11.82.45.53.68 1.28t.23 1.65V199h-1.87v-6.77q0-1.2-.55-1.88-.56-.66-1.68-.66-.83 0-1.55.4a5 5 0 0 0-1.33 1.08V199zm15.98-10.8q1.17 0 2.1.38a4.4 4.4 0 0 1 2.61 2.83q.35 1.01.35 2.27 0 1.27-.35 2.26a5 5 0 0 1-1 1.73q-.67.7-1.6 1.1-.94.38-2.11.38t-2.1-.39a4.4 4.4 0 0 1-1.6-1.1 5 5 0 0 1-1.02-1.72 7 7 0 0 1-.36-2.26q0-1.26.36-2.27a4.5 4.5 0 0 1 2.62-2.83 6 6 0 0 1 2.1-.38m0 9.49q1.57 0 2.35-1.06.78-1.05.78-2.94 0-1.9-.78-2.96t-2.35-1.06q-.8 0-1.39.27t-.98.79a4 4 0 0 0-.59 1.26q-.18.75-.19 1.7 0 .95.2 1.69.19.74.58 1.25.4.51.98.78.6.28 1.39.28m8.99-9.33v6.79q0 1.2.56 1.87.56.66 1.67.66.83 0 1.55-.4a5 5 0 0 0 1.33-1.07v-7.85h1.87V199h-1.11q-.4 0-.5-.39l-.15-1.14q-.69.76-1.56 1.23-.86.47-1.97.47-.87 0-1.54-.3-.66-.27-1.12-.8-.45-.53-.67-1.28a6 6 0 0 1-.23-1.64v-6.79zm16.15 1.76a.4.4 0 0 1-.4.23 1 1 0 0 1-.35-.12l-.49-.25q-.29-.15-.68-.27a3.3 3.3 0 0 0-1.8 0q-.38.13-.65.33-.26.2-.4.5-.15.27-.15.6 0 .4.24.68.24.27.62.47.4.2.89.35l1.01.33q.52.17 1.01.38.5.21.88.53.39.3.63.77.24.45.24 1.1 0 .74-.27 1.35-.26.63-.77 1.09-.52.45-1.26.72-.75.26-1.73.26a5.4 5.4 0 0 1-3.54-1.3l.44-.7q.08-.15.2-.22a1 1 0 0 1 .3-.07.7.7 0 0 1 .4.15l.5.32q.3.18.73.33.43.14 1.07.14.54 0 .95-.14a2 2 0 0 0 .69-.38q.27-.24.4-.56.13-.3.13-.67 0-.45-.23-.73a2 2 0 0 0-.63-.5 5 5 0 0 0-.89-.35q-.5-.14-1.01-.32-.53-.17-1.02-.38a4 4 0 0 1-.89-.54 3 3 0 0 1-.62-.8 3 3 0 0 1-.24-1.17 2.8 2.8 0 0 1 .99-2.16q.48-.42 1.18-.67t1.6-.25q1.05 0 1.9.33.83.33 1.44.9zm5.1-1.76V199h-1.87v-10.64zm.42-3.34q0 .28-.11.51a1.5 1.5 0 0 1-.72.71 1.3 1.3 0 0 1-1.02 0 1.4 1.4 0 0 1-.71-.7q-.1-.24-.1-.52a1.3 1.3 0 0 1 .39-.95q.18-.18.42-.28t.5-.1q.28-.01.52.1a1.4 1.4 0 0 1 .83 1.23m2.88 13.98v-10.64h1.11q.4 0 .5.4l.15 1.15q.7-.77 1.55-1.24a4 4 0 0 1 1.98-.47q.88 0 1.54.28.66.3 1.11.82.45.53.68 1.28t.23 1.65V199h-1.87v-6.77q0-1.2-.55-1.88-.55-.66-1.69-.66-.83 0-1.55.4a5 5 0 0 0-1.32 1.08V199zm15.25-10.81q.7 0 1.3.15t1.1.44h2.89v.7q0 .34-.45.44l-1.2.17q.35.68.35 1.52a3.3 3.3 0 0 1-1.12 2.5q-.54.45-1.26.69-.74.24-1.6.24-.75 0-1.41-.18-.34.22-.51.45a1 1 0 0 0-.18.48q0 .38.3.57.31.2.82.28.5.08 1.14.1l1.3.07q.68.05 1.32.16a4 4 0 0 1 1.14.38q.5.27.81.73.3.45.3 1.2 0 .67-.34 1.32-.33.63-.98 1.14t-1.56.8q-.93.3-2.1.3-1.15 0-2.04-.24a5 5 0 0 1-1.45-.62 3 3 0 0 1-.87-.9q-.28-.51-.28-1.06 0-.79.5-1.34t1.36-.88q-.45-.2-.71-.56a1.5 1.5 0 0 1-.27-.94q0-.22.08-.48.08-.24.26-.48a3 3 0 0 1 1.01-.85q-.78-.45-1.23-1.18a3 3 0 0 1-.45-1.7q0-.79.3-1.41.3-.64.84-1.09.53-.45 1.27-.68a5 5 0 0 1 1.62-.25m3.32 11.39a1 1 0 0 0-.22-.64 1.4 1.4 0 0 0-.6-.38 4 4 0 0 0-.87-.19q-.49-.06-1.04-.09l-1.11-.06q-.57-.03-1.08-.11-.6.28-.97.69a1.4 1.4 0 0 0-.2 1.64q.2.31.57.54.38.23.95.36t1.35.13q.75 0 1.35-.14t1.02-.39.63-.6.22-.76m-3.32-5.78q.57 0 1-.16.45-.15.74-.44.3-.28.44-.67.14-.4.14-.87 0-.98-.59-1.55-.6-.58-1.73-.58t-1.71.58q-.6.57-.6 1.55 0 .47.16.87a2 2 0 0 0 1.17 1.12q.42.15.98.15"/>
<path fill="#f8f8f8" fill-rule="evenodd" d="M136.7 38a18.6 18.6 0 0 1 18.53 18.6v28.14h31.24a18.6 18.6 0 0 1 18.53 18.6v76.06c0 10.26-8.3 18.6-18.53 18.6H63.53A18.6 18.6 0 0 1 45 179.4V56.6C45 46.34 53.3 38 63.53 38zM95.51 142.61a2.6 2.6 0 0 0-2.59 2.58v45.56h17.85v-2.45h.04v-43.1a2.6 2.6 0 0 0-2.57-2.59zm41.2-94.9H63.5a8.9 8.9 0 0 0-8.86 8.9v122.8c0 4.9 3.98 8.89 8.86 8.89h19.76v-43.1c0-6.78 5.5-12.3 12.26-12.3h12.7c6.74 0 12.23 5.52 12.23 12.3v43.1h25.1V56.61a8.9 8.9 0 0 0-8.86-8.9m49.75 46.73h-31.23v93.86h31.23a8.9 8.9 0 0 0 8.86-8.9v-76.07a8.9 8.9 0 0 0-8.86-8.9m-11.64 52.72a4.84 4.84 0 0 1 4.83 4.85v18.47a4.84 4.84 0 1 1-9.66 0V152a4.84 4.84 0 0 1 4.83-4.85m0-43.65a4.84 4.84 0 0 1 4.83 4.85v18.47a4.84 4.84 0 1 1-9.66 0v-18.47a4.84 4.84 0 0 1 4.83-4.85M91.17 66.67c6.74 0 12.23 5.51 12.23 12.28v12.62c0 6.77-5.49 12.28-12.23 12.28H78.58a12.27 12.27 0 0 1-12.23-12.28V78.95c0-6.77 5.49-12.28 12.23-12.28zm0 9.69H78.58a2.6 2.6 0 0 0-2.57 2.58v12.61a2.6 2.6 0 0 0 2.57 2.59h12.59a2.6 2.6 0 0 0 2.57-2.59V78.94a2.6 2.6 0 0 0-2.57-2.58"/>
</g>
</svg>