<svg xmlns="http://www.w3.org/2000/svg" viewBox="0 0 75 75">
<g fill="none">
<path class="icon-base" fill="#4f6a9a" fill-rule="evenodd" d="M0 0h75v75H0z"/>
<path class="icon-detail" fill="#f0f0ec" d="M51.44 17.28q0 .93-.28 1.68-.27.75-.9 1.31-.6.56-1.6.87-.96.3-2.38.3h-12l-1.53 8.77q1.44-.25 2.78-.4t2.6-.15q3.65 0 6.44 1.1 2.8 1.11 4.7 3.03a12.5 12.5 0 0 1 2.87 4.51q.96 2.6.96 5.57 0 3.72-1.31 6.77a15.6 15.6 0 0 1-9.17 8.66 20 20 0 0 1-7.02 1.21q-2.21 0-4.23-.46a20 20 0 0 1-7-3.06q-1.5-1.02-2.7-2.14l2.73-3.71a2.7 2.7 0 0 1 2.24-1.19q.86 0 1.7.51.83.52 1.88 1.14 1.06.63 2.46 1.14t3.43.5q2.09 0 3.61-.68a7 7 0 0 0 2.55-1.89 8 8 0 0 0 1.5-2.85q.5-1.65.5-3.53 0-3.61-2.07-5.59-2.05-1.95-6-1.96-3.23 0-6.5 1.21l-5.46-1.53 3.9-22.85h23.3z"/>
</g>
</svg>