<svg xmlns="http://www.w3.org/2000/svg" viewBox="0 0 75 75">
<g fill="none" fill-rule="evenodd">
<path fill="#d5c79b" d="M0 0h75v75H0z"/>
<path fill="#f8f8f8" d="M41.52 10a6.4 6.4 0 0 1 6.37 6.4v9.67h10.74A6.4 6.4 0 0 1 65 32.46V58.6a6.4 6.4 0 0 1-6.37 6.39H16.37A6.4 6.4 0 0 1 10 58.6V16.4a6.4 6.4 0 0 1 6.37-6.4zM27.36 45.96a.9.9 0 0 0-.89.89V62.5h6.14v-.84h.01V46.85c0-.5-.4-.89-.88-.89zm14.16-32.62H16.36a3.06 3.06 0 0 0-3.04 3.06v42.2a3.06 3.06 0 0 0 3.04 3.07h6.8V46.85a4.2 4.2 0 0 1 4.2-4.22h4.37a4.2 4.2 0 0 1 4.21 4.22v14.82h8.63V16.4a3.06 3.06 0 0 0-3.05-3.06m17.1 16.06H47.9v32.27h10.74a3.06 3.06 0 0 0 3.04-3.06V32.46a3.06 3.06 0 0 0-3.04-3.06m-4 18.12c.92 0 1.67.75 1.67 1.67v6.35a1.66 1.66 0 1 1-3.33 0v-6.35c0-.92.75-1.67 1.67-1.67m0-15c.92 0 1.67.74 1.67 1.67v6.34a1.66 1.66 0 1 1-3.33 0V34.2c0-.93.75-1.67 1.67-1.67M25.88 19.86c2.32 0 4.2 1.89 4.2 4.22v4.33a4.2 4.2 0 0 1-4.2 4.23h-4.33c-2.32 0-4.2-1.9-4.2-4.23v-4.33a4.2 4.2 0 0 1 4.2-4.22zm0 3.33h-4.33c-.48 0-.88.4-.88.88v4.34c0 .5.4.89.88.89h4.33c.49 0 .88-.4.88-.9v-4.33c0-.49-.4-.88-.88-.88"/>
</g>
</svg>