<svg xmlns="http://www.w3.org/2000/svg" viewBox="0 0 75 75">
<g fill="none" fill-rule="evenodd">
<path fill="#4f6a9a" d="M0 0h75v75H0z"/>
<path fill="#f8f8f8" fill-rule="nonzero" d="M19.1 29.84a6.1 6.1 0 0 1 6.13 6.1V58.9a6.13 6.13 0 0 1-6.13 6.11h-2.17a6.1 6.1 0 0 1-6.13-6.1V35.93c0-3.37 2.75-6.1 6.13-6.1ZM39 33.67a6.1 6.1 0 0 1 6.13 6.1V58.9A6.13 6.13 0 0 1 39 65.01h-2.2a6.1 6.1 0 0 1-6.12-6.1V39.77a6.1 6.1 0 0 1 6.12-6.11Zm19.88-12.09A6.13 6.13 0 0 1 65 27.7v31.19c0 3.37-2.75 6.1-6.13 6.1H56.7a6.1 6.1 0 0 1-6.13-6.1v-31.2c0-3.37 2.75-6.1 6.13-6.1zm0 3.2H56.7a2.93 2.93 0 0 0-2.93 2.92v31.2a2.93 2.93 0 0 0 2.93 2.91h2.17a2.93 2.93 0 0 0 2.93-2.92V27.7a2.93 2.93 0 0 0-2.93-2.91m-39.76 8.24h-2.18A2.93 2.93 0 0 0 14 35.94V58.9a2.93 2.93 0 0 0 2.93 2.92h2.18a2.93 2.93 0 0 0 2.93-2.92V35.94a2.93 2.93 0 0 0-2.93-2.92m19.88 3.83H36.8a2.93 2.93 0 0 0-2.93 2.93v19.11a2.93 2.93 0 0 0 2.93 2.92H39a2.93 2.93 0 0 0 2.93-2.92V39.78A2.93 2.93 0 0 0 39 36.85M58.23 10c2.3 0 4.17 1.87 4.17 4.16a4.17 4.17 0 0 1-5.95 3.73l-11.89 8.95q.14.5.15 1.03a4.17 4.17 0 0 1-8.34 0q.01-.75.26-1.4l-5.8-5.32a4.15 4.15 0 0 1-4.76-.59l-7.75 3.6.02.18a4.17 4.17 0 0 1-8.34 0 4.17 4.17 0 0 1 6.97-3.06l7.74-3.6-.02-.18a4.17 4.17 0 0 1 8.34 0q-.01.61-.19 1.17l5.95 5.44a4.1 4.1 0 0 1 3.84.19l11.68-8.8a4 4 0 0 1-.25-1.34A4.17 4.17 0 0 1 58.23 10"/>
</g>
</svg>