<svg xmlns="http://www.w3.org/2000/svg" viewBox="0 0 75 75">
<g fill="none">
<path class="icon-base" fill="#4f6a9a" fill-rule="evenodd" d="M0 0h75v75H0z"/>
<path class="icon-detail" fill="#f0f0ec" d="M38.5 13.06q3.34 0 5.98.94 2.64.95 4.46 2.58a11.2 11.2 0 0 1 3.78 8.48q0 2.2-.48 3.88a8.5 8.5 0 0 1-3.63 5.04q-1.33.87-3.06 1.44 8.03 2.7 8.03 10.66 0 3.55-1.31 6.26a13 13 0 0 1-3.52 4.52 15 15 0 0 1-5.14 2.74q-2.93.9-6.13.91-3.39 0-5.98-.77a14 14 0 0 1-4.56-2.3 14 14 0 0 1-3.38-3.86 28 28 0 0 1-2.46-5.42l3.9-1.6a5 5 0 0 1 2.87-.35q1.32.29 1.9 1.4.64 1.22 1.36 2.25a9 9 0 0 0 1.62 1.77 6.7 6.7 0 0 0 4.64 1.59q1.86 0 3.23-.61 1.38-.6 2.3-1.59a7 7 0 0 0 1.86-4.66q0-1.59-.29-2.89t-1.33-2.2a7 7 0 0 0-3.07-1.41q-2.03-.5-5.52-.5v-6.2q2.91 0 4.77-.49a8 8 0 0 0 2.91-1.34 4.5 4.5 0 0 0 1.46-2.08q.4-1.22.4-2.66 0-3.03-1.59-4.64-1.57-1.6-4.5-1.6a7.2 7.2 0 0 0-4.26 1.38q-.85.64-1.46 1.5-.6.86-.9 1.89-.6 1.6-1.56 2.13t-2.79.24l-4.64-.83q.51-3.4 1.92-5.96a14 14 0 0 1 8.34-6.8q2.7-.84 5.84-.84"/>
</g>
</svg>