<svg xmlns="http://www.w3.org/2000/svg" viewBox="0 0 75 75">
<g fill="none">
<path class="icon-base" fill="#4f6a9a" fill-rule="evenodd" d="M0 0h75v75H0z"/>
<path class="icon-detail" fill="#f0f0ec" d="M38.28 13.06q3.3 0 6 .97a14 14 0 0 1 4.63 2.72 12 12 0 0 1 2.97 4.21q1.06 2.47 1.06 5.44 0 2.56-.74 4.74a19 19 0 0 1-2 4.14 30 30 0 0 1-2.92 3.82q-1.67 1.86-3.52 3.75L33.9 52.93q1.64-.45 3.23-.74 1.6-.29 3.01-.29h10.43q1.44 0 2.26.8t.81 2.12V60H21.45v-2.88q0-.83.35-1.8.35-.99 1.19-1.78l13.76-13.8a50 50 0 0 0 3.1-3.37 23 23 0 0 0 2.24-3.17q.9-1.55 1.35-3.15t.44-3.36q0-3.1-1.6-4.72t-4.5-1.62a7.2 7.2 0 0 0-4.28 1.38q-.84.64-1.46 1.5-.6.86-.9 1.89-.57 1.6-1.54 2.13t-2.77.24l-4.67-.83q.51-3.4 1.92-5.96a14 14 0 0 1 8.35-6.8q2.71-.84 5.85-.84"/>
</g>
</svg>