<svg xmlns="http://www.w3.org/2000/svg" viewBox="0 0 75 75">
<g fill="none" fill-rule="evenodd">
<path fill="#4f6a9a" d="M0 0h75v75H0z"/>
<path fill="#f8f8f8" d="M57.34 36.2c-.9 0-1.61.73-1.61 1.62v20.96a2.97 2.97 0 0 1-2.96 2.98h-7.72l.01-10.54c0-4.22-3.4-7.64-7.58-7.64a7.6 7.6 0 0 0-7.6 7.64v10.54h-7.7a2.97 2.97 0 0 1-2.95-2.98V37.82a1.61 1.61 0 1 0-3.23 0v20.96A6.2 6.2 0 0 0 22.18 65h9.3c.9 0 1.62-.72 1.62-1.62l.01-12.16c0-2.43 1.96-4.4 4.37-4.4 2.4 0 4.36 1.97 4.36 4.4v12.16a1.6 1.6 0 0 0 1.6 1.62h9.33a6.2 6.2 0 0 0 6.18-6.22V37.82c0-.9-.72-1.62-1.61-1.62m8.07-3.59L38.52 10.35q-.07-.05-.15-.08a2 2 0 0 0-.57-.24 1.6 1.6 0 0 0-1.17.24l-.15.08L9.58 32.6a1.63 1.63 0 0 0 1.03 2.87c.36 0 .73-.12 1.03-.37L37.5 13.7l25.86 21.42a1.6 1.6 0 0 0 2.27-.22c.57-.69.47-1.7-.22-2.28"/>
</g>
</svg>