<svg xmlns="http://www.w3.org/2000/svg" viewBox="0 0 330 73">
<g fill="none" fill-rule="evenodd">
<path class="logo-type" fill="#182952" d="M86.29 13.92q-2.6-.01-4.48.73c-3.85 1.74-5.25 4.98-5.25 9 0 4.03.17 2.58.56 3.7 1.23 4.3 4.97 5.92 9.17 5.92 6.32 0 9.4-3.4 9.4-9.67-.34-6.1-3.08-9.68-9.4-9.68M99.04 44.4a44 44 0 0 1-2.07-6.32c-2.85 4.64-7.16 6.77-12.47 6.77-11.91 0-20.41-10.01-20.41-21.42 0-11.4 9.84-21.08 22.25-21.08s21.6 8.5 21.93 21.25q.06 1.6.05 3.86c0 5.81.9 11.69 3.25 17H99.1zm71.02-41.66v20.8c0 12.75-8.83 21.25-21.25 21.25s-21.25-8.89-21.25-21.25V2.74h12.47v20.8c0 5.6 2.85 9.68 8.72 9.68s8.73-4.03 8.73-9.68V2.74zm32.5 41.66h-12.48V23.66c0-13.82 10.18-21.31 22.99-21.31s1 0 1.56.05c.56.12 1.23.23 1.85.34v12.08l-1.51-.22a8 8 0 0 0-1.51-.17c-2.07 0-3.75.22-5.15.67-2.35.84-4.42 2.4-5.14 4.92-.4 1.06-.56 2.35-.56 3.58v20.8zm72.36-41.66v20.8c0 12.75-8.84 21.25-21.25 21.25S232.4 35.9 232.4 23.54V2.74h12.48v20.8c0 5.6 2.85 9.68 8.72 9.68s8.72-4.03 8.72-9.68V2.74h12.59m18.06 28.63c5.48 1.68 12.41 2.02 18.06 2.02s4.03-.12 5.26-.34q1.74-.26 1.73-1.17c0-.62-.05-.4-.22-.68-.84-.83-2.69-1.23-3.75-1.5l-4.25-.9-4.98-1c-6.48-1.4-11.52-5.1-11.52-12.09 0-10.34 10.07-13.42 18.57-13.42s10.68.73 15.94 1.85v11.74c-5.26-1.56-11.19-2.01-16.67-2.01s-3.69.05-4.58.33c-.9.23-1.4.68-1.4 1.18q0 1.1 2.18 1.5c1.4.34 3.41.74 5.82 1.18q3.26.6 6.26 1.35c6.15 1.56 10.57 4.92 10.57 11.57 0 11.19-11.24 13.93-20.24 13.93s-11.24-.73-16.72-1.85V31.37zM67.78 58.16h2.74v14.1h-2.74Zm16 14.1h-2.75v-14.1h2.74l4.87 8.33 4.86-8.33h2.8v14.1h-2.8v-9.01l-3.46 5.81H87.3l-3.53-5.81zm25.66-11.53v4.08h3.47a2.07 2.07 0 1 0 0-4.13h-3.47zm-2.74-2.57h6.2c2.64 0 4.87 1.96 4.87 4.64a4.74 4.74 0 0 1-4.86 4.64h-3.47v4.87h-2.74zm27.46 8.33-1.96-5.25-1.96 5.25h3.97zm-4.98 2.57-1.17 3.2h-3.02l5.76-14.1h2.74l5.76 14.1h-3.02l-1.18-3.2h-5.92zm29.25 2.86c-1.29.39-2.63.5-4.03.5-4.36 0-7.1-3.02-7.1-7.21 0-4.2 2.9-7.22 7.1-7.22s2.69.11 4.03.5v2.86a9 9 0 0 0-3.86-.67c-3.08 0-4.47 1.62-4.47 4.47s1.56 4.53 4.47 4.53 2.85-.17 3.86-.67zm20.35-13.76v2.57h-4.36v11.52h-2.8V60.73h-4.36v-2.57zm32.38 13.76c-1.28.39-2.62.5-4.02.5-4.36 0-7.1-3.02-7.1-7.21 0-4.2 2.9-7.22 7.1-7.22s2.68.11 4.02.5v2.86a9 9 0 0 0-3.85-.67c-3.08 0-4.48 1.62-4.48 4.47s1.57 4.53 4.48 4.53c2.9 0 2.85-.17 3.85-.67zm17.68-5.43-1.96-5.25-1.96 5.25h3.97zm-4.93 2.57-1.17 3.2h-3.02l5.76-14.1h2.74l5.76 14.1h-3.02l-1.17-3.2h-5.93zm21.98-8.33v4.08h3.47a2.07 2.07 0 1 0 0-4.13h-3.47zm-2.74-2.57h6.2c2.64 0 4.87 1.96 4.87 4.64a4.74 4.74 0 0 1-4.86 4.64h-3.47v4.87h-2.74zm20.64 0h2.74v14.1h-2.74Zm23.7 0v2.57h-4.35v11.52h-2.8V60.73h-4.36v-2.57zm15.72 8.33-1.95-5.25-1.96 5.25h3.97zm-4.92 2.57-1.17 3.2h-3.02l5.76-14.1h2.74l5.76 14.1h-3.02l-1.18-3.2h-5.92zm29.42 3.2h-10.18v-14.1h2.8v11.52h7.38z"/>
<path class="logo-mark-1" fill="#b3ae93" d="M0 0h47.87v47.92H0z"/>
<path class="logo-mark-2" fill="#e6b133" d="M0 58.28h47.87v4.2H0z"/>
</g>
</svg>